<svg width="24" height="24" fill="none" xmlns="http://www.w3.org/2000/svg"><path fill-rule="evenodd" clip-rule="evenodd" d="M9.6 6a2.4 2.4 0 114.8 0 2.4 2.4 0 01-4.8 0zM12 2a4 4 0 100 8 4 4 0 000-8zm8.242 11.593a14.375 14.375 0 00-16.099-.236l-.33.216A1.8 1.8 0 003 15.079v4.12A1.8 1.8 0 004.8 21h14.4a1.8 1.8 0 001.8-1.8v-4.155a1.77 1.77 0 00-.758-1.451zM5.02 14.696a12.775 12.775 0 0114.307.21.17.17 0 01.072.138V19.2a.2.2 0 01-.2.2H4.8a.2.2 0 01-.2-.2v-4.121a.2.2 0 01.09-.168l.33-.215z" fill="#33363D"/></svg>