<svg width="16" height="16" fill="none" xmlns="http://www.w3.org/2000/svg"><path d="M8.514 1.852a.52.52 0 10-1.039 0v1.743a.52.52 0 001.039 0V1.852zm-5.777.863a.52.52 0 00-.7.767l1.442 1.316a.52.52 0 00.7-.768L2.737 2.715zm11.215.767a.52.52 0 10-.7-.767L11.81 4.03a.52.52 0 00.7.768l1.442-1.316zm-2.041 6.185a.667.667 0 00.639-.86l-.801-2.67a.667.667 0 00-.64-.475H4.896a.667.667 0 00-.64.476l-.8 2.67a.667.667 0 00.638.859h7.818zM13.347 14H2.657c-.405 0-.607 0-.743-.084a.556.556 0 01-.241-.325c-.042-.154.016-.348.132-.736l.434-1.445c.062-.208.093-.312.152-.39a.556.556 0 01.255-.19c.092-.034.2-.034.418-.034h9.877c.217 0 .326 0 .418.034.102.037.19.103.255.19.059.079.09.182.152.39l.434 1.444c.116.389.174.583.132.737a.556.556 0 01-.242.325c-.135.084-.338.084-.743.084z" fill="#6D7882"/></svg>