<svg width="24" height="24" fill="none" xmlns="http://www.w3.org/2000/svg"><path d="M6.364 9.642a.678.678 0 00-.688.668.68.68 0 00.688.669c.38 0 .688-.3.688-.67a.677.677 0 00-.688-.667zm6.803-.07a.73.73 0 00-.742.72c0 .397.332.72.742.72s.742-.323.742-.72a.73.73 0 00-.742-.72zm3.83.72c0-.388.325-.703.725-.703.4 0 .725.315.725.703a.715.715 0 01-.725.703.715.715 0 01-.725-.703z" fill="#303336"/><path fill-rule="evenodd" clip-rule="evenodd" d="M4.676 3h14.65C20.803 3 22 4.163 22 5.596v8.437c0 1.434-1.198 2.597-2.675 2.597h-5.128l-1.76 4.023s-.12.348-.414.348c-.292 0-.414-.348-.414-.348L9.85 16.63H4.676C3.198 16.63 2 15.467 2 14.033V5.597C2 4.163 3.198 3 4.676 3zm1.955 9.044S8.274 12 8.283 10.458H8.28s.222-1.803-1.55-1.963c0 0-.813-.009-1.094.457V7.121s-1.122.014-1.197.003V7.12c-.006.001 0 .003 0 .003v4.79h1.197v-.279s.358.409.994.409zm3.758-.122v-3.28s.135-1.602-1.736-1.676v1.145s.565.123.565.565v3.246h1.171zm.813-1.629c0 .968.879 1.754 1.964 1.754s1.963-.786 1.963-1.754-.878-1.753-1.963-1.753-1.964.785-1.964 1.753zm6.653 3.42c1.745 0 1.728-1.666 1.728-1.666v-3.46h-1.188v.35c-.39-.507-1.02-.441-1.02-.441-1.601.114-1.635 1.545-1.635 1.545v.524c0 1.38 1.458 1.482 1.458 1.482 1.028 0 1.171-.445 1.171-.445.009 1.097-.725 1.031-.725 1.031h-.32v1.08h.53z" fill="#303336"/></svg>