<svg width="12" height="13" fill="none" xmlns="http://www.w3.org/2000/svg"><path d="M3.196.574H1.764a1.19 1.19 0 00-1.189 1.19v9.135c0 .657.532 1.19 1.19 1.19h1.431V.573z" fill="#E6E8EA"/><path d="M8.452 0a3.044 3.044 0 013.04 3.04v6.583a3.045 3.045 0 01-3.04 3.041H1.765a1.768 1.768 0 01-1.362-.643A1.757 1.757 0 010 10.9V1.764C0 .79.792 0 1.765 0h6.687zM1.641 1.162a.615.615 0 00-.49.602v9.135c0 .339.275.615.614.615h.856V1.149h-.856a.616.616 0 00-.124.013zm2.13 10.352h4.681c1.042 0 1.89-.849 1.89-1.891V3.04c0-.808-.51-1.497-1.224-1.768V4.42a.313.313 0 01-.512.24l-.808-.668a.312.312 0 00-.398 0l-.808.668a.312.312 0 01-.51-.24V1.15h-2.31v10.365z" fill="#58616A"/></svg>