<svg width="32" height="32" fill="none" xmlns="http://www.w3.org/2000/svg"><g clip-path="url(#clip0_564_25680)"><rect width="32" height="32" rx="2" fill="#063A74"/><path d="M25.645 18.266c-.554-.601-1.784-.902-3.445-.902-.984 0-2.03.12-3.26.3a15.188 15.188 0 01-3.199-4.148c.615-1.804 1.046-3.548 1.046-4.87 0-1.023-.37-2.646-1.845-2.646-.431 0-.8.24-1.046.601-.615 1.083-.37 3.488.8 6.013a53.353 53.353 0 01-3.076 7.035c-3.26 1.322-5.413 2.766-5.598 3.908C5.9 24.098 6.268 25 7.56 25c1.907 0 3.998-2.706 5.598-5.471a39.217 39.217 0 015.659-1.444c2.337 1.985 4.367 2.285 5.351 2.285 1.969 0 2.153-1.383 1.477-2.104zM14.203 6.782c.492-.722 1.6-.481 1.6.962 0 .962-.308 2.525-.923 4.329-1.107-2.526-1.107-4.51-.677-5.291zM6.391 23.617c.185-.962 2.03-2.285 4.921-3.427-1.599 2.645-3.198 4.329-4.182 4.329-.616 0-.8-.541-.739-.902zm12.118-5.892c-1.733.315-3.44.758-5.105 1.322a26.914 26.914 0 002.214-5.05 19.707 19.707 0 002.891 3.728zm.8.24c1.968-.3 3.63-.24 4.367-.12 1.784.36 1.169 2.465-.8 1.984-1.414-.3-2.583-1.082-3.567-1.864z" fill="#fff"/></g><defs><clipPath id="clip0_564_25680"><path d="M0 6a6 6 0 016-6h20a6 6 0 016 6v20a6 6 0 01-6 6H6a6 6 0 01-6-6V6z" fill="#fff"/></clipPath></defs></svg>