<svg width="32" height="32" fill="none" xmlns="http://www.w3.org/2000/svg"><g clip-path="url(#clip0_564_25740)"><rect width="32" height="32" rx="2" fill="#063A74"/><path d="M16.727 10.247l-3.52 5.977 3.766 6.347c.078.144 0 .175-.114.175h-2.687c-.19 0-.322-.006-.398-.136a265.44 265.44 0 00-.757-1.51 52.249 52.249 0 00-.804-1.527 89.449 89.449 0 01-.842-1.577c-.253.519-.533 1.038-.804 1.557-.272.52-.54 1.035-.805 1.548a69.484 69.484 0 01-.813 1.528c-.051.117-.14.13-.265.13H6.09c-.102 0-.114-.078-.057-.169l3.653-6.171-3.558-6.192c-.065-.088-.01-.182.094-.175h2.669a.305.305 0 01.284.136c.227.52.48 1.039.757 1.558.277.52.558 1.032.842 1.538.284.506.564 1.019.804 1.538a58.16 58.16 0 01.767-1.557c.258-.507.523-1.016.794-1.529.272-.512.533-1.022.786-1.528.033-.111.114-.167.227-.156h2.479c.095 0 .134.13.095.195zM22.158 23c-1.67.025-3.417-.664-4.296-2.191-.43-.733-.644-1.651-.643-2.755a5.198 5.198 0 01.643-2.55c1.106-1.983 3.334-2.726 5.45-2.531V9.137c0-.09.038-.136.114-.136h2.384c.066-.01.123.05.114.117v11.506c0 .475.047.948.076 1.421a.206.206 0 01-.114.195 9.577 9.577 0 01-3.728.76zm1.154-2.415V15.27c-1.728-.482-3.406.839-3.406 2.667-.041 1.89 1.583 3.197 3.406 2.648z" fill="#fff"/></g><defs><clipPath id="clip0_564_25740"><path d="M0 6a6 6 0 016-6h20a6 6 0 016 6v20a6 6 0 01-6 6H6a6 6 0 01-6-6V6z" fill="#fff"/></clipPath></defs></svg>