<svg width="24" height="24" fill="none" xmlns="http://www.w3.org/2000/svg"><g clip-path="url(#clip0_887_44026)"><path d="M0 4h24v16H0V4z" fill="#fff"/><path d="M8.672 9.781a4 4 0 016.656 4.438L8.672 9.78z" fill="#D0303C"/><path d="M8.672 9.781a4 4 0 106.656 4.438A2 2 0 0012 12L8.672 9.781z" fill="#134A9D"/><path d="M12 12a2 2 0 10-3.328-2.219A2 2 0 0012 12.001z" fill="#D0303C"/><path d="M3.68 8.857l2.219-3.329.554.37-2.219 3.328-.554-.37zm.832.554L6.73 6.083l.554.37L5.067 9.78l-.555-.37zm.832.555l2.219-3.328.554.37L5.9 10.336l-.555-.37zm13.96 6.703l1.017-1.526-.555-.37-1.017 1.526.555.37zm-.832-.555l1.017-1.526-.555-.37-1.017 1.526.555.37zm-.74-.093l.555.37-1.017 1.526-.555-.37 1.017-1.526zm-.092-.461l1.017-1.526-.555-.37-1.017 1.525.555.37zm-.74-.093l.555.37-1.017 1.525-.555-.37 1.017-1.525zm1.664 1.109l.555.37-1.017 1.525-.555-.37 1.017-1.525zm-1.109-8.413l-1.017-1.525-.555.37L16.9 8.533l.555-.37zm-.37.647l1.017 1.526.555-.37-1.017-1.525-.555.37zm1.849.971l-2.219-3.328.555-.37 2.219 3.328-.555.37zm.832-.555l-1.017-1.525.555-.37 1.017 1.526-.555.37zm-.647-2.172l-.555.37-1.017-1.526.555-.37 1.017 1.526zM3.68 15.143l2.218 3.328.555-.37-2.219-3.327-.554.37zm2.034 1.248l1.017 1.526.554-.37-1.017-1.525-.554.37zm-.185-.277l.554-.37-1.017-1.525-.554.37 1.017 1.525zm-.185-2.08l2.219 3.328.554-.37-2.219-3.328-.554.37z" fill="#000"/></g><defs><clipPath id="clip0_887_44026"><path fill="#fff" transform="translate(0 4)" d="M0 0h24v16H0z"/></clipPath></defs></svg>