<svg width="16" height="16" fill="none" xmlns="http://www.w3.org/2000/svg"><g clip-path="url(#clip0_2428_21989)"><path d="M12.672 2.683c1.004 0 1.818.814 1.818 1.818v7.008a1.819 1.819 0 01-1.818 1.818H3.328A1.819 1.819 0 011.51 11.51V4.5c0-1.004.814-1.818 1.818-1.818h9.344zM8.938 8.978a1.819 1.819 0 01-1.871 0l-4.256-2.71v5.24c0 .287.231.52.517.52h9.344a.519.519 0 00.518-.52v-5.24l-4.252 2.71zm-5.61-4.995a.518.518 0 00-.517.518v.227l4.935 3.141a.518.518 0 00.512 0l4.932-3.14V4.5a.518.518 0 00-.518-.518H3.328z" fill="#58616A"/></g><defs><clipPath id="clip0_2428_21989"><path fill="#fff" d="M0 0h16v16H0z"/></clipPath></defs></svg>