<svg width="24" height="24" fill="none" xmlns="http://www.w3.org/2000/svg"><path fill-rule="evenodd" clip-rule="evenodd" d="M4.8 4.6a.2.2 0 00-.2.2v8.096l3.368-2.994a.8.8 0 01.988-.059L19.4 17.108V4.8a.2.2 0 00-.2-.2H4.8zm-.2 14.6v-4.163l3.96-3.52 10.84 7.54v.143a.2.2 0 01-.2.2H4.8a.2.2 0 01-.2-.2zM3 4.8A1.8 1.8 0 014.8 3h14.4A1.8 1.8 0 0121 4.8v14.4a1.8 1.8 0 01-1.8 1.8H4.8A1.8 1.8 0 013 19.2V4.8zm11.998 3.5a.7.7 0 111.4 0 .7.7 0 01-1.4 0zm.7-2.3a2.3 2.3 0 100 4.6 2.3 2.3 0 000-4.6z" fill="#33363D"/></svg>