<svg width="1360" height="370" viewBox="138 130 1360 370" xmlns="http://www.w3.org/2000/svg"><mask id="a" style="mask-type:luminance" maskUnits="userSpaceOnUse" x="0" y="0" width="1632" height="662"><path d="M0 0h1632v661.333H0V0z" fill="#fff"/></mask><g mask="url(#a)"><path d="M1490.59 329.497h-32.81V214.819h32.81v114.692-.014zm-95.31-99.864h41.17v23.938h-41.14c.27 11.231 4.17 21.643 11.84 31.28l1.65 1.974c8.37 9.841 19.95 17.988 34.78 24.377l1.42.615-.99 1.198-13.59 16.672-.53.658-.79-.292c-11.07-4.154-21.48-9.9-31.17-17.242-8.95-6.917-15.52-13.82-19.69-20.721-4.4 6.901-11.16 13.819-20.25 20.721-9.98 7.604-20.57 13.424-31.8 17.446l-.87.306-.5-.745-11.32-16.465-.79-1.142 1.26-.585c14.02-6.521 25.34-14.74 33.98-24.611l1.77-2.062c8.25-9.974 12.45-20.428 12.73-31.396h-41.14v-23.939h41.16v-15.852h32.81v15.867zm16.96 128.686c-13.51 0-24.39 1.566-32.74 4.651l-3.42 1.419c-7.81 3.64-11.26 7.925-11.26 12.722 0 4.796 3.43 8.876 11.26 12.518 8.7 4.152 20.71 6.273 36.15 6.273 15.42 0 27.9-2.121 36.75-6.273 7.97-3.656 11.48-7.883 11.48-12.518 0-4.636-3.51-9.082-11.46-12.722-8.85-4.007-21.08-6.07-36.77-6.07h.01zm0-24.568c25.62 0 45.99 4.402 60.91 13.338 13.39 8.086 20.31 18.162 20.31 30.226-.14 11.934-7.15 21.863-20.54 29.803-14.93 8.935-35.18 13.336-60.69 13.336-25.52 0-45.57-4.401-60.52-13.336-13.25-7.955-20.11-17.884-20.11-29.817 0-11.934 6.86-22.126 20.11-30.212 15.07-8.936 35.26-13.338 60.5-13.338h.03z" fill="#040000"/></g><mask id="b" style="mask-type:luminance" maskUnits="userSpaceOnUse" x="0" y="0" width="1632" height="662"><path d="M0 0h1632v661.333H0V0z" fill="#fff"/></mask><g mask="url(#b)"><path d="M1266.45 294.592c0 16.626-.62 31.352-1.86 44.148-1.32 13.482-3.35 26.016-6.07 37.612h18.21v24.552h-181.2v-24.552h50.84v-57.618h32.8v57.618h46.69c2.34-8.936 4.19-19.42 5.53-31.471 1.46-12.927 2.21-26.833 2.25-41.72h-126.79v-24.553h126.79v-35.331h-127.63v-24.348h160.42v75.663h.02z" fill="#040000"/></g><mask id="c" style="mask-type:luminance" maskUnits="userSpaceOnUse" x="0" y="0" width="1632" height="662"><path d="M0 0h1632v661.333H0V0z" fill="#fff"/></mask><g mask="url(#c)"><path d="M933.077 237.72c-7.257 0-13.323 6.055-17.832 19.552-3.935 12.341-5.925 28.325-5.925 48.008 0 21.336 1.99 38.416 5.925 51.3l.835 2.529c4.298 12.167 10.062 17.651 16.984 17.651 3.653 0 6.948-1.564 9.872-4.855 2.966-3.32 5.554-8.408 7.734-15.325 4.068-12.869 6.13-29.949 6.13-51.3 0-19.683-2.062-35.667-6.115-47.993-4.503-13.527-10.497-19.567-17.621-19.567h.013zm.204-23.939c18.211 0 32.431 9.36 42.613 27.756 9.459 16.831 14.13 38.167 14.13 63.948 0 27.288-4.684 49.588-14.13 66.815-10.034 18.805-24.241 28.384-42.6 28.384-18.358 0-32.838-9.564-43.02-28.384-9.312-17.241-13.92-39.541-13.92-66.815 0-25.781 4.608-47.132 13.92-63.948 10.33-18.41 24.676-27.756 43.02-27.756h-.013zM1045.6 415.103h-32.79V214.82h32.79v200.297-.014z" fill="#040000"/></g><mask id="d" style="mask-type:luminance" maskUnits="userSpaceOnUse" x="0" y="0" width="1632" height="662"><path d="M0 0h1632v661.333H0V0z" fill="#fff"/></mask><g mask="url(#d)"><path d="M710.389 269c-8.6 0-15.476 5.016-20.566 15.589-4.433 9.403-6.685 21.028-6.685 34.907 0 14.973 2.252 27.914 6.713 38.853l.982 2.253c5.017 10.879 11.569 15.954 19.542 15.954 8.512 0 15.534-5.791 20.946-18.236l1.71-4.24c3.731-10.091 5.603-21.63 5.603-34.6 0-13.718-2.443-25.328-7.284-34.863C725.982 274.03 718.975 269 710.359 269h.03zm17.012-40.406h43.018v24.348h-32.297c10.721 6.246 19.045 15.898 24.955 28.942l1.286 2.997c6.115 15.151 8.192 31.543 6.262 49.135-2.078 17.884-8.06 33.064-17.948 45.464-11.175 14.112-25.306 21.22-42.288 21.22-16.983 0-31.272-7.327-42.316-21.863-9.758-12.693-15.17-28.019-16.28-45.904l-.323-7.063c-.395-16.188 1.639-30.256 6.159-42.202l1.14-2.867c5.266-12.473 13.194-21.775 23.798-27.859h-32.004v-24.348h44.043v-14.813h32.795v14.813zm92.84 66.479h20.785v24.963h-20.785v95.068h-32.795V214.82h32.795v80.253z" fill="#040000"/></g><path d="M348.964 195.625c-60-27.293-127.203-41.202-199.908-44.969l31.287 274.521c49.468-3.445 97.472 5.49 143.905 27.807v-.012c-21.153-57.748-22.117-119.881 2.328-187.54.155 36.445 5.992 70.707 21.641 101.239 34.18-27.126 75.535-40.162 121.778-43.659-68.978 35.161-108.199 83.383-121.302 143.035l.259.153c54.045-31.96 110.317-45.073 168.62-41.023 10.429-91.494 20.859-183.001 31.287-274.521-72.706 3.767-139.907 17.676-199.895 44.969zm-16.833 18.551l5.285 22.42 23.417 1.928-20.15 11.853 5.374 22.408-17.732-15.105-20.1 11.931 9.195-21.187-17.797-15.041 23.404 2.017 9.104-21.224zm9.734 111.896c0-10.233 8.488-18.551 18.942-18.551s18.941 8.304 18.941 18.551c0 10.247-8.487 18.551-18.941 18.551-10.454 0-18.942-8.316-18.942-18.551z" fill="url(#paint0_linear_4_2)"/><mask id="e" style="mask-type:luminance" maskUnits="userSpaceOnUse" x="0" y="0" width="1632" height="662"><path d="M0 0h1632v661.333H0V0z" fill="#fff"/></mask><g mask="url(#e)"><path d="M346.906 486.01c-.668-.399-1.492-.9-2.456-1.479-.488-.296-1.002-.604-1.556-.937-.565-.323-1.17-.656-1.8-1.016-1.273-.72-2.674-1.517-4.217-2.392-1.556-.835-3.255-1.735-5.055-2.7a273.555 273.555 0 00-12.434-6.119c-.579-.269-1.156-.54-1.748-.822-.606-.258-1.196-.527-1.814-.798-1.222-.54-2.469-1.08-3.729-1.632-1.26-.565-2.585-1.066-3.909-1.62-1.338-.54-2.675-1.105-4.051-1.645-1.388-.528-2.791-1.055-4.217-1.595-.72-.269-1.428-.54-2.148-.809l-2.199-.772c-1.479-.515-2.971-1.041-4.488-1.568-1.529-.489-3.073-.991-4.629-1.492a138.552 138.552 0 00-4.732-1.452c-1.607-.463-3.202-.964-4.848-1.415a1177.95 1177.95 0 01-4.951-1.337c-1.659-.463-3.356-.835-5.04-1.259a149.878 149.878 0 00-5.119-1.182c-1.722-.374-3.446-.746-5.169-1.119-3.485-.668-6.983-1.363-10.519-1.916-1.761-.295-3.524-.591-5.31-.823-1.775-.244-3.55-.513-5.324-.732l-5.336-.617c-1.776-.219-3.55-.335-5.324-.515-.888-.077-1.775-.153-2.65-.23-.886-.078-1.761-.116-2.649-.182-1.761-.102-3.509-.23-5.259-.32-3.497-.142-6.944-.309-10.364-.322-3.408-.09-6.764 0-10.056.026-1.646.039-3.266.115-4.874.167-.798.025-1.607.064-2.391.091-.797.05-1.583.089-2.367.14-1.569.104-3.112.193-4.629.296-1.517.129-3.021.27-4.488.386-2.957.231-5.773.604-8.512.899-2.727.323-5.324.733-7.807 1.08-1.092.18-2.16.348-3.201.528l-17 22.844s.811-.283 2.328-.809c1.504-.515 3.832-1.363 6.404-2.148.656-.218 1.363-.436 2.083-.668.72-.244 1.492-.488 2.34-.72 1.66-.475 3.46-1.003 5.388-1.543 1.942-.501 4.012-1.053 6.212-1.593 2.21-.49 4.525-1.068 6.969-1.57 2.456-.474 4.989-1.04 7.664-1.477 1.337-.232 2.688-.464 4.063-.708 1.389-.205 2.79-.411 4.218-.616.707-.104 1.44-.207 2.16-.309l2.199-.27c1.479-.18 2.971-.348 4.488-.528 3.035-.269 6.135-.617 9.311-.796 3.162-.257 6.404-.361 9.694-.501 1.647-.052 3.294-.065 4.951-.104.836 0 1.672-.039 2.508-.039.836 0 1.672 0 2.521.014 1.684.025 3.368 0 5.067.064 1.696.052 3.393.104 5.092.154 1.696.078 3.407.18 5.117.283 1.711.077 3.42.219 5.131.36 3.421.244 6.828.631 10.223.989 1.697.219 3.382.439 5.066.656 1.699.207 3.356.463 5.028.734 1.659.269 3.344.488 4.978.797 1.645.296 3.278.591 4.912.887 1.632.296 3.226.656 4.834.977 1.595.32 3.19.655 4.746 1.028 1.568.36 3.124.72 4.654 1.08 1.53.399 3.035.784 4.54 1.157.746.192 1.491.386 2.236.579.734.205 1.467.411 2.187.616 1.453.412 2.881.811 4.295 1.221 1.402.412 2.778.862 4.141 1.274 1.349.437 2.713.809 4.012 1.272 1.299.437 2.584.874 3.844 1.298.631.206 1.26.424 1.879.63.617.22 1.208.45 1.812.669a309.249 309.249 0 0112.974 5.001c1.904.81 3.679 1.556 5.324 2.263 1.622.732 3.112 1.413 4.463 2.017.668.31 1.312.592 1.916.863.591.283 1.144.552 1.659.796 1.029.501 1.902.925 2.622 1.26 1.428.695 2.187 1.055 2.187 1.055s-.708-.426-2.045-1.235h-.026z" fill="#2BB178"/></g><mask id="f" style="mask-type:luminance" maskUnits="userSpaceOnUse" x="0" y="0" width="1632" height="662"><path d="M0 0h1632v661.333H0V0z" fill="#fff"/></mask><g mask="url(#f)"><path d="M351.009 486.01c.669-.399 1.492-.9 2.456-1.479.488-.296 1.003-.604 1.556-.937.565-.323 1.171-.656 1.8-1.016 1.273-.72 2.675-1.517 4.219-2.392 1.556-.835 3.253-1.735 5.053-2.7a273.628 273.628 0 0112.435-6.119c.578-.269 1.157-.54 1.748-.822.605-.258 1.197-.527 1.813-.798 1.223-.54 2.469-1.08 3.729-1.632 1.26-.565 2.586-1.066 3.91-1.62 1.337-.54 2.674-1.105 4.05-1.645 1.39-.528 2.791-1.055 4.218-1.595.721-.269 1.428-.54 2.148-.809l2.198-.772c1.479-.515 2.984-1.041 4.488-1.568 1.531-.489 3.074-.991 4.63-1.492 1.556-.513 3.138-.989 4.732-1.452 1.608-.463 3.202-.964 4.848-1.415 1.646-.436 3.292-.886 4.95-1.337 1.659-.463 3.356-.835 5.042-1.259 1.684-.412 3.394-.824 5.117-1.182l5.169-1.119c3.486-.668 6.983-1.363 10.519-1.916 1.763-.295 3.524-.591 5.311-.823 1.776-.244 3.549-.513 5.324-.732 1.788-.206 3.549-.412 5.324-.617 1.774-.219 3.549-.335 5.324-.515.886-.077 1.774-.153 2.649-.23.887-.078 1.761-.116 2.648-.182 1.761-.102 3.511-.23 5.259-.32 3.498-.142 6.945-.309 10.365-.322 3.408-.09 6.764 0 10.056.026 1.645.039 3.267.115 4.873.167.811.025 1.608.064 2.392.091.798.05 1.582.089 2.366.14 1.569.104 3.112.193 4.642.296 1.518.129 3.023.27 4.488.386 2.958.231 5.774.604 8.514.899 2.725.323 5.322.733 7.805 1.08 1.092.18 2.16.348 3.201.528l17.026 22.819-2.327-.811c-1.492-.513-3.832-1.363-6.404-2.147-.656-.218-1.363-.437-2.084-.668a43.512 43.512 0 00-2.34-.72c-1.659-.476-3.459-1.002-5.388-1.542-1.941-.502-4.012-1.055-6.211-1.594-2.212-.489-4.526-1.068-6.969-1.569-2.456-.475-5.003-1.041-7.664-1.477-1.337-.232-2.688-.464-4.064-.708-1.389-.206-2.791-.411-4.217-.618-.708-.102-1.442-.205-2.162-.308l-2.198-.27c-1.479-.179-2.971-.347-4.488-.527-3.035-.269-6.134-.617-9.31-.797-3.162-.258-6.404-.36-9.682-.502-1.647-.05-3.292-.064-4.951-.102-.836 0-1.672-.039-2.508-.039-.836 0-1.672 0-2.52.013-1.685.026-3.369 0-5.067.064l-5.092.155c-1.71.076-3.408.18-5.118.283-1.711.077-3.42.218-5.118.36-3.421.244-6.829.629-10.224.989l-5.065.656c-1.699.205-3.356.463-5.028.733-1.659.27-3.344.488-4.989.796-1.647.296-3.28.592-4.914.888-1.633.295-3.226.655-4.834.978-1.595.321-3.19.654-4.744 1.028-1.57.358-3.126.72-4.656 1.08-1.53.397-3.035.784-4.527 1.156l-2.237.578c-.732.206-1.466.412-2.186.618-1.453.412-2.881.809-4.294 1.221-1.403.411-2.779.861-4.154 1.273-1.35.436-2.714.81-4.013 1.272-1.299.438-2.584.875-3.844 1.299-.631.205-1.26.424-1.877.631-.618.217-1.21.449-1.814.668a308.089 308.089 0 00-12.974 5.001c-1.904.809-3.678 1.555-5.324 2.261-1.62.734-3.112 1.415-4.463 2.019-.681.309-1.312.592-1.915.861-.592.283-1.145.554-1.66.798-1.028.501-1.902.925-2.622 1.26-1.428.693-2.187 1.054-2.187 1.054s.708-.424 2.044-1.234l-.012.025z" fill="#2BB178"/></g><defs><linearGradient id="paint0_linear_4_2" x1="553.585" y1="427.637" x2="154.383" y2="132.497" gradientUnits="userSpaceOnUse"><stop stop-color="#2AB077"/><stop offset=".5" stop-color="#454097"/><stop offset="1" stop-color="#DD3059"/></linearGradient></defs></svg>