<svg width="32" height="32" fill="none" xmlns="http://www.w3.org/2000/svg"><g clip-path="url(#clip0_564_25726)"><rect width="32" height="32" rx="2" fill="#063A74"/><path d="M16.124 6l1.422.157 3.105.344c.514.057 1.029.115 1.543.17a.497.497 0 01.364.212c1.506 1.994 3.015 3.986 4.522 5.98.192.253.182.385-.028.628l-5.515 6.383c-1.715 1.985-3.43 3.97-5.146 5.953-.2.232-.356.23-.557-.002-1.463-1.689-2.927-3.376-4.388-5.066-1.672-1.935-3.342-3.872-5.012-5.808l-1.272-1.47c-.208-.24-.215-.362-.026-.612 1.505-1.989 3.01-3.975 4.512-5.966a.581.581 0 01.434-.24c1.448-.158 2.895-.32 4.342-.48.568-.063 1.137-.122 1.7-.183zm-.027 7.171v.001c1.77 0 3.542.008 5.313-.006.417-.004.52.325.382.615-1.3 2.732-2.589 5.471-3.88 8.208-.075.161-.155.321-.218.487-.015.04.015.126.049.145.037.02.11-.003.155-.028.033-.018.048-.07.07-.106l2.182-3.825c.99-1.739 1.982-3.478 2.97-5.22.106-.188.243-.277.468-.274.68.01 1.36.003 2.04.003.05 0 .1.005.145-.01.028-.008.056-.047.063-.078.004-.018-.03-.053-.054-.066-.032-.018-.071-.023-.108-.031-.686-.144-1.37-.293-2.057-.427-.248-.049-.367-.181-.416-.424-.243-1.21-.494-2.418-.746-3.626-.011-.053-.066-.097-.1-.146-.025.053-.053.106-.074.16-.007.019.001.043.002.064.039 1.009.077 2.017.118 3.026.005.12-.013.228-.142.28-.121.047-.204-.017-.285-.097L18.02 7.895c-.22-.216-.437-.434-.66-.645-.03-.028-.093-.023-.14-.033-.004.053-.013.107-.009.159.002.022.03.042.048.064 1.064 1.339 2.127 2.68 3.193 4.017.087.11.144.22.078.356-.064.13-.185.144-.317.144H12.05c-.054 0-.109.002-.162-.007a.256.256 0 01-.203-.364c.026-.058.068-.11.108-.16 1.051-1.322 2.103-2.644 3.153-3.967.053-.066.163-.143.062-.232-.103-.09-.161.037-.22.094-.483.471-.962.946-1.442 1.42l-3.098 3.063c-.08.079-.165.144-.286.092-.126-.053-.15-.158-.142-.28.01-.194.022-.388.028-.582l.078-2.33c.002-.07.019-.141.01-.21-.005-.045-.044-.086-.067-.129-.03.033-.064.064-.09.1-.012.016-.009.042-.013.063-.25 1.214-.5 2.427-.746 3.641-.045.225-.168.35-.391.393-.439.085-.876.177-1.314.267-.269.055-.538.108-.806.17-.042.01-.076.06-.113.09.041.026.08.058.125.076.028.011.064.002.096.002.68 0 1.36.007 2.04-.002.212-.002.342.084.443.26.65 1.151 1.306 2.299 1.96 3.448l1.56 2.743c.554.97 1.108 1.94 1.668 2.906.031.053.133.113.183.099.12-.034.067-.134.035-.214-.012-.03-.029-.058-.043-.087l-.752-1.596c-.634-1.34-1.268-2.682-1.9-4.023-.466-.985-.932-1.97-1.395-2.956-.153-.326.008-.574.367-.574h5.314z" fill="#fff"/></g><defs><clipPath id="clip0_564_25726"><path d="M0 6a6 6 0 016-6h20a6 6 0 016 6v20a6 6 0 01-6 6H6a6 6 0 01-6-6V6z" fill="#fff"/></clipPath></defs></svg>