<svg width="20" height="20" fill="none" xmlns="http://www.w3.org/2000/svg"><path d="M12.5 1.75c.028 0 .056.002.083.005.334.01.664.076.973.204.335.139.64.342.895.599l2.99 2.989c.257.256.461.56.6.896.128.31.194.64.203.973a.75.75 0 01.006.084l-.001.019v8.314a2.417 2.417 0 01-2.416 2.417H4.167a2.417 2.417 0 01-2.417-2.417V4.167A2.417 2.417 0 014.167 1.75H12.5zm-8.333 1.5a.917.917 0 00-.917.917v11.666a.917.917 0 00.917.917h11.666a.917.917 0 00.916-.917V8.25h-3.416a1.583 1.583 0 01-1.575-1.427l-.008-.156V3.25H4.167zm6.886 9.653a.75.75 0 011.228.86v.002l-.003.003-.005.006-.01.016-.036.045a3.013 3.013 0 01-.541.517 2.814 2.814 0 01-1.685.564c-.71 0-1.279-.294-1.645-.556a3.464 3.464 0 01-.588-.535l-.016-.02-.003-.002v-.001c.004-.003.047-.039.585-.469l-.586.469a.75.75 0 011.168-.942l.01.011c.01.013.031.034.058.062.056.055.14.131.245.207.217.155.483.276.772.276.34 0 .603-.128.793-.268a1.55 1.55 0 00.212-.192l.047-.053zm-4.378-2.82a.75.75 0 010 1.5h-.009a.75.75 0 010-1.5h.009zm6.668 0a.75.75 0 010 1.5h-.009a.75.75 0 010-1.5h.009zm-.093-3.416l.006.031c.004.01.01.02.018.028a.083.083 0 00.059.024h3.168a1.233 1.233 0 00-.12-.14v-.002L13.39 3.62h-.001a1.262 1.262 0 00-.14-.12v3.168z" fill="#256EF4"/></svg>