<svg width="24" height="24" fill="none" xmlns="http://www.w3.org/2000/svg"><path fill-rule="evenodd" clip-rule="evenodd" d="M7.843 3h.045a5.775 5.775 0 012.779.757c.492.281.898.71 1.216 1.118.04.05.078.101.116.152a7.59 7.59 0 01.116-.152c.319-.409.725-.837 1.216-1.118A5.776 5.776 0 0116.156 3a6.006 6.006 0 014.068 1.804 5.53 5.53 0 011.572 4.049c-.005 1.418-.601 2.851-1.409 4.158-.817 1.322-1.898 2.59-2.968 3.692-2.139 2.198-4.322 3.813-4.539 3.96l-.433.292a.8.8 0 01-.895 0l-.433-.293-.002-.001c-.215-.146-2.398-1.76-4.537-3.959-1.071-1.1-2.152-2.369-2.969-3.691-.807-1.307-1.404-2.74-1.408-4.158a5.53 5.53 0 011.571-4.05A6.006 6.006 0 017.843 3zm.043 1.6a4.406 4.406 0 00-2.962 1.317 3.929 3.929 0 00-1.121 2.92c0 .997.429 2.135 1.17 3.333.733 1.188 1.728 2.363 2.754 3.418a37.115 37.115 0 004.252 3.724l.02.015.021-.015.09-.066a34.995 34.995 0 001.297-1.024 37.1 37.1 0 002.865-2.634c1.026-1.055 2.02-2.23 2.754-3.417.74-1.2 1.17-2.337 1.17-3.333v-.032a3.93 3.93 0 00-1.122-2.889A4.406 4.406 0 0016.112 4.6a4.175 4.175 0 00-1.986.546c-.232.132-.487.377-.75.713-.257.33-.486.701-.685 1.043a.8.8 0 01-1.384 0 9.318 9.318 0 00-.685-1.043c-.263-.336-.517-.58-.75-.713A4.174 4.174 0 007.887 4.6z" fill="#33363D"/></svg>