<svg width="24" height="24" fill="none" xmlns="http://www.w3.org/2000/svg"><path fill-rule="evenodd" clip-rule="evenodd" d="M4.34 10.886c-.416.54-.54.928-.54 1.114 0 .187.124.575.54 1.115.397.514.991 1.078 1.75 1.602C7.609 15.767 9.703 16.6 12 16.6c2.295 0 4.39-.834 5.909-1.883.758-.524 1.353-1.088 1.75-1.602.416-.54.54-.928.54-1.115 0-.186-.124-.575-.54-1.114-.397-.514-.992-1.078-1.75-1.602-1.52-1.05-3.614-1.884-5.91-1.884-2.296 0-4.39.834-5.91 1.884-.758.524-1.353 1.087-1.749 1.602zm.84-2.919C6.92 6.767 9.326 5.8 12 5.8c2.674 0 5.08.966 6.818 2.167.87.601 1.593 1.275 2.107 1.942.495.641.874 1.378.874 2.091 0 .714-.379 1.45-.873 2.092-.515.667-1.238 1.34-2.108 1.941-1.739 1.201-4.144 2.167-6.819 2.167-2.674 0-5.08-.966-6.818-2.166-.87-.601-1.594-1.275-2.108-1.942-.495-.642-.874-1.378-.874-2.092 0-.713.38-1.45.874-2.091.514-.667 1.238-1.341 2.108-1.942zM12 9.56c-1.454 0-2.576 1.123-2.576 2.44s1.122 2.44 2.575 2.44 2.575-1.123 2.575-2.44S13.452 9.56 12 9.56zM7.823 12c0-2.261 1.9-4.04 4.175-4.04s4.176 1.78 4.176 4.04c0 2.262-1.9 4.04-4.175 4.04-2.274 0-4.175-1.778-4.175-4.04z" fill="#303336"/></svg>