<svg width="24" height="24" fill="none" xmlns="http://www.w3.org/2000/svg"><path fill-rule="evenodd" clip-rule="evenodd" d="M12 2C6.477 2 2 6.477 2 12c0 1.509.334 2.94.933 4.223l-.87 4.176a.5.5 0 00.592.592l3.66-.762A9.954 9.954 0 0012 22c5.523 0 10-4.477 10-10S17.523 2 12 2z" fill="#B1CEFB"/><path d="M10.991 14.187a.134.134 0 01-.134-.133c.004-.622.062-1.116.175-1.483.117-.367.282-.662.494-.885.213-.227.472-.434.778-.623.21-.13.396-.273.56-.428a1.82 1.82 0 00.397-.525 1.46 1.46 0 00.144-.653c0-.272-.063-.507-.19-.706a1.293 1.293 0 00-.515-.463 1.537 1.537 0 00-.715-.165c-.244 0-.476.054-.695.16-.217.103-.397.26-.54.474a1.43 1.43 0 00-.22.609.214.214 0 01-.207.188H8.885a.193.193 0 01-.195-.205c.042-.562.197-1.04.463-1.432a2.8 2.8 0 011.195-.988 4.035 4.035 0 011.647-.33c.655 0 1.232.116 1.73.346.5.23.89.557 1.168.983.281.422.422.923.422 1.503 0 .391-.063.741-.19 1.05-.124.309-.3.583-.53.824-.23.24-.503.454-.819.643-.278.172-.506.35-.685.535a1.778 1.778 0 00-.39.654 3.017 3.017 0 00-.13.917c0 .073-.06.133-.133.133H10.99zm.762 3.213c-.309 0-.575-.11-.798-.33a1.084 1.084 0 01-.335-.803c0-.309.112-.573.335-.793.223-.22.489-.33.798-.33.305 0 .57.11.793.33.226.22.34.484.34.793 0 .21-.054.4-.16.572-.103.171-.24.308-.412.411-.168.1-.355.15-.561.15z" fill="#1E2124"/></svg>