<svg width="24" height="24" fill="none" xmlns="http://www.w3.org/2000/svg"><path d="M12 2c5.523 0 10 4.477 10 10s-4.477 10-10 10S2 17.523 2 12 6.477 2 12 2zm0 1.6a8.4 8.4 0 100 16.8 8.4 8.4 0 000-16.8zm2.4 10.07a.8.8 0 111.2 1.06 5.011 5.011 0 01-1.635 1.23 4.641 4.641 0 01-1.966.44 4.64 4.64 0 01-1.965-.44A5.011 5.011 0 018.4 14.73a.8.8 0 111.2-1.06c.322.365.7.649 1.112.84.41.192.848.29 1.288.29.44 0 .878-.097 1.29-.29a3.41 3.41 0 001.11-.84zM9 9a1 1 0 110 2 1 1 0 010-2zm6 0a1 1 0 110 2 1 1 0 010-2z" fill="#33363D"/></svg>