<svg width="32" height="32" fill="none" xmlns="http://www.w3.org/2000/svg"><g clip-path="url(#clip0_564_25758)"><rect width="32" height="32" rx="2" fill="#063A74"/><path fill-rule="evenodd" clip-rule="evenodd" d="M11.15 13.095h12.775l-.087.94-.823 9.228-.052.592-7.174 1.99-.015.004-7.181-1.994-.491-5.502h3.519l.25 2.795 3.902 1.054h.003V22.2l3.91-1.055.407-4.546H7.945L7.084 6.94 7 6h17.557l-.083.941-.16 1.777-.07.787H10.83l.32 3.59z" fill="#fff"/></g><defs><clipPath id="clip0_564_25758"><path d="M0 6a6 6 0 016-6h20a6 6 0 016 6v20a6 6 0 01-6 6H6a6 6 0 01-6-6V6z" fill="#fff"/></clipPath></defs></svg>