<svg width="24" height="24" fill="none" xmlns="http://www.w3.org/2000/svg"><path fill-rule="evenodd" clip-rule="evenodd" d="M19 4.6H5a.4.4 0 00-.4.4v14c0 .22.18.4.4.4h14a.4.4 0 00.4-.4V5a.4.4 0 00-.4-.4zM5 3a2 2 0 00-2 2v14a2 2 0 002 2h14a2 2 0 002-2V5a2 2 0 00-2-2H5zm7 5.3a1.2 1.2 0 100 2.4 1.2 1.2 0 000-2.4zM9.2 9.5a2.8 2.8 0 115.6 0 2.8 2.8 0 01-5.6 0zm.66 5.417c.588-.392 1.344-.617 2.14-.617s1.552.225 2.14.617c.586.391.95.91 1.084 1.443a.8.8 0 101.552-.387c-.241-.97-.877-1.806-1.75-2.387-.87-.58-1.939-.886-3.026-.886-1.087 0-2.157.306-3.027.886-.872.581-1.507 1.416-1.75 2.387a.8.8 0 101.553.387c.133-.534.498-1.052 1.085-1.443z" fill="#303336"/></svg>