<svg width="20" height="20" fill="none" xmlns="http://www.w3.org/2000/svg"><rect width="16.667" height="16.667" rx="8.333" transform="matrix(1 0 0 -1 1.666 18.334)" fill="#F4F5F6"/><path d="M9.915 7.868a1 1 0 100-2 1 1 0 000 2zm-1.25.825a.167.167 0 00-.167.166v.667c0 .092.075.167.167.167h.584c.092 0 .167.074.167.166v3.136h-.917a.167.167 0 00-.167.167v.666c0 .092.075.167.167.167h3a.167.167 0 00.166-.167v-.666a.167.167 0 00-.166-.167h-.583V8.859a.167.167 0 00-.167-.166H8.665z" fill="#1E2124"/></svg>