<svg width="24" height="24" fill="none" xmlns="http://www.w3.org/2000/svg"><rect width="24" height="24" rx="4" fill="#000"/><path d="M12.065 20.388l-.148-.001-.147-.004a173.33 173.33 0 01-.146-.006l-.145-.008-.144-.011a6.326 6.326 0 01-.143-.013l-.142-.016-.141-.018a3.142 3.142 0 01-.14-.021l-.14-.023-.137-.025-.137-.028-.136-.03a3.314 3.314 0 01-.135-.033l-.134-.035-.132-.037a2.837 2.837 0 01-.131-.04l-.13-.042-.13-.045-.126-.047-.126-.05a6.617 6.617 0 01-.125-.052l-.123-.054c-.041-.018-.081-.038-.122-.057l-.12-.06-.12-.061a4.368 4.368 0 01-.232-.131l-.114-.07a2.659 2.659 0 01-.112-.071l-.111-.074-.11-.076a4.217 4.217 0 01-.106-.08l-.106-.08a2.728 2.728 0 01-.104-.084l-.102-.086-.1-.09a8.187 8.187 0 01-.1-.09l-.096-.093-.095-.096-.093-.098a4.362 4.362 0 01-.091-.101l-.09-.103-.086-.106c-.03-.036-.057-.072-.085-.108a11.06 11.06 0 01-.164-.224l-.08-.116-.076-.118-.074-.12c-.024-.041-.05-.082-.072-.123l-.07-.125a5.179 5.179 0 01-.134-.258c-.021-.044-.043-.088-.063-.133l-.061-.135-.06-.138a5.83 5.83 0 01-.11-.283 3.55 3.55 0 01-.05-.145l-.05-.147a8.583 8.583 0 01-.13-.457l-.022-.088a12.137 12.137 0 01-.021-.09l-.02-.088-.02-.09-.02-.088-.017-.09-.017-.09-.016-.09a2.83 2.83 0 00-.016-.09l-.015-.09-.014-.091a2.845 2.845 0 01-.025-.182l-.012-.091-.011-.091-.01-.091-.01-.091-.01-.091a2.567 2.567 0 01-.007-.091l-.007-.091-.007-.091-.006-.09a2.713 2.713 0 01-.005-.09l-.005-.09a2.708 2.708 0 01-.004-.09l-.004-.09-.003-.09-.002-.088-.002-.09-.001-.088v-.35c0-.03 0-.058.003-.087.002-.03 0-.058.002-.086 0-.03.002-.057.003-.086l.003-.085c0-.028.002-.057.004-.085 0-.028.003-.056.004-.084 0-.028.003-.056.004-.084l.005-.083.005-.082.006-.082.006-.081.007-.08.007-.08.007-.08.008-.077.008-.077.009-.077.009-.076.009-.075.01-.074.01-.073.01-.072.01-.071c.005-.023.008-.047.012-.07l.01-.07a.785.785 0 00.012-.067l.012-.067.012-.066.012-.065.012-.064.015-.072.016-.073c.005-.024.01-.05.017-.074l.018-.074.019-.075.02-.076.02-.076a2.223 2.223 0 01.046-.154l.024-.078.025-.078.026-.08.027-.078.028-.08.029-.08.03-.08.03-.08.033-.081.033-.081c.01-.027.022-.054.034-.081.01-.027.023-.054.035-.081l.036-.081.037-.081.038-.081.039-.081.04-.081.04-.08.043-.08.043-.08.045-.08.046-.08a3.278 3.278 0 01.095-.157l.049-.078.05-.078.05-.077.053-.077.053-.076L6.676 7l.055-.075.056-.074c.019-.024.038-.05.058-.073l.059-.072.06-.071.06-.07.063-.07.063-.07.064-.067.065-.066.066-.065.068-.064.069-.063.07-.062.07-.061.073-.06.073-.057.074-.057a3.576 3.576 0 01.152-.11l.078-.051a5.434 5.434 0 01.24-.147l.082-.046.088-.047.088-.045.088-.044c.029-.015.059-.028.089-.042l.089-.041.09-.04.09-.038.09-.037.09-.036.092-.034.09-.033.092-.032.092-.03.092-.03c.03-.01.06-.018.092-.027.03-.01.06-.018.092-.027.03-.01.06-.017.092-.026l.092-.024.092-.023.092-.022.092-.021.092-.02.092-.02.092-.017a2.95 2.95 0 01.092-.016l.092-.015.09-.014c.03-.005.062-.01.092-.013l.09-.012.092-.011.09-.01.09-.01a2.936 2.936 0 01.178-.014l.089-.007.088-.006.088-.005.087-.004.087-.003.086-.002.085-.001h.252c.028 0 .055.002.083.003l.082.003c.027 0 .054.002.08.003.028 0 .055.003.08.004.028 0 .054.003.08.005l.079.005.078.006.077.007.076.007.075.008.074.009.073.009.072.01.07.01.07.01.069.012.067.012.066.012.065.013.063.013.079.017.078.018.078.018.077.019.076.02.076.02.075.02a7.224 7.224 0 01.148.044l.073.022.072.023a5.846 5.846 0 01.213.072l.07.025.069.026.069.026.068.027.067.027.067.028.066.029.066.029.065.03.064.03.064.03.063.033c.02.01.042.02.063.032l.062.033.06.033.062.034c.02.01.04.023.06.035l.06.035.059.036.059.036.058.037.058.038.057.038.057.039.056.04.055.04.055.04.054.042.054.042.053.043.053.043.052.044.052.045.05.045.052.046c.017.015.034.03.05.047l.05.047.05.048.049.049.049.049.048.05.048.05.047.052.047.052.046.053.046.053a499284003982.118 499284003982.118 0 00.135.164l.044.056.046.06.045.06.044.06.043.059.042.059.04.059a.557.557 0 01.04.059l.04.059.038.059.037.058.036.058.035.058.034.058.033.057.032.057.03.056.03.056.03.056.028.055.028.055.027.054.026.053.025.053.024.052.024.05.023.052.022.05.02.049a.296.296 0 01.02.049l.02.048c.007.016.014.03.02.047l.018.046.017.045c.005.015.01.03.017.044l.016.043.015.042.015.04.014.04a.596.596 0 01.013.04l.013.038a1.634 1.634 0 00.023.073l.01.035c.005.01.008.023.01.033.004.01.008.022.01.032l.01.03.009.03.008.029a.269.269 0 01.007.027l.007.026.006.024.006.023.005.02.005.02.004.019c0 .006.003.01.004.017 0 .005.002.01.004.015 0 .005.002.009.003.014l.003.012.002.01a.03.03 0 00.002.009v.007c0 .002 0 .004.002.005v.003l-.021.004-.021.004-.021.004-.021.004-.021.004-.021.004-.021.004-.021.004-.021.004-.021.004-.021.004-.021.004-.021.004-.021.004-.021.004-.021.004-.021.004-.021.004-.021.004-.021.004-.021.004-.021.004-.021.004-.021.004-.021.004-.021.004-.021.004-.021.004-.021.004-.021.004-.021.004-.021.004-.021.004-.021.004-.021.004-.021.004-.021.004-.021.004-.021.004-.021.004-.021.004-.021.004-.021.004-.021.004-.021.004-.021.004-.021.004-.021.004-.021.004-.021.004-.021.004-.021.004-.021.004-.021.004-.021.004-.021.004-.021.004-.021.004-.021.004-.021.004-.021.004-.021.004-.021.004-.021.004v-.009l-.001-.006c-.001-.003 0-.004-.002-.007l-.002-.008-.002-.01-.003-.011-.003-.012a.325.325 0 01-.007-.03.075.075 0 01-.004-.015l-.005-.017-.005-.018a.117.117 0 01-.005-.02l-.006-.021a.658.658 0 01-.006-.022l-.007-.023-.007-.024-.008-.025-.008-.026-.01-.027-.008-.028a.332.332 0 00-.01-.03l-.01-.03-.011-.03-.011-.032-.012-.032-.012-.033-.013-.034a.362.362 0 01-.013-.035l-.014-.036-.015-.036-.015-.037-.016-.038-.016-.038-.017-.04a.48.48 0 01-.017-.04l-.018-.04-.02-.04c-.005-.014-.012-.027-.018-.041l-.02-.042-.021-.042-.021-.043-.022-.043-.023-.044-.023-.044-.024-.044a1.01 1.01 0 00-.025-.045c-.01-.015-.017-.03-.025-.045-.01-.015-.017-.03-.026-.045a1.873 1.873 0 01-.055-.092l-.028-.046-.03-.046-.03-.046a1.266 1.266 0 00-.03-.047l-.031-.047-.032-.047-.033-.047a1.384 1.384 0 00-.034-.047l-.035-.047-.035-.047-.036-.047-.035-.044-.035-.044-.036-.043-.036-.043-.036-.042a1.504 1.504 0 00-.036-.041l-.037-.041-.037-.04a1.4 1.4 0 00-.038-.04l-.038-.04-.038-.038-.04-.038-.038-.038-.04-.037-.04-.037-.04-.036a1.251 1.251 0 00-.04-.035l-.04-.035a1.229 1.229 0 00-.041-.034l-.042-.034-.042-.033a120.901 120.901 0 00-.085-.065c-.014-.011-.03-.021-.043-.032l-.044-.031-.044-.031-.045-.03-.045-.03-.046-.03-.046-.028-.046-.028c-.016-.01-.031-.02-.047-.028l-.047-.027-.048-.027-.048-.027c-.016-.01-.032-.017-.05-.026-.015-.01-.032-.017-.048-.026-.016-.01-.033-.017-.05-.025l-.05-.025-.051-.024-.051-.024-.052-.023-.052-.023a1.189 1.189 0 00-.053-.022l-.053-.022a3.239 3.239 0 00-.109-.043l-.055-.021a.922.922 0 00-.056-.02l-.056-.02a1.269 1.269 0 00-.057-.02c-.02-.005-.038-.012-.057-.018a.494.494 0 01-.058-.02l-.058-.017-.06-.018-.06-.017-.06-.017-.06-.017-.061-.016-.062-.016-.063-.015-.063-.015-.064-.015a1.24 1.24 0 00-.065-.014l-.057-.012-.058-.01-.06-.011a1.25 1.25 0 00-.06-.01l-.06-.01-.06-.01-.062-.008a1.355 1.355 0 00-.063-.008l-.064-.008-.064-.007-.065-.006-.066-.006a1.465 1.465 0 00-.066-.005l-.067-.005-.068-.004-.068-.003-.07-.003-.068-.002-.07-.001h-.285a1.73 1.73 0 00-.072.003l-.072.003-.073.003c-.024 0-.05.003-.073.004a1.789 1.789 0 00-.073.005l-.074.006-.074.006-.074.007-.074.008-.075.009-.075.009-.075.01-.075.01-.075.013-.075.012-.075.013-.075.014-.075.015a2.005 2.005 0 00-.15.033c-.025.006-.05.01-.075.017l-.075.018-.075.019-.074.02-.074.02a2.073 2.073 0 00-.074.023l-.074.023a6.242 6.242 0 00-.073.024l-.073.024-.073.025a2.077 2.077 0 00-.072.026l-.072.027-.072.028-.071.029-.071.03-.07.03c-.023.012-.047.022-.07.033l-.07.033-.068.034a1.448 1.448 0 00-.068.035l-.068.036-.068.038-.066.039a1.428 1.428 0 00-.065.04l-.064.043a2.4 2.4 0 00-.125.089l-.061.046-.06.048-.06.049-.057.05a2931034100313.262 2931034100313.262 0 01-.113.104 2.827 2.827 0 00-.055.054l-.054.055-.053.056a2.686 2.686 0 00-.052.057l-.051.057a2.58 2.58 0 00-.1.117l-.047.06a1.41 1.41 0 00-.047.06l-.046.062-.045.062a.977.977 0 00-.044.062.876.876 0 00-.043.063l-.042.063-.041.064c-.014.02-.027.043-.04.064l-.04.065-.038.065-.038.065a2.146 2.146 0 00-.073.13l-.035.065-.034.066-.033.066-.032.066-.031.065-.03.065-.03.065c-.008.022-.018.043-.028.065-.01.022-.02.043-.028.065l-.027.064c-.01.02-.017.043-.026.064-.01.02-.017.043-.025.064l-.024.063-.023.063-.023.062-.022.062-.021.06-.02.06-.02.06-.017.06-.018.058-.017.057-.016.056-.015.055-.014.054a.82.82 0 01-.014.053c-.004.018-.01.035-.013.052l-.012.05-.011.05-.01.05-.01.047-.011.055a.93.93 0 00-.01.056l-.01.057-.01.058-.01.059-.01.06-.01.06-.008.063-.01.063-.008.064-.008.065a1.484 1.484 0 01-.008.066l-.008.067-.008.068-.007.068-.007.069-.007.07-.006.07-.006.072-.006.072-.005.073-.005.073-.005.074-.004.075-.004.075-.003.076-.003.076-.002.077-.002.077-.002.078-.001.078v.395c0 .027.002.053.003.08 0 .027 0 .053.002.08 0 .027.002.054.003.08 0 .027.002.054.003.08 0 .028.003.055.004.082 0 .027.003.054.005.08l.005.082.006.08.006.082.007.08.008.082.008.08.009.082.009.08.01.082.01.08.012.082c.003.027.008.054.012.08a2.272 2.272 0 00.027.163l.014.08a11.982 11.982 0 01.03.16l.018.08c.006.026.01.053.017.079l.018.079.019.079.02.078.02.078.02.077.023.076.023.076.023.075.024.074.025.073.026.073.026.072.027.07a.927.927 0 00.028.07l.029.07.029.07.03.068.03.067.033.067a3.913 3.913 0 00.134.259l.035.063.036.062.037.06.038.062.038.06a3.024 3.024 0 00.12.175l.04.057.043.056.043.055.044.055.044.054a2.49 2.49 0 00.09.105l.047.052a2.18 2.18 0 00.144.15l.049.049.05.048.05.047.053.046.052.046a2.49 2.49 0 00.16.132l.056.043c.018.015.037.028.056.042l.057.04a.658.658 0 00.057.04l.058.04.059.039.06.038.06.037.06.036.063.036.062.035c.02.012.042.023.063.034a3.771 3.771 0 00.129.065c.022.01.043.02.065.032l.066.03.067.03.076.034.077.032.077.03a2.463 2.463 0 00.156.057 694.5 694.5 0 00.157.052l.079.024.079.023.08.022.08.02c.027.008.053.014.08.02l.08.019.08.017.08.016.08.015a2.286 2.286 0 00.163.027l.08.012.082.01a.76.76 0 00.08.01l.082.01.08.008.082.007a28.682 28.682 0 01.16.01c.027.003.053.004.08.005.027 0 .053.002.08.003.027 0 .053.002.08.003.027 0 .053 0 .079.002h.237c.027 0 .052 0 .078-.002.026-.002.052-.001.078-.002.026 0 .052-.002.077-.003l.077-.004.077-.004.076-.005.076-.006.075-.007.074-.007.074-.008.073-.008.073-.01a.593.593 0 00.072-.01.737.737 0 00.07-.01l.072-.01.07-.011.069-.012.068-.012c.023-.004.045-.01.068-.013.022-.004.045-.01.067-.013l.066-.014.065-.014.064-.015.063-.015.062-.015.06-.016.06-.016.06-.017.058-.017.057-.017.056-.018.055-.018.055-.02c.018-.006.036-.012.055-.02l.054-.02.054-.022.054-.023.054-.024.053-.025a.868.868 0 00.053-.026c.018-.01.035-.017.053-.026l.053-.027a1.353 1.353 0 00.104-.057l.052-.03.05-.03.052-.031.05-.032.05-.033.049-.033.049-.034.048-.035.048-.035.047-.036.047-.037.046-.037.046-.038.045-.038.045-.04a.531.531 0 00.044-.04l.043-.04.043-.04.042-.041.04-.042.042-.042.04-.042.039-.043.039-.043.038-.044.037-.044.036-.044.035-.045.035-.045c.01-.015.023-.03.034-.045l.033-.046a.473.473 0 01.032-.046l.03-.046.03-.047.03-.047.028-.047.027-.047a2.459 2.459 0 00.12-.24l.02-.047a.326.326 0 00.02-.048l.02-.048.018-.048c.006-.016.01-.032.017-.048l.016-.048.014-.048.013-.048.012-.048.014-.062a1.367 1.367 0 00.025-.123l.01-.061a.626.626 0 00.01-.06l.009-.06.007-.06.006-.058.005-.058.004-.058c0-.02.002-.038.003-.057 0-.02 0-.038.002-.057v-.112l-.002-.055-.003-.055-.004-.054-.005-.054-.006-.053-.007-.053-.008-.052-.01-.052a.46.46 0 00-.01-.051l-.01-.051a3.776 3.776 0 00-.012-.05c-.004-.017-.01-.033-.013-.05l-.015-.05-.016-.048a.917.917 0 00-.017-.048l-.018-.048a.658.658 0 00-.02-.047 2.052 2.052 0 00-.041-.093.956.956 0 00-.045-.091l-.023-.045-.024-.044-.025-.044c-.01-.014-.017-.03-.026-.043l-.027-.042c-.01-.014-.02-.028-.028-.042l-.03-.041-.03-.041-.03-.04-.032-.04a225411529669.41 225411529669.41 0 01-.067-.078l-.035-.038-.036-.037-.037-.037-.037-.036-.038-.036-.04-.035a.447.447 0 00-.04-.034l-.04-.034-.042-.033-.043-.033a1.194 1.194 0 00-.087-.063l-.045-.031-.046-.03-.047-.03-.048-.03-.048-.027-.01.068-.011.068-.012.067a8.759 8.759 0 00-.012.067c-.004.022-.01.044-.013.066a1.24 1.24 0 01-.014.065l-.015.065-.015.064-.016.064a1.47 1.47 0 01-.017.063l-.017.062-.018.062a1.087 1.087 0 01-.02.06l-.018.062-.02.06-.021.059-.021.059-.022.058-.022.058-.023.057-.024.056-.024.056-.025.055a1.329 1.329 0 01-.026.054c-.01.018-.017.036-.026.054l-.027.053a.859.859 0 01-.028.052c-.01.017-.02.034-.028.052l-.03.05-.028.05-.03.05-.031.049-.031.048-.032.047-.033.047-.033.046-.034.045-.034.044-.035.044-.036.043-.036.042a.473.473 0 01-.037.04l-.037.042-.038.04a1.38 1.38 0 01-.077.077l-.04.037-.04.037-.041.036-.041.035a1.252 1.252 0 01-.085.067 1.194 1.194 0 01-.043.032c-.014.01-.03.02-.044.032l-.044.03-.045.03-.045.03a.704.704 0 01-.046.028l-.046.027-.047.027-.048.026a1.1 1.1 0 01-.048.025l-.05.024-.048.023c-.025.01-.05.022-.074.033l-.075.03-.075.03-.076.027-.076.025a1.73 1.73 0 01-.077.023l-.077.022-.078.02-.078.018a1.838 1.838 0 01-.08.016l-.078.014-.08.013a2.141 2.141 0 01-.078.01l-.08.01-.08.007-.08.006a2.142 2.142 0 01-.08.004l-.08.002h-.08l-.078-.001-.08-.003-.078-.004-.08-.006-.078-.008-.078-.01c-.026-.002-.052-.006-.078-.01l-.078-.013a1.756 1.756 0 01-.154-.03 2.072 2.072 0 01-.076-.017c-.025-.006-.051-.012-.076-.02-.025-.006-.05-.012-.075-.02a.898.898 0 01-.074-.021l-.074-.023a1.563 1.563 0 01-.073-.025c-.024-.01-.048-.017-.072-.026a1.497 1.497 0 01-.071-.028l-.07-.03-.07-.03-.07-.032a2.154 2.154 0 01-.134-.07l-.066-.035a1.348 1.348 0 01-.064-.038l-.063-.04a.817.817 0 01-.062-.04l-.061-.041c-.02-.014-.04-.03-.06-.043l-.058-.044a2.298 2.298 0 01-.057-.046l-.055-.047-.054-.048-.052-.05-.051-.051-.05-.052a2.539 2.539 0 01-.137-.164c-.014-.02-.03-.038-.043-.057a2.06 2.06 0 01-.041-.058l-.04-.06a1.235 1.235 0 01-.071-.122l-.033-.063-.017-.035-.017-.035-.016-.036-.016-.036-.015-.036-.015-.036-.014-.036a.402.402 0 01-.013-.037c-.004-.012-.01-.024-.013-.037a1.634 1.634 0 00-.012-.037l-.012-.037-.011-.037-.01-.037-.01-.037-.01-.038-.008-.038-.008-.038-.008-.038-.007-.038-.006-.038-.006-.038-.005-.038-.005-.038a.49.49 0 01-.004-.038.49.49 0 00-.004-.038l-.003-.038a.484.484 0 01-.002-.038.46.46 0 00-.002-.038l-.001-.038v-.152c.002-.012.002-.025.003-.038 0-.013 0-.025.002-.038 0-.013.002-.025.003-.038 0-.013.002-.025.003-.038 0-.013.003-.025.004-.038 0-.013.003-.025.005-.038l.005-.038.006-.038.006-.038a.506.506 0 01.007-.038l.007-.037.008-.037.009-.037.009-.037.01-.037.01-.037.01-.037a284908648149.748 284908648149.748 0 01.023-.072l.014-.036.013-.036.014-.036.014-.035.015-.035.015-.035.016-.035a.216.216 0 01.017-.034c.006-.011.01-.023.017-.034l.018-.034.018-.034.019-.033.013-.023a.176.176 0 01.014-.023l.015-.024.015-.024.016-.025a.369.369 0 01.017-.025l.018-.025.018-.026c.006-.01.013-.017.019-.026a.256.256 0 01.02-.026l.02-.027.022-.027.022-.027c.007-.01.015-.018.023-.027l.024-.027.025-.028.025-.028.026-.028.027-.028.028-.028c.01-.01.019-.02.029-.028l.03-.028.03-.028.033-.028a1.01 1.01 0 01.067-.055c.01-.01.023-.018.035-.027l.036-.027c.012-.01.024-.018.037-.027a1.25 1.25 0 01.038-.027c.013-.01.026-.018.039-.026a.342.342 0 01.04-.026c.013-.01.027-.017.04-.026l.043-.026.043-.025.044-.025a1.94 1.94 0 01.186-.096l.049-.023.05-.022.052-.022a2.94 2.94 0 01.053-.021l.054-.021.055-.02.056-.02.058-.018.059-.018.06-.017.06-.017a.964.964 0 01.064-.016l.064-.015.065-.014c.022-.005.044-.01.066-.013l.068-.012.069-.012.07-.011.072-.01.073-.01.074-.007.076-.007.077-.006.079-.005.037-.002.037-.002a.459.459 0 00.037-.002.459.459 0 00.037-.002l.037-.002.037-.001.037-.001.037-.001.037-.001h.678c.012 0 .023 0 .035.002h.034c.01.002.023 0 .034.002h.034l.034.003a.2.2 0 01.034.002.2.2 0 01.034.002.2.2 0 01.034.002.2.2 0 01.034.002c.01 0 .022 0 .034.002.01 0 .022 0 .034.002l.033.002.033.002.033.003.033.003.033.003.033.003.033.003.033.003.033.003.032.003.032.003c.01 0 .022.002.032.004a.35.35 0 01.032.004l.032.004a.35.35 0 00.032.004c.01 0 .02.003.032.004.01 0 .02.003.032.004.01 0 .02.003.032.004.01 0 .02.003.032.004.01 0 .02.003.03.004.01 0 .022.003.032.004l.03.005.032.005.03.005.032.005-.006-.038-.007-.038-.007-.04-.008-.038-.008-.04-.01-.038-.008-.04a.558.558 0 00-.01-.038l-.01-.04-.011-.038-.011-.04-.012-.038a.594.594 0 00-.013-.04c-.004-.012-.01-.025-.013-.038l-.014-.04a.608.608 0 01-.014-.038l-.015-.04-.016-.038-.016-.038-.017-.038-.018-.038-.018-.038-.02-.037c-.006-.012-.012-.025-.02-.037l-.02-.037-.021-.036-.022-.036a.422.422 0 00-.023-.035l-.024-.035-.024-.034-.025-.034c-.01-.011-.017-.022-.026-.033l-.027-.033a.427.427 0 00-.028-.032l-.03-.032-.03-.031-.03-.03-.03-.03-.032-.03a.81.81 0 00-.033-.027l-.034-.027-.035-.027c-.012-.01-.024-.017-.036-.026-.012-.01-.025-.017-.037-.025l-.038-.024-.04-.023c-.012-.008-.026-.015-.04-.022l-.04-.021a.791.791 0 00-.042-.02l-.043-.02-.044-.017a.825.825 0 00-.045-.017l-.046-.016-.048-.015a.706.706 0 00-.05-.014.33.33 0 00-.05-.013l-.05-.012-.052-.011-.053-.01a1.004 1.004 0 00-.11-.014l-.057-.006-.058-.004-.06-.003a.974.974 0 01-.053-.002h-.208c-.017 0-.033.002-.05.003-.017 0-.033.002-.05.003l-.047.003c-.016 0-.032.003-.047.004l-.046.005a.71.71 0 01-.046.005l-.045.006a.677.677 0 00-.044.007l-.043.007-.042.008-.042.009-.041.009-.04.01-.04.01a.563.563 0 00-.038.01l-.038.012-.037.012-.036.012a.52.52 0 00-.071.026.348.348 0 00-.034.014l-.033.014a.465.465 0 01-.033.014l-.032.015-.031.015-.031.016-.03.016-.03.016-.028.017c-.01.006-.02.01-.028.017-.01.006-.018.01-.027.017l-.027.018-.026.018-.026.018-.025.018-.024.019a.398.398 0 00-.024.019l-.023.019-.023.019-.022.019-.021.019-.021.02-.02.02-.02.02-.02.02-.018.02-.018.02-.018.02-.017.02-.017.02-.016.02-.016.02-.015.02-.015.02a.807.807 0 00-.014.02l-.014.02a.226.226 0 00-.013.02c-.004.007-.01.013-.013.02l-.012.02-.018-.011-.018-.011-.018-.011-.018-.011-.018-.011-.018-.011-.018-.011-.018-.011-.018-.011-.018-.011-.018-.011-.018-.011-.018-.011-.018-.011-.018-.011-.018-.011-.018-.011-.018-.011-.018-.011-.018-.011-.018-.011-.018-.011-.018-.011-.018-.011-.018-.011-.018-.011-.018-.011-.018-.011-.018-.011-.018-.011-.018-.011-.018-.011-.018-.011-.018-.011-.018-.011-.018-.011-.018-.011-.018-.011-.018-.011-.018-.011-.018-.011-.018-.011-.018-.011-.018-.011-.018-.011-.018-.011-.018-.011-.018-.011-.018-.011-.018-.011-.018-.011-.018-.011-.018-.011-.018-.011-.018-.011-.018-.011-.018-.011-.018-.011-.018-.011-.018-.011-.018-.011-.018-.011-.018-.011-.018-.011.014-.023.015-.024.016-.025.017-.026.018-.026.019-.027.02-.028.02-.028a.554.554 0 01.023-.03l.023-.03.024-.03.025-.03a.706.706 0 01.026-.031l.027-.031a.8.8 0 01.028-.032l.029-.032.03-.032.03-.032.033-.033.033-.033.034-.033a.588.588 0 01.036-.033l.037-.033.038-.033.039-.033.04-.033.04-.033.043-.032.044-.032.045-.032.046-.031c.016-.01.03-.021.047-.031l.049-.031.05-.03.05-.03.053-.03.054-.028c.018-.01.036-.02.055-.028l.056-.027.057-.027c.019-.01.039-.017.059-.026.02-.01.04-.017.06-.025l.06-.024.064-.023.064-.023.066-.022.067-.021.068-.02.07-.018.07-.017.074-.016.074-.015.076-.014c.025-.004.05-.01.077-.012l.078-.011.08-.01.08-.008a2.14 2.14 0 01.169-.012l.086-.004.088-.002h.179l.093.004c.029 0 .058.003.086.004.028 0 .057.004.085.006a2.384 2.384 0 01.167.018l.082.012.08.014.08.015a1.832 1.832 0 01.158.036 8.07 8.07 0 01.153.044l.075.024a1.609 1.609 0 01.147.054l.072.03.07.03c.024.01.048.023.07.034.024.01.047.023.07.035l.068.036.067.038.065.04.064.04.063.044c.02.015.042.029.062.045l.06.046.06.048.059.049.057.05.056.054.055.054.054.056.052.057a3.1 3.1 0 01.05.059c.018.02.034.04.05.06.017.02.034.04.049.062l.047.063.046.065.045.066.043.067.042.069.04.07.039.072.038.073c.013.024.024.049.036.074l.035.076c.01.026.023.05.034.077l.032.079.03.08.03.08.028.083.026.084.025.085.023.086a2.262 2.262 0 01.042.177l.019.09a2.906 2.906 0 01.033.183 2.65 2.65 0 01.027.189c.004.032.008.064.01.096.004.032.008.065.01.097.004.033.007.065.009.098l.006.099.094.039.092.04.09.043.09.043.088.045.086.046.084.048.083.049.08.05c.028.017.054.034.08.052l.078.053.076.054.074.056.073.057.07.058c.024.02.048.039.07.059l.068.06.066.063a3.832 3.832 0 01.246.258l.057.067.055.068.054.07a1.847 1.847 0 01.102.143l.048.073.046.074.045.075a1.865 1.865 0 01.084.152l.039.077a2.75 2.75 0 01.072.157c.01.027.023.053.034.08a7.396 7.396 0 01.09.246l.026.083a651441279935.905 651441279935.905 0 01.046.169l.02.086c.006.029.013.057.018.086l.016.087.014.088.012.088.01.089.01.09.007.09.005.09.003.092v.092l-.001.093-.003.093-.005.094a2.978 2.978 0 01-.008.094l-.01.095-.012.095a3.17 3.17 0 01-.014.096l-.016.096-.018.096-.02.097-.022.097-.017.07c-.006.023-.012.047-.02.07-.006.023-.012.047-.02.07a.93.93 0 01-.021.07l-.023.07a1.91 1.91 0 01-.025.069c-.01.023-.017.046-.026.069l-.028.069-.03.069-.03.068-.031.068-.033.068-.034.067-.036.067a4.98 4.98 0 01-.075.133l-.04.066a1.428 1.428 0 01-.04.065l-.042.065a1.428 1.428 0 01-.043.064c-.015.02-.03.043-.044.064l-.045.063-.046.063-.047.062a2.653 2.653 0 01-.05.062c-.016.02-.032.04-.05.06l-.05.062-.052.06-.053.059-.054.059-.055.058a2.984 2.984 0 01-.056.057l-.057.057-.058.056-.058.055-.06.054-.06.053-.06.053-.062.052-.063.05a.918.918 0 01-.063.05c-.021.018-.043.034-.064.05l-.065.048-.066.047c-.022.016-.044.03-.066.047l-.067.046-.068.045-.07.044-.068.043-.07.042-.07.04-.071.039a2.498 2.498 0 01-.144.075l-.073.036a2.423 2.423 0 01-.073.035l-.074.034c-.025.01-.05.022-.074.033l-.075.03-.075.03-.076.03-.076.028a2.273 2.273 0 01-.076.026l-.077.025-.034.01c-.011.005-.023.008-.035.012l-.035.01-.035.012-.036.01-.036.01-.036.01-.036.01-.037.01-.037.01-.037.01-.037.01a.532.532 0 00-.038.01l-.038.009-.038.009a2.205 2.205 0 00-.038.009l-.04.009-.038.009-.04.009-.038.009a.471.471 0 01-.04.008.566.566 0 01-.04.008.566.566 0 00-.04.008l-.04.008-.04.008-.041.008-.041.008a.585.585 0 01-.041.007l-.041.007-.042.007-.042.007-.042.007-.042.007-.042.006-.042.006a4.545 4.545 0 01-.043.006l-.043.006-.043.006a.63.63 0 01-.043.005.63.63 0 01-.043.005l-.044.005-.044.005-.044.005a.654.654 0 01-.044.004c-.015 0-.03.003-.044.004-.015 0-.03.003-.044.004-.014 0-.03.003-.044.004a185099364809.207 185099364809.207 0 00-.18.013l-.045.003-.045.003-.045.002-.045.002c-.015 0-.03 0-.046.002-.015 0-.03 0-.046.002a.708.708 0 00-.046.002h-.046c-.015 0-.031 0-.046.002h-.184.006zm.663-7.71h-.307c-.012 0-.025 0-.038.002h-.04l-.038.003c-.013 0-.026 0-.04.002-.013 0-.026 0-.04.002-.013 0-.026 0-.04.002a7.169 7.169 0 00-.04.003l-.04.003-.04.003-.04.003a.271.271 0 00-.04.004l-.04.004c-.013 0-.026.003-.04.004l-.04.005-.04.005-.04.006-.038.006-.04.006-.038.007a.532.532 0 01-.04.007l-.038.008-.038.008-.038.009-.038.009a.532.532 0 00-.038.01l-.037.01a.518.518 0 00-.037.01c-.012.005-.024.008-.037.012l-.036.012-.036.012-.035.013-.035.014-.035.014a1.14 1.14 0 00-.068.03l-.033.016a.259.259 0 00-.033.017c-.011.006-.021.01-.032.017l-.031.018-.031.019-.03.019-.03.02-.03.02a.566.566 0 00-.056.045c-.008.009-.017.016-.026.024a.615.615 0 00-.052.049.626.626 0 00-.025.026l-.024.027a.55.55 0 00-.046.055l-.022.029-.021.03-.02.03-.02.033a.11.11 0 00-.007.015l-.008.015-.008.015-.008.015a.1.1 0 00-.007.015l-.007.016-.007.016-.007.016-.006.016-.006.016-.006.016-.006.016a.098.098 0 00-.005.016l-.005.016-.005.016-.005.017a.105.105 0 00-.004.017l-.004.017-.004.017a.105.105 0 01-.004.017l-.003.017-.003.017c0 .006-.002.01-.003.017l-.002.017-.002.017-.002.017-.002.017-.001.017-.001.017v.153c0 .006 0 .012.002.017 0 .006 0 .012.002.017 0 .006 0 .012.002.017 0 .006 0 .012.002.017 0 .006.002.012.003.017 0 .006.002.012.003.017 0 .006.002.012.003.017a.57.57 0 00.003.017c0 .006.002.012.004.017l.004.017c0 .006.003.01.004.017 0 .006.003.01.004.017 0 .006.003.01.005.017l.005.017.005.017c.002.006.004.01.005.017l.006.017.006.017.006.017.006.017a.122.122 0 00.007.017l.007.017.007.016a.12.12 0 00.008.016l.008.016.008.016c.006.01.01.022.017.032a.537.537 0 00.039.063l.02.03a.6.6 0 00.048.06l.025.029.026.028a.727.727 0 01.027.028l.028.027.03.026.03.026.033.025.033.024.034.024c.01.008.023.015.034.023.01.008.023.015.035.022l.036.022c.012.008.025.014.037.02a.698.698 0 00.077.039l.039.02.04.018a.503.503 0 00.04.017l.042.016.042.016.043.015.043.014.044.013.044.013.045.012.045.01c.015.005.03.008.045.01l.046.01.046.009.046.008.047.007.047.006.047.005a.745.745 0 00.047.004c.016 0 .032.002.047.004s.032.002.048.003c.016 0 .032 0 .048.002h.144a.77.77 0 00.048-.002l.048-.003.047-.004a.677.677 0 00.047-.005l.047-.006.047-.006.047-.007.046-.008.046-.01c.015-.002.03-.006.046-.01l.045-.01.045-.012c.015-.004.03-.01.044-.013l.044-.014.044-.015.043-.016.042-.017.042-.018.032-.015a.477.477 0 00.063-.033l.03-.017.03-.018c.01-.006.02-.012.03-.02l.03-.018.03-.02.029-.021a.301.301 0 00.028-.022l.028-.022a.566.566 0 00.028-.023l.027-.024.027-.024.026-.025.026-.026.026-.026.025-.027.025-.028.024-.028.024-.03.024-.03.023-.03.023-.03a.362.362 0 00.022-.032l.022-.032.022-.033.02-.034.022-.034a.397.397 0 00.02-.035l.02-.035a.625.625 0 00.019-.036l.019-.037.019-.037.018-.038.018-.038.017-.04.017-.04c.006-.012.01-.026.016-.04l.016-.04a.693.693 0 01.016-.041l.015-.042.015-.042a.717.717 0 00.014-.043l.014-.044a.732.732 0 00.013-.044l.013-.045.012-.045.012-.046.012-.046.01-.047.012-.047.01-.048.01-.048.009-.05.009-.048.008-.05.008-.05.007-.051.007-.051.006-.052.006-.052a.867.867 0 00.005-.053l.005-.053-.022-.004-.022-.004-.022-.004-.022-.004-.022-.004-.022-.004-.022-.004-.022-.004-.022-.004-.022-.004-.022-.004-.023-.004a.185.185 0 01-.023-.004l-.023-.003-.023-.003-.023-.003-.023-.003-.023-.003-.023-.003-.023-.003a1.385 1.385 0 01-.023-.003c-.008 0-.016-.002-.023-.003-.008 0-.016-.002-.023-.003l-.024-.003-.024-.003-.024-.003-.024-.003-.024-.003-.024-.002-.024-.002-.024-.002a.194.194 0 01-.024-.002.194.194 0 01-.024-.002l-.024-.002a.194.194 0 01-.024-.002l-.025-.002-.025-.002-.025-.002-.025-.002a.21.21 0 01-.025-.002.21.21 0 01-.025-.002.21.21 0 01-.025-.002l-.025-.001-.025-.001-.025-.001-.025-.001-.025-.001-.025-.001-.026-.001-.026-.001h-.367.005z" fill="#fff"/></svg>