<svg width="16" height="16" fill="none" xmlns="http://www.w3.org/2000/svg"><path d="M5.25 1.85A1.75 1.75 0 017 3.6v1.65a1.75 1.75 0 01-.7 1.4l-.187.14a7.048 7.048 0 003.095 3.094l.146-.189A1.752 1.752 0 0110.75 9h1.65a1.75 1.75 0 011.75 1.75v1.65a1.75 1.75 0 01-1.75 1.75A10.551 10.551 0 011.85 3.6 1.751 1.751 0 013.6 1.85h1.65zM3.6 3.15a.449.449 0 00-.45.45 9.25 9.25 0 009.25 9.25.45.45 0 00.45-.45v-1.65a.451.451 0 00-.45-.45h-1.65a.45.45 0 00-.36.18l-.003.004-.196.254.001.001a1.202 1.202 0 01-1.456.364l-.014-.007a8.35 8.35 0 01-3.813-3.808v-.002a1.202 1.202 0 01.349-1.48l.005-.003.257-.193a.453.453 0 00.18-.36V3.6a.45.45 0 00-.45-.45H3.6zm4.95.899a3.401 3.401 0 013.4 3.4.651.651 0 01-1.3 0 2.101 2.101 0 00-2.1-2.1.65.65 0 010-1.3zm0-2.2a5.602 5.602 0 015.6 5.601.65.65 0 01-1.3 0 4.302 4.302 0 00-4.3-4.3.65.65 0 010-1.3z" fill="#58616A"/></svg>