<svg width="182" height="42" fill="none" xmlns="http://www.w3.org/2000/svg"><path d="M64.874 15.968c-1.278-.939-2.791-1.406-4.543-1.406-1.753 0-3.257.467-4.518 1.406-1.34 1.009-2.013 2.283-2.013 3.83 0 1.547.673 2.845 2.013 3.85 1.261.954 2.768 1.43 4.517 1.43 1.75 0 3.266-.476 4.544-1.43 1.39-1.02 2.083-2.303 2.083-3.85 0-1.547-.693-2.821-2.083-3.83zm-1.896 6.02c-.74.594-1.609.889-2.6.889-.992 0-1.844-.295-2.602-.889-.772-.605-1.158-1.336-1.158-2.193s.386-1.579 1.158-2.17a4.167 4.167 0 012.601-.868c.977 0 1.861.29 2.601.869.773.593 1.159 1.315 1.159 2.17 0 .853-.386 1.587-1.159 2.192zM60.333 7.755V6.59H49.42v2.12h7.961c0 1.22-.632 2.216-1.895 2.99-1.452.901-3.579 1.387-6.373 1.457v2.266c3.017-.085 5.471-.608 7.367-1.579 2.569-1.301 3.853-3.33 3.853-6.087v-.003zm4.609.251h-3.91v2.12h3.91v1.059h-3.91v2.12h3.91v1.391h2.773V6.574h-2.773v1.432zm91.127 2.199c0-1.389-.608-2.532-1.828-3.42-1.136-.837-2.464-1.258-3.988-1.258-1.612 0-3.002.418-4.163 1.257-1.235.892-1.852 2.032-1.852 3.421 0 1.266.517 2.333 1.539 3.207h-4.755v2.106h3.874v2.257h-3.213v2.105h14.556v3.973h2.548v-6.078h-3.206v-2.257h3.85v-2.106h-4.877c1.009-.874 1.521-1.941 1.521-3.207h-.006zm-2.999 7.57h-5.673v-2.257h5.673v2.257zm-.632-5.477a3.311 3.311 0 01-2.197.807c-.901 0-1.685-.269-2.352-.807-.685-.55-1.024-1.201-1.024-1.956 0-.754.339-1.447 1.024-2 .667-.523 1.451-.786 2.352-.786.828 0 1.56.263 2.197.786.667.553 1.001 1.22 1.001 2 0 .781-.334 1.392-1.001 1.956zM90.901 5.603h-2.677v19.125h2.677V5.603zM72.973 8.69h9.122c0 2.854-.764 5.085-2.288 6.69-1.612 1.702-4.005 2.597-7.177 2.678v2.369c3.312-.123 6.021-.915 8.125-2.369 2.981-2.035 4.47-5.271 4.47-9.704V6.53H72.974v2.16zm32.841 7.497h6.662v-2.634H99.813s-1.65.263-1.65-2.176v-2.57h14.114l.067-2.307H95.662v5.933s-.068 3.754 3.493 3.754h4.023v4.877h-8.177v2.634h18.464v-2.634h-7.651v-4.877zm29.213-2.836v-6.92h-16.474l.011 2.45 14.02-.024v4.295c0 3.497-1.448 6.705-2.048 7.886h-1.401V14.81h-2.639v6.228h-2.285V14.81h-2.639v6.228h-3.692v2.637h18.464v-2.637h-3.379c1.416-2.181 2.059-7.687 2.059-7.687h.003zm44.393-8.184v3.725h-2.063v2.062h2.063v3.455h2.463V5.167h-2.463zm-4.924 9.371l1.462-1.862c-2.533-.883-3.999-3.065-4.526-3.986h4.395V6.495h-4.523V5.1h-2.862v1.395h-4.924V8.69h4.289c-.377.714-1.863 3.217-4.757 4.52l1.463 1.863s3.42-1.473 5.111-4.26c1.732 2.637 4.869 3.722 4.869 3.722l.003.003zm5.406 1.55c-1.208-.918-2.642-1.375-4.298-1.375-1.656 0-3.08.46-4.274 1.375-1.27.982-1.905 2.23-1.905 3.74 0 1.508.635 2.777 1.905 3.762 1.194.93 2.618 1.395 4.274 1.395 1.656 0 3.09-.465 4.298-1.395 1.314-.997 1.969-2.251 1.969-3.763 0-1.511-.655-2.757-1.969-3.74zm-1.793 5.882c-.699.58-1.522.869-2.461.869-.939 0-1.744-.29-2.46-.869-.732-.59-1.097-1.306-1.097-2.143 0-.836.365-1.54 1.097-2.12a3.869 3.869 0 012.46-.85c.925 0 1.762.283 2.461.85.728.58 1.097 1.287 1.097 2.12 0 .834-.366 1.55-1.097 2.143zM51.913 35.353v-.588h2.118v1.85c-.324.261-.66.454-1.006.586-.345.131-.7.196-1.065.196a2.84 2.84 0 01-1.34-.316c-.4-.21-.705-.515-.91-.913a2.869 2.869 0 01-.307-1.333 3.1 3.1 0 01.304-1.362c.205-.421.498-.734.878-.939.38-.204.822-.307 1.32-.307.36 0 .687.059.98.176.292.117.52.28.687.488.167.21.293.482.377.819l-.596.163a1.878 1.878 0 00-.281-.6 1.137 1.137 0 00-.477-.35 1.751 1.751 0 00-.69-.132c-.302 0-.565.047-.785.138-.22.093-.398.213-.532.362-.135.15-.24.316-.316.495-.126.31-.19.643-.19 1.005 0 .445.076.819.23 1.117.153.301.378.524.67.67.293.146.607.22.934.22.287 0 .568-.056.84-.165.272-.11.48-.228.62-.353v-.93h-1.472l.01.003zm4.503 1.962v-2.117l-1.928-2.88h.804l.986 1.506c.182.28.352.564.51.845.149-.26.333-.556.547-.883l.968-1.468h.772l-1.995 2.88v2.117h-.664zm3.262 0v-4.997h3.616v.59H60.34v1.533h2.768v.584H60.34v1.702h3.07v.59h-3.734l.003-.002zm4.447-2.435c0-.831.223-1.48.67-1.948.445-.468 1.021-.705 1.726-.705.463 0 .878.111 1.25.33.371.22.652.53.845.922.196.394.293.842.293 1.342 0 .5-.103.962-.308 1.36-.204.4-.494.704-.868.909a2.5 2.5 0 01-1.215.31 2.35 2.35 0 01-1.26-.343 2.194 2.194 0 01-.843-.93 2.84 2.84 0 01-.287-1.248h-.003zm.682.01c0 .603.16 1.077.486 1.425.324.345.731.52 1.22.52.488 0 .907-.175 1.231-.523.322-.351.483-.848.483-1.491 0-.407-.07-.764-.208-1.065a1.592 1.592 0 00-1.495-.959c-.468 0-.872.161-1.208.483-.337.321-.506.86-.506 1.61h-.003zm4.947 2.425v-4.997h.68l2.626 3.924v-3.924h.635v4.997h-.678l-2.628-3.927v3.927h-.635zm7.391-1.962v-.588h2.118v1.85a3.727 3.727 0 01-1.007.586 2.96 2.96 0 01-1.064.196 2.84 2.84 0 01-1.34-.316 2.086 2.086 0 01-.91-.913 2.869 2.869 0 01-.307-1.333 3.1 3.1 0 01.304-1.362 2.03 2.03 0 01.877-.939 2.755 2.755 0 011.32-.307c.363 0 .688.059.98.176.293.117.52.28.688.488.166.21.292.482.377.819l-.597.163a1.878 1.878 0 00-.28-.6 1.156 1.156 0 00-.478-.35 1.747 1.747 0 00-.687-.132c-.301 0-.565.047-.784.138-.22.093-.398.213-.533.362-.134.15-.24.316-.316.495a2.6 2.6 0 00-.19 1.005c0 .445.076.819.231 1.117.152.301.378.524.67.67.293.146.606.22.936.22.287 0 .565-.056.84-.165.272-.11.48-.228.62-.353v-.93h-1.468v.003zm5.433 0v-.588h2.118v1.85a3.737 3.737 0 01-1.006.586c-.346.131-.7.196-1.063.196a2.84 2.84 0 01-1.34-.316c-.4-.21-.705-.515-.91-.913a2.869 2.869 0 01-.307-1.333 3.1 3.1 0 01.305-1.362 2.03 2.03 0 01.877-.939 2.755 2.755 0 011.32-.307c.363 0 .688.059.98.176.293.117.52.28.688.488.166.21.292.482.377.819l-.597.163a1.878 1.878 0 00-.28-.6 1.156 1.156 0 00-.478-.35 1.751 1.751 0 00-.69-.132c-.301 0-.565.047-.784.138-.22.093-.398.213-.533.362-.134.15-.24.316-.316.495-.125.31-.19.643-.19 1.005 0 .445.076.819.231 1.117.152.301.378.524.67.67.293.146.606.22.934.22.286 0 .567-.056.84-.165.271-.11.48-.228.62-.353v-.93h-1.47l.004.003zm3.206 1.962v-4.997h.662v4.997h-.662zm1.829 0v-4.997h1.723c.39 0 .685.023.893.073.286.064.53.184.731.357.263.222.462.508.591.853.132.348.196.743.196 1.188 0 .38-.044.716-.132 1.008-.09.293-.201.535-.342.728a1.81 1.81 0 01-.456.453 1.91 1.91 0 01-.597.252c-.234.055-.5.085-.805.085H87.61h.003zm.664-.59h1.068c.33 0 .588-.033.775-.092a1.08 1.08 0 00.448-.26c.158-.158.278-.368.366-.634a3.07 3.07 0 00.131-.962c0-.523-.084-.924-.257-1.205-.173-.28-.38-.468-.626-.564-.179-.067-.463-.102-.858-.102h-1.05v3.818h.003zm4.181-1.845c0-.831.222-1.48.67-1.948.445-.468 1.021-.705 1.726-.705.462 0 .878.111 1.25.33.371.22.652.53.848.922.196.394.292.842.292 1.342 0 .5-.102.962-.307 1.36-.205.4-.494.704-.869.909a2.51 2.51 0 01-1.214.31 2.35 2.35 0 01-1.26-.343 2.193 2.193 0 01-.843-.93 2.84 2.84 0 01-.287-1.248h-.006zm.682.01c0 .603.16 1.077.485 1.425.325.345.732.52 1.22.52.489 0 .907-.175 1.23-.523.321-.351.482-.848.482-1.491 0-.407-.07-.764-.208-1.065a1.592 1.592 0 00-1.495-.959c-.468 0-.872.161-1.208.483-.337.321-.506.86-.506 1.61zm7.779-.01c0-.831.223-1.48.667-1.948.445-.468 1.021-.705 1.726-.705.463 0 .878.111 1.25.33.371.22.652.53.848.922.193.394.293.842.293 1.342 0 .5-.103.962-.307 1.36a2.1 2.1 0 01-.869.909c-.375.204-.779.31-1.215.31a2.35 2.35 0 01-1.261-.343 2.194 2.194 0 01-.842-.93 2.842 2.842 0 01-.287-1.248h-.003zm.682.01c0 .603.164 1.077.486 1.425.324.345.731.52 1.22.52.488 0 .907-.175 1.228-.523.322-.351.483-.848.483-1.491 0-.407-.067-.764-.205-1.065a1.589 1.589 0 00-1.495-.959c-.468 0-.872.161-1.208.483-.336.321-.506.86-.506 1.61h-.003zm4.985 2.425v-4.997h3.374v.59h-2.712v1.547h2.346v.59h-2.346v2.27h-.662zm4.269 0v-4.997h3.373v.59h-2.712v1.547h2.347v.59h-2.347v2.27h-.661zm4.345 0v-4.997h.661v4.997h-.661zm5.398-1.755l.661.167c-.138.544-.386.956-.749 1.243-.36.283-.802.427-1.323.427-.52 0-.977-.112-1.313-.328-.34-.22-.597-.538-.773-.953a3.416 3.416 0 01-.263-1.34c0-.52.1-.973.299-1.362a2.04 2.04 0 01.848-.883 2.48 2.48 0 011.211-.3c.501 0 .922.125 1.261.38.343.254.58.61.714 1.072l-.652.152c-.117-.365-.284-.628-.504-.795-.222-.167-.497-.248-.833-.248-.384 0-.705.09-.963.274-.257.184-.439.43-.544.74-.105.31-.158.632-.158.962 0 .424.061.795.187 1.114.123.316.316.553.576.71.261.158.545.237.849.237.372 0 .685-.108.942-.321.257-.214.43-.533.524-.95l.003.002zm1.489 1.755v-4.997h3.616v.59h-2.955v1.533h2.768v.584h-2.768v1.702h3.069v.59h-3.733l.003-.002zm7.472-2.435c0-.831.225-1.48.67-1.948.448-.468 1.021-.705 1.726-.705.463 0 .878.111 1.25.33.371.22.652.53.848.922.196.394.293.842.293 1.342 0 .5-.103.962-.308 1.36-.204.4-.494.704-.868.909-.375.204-.779.31-1.215.31a2.37 2.37 0 01-1.264-.343 2.194 2.194 0 01-.842-.93 2.842 2.842 0 01-.287-1.248h-.003zm.682.01c0 .603.164 1.077.486 1.425.324.345.731.52 1.22.52.488 0 .907-.175 1.228-.523.322-.351.483-.848.483-1.491 0-.407-.067-.764-.208-1.065a1.589 1.589 0 00-1.495-.959c-.468 0-.872.161-1.208.483-.336.321-.506.86-.506 1.61zm4.988 2.425v-4.997h3.374v.59h-2.713v1.547h2.347v.59h-2.347v2.27h-.661zm7.271 0v-4.997h3.616v.59h-2.955v1.533h2.765v.584h-2.765v1.702h3.069v.59h-3.73v-.002zm4.646 0v-4.997h1.723c.389 0 .685.023.889.073.287.064.53.184.735.357.263.222.462.508.591.853.131.348.196.743.196 1.188 0 .38-.044.716-.132 1.008a2.422 2.422 0 01-.342.728 1.77 1.77 0 01-.457.453 1.841 1.841 0 01-.596.252 3.493 3.493 0 01-.805.085h-1.805.003zm.664-.59h1.068c.33 0 .588-.033.775-.092a1.11 1.11 0 00.451-.26 1.53 1.53 0 00.365-.634 3.06 3.06 0 00.132-.962c0-.523-.085-.924-.257-1.205-.173-.28-.381-.468-.627-.564-.175-.067-.462-.102-.854-.102h-1.05v3.818h-.003zm7.662-4.41h.662v2.889c0 .503-.056.9-.17 1.196a1.478 1.478 0 01-.614.722c-.299.184-.688.278-1.168.278s-.851-.082-1.15-.243a1.383 1.383 0 01-.637-.699c-.129-.304-.191-.722-.191-1.251v-2.89h.662v2.884c0 .435.041.754.122.959.082.204.22.365.416.476.196.111.436.167.72.167.485 0 .833-.111 1.041-.33.208-.223.31-.644.31-1.272v-2.883l-.003-.003zm5.334 3.245l.661.167c-.137.544-.389.956-.749 1.243-.36.283-.801.427-1.322.427s-.977-.112-1.317-.328a2.058 2.058 0 01-.769-.953 3.399 3.399 0 01-.264-1.34c0-.52.1-.973.299-1.362a2.05 2.05 0 01.848-.883 2.479 2.479 0 011.215-.3c.5 0 .921.125 1.261.38.339.254.579.61.713 1.072l-.652.152c-.117-.365-.284-.628-.506-.795-.22-.167-.498-.248-.834-.248-.383 0-.705.09-.963.274a1.47 1.47 0 00-.544.74c-.105.31-.158.632-.158.962 0 .424.062.795.185 1.114.122.316.316.553.579.71.26.158.544.237.848.237.372 0 .685-.108.942-.321.258-.214.431-.533.524-.95l.003.002zm.927 1.755l1.92-4.997h.714l2.048 4.997h-.755l-.582-1.515h-2.092l-.547 1.515h-.706zm1.443-2.053h1.694l-.521-1.386a13.875 13.875 0 01-.354-1.035 6.02 6.02 0 01-.269.956l-.55 1.465zm4.52 2.053v-4.41h-1.647v-.59h3.964v.59h-1.653v4.41h-.664zm3.107 0v-4.997h.661v4.997h-.661zm1.627-2.435c0-.831.222-1.48.67-1.948.448-.468 1.021-.705 1.726-.705.462 0 .878.111 1.249.33.369.22.653.53.849.922.193.394.292.842.292 1.342 0 .5-.102.962-.307 1.36a2.09 2.09 0 01-.869.909c-.374.204-.781.31-1.214.31a2.36 2.36 0 01-1.261-.343 2.194 2.194 0 01-.842-.93 2.828 2.828 0 01-.287-1.248h-.006zm.682.01c0 .603.161 1.077.485 1.425.325.345.732.52 1.22.52.489 0 .907-.175 1.229-.523.322-.351.483-.848.483-1.491 0-.407-.067-.764-.205-1.065a1.573 1.573 0 00-.606-.707 1.64 1.64 0 00-.892-.252c-.468 0-.872.161-1.208.483-.337.321-.506.86-.506 1.61zm4.947 2.425v-4.997h.679l2.627 3.924v-3.924H182v4.997h-.679l-2.627-3.927v3.927h-.635z" fill="#040000"/><path d="M25.734 41.973L0 42l2.53-14.423 25.735-.027-2.531 14.423z" fill="#2AB077"/><path d="M3.671 39.238l1.595-9.102 5.754-.005-1.595 9.102H7.532l.073-.41-3.932.418-.002-.003zm2.264-1.882l1.958-.192.947-5.397H6.915l-.98 5.587v.002zm4.751 2.214l1.715-9.777h2.017l-1.715 9.774h-2.017v.003zm3.379-.342l.973-5.555h2.778l.33-1.882h-2.779l.293-1.665 4.537-.005-.9 5.132H16.54l-.36 2.062 3.182-.363-.295 1.68-5.002.596zm5.214.332l1.715-9.777h1.634l-.643 3.673h.665l.644-3.676h1.664l-1.715 9.777H21.58l.768-4.38h-.666l-.768 4.383h-1.635z" fill="#fff"/><path d="M37.056 28.184l-25.733.026 2.53-14.425 25.733-.027-2.53 14.426z" fill="#443F97"/><path d="M22.675 23.34h-1.769l.335-1.899h-1.593l-.708 1.904h-1.56l-.171.973 6.99-.008-.258 1.468-8.833.01.535-3.043h1.705l.487-1.301h-2.392l.3-1.71 9.54-.009-.3 1.711h-1.977l-.334 1.904h.003zm.12-3.949l.446-1.711-6.742.007.29-1.657 8.76-.01-.852 3.369h-1.905l.002.002zm5.478 2.749l4.973-.004c1.125 0 1.856.748 1.664 1.845-.183 1.046-1.186 1.838-2.31 1.84l-4.974.005c-1.112 0-1.827-.79-1.644-1.835.193-1.1 1.178-1.848 2.29-1.85zm-.132-3.875h2.456c.8-.002 1.369.736 1.205 1.665-.163.929-.99 1.67-1.79 1.67h-2.456c-.8.002-1.369-.737-1.205-1.665.163-.929.99-1.67 1.79-1.67zm-1.573-.336l.234-1.331h1.883l.144-.827h1.934l-.144.822h1.893l-.234 1.328-5.71.005v.003zm5.71 6.467c.363 0 .61-.159.656-.425.049-.275-.144-.421-.51-.421l-3.839.005c-.322 0-.566.148-.615.424-.046.263.144.422.466.422l3.84-.005h.002zm-2.537-4.093c.261 0 .437-.18.47-.37.035-.2-.08-.371-.34-.369h-1.425c-.261 0-.437.17-.47.37-.035.19.08.371.34.369h1.425zm2.3.578l.256-1.458h1.3l.144-.824h-1.3l.259-1.467H34l.2-1.141h1.976l-1.037 5.911h-1.976l.18-1.021h-1.302z" fill="#fff"/><path d="M25.948 14.423L.215 14.45 2.745.027 28.477 0l-2.53 14.423z" fill="#DD3059"/><path d="M4.093 9.609c1.066-.444 2.444-1.597 2.998-4.585l.12-.675H5.16l.308-1.75 5.961-.008-.307 1.753h-2.04l-.119.677c-.502 2.989.47 4.14 1.38 4.58l-.363 2.07c-1.178-.4-2.224-1.316-2.624-2.879-.94 1.563-2.308 2.484-3.627 2.886l.363-2.07zm6.537 2.41l1.715-9.777h1.975l-.636 3.63h1.154l-.317 1.804h-1.154l-.761 4.341H10.63v.003zm13.716-4.723h-1.82l-.112.636h1.383l-.437 2.491-6.7.008-.073.421 6.856-.007-.205 1.163-8.832.01.456-2.6 6.71-.006.073-.412-6.71.007.188-1.068h1.364l.246-.636h-1.925l.25-1.414 9.539-.01-.249 1.414-.002.003zm-7.154-1.797c-.969 0-1.623-.716-1.462-1.635.164-.93 1.071-1.658 2.04-1.66l5.388-.005c.956 0 1.62.726 1.456 1.655-.161.919-1.078 1.638-2.034 1.638l-5.388.005v.002zm.897-1.964c-.22 0-.41.148-.444.338-.034.19.108.34.325.337l4.317-.005c.22 0 .422-.149.454-.339.034-.19-.117-.339-.337-.336l-4.317.005h.002zm.225 4.402h2.268l.112-.636h-2.122l-.256.636h-.002z" fill="#fff"/></svg>