<svg width="152" height="48" fill="none" xmlns="http://www.w3.org/2000/svg"><path d="M48.548 24c0 13.253-10.87 24-24.274 24C10.87 48 0 37.253 0 24S10.87 0 24.274 0c13.404 0 24.274 10.747 24.274 24z" fill="#fff"/><path d="M35.661 22.325c-3.857-2.594-8.796-1.54-11.394 2.361-2.163 3.256-5.431 3.663-6.69 3.663-4.132 0-6.948-2.873-7.787-5.841 0 0-.017-.056-.025-.088l-.024-.096c-.33-1.244-.411-1.827-.411-3.143 0-7.093 7.367-15 17.971-15s17.084 8.178 18.69 12.726a4.152 4.152 0 01-.081-.24C42.82 7.772 34.298 1.38 24.25 1.38 11.63 1.38 1.38 11.505 1.38 24c0 11.17 8.143 20.72 19.45 20.72 9.005 0 15.065-4.994 17.841-11.88 1.526-3.766.444-8.194-3.01-10.516z" fill="#003964"/><path d="M46.128 17.338c-1.34-4.436-7.601-13.165-18.826-13.165-10.604 0-17.972 7.907-17.972 15 0 1.316.08 1.907.412 3.144a6.596 6.596 0 01-.21-1.612c0-7.396 7.48-12.51 15.18-12.51 10.417 0 18.866 8.345 18.866 18.645 0 8.075-4.696 15.064-11.523 18.423 8.804-3.143 15.082-11.481 15.082-21.271 0-2.314-.315-4.356-1-6.654" fill="#ED1A3B"/><path d="M136.247 12.497c-.225-2.094-2.117-3.313-4.779-3.313-2.855 0-4.651 1.406-4.651 3.344 0 2.156 2.406 2.969 4.234 3.406l2.245.594c2.983.687 6.672 2.281 6.704 6.375-.032 3.812-3.144 6.625-8.628 6.625-5.197 0-8.468-2.531-8.693-6.656h3.529c.224 2.468 2.437 3.656 5.164 3.656 2.95 0 5.099-1.469 5.132-3.688-.033-1.968-1.925-2.78-4.395-3.406l-2.758-.719c-3.721-1-6.062-2.843-6.062-6 0-3.906 3.592-6.5 8.275-6.5 4.715 0 8.019 2.625 8.115 6.282h-3.432zM108.47 29.153h-7.537V6.528h7.762c6.832 0 10.937 4.25 10.937 11.281 0 7.063-4.105 11.344-11.162 11.344zm-4.009-3h3.817c5.26 0 7.858-3 7.858-8.344 0-5.312-2.598-8.281-7.666-8.281h-4.009v16.625zm-23.768 3V6.528h8.276c5.388 0 8.05 2.937 8.05 7.094 0 3.047-1.41 5.359-4.234 6.375l5.133 9.156h-4.01l-4.715-8.531h-4.971v8.53h-3.529zm3.529-11.5h4.394c3.432 0 4.843-1.469 4.843-4.031 0-2.563-1.411-4.157-4.843-4.157h-4.394v8.188zm-24.409 11.5V6.528h3.528v10.781h.288l9.72-10.781h4.425L68.41 16.715l9.397 12.438h-4.265l-7.474-10.094-2.726 3.063v7.03h-3.529z" fill="#575756"/><path fill-rule="evenodd" clip-rule="evenodd" d="M102.645 36.898v4.773h1.125v-4.773h-1.125zm-.08-1.292c0 .343.299.616.651.616.36 0 .65-.273.65-.616 0-.334-.29-.606-.65-.606-.352 0-.651.273-.651.606zm19.029 1.45c-.053-.544-.519-.86-1.204-.86-.721 0-1.161.35-1.161.826 0 .536.563.755 1.09.878l.598.159c.949.22 1.863.72 1.863 1.828 0 1.116-.879 1.88-2.408 1.88-1.485 0-2.417-.711-2.47-1.968h1.125c.053.668.616.993 1.336.993.756 0 1.275-.37 1.275-.914 0-.501-.466-.712-1.152-.888l-.72-.184c-1.046-.273-1.697-.8-1.697-1.714 0-1.125 1.002-1.872 2.338-1.872 1.354 0 2.268.764 2.285 1.837h-1.098zm14.15.704v-.862h-.94v-1.142h-1.116v1.142h-.686v.862h.686v2.663c-.009.896.641 1.31 1.485 1.31.281 0 .501-.018.633-.044v-.915a9.573 9.573 0 01-.493.018c-.281 0-.509-.097-.509-.554V37.76h.94zm2.927 4.008c-1.442 0-2.32-.958-2.32-2.453 0-1.476.896-2.478 2.258-2.478 1.169 0 2.18.73 2.18 2.408v.352h-3.331c.013.813.492 1.292 1.222 1.292.492 0 .826-.211.966-.492h1.099c-.202.826-.967 1.37-2.074 1.37zm-1.204-2.936h2.25c-.009-.65-.44-1.125-1.09-1.125-.677 0-1.125.514-1.16 1.125zm4.192 2.839v-4.773h1.072v.809h.062c.193-.545.677-.87 1.31-.87.65 0 1.107.325 1.292.87h.052c.211-.527.739-.87 1.433-.87.87 0 1.485.562 1.485 1.626v3.208h-1.116v-3.032c0-.598-.36-.862-.817-.862-.554 0-.87.378-.87.914v2.98h-1.09v-3.076c0-.492-.334-.818-.809-.818-.483 0-.879.396-.879.993v2.9h-1.125zm-10.309-3.41c-.071-.36-.37-.59-.844-.59-.484 0-.835.238-.826.563-.009.246.193.431.676.545l.809.167c.905.202 1.336.616 1.345 1.301-.009.897-.791 1.52-2.039 1.52-1.213 0-1.934-.544-2.048-1.458h1.142c.071.404.387.606.906.606.536 0 .896-.22.896-.571 0-.273-.22-.449-.694-.554l-.765-.167c-.887-.176-1.345-.642-1.345-1.327 0-.879.756-1.46 1.925-1.46 1.143 0 1.846.555 1.925 1.425h-1.063zm-7.577 5.176c.141.018.361.027.581.027.896 0 1.397-.448 1.669-1.213l1.916-5.353h-1.186l-1.107 3.604h-.053l-1.108-3.604h-1.186l1.74 4.87-.097.255c-.193.51-.421.536-.694.536-.149 0-.334-.01-.475-.018v.897zm-12.419-1.766v-2.795c0-.694.414-1.09 1.011-1.09.589 0 .932.378.932 1.02v2.865h1.116V38.63c.009-1.143-.642-1.793-1.635-1.793-.712 0-1.195.334-1.415.87h-.061v-.809h-1.073v4.773h1.125zm-4.429 1.89c-1.266 0-2.066-.563-2.145-1.46h1.116c.08.414.475.616 1.046.616.668 0 1.108-.29 1.108-.993v-.914h-.053c-.176.351-.554.79-1.38.79-1.098 0-1.969-.8-1.969-2.355 0-1.573.871-2.408 1.978-2.408.844 0 1.195.5 1.371.844h.053v-.783h1.107v4.852c0 1.222-.94 1.81-2.232 1.81zm0-2.84c.721 0 1.134-.544 1.134-1.458 0-.906-.405-1.512-1.134-1.512-.747 0-1.134.642-1.134 1.512 0 .879.396 1.459 1.134 1.459zm-6.293-2.46c-.07-.36-.369-.59-.844-.59-.483 0-.835.238-.826.563-.009.246.193.431.677.545l.808.167c.906.202 1.336.616 1.345 1.301-.009.897-.791 1.52-2.04 1.52-1.212 0-1.933-.544-2.047-1.458h1.143c.07.404.386.606.905.606.536 0 .896-.22.896-.571 0-.273-.219-.449-.694-.554l-.765-.167c-.887-.176-1.344-.642-1.344-1.327 0-.879.756-1.46 1.924-1.46 1.143 0 1.846.555 1.925 1.425h-1.063zm-8.016 1.054c0 1.495.88 2.453 2.32 2.453 1.108 0 1.873-.545 2.075-1.371h-1.099c-.14.28-.475.492-.967.492-.73 0-1.208-.48-1.221-1.292h3.33v-.352c0-1.679-1.01-2.408-2.179-2.408-1.362 0-2.259 1.002-2.259 2.478zm3.366-.483h-2.25c.036-.61.484-1.125 1.16-1.125.651 0 1.082.475 1.09 1.125zm-7.207 2.839h-2.162v-6.363h2.198c1.898 0 3.05 1.195 3.05 3.172 0 1.987-1.152 3.19-3.086 3.19zm-1.02-.993h.959c1.327 0 2.004-.73 2.004-2.197 0-1.46-.677-2.18-1.969-2.18h-.993v4.377zm-7.18-1.793c-.888.053-1.775.369-1.775 1.441 0 .94.685 1.442 1.6 1.442.746 0 1.195-.352 1.406-.756h.035v.659h1.072v-3.19c0-1.275-1.046-1.644-1.951-1.644-1.195 0-1.925.615-2.004 1.424h1.081c.088-.343.396-.572.897-.572.553 0 .86.273.86.748v.378c-.206.008-.891.048-1.22.07zm.114 2.056c-.474 0-.808-.21-.808-.624 0-.422.334-.641.87-.685l1.055-.07v.395c0 .536-.44.984-1.117.984zm-4.658.827c-1.441 0-2.32-.958-2.32-2.453 0-1.476.896-2.478 2.259-2.478 1.169 0 2.18.73 2.18 2.408v.352h-3.332c.014.813.493 1.292 1.222 1.292.492 0 .826-.211.967-.492h1.099c-.203.826-.967 1.37-2.075 1.37zm-1.204-2.936h2.25c-.009-.65-.44-1.125-1.09-1.125-.676 0-1.125.514-1.16 1.125zm-4.148-1.934v4.773h1.125v-2.813c0-.606.457-1.037 1.08-1.037.185 0 .423.035.52.07v-1.036a2.924 2.924 0 00-.405-.027c-.545 0-1.01.316-1.178.861h-.052v-.79h-1.09zm-3.156 4.87c-1.388 0-2.285-.985-2.285-2.461 0-1.486.897-2.47 2.285-2.47 1.398 0 2.286.984 2.286 2.47 0 1.476-.888 2.46-2.286 2.46zm.01-.897c.764 0 1.142-.694 1.142-1.573 0-.87-.378-1.573-1.143-1.573-.782 0-1.16.703-1.16 1.573 0 .879.378 1.573 1.16 1.573zM60 35.308v6.363h1.143v-1.898l.712-.836 1.907 2.734h1.38l-2.488-3.507 2.461-2.856h-1.397l-2.488 2.926h-.087v-2.926H60z" fill="#575756"/></svg>