<svg width="24" height="24" fill="none" xmlns="http://www.w3.org/2000/svg"><path fill-rule="evenodd" clip-rule="evenodd" d="M12.63 1.807a.8.8 0 00-1.259 0c-1.128 1.44-2.859 2.372-4.82 2.372a6.12 6.12 0 01-2.254-.438.8.8 0 00-1.094.744v6.435c0 4.482 2.16 7.293 4.31 8.959a13.395 13.395 0 003.898 2.078 8.157 8.157 0 00.362.11l.023.006.007.002h.003c.001 0 .002 0 .197-.775l-.195.776a.8.8 0 00.39 0l-.195-.776.195.776h.001l.003-.001.007-.002.024-.006a5.294 5.294 0 00.361-.109c.238-.077.573-.196.972-.365a13.35 13.35 0 002.927-1.709c2.15-1.664 4.31-4.475 4.31-8.964V4.485a.8.8 0 00-1.093-.745 6.137 6.137 0 01-2.254.439h-.005c-1.962 0-3.693-.933-4.82-2.372zm-.53 18.63a9.983 9.983 0 01-.096.03l-.096-.03a11.8 11.8 0 01-3.415-1.822c-1.85-1.434-3.69-3.813-3.69-7.695V5.573a7.57 7.57 0 001.747.206A7.67 7.67 0 0012 3.505a7.671 7.671 0 005.451 2.274h.005a7.56 7.56 0 001.747-.206v5.347c0 3.89-1.84 6.268-3.69 7.7a11.754 11.754 0 01-3.413 1.817zm4.457-10.06a.8.8 0 00-1.108-1.154l-4.623 4.44-2.24-2.376a.8.8 0 00-1.165 1.098l2.795 2.964a.8.8 0 001.137.028l5.204-5z" fill="#303336"/></svg>