<svg width="24" height="24" fill="none" xmlns="http://www.w3.org/2000/svg"><path fill-rule="evenodd" clip-rule="evenodd" d="M11.02 1.6a.8.8 0 00-.774.596l-.507 1.925-1.71.721-1.26-1.12a.8.8 0 00-1.097.032l-1.92 1.92a.8.8 0 00-.055 1.07l1.096 1.35-.703 1.73-1.874.437a.8.8 0 00-.618.78v1.92a.8.8 0 00.589.77l1.93.528.722 1.714-1.119 1.255a.8.8 0 00.032 1.098l1.92 1.92a.8.8 0 001.071.054l1.35-1.1 1.689.695.48 1.901a.8.8 0 00.776.604h1.92a.8.8 0 00.775-.603l.482-1.903 1.74-.72c.178.147.39.329.599.51l.47.415c.062.054.112.098.146.13l.053.047a.8.8 0 001.1-.03l1.92-1.92a.8.8 0 00.045-1.083l-1.11-1.308.716-1.727 1.905-.496a.8.8 0 00.599-.774V11.04a.8.8 0 00-.603-.775L19.9 9.783l-.714-1.724 1.101-1.302a.8.8 0 00-.045-1.083l-1.92-1.92a.8.8 0 00-1.085-.042l-1.294 1.106-1.778-.731-.497-1.89a.8.8 0 00-.774-.597H11.02zm.167 3.309l.45-1.709h.642l.44 1.678a.8.8 0 00.47.537l2.598 1.069a.8.8 0 00.824-.132l1.104-.943.877.876L17.65 7.4a.8.8 0 00-.129.822l1.054 2.545a.8.8 0 00.542.469l1.68.427v.658l-1.692.44a.8.8 0 00-.538.468l-1.054 2.545a.8.8 0 00.129.824l.948 1.118-.867.867-.12-.104c-.356-.31-.806-.695-1.056-.874a.8.8 0 00-.771-.088l-2.545 1.054a.8.8 0 00-.47.542l-.427 1.688h-.674l-.427-1.688a.8.8 0 00-.47-.544l-2.502-1.03a.8.8 0 00-.81.12l-1.16.945-.874-.874.952-1.069a.8.8 0 00.14-.843L5.44 13.28a.8.8 0 00-.527-.461l-1.715-.469v-.674l1.66-.387a.8.8 0 00.558-.478L6.454 8.26a.8.8 0 00-.12-.806l-.94-1.157.876-.877 1.072.954a.8.8 0 00.843.14l2.538-1.07a.8.8 0 00.463-.534zm.812 3.291a3.8 3.8 0 100 7.6 3.8 3.8 0 000-7.6zM9.8 12a2.2 2.2 0 114.4 0 2.2 2.2 0 01-4.4 0z" fill="#33363D"/></svg>