<svg width="20" height="20" fill="none" xmlns="http://www.w3.org/2000/svg"><path fill-rule="evenodd" clip-rule="evenodd" d="M13.695 2.029c.26-.26.683-.26.943 0l3.333 3.333a.667.667 0 010 .943l-7.5 7.5A.667.667 0 0110 14H6.667A.667.667 0 016 13.333V10c0-.177.07-.346.195-.471l7.5-7.5zm.472 1.414L12.61 5 15 7.39l1.557-1.557-2.39-2.39zm-.11 4.89l-2.39-2.39-4.334 4.333v2.39h2.39l4.334-4.333zM4 3.833A.167.167 0 003.833 4v12c0 .092.075.167.167.167h12a.167.167 0 00.167-.167v-5.833a.667.667 0 111.333 0V16a1.5 1.5 0 01-1.5 1.5H4A1.5 1.5 0 012.5 16V4A1.5 1.5 0 014 2.5h5.833a.667.667 0 110 1.333H4z" fill="#6D7882"/></svg>