<svg width="20" height="20" fill="none" xmlns="http://www.w3.org/2000/svg"><path d="M11.25 1.667c.177 0 .347.07.472.195l4.749 4.75a.668.668 0 01.195.472v2.083h.001c.46 0 .833.373.833.833v5c0 .46-.374.833-.834.833v1a1.5 1.5 0 01-1.5 1.5H4.833a1.5 1.5 0 01-1.5-1.5V3.167a1.5 1.5 0 011.5-1.5h6.417zM4.833 3a.167.167 0 00-.166.167v13.666c0 .092.074.167.166.167h10.333a.167.167 0 00.167-.167v-1H6.667A.834.834 0 015.833 15v-5c0-.46.374-.833.834-.833h8.666V7.75h-3.25a1.5 1.5 0 01-1.5-1.5V3h-5.75zm7.084 3.25c0 .092.074.167.166.167h2.307l-2.473-2.474V6.25z" fill="#33363D"/><path d="M8.754 10.833c.765 0 1.175.466 1.175 1.107 0 .64-.415 1.101-1.185 1.101H8.1v1.129h-.6v-3.337h1.254zm2.811 0c.996 0 1.6.627 1.6 1.664 0 1.042-.604 1.673-1.618 1.673h-1.134v-3.337h1.152zm4.268.503h-1.54v.912h1.393v.503h-1.392v1.419h-.6v-3.337h2.139v.503zm-4.821 2.313h.503c.696 0 1.05-.382 1.05-1.152 0-.765-.354-1.142-1.032-1.143h-.521v2.295zM8.1 12.548h.561c.452 0 .655-.254.655-.608 0-.36-.203-.604-.655-.604H8.1v1.212z" fill="#fff"/></svg>