<svg width="24" height="24" fill="none" xmlns="http://www.w3.org/2000/svg"><path fill-rule="evenodd" clip-rule="evenodd" d="M3.944 6.656a2.357 2.357 0 004.572.807H6.692a.8.8 0 110-1.6H8.52a2.358 2.358 0 00-4.577.793zM6.3 10.613a3.958 3.958 0 003.874-3.15h3.656c.102.5.299.964.57 1.376l-5.51 5.51a3.957 3.957 0 101.287 3.791h3.656a3.958 3.958 0 007.833-.798 3.957 3.957 0 00-7.832-.802h-3.658a3.928 3.928 0 00-.306-.909l5.662-5.661a3.957 3.957 0 10-1.702-4.107h-3.653a3.958 3.958 0 00-7.834.793A3.957 3.957 0 006.3 10.613zm9.19 7.527h2.218a.8.8 0 000-1.6h-2.216a2.358 2.358 0 11-.001 1.6zm-.14-11.477a2.357 2.357 0 104.713 0 2.357 2.357 0 00-4.713 0zM6.3 19.698a2.357 2.357 0 110-4.714 2.357 2.357 0 010 4.714z" fill="#303336"/></svg>