<svg width="24" height="24" fill="none" xmlns="http://www.w3.org/2000/svg"><path fill-rule="evenodd" clip-rule="evenodd" d="M4.633 3.059a3.114 3.114 0 014.359.063l.03.032a.972.972 0 01.015.017l.013.017.02.024a12.519 12.519 0 01.217.279l.486.629.48.623.195.252a3.13 3.13 0 01-.017 4.268l-.865 1.027a8.804 8.804 0 004.144 4.15l1.027-.867a3.129 3.129 0 014.27-.02l.253.195.624.48.63.487.213.165.065.052.025.02.016.013.016.014.038.035a3.13 3.13 0 01.022 4.394l-.669.77a.787.787 0 01-.051.054c-1.823 1.743-4.255 1.878-6.598 1.155-2.337-.72-4.712-2.319-6.669-4.271-1.957-1.954-3.562-4.327-4.295-6.662-.734-2.34-.62-4.773 1.1-6.6a.802.802 0 01.057-.056l.849-.739zM18 14.798a.812.812 0 01-.064-.055 1.528 1.528 0 00-2.113.003.843.843 0 01-.037.034l-1.427 1.207a.8.8 0 01-.822.128 10.403 10.403 0 01-5.646-5.653.8.8 0 01.128-.82l1.202-1.428a1.53 1.53 0 00.036-2.149.802.802 0 01-.054-.063l-.218-.282A1120.744 1120.744 0 007.86 4.263l-.032-.04a1.514 1.514 0 00-2.131.03l-.832.724c-1.158 1.254-1.34 2.995-.712 4.998.635 2.024 2.069 4.183 3.898 6.008 1.83 1.825 3.989 3.252 6.01 3.875 2.001.617 3.74.422 4.995-.758l.66-.76a.798.798 0 01.037-.04 1.529 1.529 0 00.027-2.128l-.039-.03-.208-.162a518.878 518.878 0 00-1.25-.965L18 14.798zM7.856 4.248zm.01.012a.735.735 0 01-.01-.011l.01.01z" fill="#33363D"/></svg>