<svg width="32" height="32" fill="none" xmlns="http://www.w3.org/2000/svg"><g clip-path="url(#clip0_564_25707)"><rect width="32" height="32" rx="2" fill="#063A74"/><path fill-rule="evenodd" clip-rule="evenodd" d="M9 9.827A3.827 3.827 0 0112.827 6H19a3.827 3.827 0 012.264 6.914 3.827 3.827 0 11-4.61 6.11v3.149a3.827 3.827 0 11-6.09-3.086A3.822 3.822 0 019 16a3.82 3.82 0 011.564-3.086A3.822 3.822 0 019 9.827zm6.173 8.519h-2.367a2.346 2.346 0 01.021-4.692h2.346v4.692zm-2.367 1.481a2.346 2.346 0 102.367 2.346v-2.346h-2.367zm.021-12.346a2.346 2.346 0 100 4.692h2.346V7.48h-2.346zm6.173 0a2.346 2.346 0 110 4.692h-2.345V7.48H19zm2.346 8.52a2.346 2.346 0 10-4.691 0 2.346 2.346 0 004.691 0z" fill="#fff"/></g><defs><clipPath id="clip0_564_25707"><path d="M0 6a6 6 0 016-6h20a6 6 0 016 6v20a6 6 0 01-6 6H6a6 6 0 01-6-6V6z" fill="#fff"/></clipPath></defs></svg>