<svg width="24" height="24" fill="none" xmlns="http://www.w3.org/2000/svg"><path fill-rule="evenodd" clip-rule="evenodd" d="M3.8 11c0-.208.142-.668.572-1.316.41-.615 1.017-1.303 1.78-1.947C7.684 6.442 9.757 5.4 11.998 5.4s4.315 1.042 5.848 2.337c.763.644 1.37 1.332 1.779 1.947.43.648.573 1.108.573 1.316 0 .118-.05.341-.237.665a.8.8 0 101.388.796c.261-.454.45-.958.45-1.46 0-.693-.362-1.482-.842-2.203-.501-.754-1.213-1.553-2.079-2.284C17.155 5.059 14.73 3.8 12 3.8c-2.73 0-5.156 1.259-6.88 2.714-.866.731-1.577 1.53-2.079 2.284-.48.721-.84 1.51-.84 2.202s.36 1.482.84 2.203c.502.753 1.213 1.553 2.08 2.284C6.842 16.942 9.27 18.2 12 18.2a.8.8 0 000-1.6c-2.242 0-4.315-1.042-5.849-2.336-.762-.644-1.37-1.332-1.779-1.947-.43-.648-.573-1.109-.573-1.317zm5.624 0c0-1.317 1.122-2.44 2.575-2.44s2.575 1.123 2.575 2.44-1.122 2.44-2.575 2.44S9.424 12.317 9.424 11zM12 6.96c-2.275 0-4.176 1.78-4.176 4.04 0 2.262 1.9 4.04 4.175 4.04s4.175-1.778 4.175-4.04c0-2.261-1.9-4.04-4.175-4.04zm8.268 7.308v2.213h.532a.4.4 0 01.4.4v.494a.4.4 0 01-.4.4h-.532V20.8a.4.4 0 01-.4.4h-.69a.4.4 0 01-.4-.4v-6.532a.4.4 0 01.4-.4h.69a.4.4 0 01.4.4zm-2.602 3.519c-.49.85-1.255 1.579-2.371 2.156a.397.397 0 01-.502-.118l-.374-.508a.405.405 0 01.137-.595c1.338-.72 2.07-1.618 2.294-2.863h-1.794a.4.4 0 01-.4-.4v-.494a.4.4 0 01.4-.4h2.933c.22 0 .404.179.398.404-.024 1.016-.232 1.97-.721 2.818zm2.402-3.52a.2.2 0 00-.2-.2h-.69a.194.194 0 00-.002 0h.691c.11 0 .2.09.2.2v2.215c0 .11.09.2.2.2h.532c.11 0 .2.09.2.2v.494a.2.2 0 01.001 0v-.495a.2.2 0 00-.2-.2h-.532a.2.2 0 01-.2-.2v-2.213zm0 3.509V20.8v-3.024zm-1.88-2.811a.196.196 0 00-.199-.2h-2.933a.195.195 0 00-.001 0h2.934c.11 0 .2.09.197.2-.047 1.982-.81 3.677-2.984 4.8 2.175-1.123 2.938-2.818 2.985-4.8z" fill="#33363D"/></svg>