<svg width="24" height="24" fill="none" xmlns="http://www.w3.org/2000/svg"><path fill-rule="evenodd" clip-rule="evenodd" d="M12 2C6.477 2 2 6.477 2 12a9.97 9.97 0 00.935 4.229l-.868 4.17a.5.5 0 00.592.592l3.658-.762A9.954 9.954 0 0012 22c5.523 0 10-4.477 10-10S17.523 2 12 2z" fill="#2768FF"/><path d="M10.835 14.793v-.138c.004-.643.064-1.154.181-1.534.121-.38.291-.686.512-.916.22-.235.488-.45.804-.645.217-.135.41-.282.58-.442.175-.163.311-.344.41-.543.1-.203.15-.428.15-.677 0-.28-.066-.524-.197-.73a1.338 1.338 0 00-.533-.479 1.59 1.59 0 00-.74-.17c-.252 0-.492.055-.72.165-.223.106-.41.27-.559.49-.145.216-.227.492-.245.825H8.582c.018-.674.181-1.239.49-1.693a2.898 2.898 0 011.236-1.023 4.175 4.175 0 011.704-.341c.679 0 1.275.119 1.79.357.519.238.922.577 1.21 1.017.29.437.436.955.436 1.556 0 .404-.066.767-.197 1.086a2.64 2.64 0 01-.549.852c-.238.25-.52.471-.847.666a3.617 3.617 0 00-.708.554 1.841 1.841 0 00-.405.677c-.085.255-.13.571-.133.948v.139h-1.774zm.927 3.324c-.32 0-.595-.113-.826-.34a1.122 1.122 0 01-.346-.832c0-.32.116-.593.346-.82.231-.227.507-.34.826-.34.316 0 .59.113.82.34.235.227.352.5.352.82a1.1 1.1 0 01-.165.592c-.107.177-.249.32-.426.426a1.119 1.119 0 01-.58.154z" fill="#fff"/></svg>