<svg width="24" height="24" fill="none" xmlns="http://www.w3.org/2000/svg"><path fill-rule="evenodd" clip-rule="evenodd" d="M10.803 9.8c-2.1 0-3.8-1.7-3.8-3.8 0-2.1 1.7-3.8 3.8-3.8 2.1 0 3.8 1.7 3.8 3.8 0 2.1-1.7 3.8-3.8 3.8zm0-6c-1.2 0-2.2 1-2.2 2.2 0 1.2 1 2.2 2.2 2.2 1.2 0 2.2-1 2.2-2.2 0-1.2-1-2.2-2.2-2.2zm.1 16h-6.9c-.4 0-.8-.4-.8-.8v-.8c0-1.2.4-2.4 1-3.5.6-1 1.6-1.9 2.7-2.5 1.1-.6 2.4-1 3.6-1h.7c1.3 0 2.5.4 3.6 1 .6.4 1.2.8 1.7 1.3.3.3.3.8 0 1.1-.3.3-.8.3-1.1 0-.4-.4-.8-.7-1.3-1-.9-.5-1.9-.8-2.9-.8h-.6c-1 0-2 .3-2.9.8-.9.5-1.6 1.2-2.1 2s-.8 1.7-.8 2.6h6.1c.4 0 .8.4.8.8s-.4.8-.8.8zm5 .9c.1.1.2.1.4.1l-.1.1c.2 0 .4-.1.6-.3l4.2-5c.4-.3.3-.8 0-1.1-.3-.4-.8-.3-1.1 0l-3.7 4.5-2.2-1.5c-.4-.3-.9-.2-1.1.2-.3.4-.2.9.2 1.1l2.8 1.9z" fill="#303336"/></svg>