<svg width="24" height="24" fill="none" xmlns="http://www.w3.org/2000/svg"><path fill-rule="evenodd" clip-rule="evenodd" d="M6.8 8.524a2.641 2.641 0 010 5.032V21.2a.8.8 0 01-1.6 0v-7.643a2.641 2.641 0 010-5.034V2.8a.8.8 0 111.6 0v5.724zM6 12.08A1.04 1.04 0 116 10a1.04 1.04 0 010 2.08zm5.2 9.12v-4.043a2.641 2.641 0 010-5.034V2.8a.8.8 0 011.6 0v9.324a2.641 2.641 0 010 5.032V21.2a.8.8 0 01-1.6 0zm-.24-6.56a1.04 1.04 0 102.08 0 1.04 1.04 0 00-2.08 0zm6.24-8.517V2.8a.8.8 0 011.6 0v3.324a2.641 2.641 0 010 5.032V21.2a.8.8 0 01-1.6 0V11.157a2.641 2.641 0 010-5.034zM18 9.68a1.04 1.04 0 110-2.08 1.04 1.04 0 010 2.08z" fill="#33363D"/></svg>