<svg width="32" height="32" fill="none" xmlns="http://www.w3.org/2000/svg"><g clip-path="url(#clip0_564_25789)"><rect width="32" height="32" rx="2" fill="#063A74"/><path fill-rule="evenodd" clip-rule="evenodd" d="M17.595 6v2.356h5.378v2.192H10.021V8.356h5.377V6h2.196zM10 21.014h2.195v2.794h10.778V26H10v-4.986zm10.613-5.88a4.266 4.266 0 00-4.264-4.257 4.266 4.266 0 00-4.264 4.257 4.266 4.266 0 004.264 4.258 4.266 4.266 0 004.264-4.258zM16.349 17.2a2.07 2.07 0 01-2.069-2.066 2.07 2.07 0 014.138 0 2.07 2.07 0 01-2.07 2.066zm1.63 4.252a1.48 1.48 0 01-1.482 1.48 1.48 1.48 0 111.482-1.48z" fill="#fff"/></g><defs><clipPath id="clip0_564_25789"><path d="M0 6a6 6 0 016-6h20a6 6 0 016 6v20a6 6 0 01-6 6H6a6 6 0 01-6-6V6z" fill="#fff"/></clipPath></defs></svg>