<svg width="24" height="24" fill="none" xmlns="http://www.w3.org/2000/svg"><path d="M8.273 3.063c-.958.045-1.612.198-2.184.423a4.41 4.41 0 00-1.592 1.04 4.409 4.409 0 00-1.035 1.596c-.222.572-.372 1.227-.414 2.185-.042.958-.052 1.266-.047 3.71.005 2.444.016 2.75.062 3.71.046.958.198 1.612.423 2.184a4.41 4.41 0 001.04 1.592 4.4 4.4 0 001.597 1.035c.572.221 1.227.372 2.185.414.958.042 1.266.052 3.71.047 2.443-.005 2.75-.016 3.71-.061.96-.046 1.611-.199 2.183-.423a4.41 4.41 0 001.592-1.04 4.41 4.41 0 001.035-1.597c.221-.572.372-1.227.414-2.184.042-.96.052-1.268.047-3.711-.005-2.444-.016-2.75-.061-3.71-.046-.96-.198-1.612-.423-2.184a4.418 4.418 0 00-1.04-1.592 4.4 4.4 0 00-1.597-1.035c-.572-.221-1.227-.372-2.185-.414-.958-.041-1.266-.052-3.71-.047-2.444.005-2.75.015-3.71.062zm.105 16.27c-.878-.038-1.354-.184-1.672-.306a2.802 2.802 0 01-1.036-.671 2.773 2.773 0 01-.675-1.034c-.124-.317-.272-.793-.313-1.67-.045-.95-.054-1.234-.06-3.637-.004-2.403.005-2.687.046-3.636.038-.877.184-1.354.306-1.671.162-.421.357-.72.671-1.036a2.778 2.778 0 011.034-.675c.317-.124.793-.272 1.67-.313.95-.045 1.234-.054 3.636-.06 2.403-.005 2.688.004 3.638.046.876.038 1.354.183 1.67.306.421.162.72.357 1.037.671.316.315.511.613.675 1.034.124.317.271.792.313 1.67.045.95.055 1.234.06 3.636.004 2.402-.005 2.688-.046 3.636-.038.877-.184 1.354-.306 1.672-.162.42-.357.72-.672 1.036a2.775 2.775 0 01-1.033.675c-.317.124-.794.271-1.67.313-.95.045-1.234.054-3.637.06-2.403.005-2.687-.005-3.636-.046M15.715 7.19a1.081 1.081 0 102.162-.004 1.081 1.081 0 00-2.162.004zm-8.336 4.819a4.621 4.621 0 109.242-.018 4.621 4.621 0 00-9.242.018zM9 12.006a3 3 0 116-.012 3 3 0 01-6 .012z" fill="#303336"/></svg>