<svg width="24" height="24" fill="none" xmlns="http://www.w3.org/2000/svg"><rect width="24" height="24" rx="4" fill="#FEE500"/><path d="M11.994 4C7.015 4 3 7.212 3 11.111c0 2.531 1.67 4.748 4.176 6.013l-.848 3.167a.27.27 0 00.064.276c.051.046.118.07.186.071a.27.27 0 00.154-.064l3.65-2.46a12.34 12.34 0 001.624.115c4.973 0 8.994-3.212 8.994-7.118C21 7.206 16.966 4 11.994 4z" fill="#392020"/><path d="M6.147 9.988h-.983a.642.642 0 01-.347-.09.398.398 0 01-.18-.264.565.565 0 010-.102.398.398 0 01.155-.334.642.642 0 01.385-.122H8.14a.597.597 0 01.347.096.373.373 0 01.18.263.494.494 0 010 .097.411.411 0 01-.155.34.591.591 0 01-.379.116h-.95v3.379a.52.52 0 01-.319.505.496.496 0 01-.202.034.52.52 0 01-.334-.109.482.482 0 01-.173-.289.526.526 0 010-.141l-.007-3.38zm2.803-.663a.443.443 0 01.185-.257.597.597 0 01.322-.077H9.7a.642.642 0 01.34.083c.11.074.188.186.219.315l1.284 3.63c.034.094.062.19.084.289.002.04.002.081 0 .122a.43.43 0 01-.141.334.469.469 0 01-.347.141.444.444 0 01-.463-.295l-.27-.79h-1.69l-.269.79a.437.437 0 01-.469.295.443.443 0 01-.463-.366.587.587 0 010-.11.565.565 0 010-.192c0-.07.046-.148.071-.218L8.95 9.325zm.642.841l-.61 1.928h1.213l-.603-1.928zm2.183-.635a.546.546 0 01.141-.391.501.501 0 01.38-.148.546.546 0 01.333.109.48.48 0 01.167.295.484.484 0 010 .135v3.38h1.767a.643.643 0 01.347.096.394.394 0 01.18.263v.097a.397.397 0 01-.154.334.642.642 0 01-.386.122h-2.17a.642.642 0 01-.392-.103.495.495 0 01-.193-.321 1.597 1.597 0 010-.212l-.019-3.656zm3.431 0a.572.572 0 01.141-.392.565.565 0 01.713-.038.494.494 0 01.174.295.95.95 0 010 .135v1.574l1.625-1.876c.063-.064.13-.124.2-.18a.41.41 0 01.218-.058.55.55 0 01.314.097.392.392 0 01.167.257.096.096 0 010 .038.106.106 0 000 .045.394.394 0 01-.051.193.953.953 0 01-.122.173l-1.067 1.17 1.285 1.99v.065c.067.092.119.194.154.302v.032a.462.462 0 01-.16.399.604.604 0 01-.373.122.507.507 0 01-.257-.058.643.643 0 01-.205-.225l-1.195-1.927-.572.597v1.073a.572.572 0 01-.141.392.52.52 0 01-.386.148.514.514 0 01-.327-.11.482.482 0 01-.174-.289.523.523 0 010-.141l.039-3.803z" fill="#FEE500"/></svg>