<svg width="24" height="24" fill="none" xmlns="http://www.w3.org/2000/svg"><path fill-rule="evenodd" clip-rule="evenodd" d="M8.687 4.279A8.433 8.433 0 004.507 8.2h2.592c.239-1.086.58-2.075 1.003-2.922.175-.35.37-.686.585-1zM3.89 9.8A8.41 8.41 0 003.6 12c0 .764.102 1.504.293 2.207a.81.81 0 01.106-.007h2.83a18.524 18.524 0 01-.13-2.2c0-.754.045-1.49.13-2.2H3.89zm.616 6a8.432 8.432 0 004.18 3.921 8.474 8.474 0 01-.585-1c-.424-.846-.764-1.835-1.003-2.92H4.507zm10.804 3.922a8.433 8.433 0 004.182-3.922H16.9c-.24 1.086-.58 2.075-1.003 2.922-.176.35-.371.687-.586 1zm4.796-5.515A8.413 8.413 0 0020.4 12c0-.761-.101-1.499-.291-2.2h-2.94c.086.71.13 1.446.13 2.2 0 .754-.044 1.491-.13 2.2H20c.037 0 .073.003.108.007zM19.493 8.2a8.432 8.432 0 00-4.182-3.922c.215.313.41.65.586 1 .423.847.763 1.836 1.003 2.922h2.593zM12 2C6.477 2 2 6.477 2 12s4.477 10 10 10 10-4.477 10-10S17.523 2 12 2zM8.742 8.2c.205-.829.475-1.574.79-2.206C10.306 4.45 11.223 3.8 12 3.8c.777 0 1.695.65 2.467 2.194.316.632.585 1.377.79 2.206H8.743zm.79 9.806a10.744 10.744 0 01-.79-2.206h6.515c-.206.83-.475 1.574-.791 2.206-.772 1.544-1.69 2.194-2.467 2.194-.776 0-1.694-.65-2.466-2.194zM8.443 14.2h7.115c.092-.698.142-1.435.142-2.2 0-.764-.05-1.502-.142-2.2H8.441A16.834 16.834 0 008.3 12c0 .765.05 1.502.142 2.2z" fill="#33363D"/></svg>