<svg width="24" height="24" fill="none" xmlns="http://www.w3.org/2000/svg"><path fill-rule="evenodd" clip-rule="evenodd" d="M16.434 2.434a.8.8 0 011.132 0l4 4a.8.8 0 010 1.132l-9 9A.8.8 0 0112 16.8H8a.8.8 0 01-.8-.8v-4a.8.8 0 01.234-.566l9-9zM17 4.131L15.131 6 18 8.869 19.869 7 17 4.131zM16.869 10L14 7.131l-5.2 5.2V15.2h2.869l5.2-5.2zM4.8 4.6a.2.2 0 00-.2.2v14.4c0 .11.09.2.2.2h14.4a.2.2 0 00.2-.2v-7a.8.8 0 111.6 0v7a1.8 1.8 0 01-1.8 1.8H4.8A1.8 1.8 0 013 19.2V4.8A1.8 1.8 0 014.8 3h7a.8.8 0 010 1.6h-7z" fill="#33363D"/></svg>