<svg width="24" height="24" fill="none" xmlns="http://www.w3.org/2000/svg"><path fill-rule="evenodd" clip-rule="evenodd" d="M7.6 7.8a2.2 2.2 0 114.4 0 2.2 2.2 0 01-4.4 0zM9.8 4a3.8 3.8 0 100 7.6 3.8 3.8 0 000-7.6zm6 4.7a.8.8 0 000 1.6h1.9v1.9a.8.8 0 001.6 0v-1.9h1.9a.8.8 0 000-1.6h-1.9V6.8a.8.8 0 00-1.6 0v1.9h-1.9zm.04 5.7a14.8 14.8 0 00-11.667-.136l-.447.185A2.8 2.8 0 002 17.035V19.2a.8.8 0 00.8.8h14a.8.8 0 00.8-.8v-2.198a2.8 2.8 0 00-1.666-2.56l-.093-.042zM4.787 15.742a13.2 13.2 0 0110.407.121l.093.042A1.2 1.2 0 0116 17.002V18.4H3.6v-1.365a1.2 1.2 0 01.74-1.108l.446-.185z" fill="#33363D"/></svg>