<svg width="24" height="24" fill="none" xmlns="http://www.w3.org/2000/svg"><path fill-rule="evenodd" clip-rule="evenodd" d="M4.234 5.365l14.4 14.4 1.132-1.131-14.4-14.4-1.132 1.131zm14.584 10.668c-.211.146-.432.288-.663.426l-1.172-1.172c.328-.18.637-.371.925-.57.76-.524 1.354-1.088 1.75-1.603.417-.54.541-.928.541-1.114 0-.187-.124-.575-.54-1.115-.397-.514-.992-1.078-1.75-1.602-1.52-1.05-3.614-1.883-5.91-1.883-.891 0-1.753.126-2.562.34l-1.28-1.28A11.718 11.718 0 0112 5.8c2.675 0 5.08.966 6.819 2.167.87.6 1.593 1.274 2.107 1.941.495.642.874 1.378.874 2.092 0 .713-.379 1.45-.873 2.091-.515.668-1.238 1.341-2.108 1.942zM16.174 12c0 .714-.19 1.38-.52 1.957l-1.206-1.205c.082-.238.126-.492.126-.752 0-1.317-1.122-2.44-2.575-2.44-.23 0-.452.028-.662.08l-1.238-1.237A4.275 4.275 0 0112 7.96c2.275 0 4.175 1.778 4.175 4.04zM13.9 15.597l-1.238-1.238c-.21.053-.432.08-.662.08-1.453 0-2.575-1.122-2.575-2.44 0-.26.044-.513.126-.751l-1.205-1.206A3.916 3.916 0 007.825 12c0 2.261 1.9 4.04 4.174 4.04.68 0 1.328-.16 1.9-.443zM6.09 9.283c.29-.2.599-.39.926-.57L5.843 7.54c-.23.137-.451.28-.662.426-.87.6-1.594 1.274-2.108 1.941-.495.642-.874 1.378-.874 2.092 0 .713.38 1.45.874 2.091.514.668 1.238 1.341 2.108 1.942 1.738 1.2 4.144 2.167 6.818 2.167 1.37 0 2.667-.253 3.842-.661l-1.28-1.28a9.965 9.965 0 01-2.562.34c-2.296 0-4.39-.833-5.91-1.882-.758-.524-1.353-1.088-1.749-1.603-.416-.54-.54-.928-.54-1.114 0-.187.124-.575.54-1.115.397-.514.991-1.078 1.75-1.602z" fill="#2D2D2D"/></svg>