<svg width="10" height="13" fill="none" xmlns="http://www.w3.org/2000/svg"><path d="M9.31 2.82H4.683V.49H9.31l-.979 1.19.98 1.14z" fill="#E6E8EA"/><path d="M9.31 0a.49.49 0 01.378.8l-.718.873.712.829a.49.49 0 01-.372.808H5.143v1.213l3.909 2.17a.49.49 0 01.252.43v5.187a.49.49 0 01-.49.49H.49a.49.49 0 01-.49-.49V7.122a.49.49 0 01.252-.429l3.911-2.17V.488c0-.27.22-.489.49-.489L4.667 0H9.31zM.979 7.41v4.41h1.94V9.794c0-.955.777-1.732 1.732-1.732.956 0 1.733.777 1.733 1.732v2.026h1.941V7.41L4.652 5.372.98 7.41zM4.65 9.04a.755.755 0 00-.753.754v2.026h1.507V9.794a.755.755 0 00-.754-.754zm.52-6.709h3.074l-.286-.333a.49.49 0 01-.006-.63l.32-.39h-3.1v1.353z" fill="#58616A"/></svg>