<svg width="24" height="24" viewBox="0 0 24 24" fill="none" xmlns="http://www.w3.org/2000/svg">
<rect width="24" height="24" rx="4" fill="#FEE500"/>
<path d="M11.9936 4C7.01499 4 3 7.21196 3 11.1113C3 13.6424 4.67024 15.8586 7.17559 17.1242L6.32762 20.2912C6.31164 20.3387 6.30918 20.3896 6.32052 20.4384C6.33187 20.4872 6.35657 20.5319 6.39186 20.5674C6.44333 20.6128 6.50954 20.6379 6.57816 20.6381C6.63505 20.6335 6.68903 20.611 6.73233 20.5738L10.3812 18.1135C10.9198 18.1878 11.4627 18.2264 12.0064 18.2291C16.9786 18.2291 21 15.0171 21 11.1113C21 7.20553 16.9657 4 11.9936 4Z" fill="#392020"/>
<path d="M6.14723 9.9878H5.16436C5.04254 9.99133 4.92223 9.96013 4.81747 9.89785C4.77095 9.86871 4.73097 9.83026 4.70002 9.78493C4.66906 9.73961 4.64781 9.68837 4.63759 9.63445C4.63447 9.60026 4.63447 9.56591 4.63759 9.53172C4.63454 9.46775 4.64696 9.40394 4.6738 9.34579C4.70064 9.28764 4.74111 9.23684 4.79177 9.19766C4.90376 9.11655 5.03894 9.0737 5.17721 9.07556H8.13866C8.26145 9.07125 8.38259 9.10491 8.48556 9.17194C8.53317 9.19979 8.574 9.2379 8.6051 9.28345C8.63621 9.329 8.65681 9.38087 8.66543 9.43534C8.66857 9.46739 8.66857 9.49968 8.66543 9.53172C8.66846 9.59662 8.65607 9.66129 8.62927 9.72047C8.60247 9.77965 8.56203 9.8316 8.51126 9.87213C8.40199 9.95314 8.26812 9.99402 8.13224 9.9878H7.18149V13.3668C7.18535 13.4388 7.17421 13.5108 7.14878 13.5782C7.12334 13.6457 7.08417 13.7072 7.03374 13.7587C6.98538 13.8079 6.92725 13.8465 6.86308 13.872C6.79891 13.8974 6.73012 13.9091 6.66115 13.9064C6.5405 13.9099 6.42241 13.8713 6.3271 13.7973C6.23636 13.7249 6.17477 13.6222 6.15366 13.5081C6.14731 13.4612 6.14731 13.4137 6.15366 13.3668L6.14723 9.9878Z" fill="#FEE500"/>
<path d="M8.94912 9.32489C8.97738 9.21918 9.04373 9.12763 9.13542 9.06791C9.23311 9.01254 9.34444 8.98583 9.45662 8.99083H9.70073C9.81977 8.98656 9.93765 9.01548 10.0412 9.07434C10.1509 9.14813 10.2289 9.26049 10.2596 9.38911L11.5444 13.0187C11.5777 13.1134 11.6056 13.2099 11.6279 13.3078C11.6301 13.3485 11.6301 13.3892 11.6279 13.4298C11.6301 13.4924 11.6186 13.5548 11.5942 13.6125C11.5698 13.6702 11.533 13.7218 11.4866 13.7639C11.4416 13.81 11.3876 13.8464 11.3279 13.8707C11.2682 13.895 11.2041 13.9067 11.1397 13.9052C11.0406 13.915 10.9411 13.8913 10.8572 13.8377C10.7733 13.7841 10.7099 13.7038 10.6772 13.6097L10.4074 12.8196H8.71786L8.44805 13.6097C8.41614 13.7056 8.35196 13.7875 8.26645 13.8414C8.18094 13.8952 8.07939 13.9178 7.9791 13.9052C7.87047 13.908 7.76407 13.8741 7.67717 13.8088C7.59251 13.7415 7.53539 13.6456 7.51657 13.5391C7.51317 13.5027 7.51317 13.4661 7.51657 13.4298C7.50554 13.3661 7.50554 13.3009 7.51657 13.2371C7.51657 13.1665 7.56154 13.0893 7.58724 13.0187L8.94912 9.32489ZM9.59152 10.1665L8.98124 12.0937H10.1954L9.59152 10.1665Z" fill="#FEE500"/>
<path d="M11.775 9.53142C11.7684 9.38725 11.8193 9.24638 11.9163 9.13956C11.9656 9.0898 12.0249 9.05092 12.0901 9.02547C12.1554 9.00002 12.2253 8.9885 12.2953 8.99175C12.4157 8.99034 12.5331 9.02876 12.6294 9.10098C12.7186 9.17634 12.7778 9.28115 12.7964 9.39646C12.8027 9.44121 12.8027 9.48667 12.7964 9.53142V12.9104H14.563C14.6854 12.9088 14.8058 12.9422 14.9099 13.0067C14.9566 13.0356 14.9968 13.074 15.0278 13.1193C15.0588 13.1647 15.0799 13.2161 15.0897 13.2701C15.0897 13.2701 15.0897 13.3344 15.0897 13.3665C15.0928 13.4305 15.0804 13.4942 15.0535 13.5524C15.0267 13.6105 14.9862 13.6614 14.9356 13.7006C14.8236 13.7817 14.6884 13.8245 14.5501 13.8226H12.3788C12.2405 13.8315 12.1031 13.7955 11.987 13.7199C11.8831 13.6422 11.8139 13.5269 11.7942 13.3987C11.7895 13.3281 11.7895 13.2572 11.7942 13.1866L11.775 9.53142Z" fill="#FEE500"/>
<path d="M15.2059 9.53096C15.2021 9.38721 15.2525 9.24731 15.3472 9.13911C15.4435 9.05162 15.567 8.99996 15.6969 8.99294C15.8268 8.98591 15.9551 9.02393 16.0603 9.10053C16.1515 9.17522 16.213 9.27998 16.2337 9.396C16.2369 9.44092 16.2369 9.48605 16.2337 9.53096V11.1048L17.859 9.22897C17.9216 9.16498 17.9881 9.10497 18.0582 9.04916C18.1241 9.00987 18.1998 8.98979 18.2766 8.99129C18.3888 8.99068 18.4986 9.0243 18.5913 9.08767C18.635 9.11708 18.6723 9.15503 18.701 9.19918C18.7297 9.24332 18.7492 9.29278 18.7584 9.34464C18.761 9.35736 18.761 9.3705 18.7584 9.38322C18.7552 9.39805 18.7552 9.41333 18.7584 9.42815C18.7581 9.49575 18.7404 9.56217 18.707 9.62091C18.6729 9.68309 18.6319 9.7412 18.5849 9.79429L17.5185 10.9635L18.8033 12.9549V13.0191C18.87 13.1112 18.922 13.2131 18.9575 13.3211V13.3532C18.9649 13.4276 18.9542 13.5028 18.9262 13.5721C18.8983 13.6415 18.8539 13.703 18.7969 13.7515C18.6897 13.8325 18.5586 13.8755 18.4243 13.8736C18.3351 13.8773 18.2464 13.8573 18.1674 13.8157C18.0818 13.7583 18.0113 13.6812 17.9618 13.5909L16.7669 11.6637L16.1952 12.2612V13.3339C16.199 13.4777 16.1486 13.6176 16.0539 13.7258C16.0031 13.7754 15.9427 13.8141 15.8764 13.8395C15.8101 13.865 15.7394 13.8765 15.6684 13.8736C15.5499 13.8761 15.4341 13.8374 15.3408 13.7643C15.2501 13.692 15.1885 13.5894 15.1674 13.4753C15.161 13.4284 15.161 13.3808 15.1674 13.3339L15.2059 9.53096Z" fill="#FEE500"/>
</svg>
