<svg width="1360" height="370" viewBox="138 130 1360 370" xmlns="http://www.w3.org/2000/svg">
<mask id="mask0_4_2" style="mask-type:luminance" maskUnits="userSpaceOnUse" x="0" y="0" width="1632" height="662">
<path d="M0 4.95911e-05H1632V661.333H0V4.95911e-05Z" fill="white"/>
</mask>
<g mask="url(#mask0_4_2)">
<path d="M1490.59 329.497H1457.78V214.819H1490.59V329.511V329.497ZM1395.28 229.633H1436.45V253.571H1395.31C1395.58 264.802 1399.48 275.214 1407.15 284.851L1408.8 286.825C1417.17 296.666 1428.75 304.813 1443.58 311.202L1445 311.817L1444.01 313.015L1430.42 329.687L1429.89 330.345L1429.1 330.053C1418.03 325.899 1407.62 320.153 1397.93 312.811C1388.98 305.894 1382.41 298.991 1378.24 292.09C1373.84 298.991 1367.08 305.909 1357.99 312.811C1348.01 320.415 1337.42 326.235 1326.19 330.257L1325.32 330.563L1324.82 329.818L1313.5 313.353L1312.71 312.211L1313.97 311.626C1327.99 305.105 1339.31 296.886 1347.95 287.015L1349.72 284.953C1357.97 274.979 1362.17 264.525 1362.45 253.557H1321.31V229.618H1362.47V213.766H1395.28V229.618V229.633ZM1412.24 358.319C1398.73 358.319 1387.85 359.885 1379.5 362.97L1376.08 364.389C1368.27 368.029 1364.82 372.314 1364.82 377.111C1364.82 381.907 1368.25 385.987 1376.08 389.629C1384.78 393.781 1396.79 395.902 1412.23 395.902C1427.65 395.902 1440.13 393.781 1448.98 389.629C1456.95 385.973 1460.46 381.746 1460.46 377.111C1460.46 372.475 1456.95 368.029 1449 364.389C1440.15 360.382 1427.92 358.319 1412.23 358.319H1412.24ZM1412.24 333.751C1437.86 333.751 1458.23 338.153 1473.15 347.089C1486.54 355.175 1493.46 365.251 1493.46 377.315C1493.32 389.249 1486.31 399.178 1472.92 407.118C1457.99 416.053 1437.74 420.454 1412.23 420.454C1386.71 420.454 1366.66 416.053 1351.71 407.118C1338.46 399.163 1331.6 389.234 1331.6 377.301C1331.6 365.367 1338.46 355.175 1351.71 347.089C1366.78 338.153 1386.97 333.751 1412.21 333.751H1412.24Z" fill="#040000"/>
</g>
<mask id="mask1_4_2" style="mask-type:luminance" maskUnits="userSpaceOnUse" x="0" y="0" width="1632" height="662">
<path d="M0 4.95911e-05H1632V661.333H0V4.95911e-05Z" fill="white"/>
</mask>
<g mask="url(#mask1_4_2)">
<path d="M1266.45 294.592C1266.45 311.218 1265.83 325.944 1264.59 338.74C1263.27 352.222 1261.24 364.756 1258.52 376.352H1276.73V400.904H1095.53V376.352H1146.37V318.734H1179.17V376.352H1225.86C1228.2 367.416 1230.05 356.932 1231.39 344.881C1232.85 331.954 1233.6 318.048 1233.64 303.161H1106.85V278.608H1233.64V243.277H1106.01V218.929H1266.43V294.592H1266.45Z" fill="#040000"/>
</g>
<mask id="mask2_4_2" style="mask-type:luminance" maskUnits="userSpaceOnUse" x="0" y="0" width="1632" height="662">
<path d="M-6.10352e-05 4.95911e-05H1632V661.333H-6.10352e-05V4.95911e-05Z" fill="white"/>
</mask>
<g mask="url(#mask2_4_2)">
<path d="M933.077 237.72C925.82 237.72 919.754 243.775 915.245 257.272C911.31 269.613 909.32 285.597 909.32 305.28C909.32 326.616 911.31 343.696 915.245 356.58L916.08 359.109C920.378 371.276 926.142 376.76 933.064 376.76C936.717 376.76 940.012 375.196 942.936 371.905C945.902 368.585 948.49 363.497 950.67 356.58C954.738 343.711 956.8 326.631 956.8 305.28C956.8 285.597 954.738 269.613 950.685 257.287C946.182 243.76 940.188 237.72 933.064 237.72H933.077ZM933.281 213.781C951.492 213.781 965.712 223.141 975.894 241.537C985.353 258.368 990.024 279.704 990.024 305.485C990.024 332.773 985.34 355.073 975.894 372.3C965.86 391.105 951.653 400.684 933.294 400.684C914.936 400.684 900.456 391.12 890.274 372.3C880.962 355.059 876.354 332.759 876.354 305.485C876.354 279.704 880.962 258.353 890.274 241.537C900.604 223.127 914.95 213.781 933.294 213.781H933.281ZM1045.6 415.103H1012.81V214.82H1045.6V415.117V415.103Z" fill="#040000"/>
</g>
<mask id="mask3_4_2" style="mask-type:luminance" maskUnits="userSpaceOnUse" x="0" y="0" width="1632" height="662">
<path d="M0 4.95911e-05H1632V661.333H0V4.95911e-05Z" fill="white"/>
</mask>
<g mask="url(#mask3_4_2)">
<path d="M710.389 269C701.789 269 694.913 274.016 689.823 284.589C685.39 293.992 683.138 305.617 683.138 319.496C683.138 334.469 685.39 347.41 689.851 358.349L690.833 360.602C695.85 371.481 702.402 376.556 710.375 376.556C718.887 376.556 725.909 370.765 731.321 358.32L733.031 354.08C736.762 343.989 738.634 332.45 738.634 319.48C738.634 305.762 736.191 294.152 731.35 284.617C725.982 274.03 718.975 269 710.359 269H710.389ZM727.401 228.594H770.419V252.942H738.122C748.843 259.188 757.167 268.84 763.077 281.884L764.363 284.881C770.478 300.032 772.555 316.424 770.625 334.016C768.547 351.9 762.565 367.08 752.677 379.48C741.502 393.592 727.371 400.7 710.389 400.7C693.406 400.7 679.117 393.373 668.073 378.837C658.315 366.144 652.903 350.818 651.793 332.933L651.47 325.87C651.075 309.682 653.109 295.614 657.629 283.668L658.769 280.801C664.035 268.328 671.963 259.026 682.567 252.942H650.563V228.594H694.606V213.781H727.401V228.594ZM820.241 295.073H841.026V320.036H820.241V415.104H787.446V214.82H820.241V295.073Z" fill="#040000"/>
</g>
<path d="M348.964 195.625C288.964 168.332 221.761 154.423 149.056 150.656C159.485 242.163 169.913 333.656 180.343 425.177C229.811 421.732 277.815 430.667 324.248 452.984V452.972C303.095 395.224 302.131 333.091 326.576 265.432C326.731 301.877 332.568 336.139 348.217 366.671C382.397 339.545 423.752 326.509 469.995 323.012C401.017 358.173 361.796 406.395 348.693 466.047L348.952 466.2C402.997 434.24 459.269 421.127 517.572 425.177C528.001 333.683 538.431 242.176 548.859 150.656C476.153 154.423 408.952 168.332 348.964 195.625ZM332.131 214.176L337.416 236.596L360.833 238.524L340.683 250.377L346.057 272.785L328.325 257.68L308.225 269.611L317.42 248.424L299.623 233.383L323.027 235.4L332.131 214.176ZM341.865 326.072C341.865 315.839 350.353 307.521 360.807 307.521C371.261 307.521 379.748 315.825 379.748 326.072C379.748 336.319 371.261 344.623 360.807 344.623C350.353 344.623 341.865 336.307 341.865 326.072Z" fill="url(#paint0_linear_4_2)"/>
<mask id="mask4_4_2" style="mask-type:luminance" maskUnits="userSpaceOnUse" x="0" y="0" width="1632" height="662">
<path d="M0 3.43323e-05H1632V661.333H0V3.43323e-05Z" fill="white"/>
</mask>
<g mask="url(#mask4_4_2)">
<path d="M346.906 486.01C346.238 485.611 345.414 485.11 344.45 484.531C343.962 484.235 343.448 483.927 342.894 483.594C342.329 483.271 341.724 482.938 341.094 482.578C339.821 481.858 338.42 481.061 336.877 480.186C335.321 479.351 333.622 478.451 331.822 477.486C328.184 475.585 324.03 473.502 319.388 471.367C318.809 471.098 318.232 470.827 317.64 470.545C317.034 470.287 316.444 470.018 315.826 469.747C314.604 469.207 313.357 468.667 312.097 468.115C310.837 467.55 309.512 467.049 308.188 466.495C306.85 465.955 305.513 465.39 304.137 464.85C302.749 464.322 301.346 463.795 299.92 463.255C299.2 462.986 298.492 462.715 297.772 462.446C297.04 462.189 296.306 461.931 295.573 461.674C294.094 461.159 292.602 460.633 291.085 460.106C289.556 459.617 288.012 459.115 286.456 458.614C284.9 458.101 283.318 457.625 281.724 457.162C280.117 456.699 278.522 456.198 276.876 455.747C275.244 455.311 273.584 454.861 271.925 454.41C270.266 453.947 268.569 453.575 266.885 453.151C265.2 452.739 263.49 452.327 261.766 451.969C260.044 451.595 258.32 451.223 256.597 450.85C253.112 450.182 249.614 449.487 246.078 448.934C244.317 448.639 242.554 448.343 240.768 448.111C238.993 447.867 237.218 447.598 235.444 447.379C233.656 447.173 231.882 446.967 230.108 446.762C228.332 446.543 226.558 446.427 224.784 446.247C223.896 446.17 223.009 446.094 222.134 446.017C221.248 445.939 220.373 445.901 219.485 445.835C217.724 445.733 215.976 445.605 214.226 445.515C210.729 445.373 207.282 445.206 203.862 445.193C200.454 445.103 197.098 445.193 193.806 445.219C192.16 445.258 190.54 445.334 188.932 445.386C188.134 445.411 187.325 445.45 186.541 445.477C185.744 445.527 184.958 445.566 184.174 445.617C182.605 445.721 181.062 445.81 179.545 445.913C178.028 446.042 176.524 446.183 175.057 446.299C172.1 446.53 169.284 446.903 166.545 447.198C163.818 447.521 161.221 447.931 158.738 448.278C157.646 448.458 156.578 448.626 155.537 448.806L138.537 471.65C138.537 471.65 139.348 471.367 140.865 470.841C142.369 470.326 144.697 469.478 147.269 468.693C147.925 468.475 148.632 468.257 149.352 468.025C150.072 467.781 150.844 467.537 151.692 467.305C153.352 466.83 155.152 466.302 157.08 465.762C159.022 465.261 161.092 464.709 163.292 464.169C165.502 463.679 167.817 463.101 170.261 462.599C172.717 462.125 175.25 461.559 177.925 461.122C179.262 460.89 180.613 460.658 181.988 460.414C183.377 460.209 184.778 460.003 186.206 459.798C186.913 459.694 187.646 459.591 188.366 459.489C189.1 459.399 189.833 459.309 190.565 459.219C192.044 459.039 193.536 458.871 195.053 458.691C198.088 458.422 201.188 458.074 204.364 457.895C207.526 457.638 210.768 457.534 214.058 457.394C215.705 457.342 217.352 457.329 219.009 457.29C219.845 457.29 220.681 457.251 221.517 457.251C222.353 457.251 223.189 457.251 224.038 457.265C225.722 457.29 227.406 457.265 229.105 457.329C230.801 457.381 232.498 457.433 234.197 457.483C235.893 457.561 237.604 457.663 239.314 457.766C241.025 457.843 242.734 457.985 244.445 458.126C247.866 458.37 251.273 458.757 254.668 459.115C256.365 459.334 258.05 459.554 259.734 459.771C261.433 459.978 263.09 460.234 264.762 460.505C266.421 460.774 268.106 460.993 269.74 461.302C271.385 461.598 273.018 461.893 274.652 462.189C276.284 462.485 277.878 462.845 279.486 463.166C281.081 463.486 282.676 463.821 284.232 464.194C285.8 464.554 287.356 464.914 288.886 465.274C290.416 465.673 291.921 466.058 293.426 466.431C294.172 466.623 294.917 466.817 295.662 467.01C296.396 467.215 297.129 467.421 297.849 467.626C299.302 468.038 300.73 468.437 302.144 468.847C303.546 469.259 304.922 469.709 306.285 470.121C307.634 470.558 308.998 470.93 310.297 471.393C311.596 471.83 312.881 472.267 314.141 472.691C314.772 472.897 315.401 473.115 316.02 473.321C316.637 473.541 317.228 473.771 317.832 473.99C322.642 475.713 326.976 477.423 330.806 478.991C332.71 479.801 334.485 480.547 336.13 481.254C337.752 481.986 339.242 482.667 340.593 483.271C341.261 483.581 341.905 483.863 342.509 484.134C343.1 484.417 343.653 484.686 344.168 484.93C345.197 485.431 346.07 485.855 346.79 486.19C348.218 486.885 348.977 487.245 348.977 487.245C348.977 487.245 348.269 486.819 346.932 486.01H346.906Z" fill="#2BB178"/>
</g>
<mask id="mask5_4_2" style="mask-type:luminance" maskUnits="userSpaceOnUse" x="0" y="0" width="1632" height="662">
<path d="M0 3.43323e-05H1632V661.333H0V3.43323e-05Z" fill="white"/>
</mask>
<g mask="url(#mask5_4_2)">
<path d="M351.009 486.01C351.678 485.611 352.501 485.11 353.465 484.531C353.953 484.235 354.468 483.927 355.021 483.594C355.586 483.271 356.192 482.938 356.821 482.578C358.094 481.858 359.496 481.061 361.04 480.186C362.596 479.351 364.293 478.451 366.093 477.486C369.732 475.585 373.885 473.502 378.528 471.367C379.106 471.098 379.685 470.827 380.276 470.545C380.881 470.287 381.473 470.018 382.089 469.747C383.312 469.207 384.558 468.667 385.818 468.115C387.078 467.55 388.404 467.049 389.728 466.495C391.065 465.955 392.402 465.39 393.778 464.85C395.168 464.322 396.569 463.795 397.996 463.255C398.717 462.986 399.424 462.715 400.144 462.446C400.877 462.189 401.609 461.931 402.342 461.674C403.821 461.159 405.326 460.633 406.83 460.106C408.361 459.617 409.904 459.115 411.46 458.614C413.016 458.101 414.598 457.625 416.192 457.162C417.8 456.699 419.394 456.198 421.04 455.747C422.686 455.311 424.332 454.861 425.99 454.41C427.649 453.947 429.346 453.575 431.032 453.151C432.716 452.739 434.426 452.327 436.149 451.969C437.872 451.595 439.596 451.223 441.318 450.85C444.804 450.182 448.301 449.487 451.837 448.934C453.6 448.639 455.361 448.343 457.148 448.111C458.924 447.867 460.697 447.598 462.472 447.379C464.26 447.173 466.021 446.967 467.796 446.762C469.57 446.543 471.345 446.427 473.12 446.247C474.006 446.17 474.894 446.094 475.769 446.017C476.656 445.939 477.53 445.901 478.417 445.835C480.178 445.733 481.928 445.605 483.676 445.515C487.174 445.373 490.621 445.206 494.041 445.193C497.449 445.103 500.805 445.193 504.097 445.219C505.742 445.258 507.364 445.334 508.97 445.386C509.781 445.411 510.578 445.45 511.362 445.477C512.16 445.527 512.944 445.566 513.728 445.617C515.297 445.721 516.84 445.81 518.37 445.913C519.888 446.042 521.393 446.183 522.858 446.299C525.816 446.53 528.632 446.903 531.372 447.198C534.097 447.521 536.694 447.931 539.177 448.278C540.269 448.458 541.337 448.626 542.378 448.806L559.404 471.625C559.404 471.625 558.594 471.342 557.077 470.814C555.585 470.301 553.245 469.451 550.673 468.667C550.017 468.449 549.31 468.23 548.589 467.999C547.857 467.755 547.098 467.511 546.249 467.279C544.59 466.803 542.79 466.277 540.861 465.737C538.92 465.235 536.849 464.682 534.65 464.143C532.438 463.654 530.124 463.075 527.681 462.574C525.225 462.099 522.678 461.533 520.017 461.097C518.68 460.865 517.329 460.633 515.953 460.389C514.564 460.183 513.162 459.978 511.736 459.771C511.028 459.669 510.294 459.566 509.574 459.463C508.842 459.373 508.109 459.283 507.376 459.193C505.897 459.014 504.405 458.846 502.888 458.666C499.853 458.397 496.754 458.049 493.578 457.869C490.416 457.611 487.174 457.509 483.896 457.367C482.249 457.317 480.604 457.303 478.945 457.265C478.109 457.265 477.273 457.226 476.437 457.226C475.601 457.226 474.765 457.226 473.917 457.239C472.232 457.265 470.548 457.239 468.85 457.303C467.153 457.355 465.454 457.406 463.758 457.458C462.048 457.534 460.35 457.638 458.64 457.741C456.929 457.818 455.22 457.959 453.522 458.101C450.101 458.345 446.693 458.73 443.298 459.09C441.601 459.309 439.917 459.527 438.233 459.746C436.534 459.951 434.877 460.209 433.205 460.479C431.546 460.749 429.861 460.967 428.216 461.275C426.569 461.571 424.936 461.867 423.302 462.163C421.669 462.458 420.076 462.818 418.468 463.141C416.873 463.462 415.278 463.795 413.724 464.169C412.154 464.527 410.598 464.889 409.068 465.249C407.538 465.646 406.033 466.033 404.541 466.405C403.796 466.598 403.05 466.791 402.304 466.983C401.572 467.189 400.838 467.395 400.118 467.601C398.665 468.013 397.237 468.41 395.824 468.822C394.421 469.233 393.045 469.683 391.67 470.095C390.32 470.531 388.956 470.905 387.657 471.367C386.358 471.805 385.073 472.242 383.813 472.666C383.182 472.871 382.553 473.09 381.936 473.297C381.318 473.514 380.726 473.746 380.122 473.965C375.313 475.687 370.98 477.397 367.148 478.966C365.244 479.775 363.47 480.521 361.824 481.227C360.204 481.961 358.712 482.642 357.361 483.246C356.68 483.555 356.049 483.838 355.446 484.107C354.854 484.39 354.301 484.661 353.786 484.905C352.758 485.406 351.884 485.83 351.164 486.165C349.736 486.858 348.977 487.219 348.977 487.219C348.977 487.219 349.685 486.795 351.021 485.985L351.009 486.01Z" fill="#2BB178"/>
</g>
<defs>
<linearGradient id="paint0_linear_4_2" x1="553.585" y1="427.637" x2="154.383" y2="132.497" gradientUnits="userSpaceOnUse">
<stop stop-color="#2AB077"/>
<stop offset="0.5" stop-color="#454097"/>
<stop offset="1" stop-color="#DD3059"/>
</linearGradient>
</defs>
</svg>
