<svg width="16" height="16" viewBox="0 0 16 16" fill="none" xmlns="http://www.w3.org/2000/svg">
<path d="M7.16021 1.299C7.55421 0.689549 8.44579 0.68955 8.83979 1.299L10.527 3.90887C10.662 4.11759 10.8698 4.26858 11.11 4.33241L14.1135 5.13059C14.8149 5.31698 15.0904 6.16492 14.6325 6.72796L12.6718 9.13913C12.515 9.33196 12.4356 9.57627 12.4491 9.82444L12.6182 12.9276C12.6576 13.6523 11.9363 14.1763 11.2593 13.9148L8.36029 12.7952C8.12844 12.7056 7.87156 12.7056 7.63971 12.7952L4.74065 13.9148C4.06367 14.1763 3.34238 13.6523 3.38185 12.9276L3.55087 9.82444C3.56439 9.57627 3.48501 9.33196 3.32821 9.13913L1.36746 6.72796C0.909593 6.16492 1.1851 5.31698 1.88648 5.13059L4.89 4.33241C5.1302 4.26858 5.33802 4.11759 5.47296 3.90887L7.16021 1.299Z" fill="#BABDBF"/>
</svg>
