<svg width="20" height="20" viewBox="0 0 20 20" fill="none" xmlns="http://www.w3.org/2000/svg">
<path d="M12.5 1.75C12.5281 1.75 12.5557 1.75188 12.583 1.75488C12.9169 1.76431 13.2466 1.83111 13.5557 1.95898C13.8906 2.09758 14.1952 2.30105 14.4512 2.55762L17.4404 5.54688C17.6976 5.80317 17.9022 6.10785 18.041 6.44336C18.1689 6.75238 18.2347 7.08218 18.2441 7.41602C18.2472 7.44363 18.25 7.47156 18.25 7.5C18.25 7.50621 18.2492 7.51238 18.249 7.51855V15.833C18.249 16.4738 17.995 17.0888 17.542 17.542C17.0888 17.9952 16.4739 18.25 15.833 18.25H4.16699C3.52607 18.25 2.91121 17.9952 2.45801 17.542C2.00481 17.0888 1.75 16.4739 1.75 15.833V4.16699C1.75 3.52606 2.00481 2.91122 2.45801 2.45801C2.91121 2.0048 3.52607 1.75 4.16699 1.75H12.5ZM4.16699 3.25C3.9239 3.25 3.69045 3.34665 3.51855 3.51855C3.34665 3.69046 3.25 3.92387 3.25 4.16699V15.833C3.25 16.0761 3.34665 16.3095 3.51855 16.4814C3.69045 16.6534 3.9239 16.75 4.16699 16.75H15.833C16.0761 16.75 16.3096 16.6533 16.4814 16.4814C16.6532 16.3096 16.749 16.076 16.749 15.833V8.25H13.333C12.9132 8.24992 12.5107 8.08299 12.2139 7.78613C11.9541 7.52634 11.7938 7.18566 11.7578 6.82324L11.75 6.66699V3.25H4.16699ZM11.0527 12.9033C11.2902 12.5641 11.7584 12.4814 12.0977 12.7188C12.4367 12.9563 12.5186 13.4235 12.2812 13.7627V13.7646L12.2783 13.7676C12.277 13.7694 12.275 13.7722 12.2734 13.7744C12.2703 13.7788 12.267 13.7842 12.2627 13.79C12.2537 13.8021 12.2416 13.8172 12.2275 13.835C12.1995 13.8703 12.1611 13.9165 12.1123 13.9697C12.0149 14.076 11.8726 14.2147 11.6865 14.3525C11.314 14.6284 10.7446 14.9159 10.001 14.916C9.29035 14.916 8.72222 14.6216 8.35645 14.3604C8.17043 14.2275 8.02468 14.094 7.92383 13.9932C7.87314 13.9425 7.83191 13.8992 7.80273 13.8662C7.78838 13.85 7.77662 13.836 7.76758 13.8252L7.75195 13.8057L7.74902 13.8027V13.8018C7.7525 13.7987 7.79646 13.763 8.33398 13.333L7.74805 13.8018C7.48949 13.4783 7.54186 13.0058 7.86523 12.7471C8.18718 12.4895 8.6565 12.5409 8.91602 12.8604L8.92578 12.8711C8.9369 12.8836 8.95713 12.9054 8.98438 12.9326C9.0397 12.9879 9.12309 13.0643 9.22852 13.1396C9.44593 13.2949 9.71206 13.416 10.001 13.416C10.3402 13.4159 10.6041 13.2881 10.7939 13.1475C10.8891 13.077 10.9601 13.006 11.0059 12.9561L11.0527 12.9033ZM6.6748 10.083C7.08873 10.0833 7.4248 10.419 7.4248 10.833C7.42465 11.2469 7.08864 11.5827 6.6748 11.583H6.66602C6.2519 11.583 5.91617 11.2471 5.91602 10.833C5.91602 10.4188 6.2518 10.083 6.66602 10.083H6.6748ZM13.3428 10.083C13.7567 10.0834 14.0928 10.419 14.0928 10.833C14.0926 11.2469 13.7566 11.5826 13.3428 11.583H13.334C12.9199 11.583 12.5841 11.2471 12.584 10.833C12.584 10.4188 12.9198 10.083 13.334 10.083H13.3428ZM13.25 6.66699L13.2559 6.69824C13.26 6.70843 13.2665 6.71766 13.2744 6.72559C13.29 6.74114 13.311 6.74992 13.333 6.75H16.501C16.4644 6.70063 16.4255 6.6529 16.3818 6.60938L16.3809 6.6084L13.3906 3.61914L13.3896 3.61816C13.3463 3.57466 13.299 3.53567 13.25 3.49902V6.66699Z" fill="#256EF4"/>
</svg>
