<svg width="24" height="24" viewBox="0 0 24 24" fill="none" xmlns="http://www.w3.org/2000/svg">
<path d="M12 22C17.5228 22 22 17.5228 22 12C22 6.47715 17.5228 2 12 2C6.47715 2 2 6.47715 2 12C2 17.5228 6.47715 22 12 22Z" fill="#FFB114"/>
<path d="M15.7011 9.45096C15.5785 9.12743 15.3849 8.84557 15.13 8.61027C14.8775 8.37988 14.554 8.19606 14.1692 8.06861C13.7918 7.94361 13.3383 7.87988 12.8212 7.87988H10.6913C10.255 7.87988 9.95107 7.97057 9.76234 8.15439C9.57116 8.34067 9.47803 8.63969 9.47803 9.07106V15.6691C9.47803 16.049 9.6545 16.25 9.80156 16.3505C9.98538 16.4779 10.206 16.5416 10.4535 16.5416C10.7011 16.5416 10.9192 16.4779 11.1055 16.3505C11.2525 16.25 11.429 16.049 11.429 15.6691V13.3505H12.8236C13.3285 13.3505 13.777 13.2769 14.152 13.1348C14.5295 12.9902 14.853 12.7941 15.1104 12.5465C15.3726 12.299 15.5687 12.0024 15.6937 11.6691C15.8187 11.3431 15.88 10.9926 15.88 10.6299V10.4706C15.88 10.1103 15.8187 9.76469 15.6986 9.44851L15.7011 9.45096ZM13.9217 10.4853V10.6103C13.9217 11.0049 13.8236 11.2622 13.6202 11.397C13.3898 11.5515 13.054 11.6299 12.6275 11.6299H11.4266V9.59067H12.755C12.9437 9.59067 13.1177 9.60537 13.277 9.63724C13.4168 9.6642 13.5369 9.71322 13.6349 9.77939C13.7256 9.84312 13.7942 9.924 13.8432 10.0318C13.8947 10.1421 13.9217 10.2941 13.9217 10.4853Z" fill="#FFF3DB"/>
</svg>
