<svg width="17" height="17" viewBox="0 0 17 17" fill="none" xmlns="http://www.w3.org/2000/svg">
<rect width="16.6667" height="16.6667" rx="8.33333" transform="matrix(1 0 0 -1 0 16.6666)" fill="#33363D"/>
<path d="M8.24937 6.20081C8.80165 6.20081 9.24937 5.75309 9.24937 5.20081C9.24937 4.64852 8.80165 4.20081 8.24937 4.20081C7.69708 4.20081 7.24937 4.64852 7.24937 5.20081C7.24937 5.75309 7.69708 6.20081 8.24937 6.20081Z" fill="white"/>
<path d="M7.0327 7.02592C6.92225 7.02592 6.8327 7.11546 6.8327 7.22592V7.82592C6.8327 7.93638 6.92225 8.02592 7.0327 8.02592H7.55067C7.66113 8.02592 7.75067 8.11546 7.75067 8.22592V11.3281H6.86669C6.75623 11.3281 6.66669 11.4176 6.66669 11.5281V12.1281C6.66669 12.2385 6.75623 12.3281 6.86669 12.3281H9.80002C9.91048 12.3281 10 12.2385 10 12.1281V11.5281C10 11.4176 9.91048 11.3281 9.80002 11.3281H9.25067V7.22592C9.25067 7.11546 9.16113 7.02592 9.05067 7.02592H7.0327Z" fill="white"/>
</svg>
