<svg width="24" height="24" viewBox="0 0 24 24" fill="none" xmlns="http://www.w3.org/2000/svg">
<path d="M2 20.75C1.92647 20.7502 1.85333 20.7394 1.783 20.718C1.62876 20.6715 1.49361 20.5766 1.3976 20.4472C1.30158 20.3179 1.24982 20.161 1.25 20V18C1.25344 14.8847 2.49249 11.8981 4.6953 9.69525C6.8981 7.49244 9.88476 6.25339 13 6.24995H13.25V1.99995C13.2501 1.85171 13.2942 1.70683 13.3766 1.58362C13.459 1.4604 13.5761 1.36438 13.7131 1.30766C13.85 1.25095 14.0007 1.2361 14.1461 1.26499C14.2915 1.29387 14.4251 1.36519 14.53 1.46995L22.53 9.46995C22.5997 9.53952 22.6549 9.62213 22.6926 9.71307C22.7303 9.80402 22.7498 9.9015 22.7498 9.99995C22.7498 10.0984 22.7303 10.1959 22.6926 10.2868C22.6549 10.3778 22.5997 10.4604 22.53 10.53L14.53 18.53C14.4251 18.6347 14.2915 18.706 14.1461 18.7349C14.0007 18.7638 13.85 18.7489 13.7131 18.6922C13.5761 18.6355 13.459 18.5395 13.3766 18.4163C13.2942 18.2931 13.2501 18.1482 13.25 18V13.6C11.756 13.385 7.27 13.444 2.624 20.412C2.55585 20.5153 2.46323 20.6002 2.35438 20.6592C2.24552 20.7182 2.1238 20.7493 2 20.75ZM13 7.74995C10.3354 7.75308 7.77648 8.79242 5.86435 10.6482C3.95223 12.5039 2.83682 15.0306 2.754 17.694C8.523 10.494 13.988 12.206 14.237 12.294C14.3855 12.3434 14.5148 12.4381 14.6068 12.5647C14.6988 12.6913 14.7488 12.8435 14.75 13V16.189L20.939 9.99995L14.75 3.81095V6.99995C14.75 7.19886 14.671 7.38963 14.5303 7.53028C14.3897 7.67093 14.1989 7.74995 14 7.74995H13Z" fill="#33363D"/>
</svg>
