<svg width="50" height="50" viewBox="0 0 50 50" fill="none" xmlns="http://www.w3.org/2000/svg">
<path d="M23.2716 5.19476C24.0398 3.82391 25.9602 3.82391 26.7284 5.19477L46.6046 40.6655C47.3728 42.0364 46.4126 43.75 44.8763 43.75H5.12373C3.5874 43.75 2.62719 42.0364 3.39536 40.6655L23.2716 5.19476Z" fill="#CDD1D5"/>
<path d="M26.583 33.333C26.859 33.333 27.0828 33.557 27.083 33.833V37C27.083 37.2761 26.8592 37.5 26.583 37.5H23.417C23.1408 37.5 22.917 37.2761 22.917 37V33.833C22.9172 33.557 23.141 33.333 23.417 33.333H26.583ZM26.583 16.667C26.8592 16.667 27.083 16.8908 27.083 17.167V30.75C27.083 31.0261 26.8592 31.25 26.583 31.25H23.417C23.1408 31.25 22.917 31.0261 22.917 30.75V17.167C22.917 16.8908 23.1408 16.667 23.417 16.667H26.583Z" fill="white"/>
</svg>
