<svg width="20" height="20" viewBox="0 0 20 20" fill="none" xmlns="http://www.w3.org/2000/svg">
<g clip-path="url(#clip0_3304_14958)">
<path d="M6.42705 2.59277H13.5757C15.5087 2.59277 17.0752 4.15929 17.0752 6.09231V11.3608C17.0752 13.2938 15.5087 14.8604 13.5757 14.8604H12.0396L12.0991 17.918L8.47915 14.8604H6.42705C4.49403 14.8604 2.92751 13.2938 2.92751 11.3608V6.09231C2.92751 4.15929 4.49403 2.59277 6.42705 2.59277Z" fill="white"/>
<path fill-rule="evenodd" clip-rule="evenodd" d="M13.5752 1.66699C16.0148 1.66721 18.001 3.65183 18.001 6.09277V11.3613C18.0007 13.8007 16.0159 15.7859 13.5752 15.7861H12.9834L13.0244 17.8994C13.031 18.2633 12.8242 18.5978 12.4961 18.7539C12.3693 18.8146 12.2334 18.8427 12.0986 18.8428C11.8847 18.8426 11.6723 18.7698 11.502 18.626L8.13965 15.7861H6.42578C3.98636 15.7859 2.00123 13.8021 2.00098 11.3613V6.09277C2.00098 3.65315 3.98488 1.66721 6.42578 1.66699H13.5752ZM6.4248 3.51855C5.00649 3.51859 3.85156 4.67313 3.85156 6.09277V11.3613C3.85182 12.7794 5.00532 13.9345 6.4248 13.9346H8.47656C8.69619 13.9346 8.90849 14.0108 9.0752 14.1523L11.1309 15.8896L11.1113 14.8789C11.106 14.6302 11.2013 14.3892 11.376 14.2119C11.5505 14.0348 11.7885 13.9346 12.0371 13.9346H13.5732C14.9914 13.9346 16.1462 12.7808 16.1465 11.3613V6.09277C16.1465 4.67443 14.9929 3.51855 13.5732 3.51855H6.4248ZM7.20508 7.95996C7.71707 7.95996 8.13178 8.37376 8.13184 8.88574C8.13184 9.39777 7.71711 9.81152 7.20508 9.81152H7.00293C6.4909 9.81152 6.07715 9.39777 6.07715 8.88574C6.07721 8.37376 6.49093 7.95996 7.00293 7.95996H7.20508ZM10.1035 7.95996C10.6155 7.95996 11.0292 8.37376 11.0293 8.88574C11.0293 9.39777 10.6155 9.81152 10.1035 9.81152H9.90137C9.38934 9.81152 8.97461 9.39777 8.97461 8.88574C8.97467 8.37376 9.38937 7.95996 9.90137 7.95996H10.1035ZM12.998 7.95996C13.51 7.96004 13.9238 8.37381 13.9238 8.88574C13.9238 9.39772 13.51 9.81144 12.998 9.81152H12.7959C12.2839 9.81152 11.8691 9.39777 11.8691 8.88574C11.8692 8.37376 12.2839 7.95996 12.7959 7.95996H12.998Z" fill="#5E56E0"/>
</g>
<defs>
<clipPath id="clip0_3304_14958">
<rect width="20" height="20" fill="white"/>
</clipPath>
</defs>
</svg>
