<svg width="10" height="13" viewBox="0 0 10 13" fill="none" xmlns="http://www.w3.org/2000/svg">
<path d="M9.31019 2.82039H4.68262V0.489258H9.31019L8.3312 1.67964L9.31019 2.82039Z" fill="#E6E8EA"/>
<path d="M9.30957 0C9.49887 0 9.67202 0.109019 9.75293 0.280273C9.83337 0.45114 9.80865 0.653705 9.68848 0.799805L8.96973 1.67285L9.68164 2.50195C9.80597 2.64725 9.8349 2.85181 9.75488 3.02539C9.67504 3.19873 9.50066 3.30957 9.30957 3.30957H5.14258V4.52344L9.05176 6.69336C9.20712 6.77965 9.30371 6.94424 9.30371 7.12207V12.3105C9.3035 12.5806 9.08471 12.7998 8.81445 12.7998H0.489258C0.218958 12.7998 0.000206818 12.5806 0 12.3105V7.12207C0 6.94424 0.096586 6.77965 0.251953 6.69336L4.16309 4.52246V0.489258C4.16311 0.218938 4.38242 0.000235497 4.65234 0C4.65711 0 4.66226 0.000841577 4.66699 0.000976562C4.67212 0.000817908 4.67745 0 4.68262 0H9.30957ZM0.978516 7.41016V11.8203H2.91895V9.79395C2.91906 8.8386 3.6963 8.06162 4.65137 8.06152C5.6068 8.06152 6.38367 8.83854 6.38379 9.79395V11.8203H8.3252V7.41016L4.65234 5.37207L0.978516 7.41016ZM4.65137 9.04004C4.23601 9.04013 3.89855 9.37859 3.89844 9.79395V11.8203H5.40527V9.79395C5.40516 9.37853 5.06674 9.04004 4.65137 9.04004ZM5.17188 2.33105H8.24512L7.95898 1.99805C7.8045 1.8175 7.80221 1.55184 7.95312 1.36816L8.27344 0.978516H5.17188V2.33105Z" fill="#58616A"/>
</svg>
