<svg width="24" height="24" viewBox="0 0 24 24" fill="none" xmlns="http://www.w3.org/2000/svg">
<path fill-rule="evenodd" clip-rule="evenodd" d="M10.3294 3.98584C10.546 3.98543 10.7535 4.07288 10.9045 4.22818L12.3355 5.70013L20.1991 5.70019C21.1932 5.7002 21.9991 6.50608 21.9991 7.50019V18.2002C21.9991 19.1943 21.1932 20.0002 20.1991 20.0002H3.79744C2.8034 20.0002 1.99755 19.1944 1.99744 18.2004L1.99609 5.79831C1.99599 4.80544 2.79985 3.99998 3.79271 3.99811L10.3294 3.98584Z" fill="#8A949E"/>
<path fill-rule="evenodd" clip-rule="evenodd" d="M10.333 4C10.5495 3.99959 10.7572 4.08699 10.9082 4.24219L12.3398 5.71387H20.2031C21.1972 5.71393 22.0029 6.52057 22.0029 7.51465V18.2139C22.0029 19.2079 21.1972 20.0146 20.2031 20.0147H3.80176C2.80782 20.0147 2.00124 19.2087 2.00098 18.2148L2 5.8125C1.99989 4.81963 2.80401 4.01456 3.79688 4.0127L10.333 4ZM3.7998 5.61231C3.68949 5.61251 3.5996 5.70218 3.59961 5.8125L3.60156 18.2148C3.60183 18.3251 3.69146 18.4141 3.80176 18.4141H20.2031C20.3135 18.414 20.4033 18.3243 20.4033 18.2139V7.51465C20.4033 7.40423 20.3135 7.31451 20.2031 7.31445H12.001C11.7851 7.31433 11.5782 7.22702 11.4277 7.07227L9.99707 5.60059L3.7998 5.61231ZM15.0049 9.71387C15.4466 9.71397 15.8047 10.0729 15.8047 10.5146V12.2148H17.5029C17.9448 12.2148 18.3027 12.5728 18.3027 13.0146C18.3026 13.4563 17.9447 13.8145 17.5029 13.8145H15.8047V15.5146C15.8045 15.9563 15.4465 16.3143 15.0049 16.3145C14.5632 16.3145 14.2052 15.9563 14.2051 15.5146V13.8145H12.5029C12.0613 13.8143 11.7033 13.4563 11.7031 13.0146C11.7031 12.5729 12.0612 12.215 12.5029 12.2148H14.2051V10.5146C14.2051 10.0728 14.5631 9.71387 15.0049 9.71387Z" fill="#8A949E"/>
<path fill-rule="evenodd" clip-rule="evenodd" d="M11.7031 13.0144C11.7031 12.5725 12.0613 12.2144 12.5031 12.2144H17.5031C17.945 12.2144 18.3031 12.5725 18.3031 13.0144C18.3031 13.4562 17.945 13.8144 17.5031 13.8144H12.5031C12.0613 13.8144 11.7031 13.4562 11.7031 13.0144Z" fill="white"/>
<path fill-rule="evenodd" clip-rule="evenodd" d="M15.0047 9.71436C15.4465 9.71436 15.8047 10.0725 15.8047 10.5144L15.8047 15.5144C15.8047 15.9562 15.4465 16.3144 15.0047 16.3144C14.5629 16.3144 14.2047 15.9562 14.2047 15.5144L14.2047 10.5144C14.2047 10.0725 14.5629 9.71436 15.0047 9.71436Z" fill="white"/>
</svg>
