<svg width="16" height="16" viewBox="0 0 16 16" fill="none" xmlns="http://www.w3.org/2000/svg">
<path d="M5.25 1.84961C5.71404 1.84961 6.15913 2.03424 6.4873 2.3623C6.81536 2.69039 6.9999 3.13565 7 3.59961V5.25C6.99998 5.52149 6.93678 5.78937 6.81543 6.03223C6.69393 6.27518 6.51712 6.48741 6.2998 6.65039L6.11328 6.78906C6.79011 8.12334 7.87432 9.2063 9.20801 9.88379L9.35352 9.69531C9.51603 9.48013 9.72655 9.30519 9.96777 9.18457C10.2107 9.0632 10.4785 9 10.75 9H12.4004C12.8644 9.0001 13.3096 9.1846 13.6377 9.5127C13.9657 9.84086 14.1504 10.286 14.1504 10.75V12.4004C14.1503 12.8643 13.9658 13.3096 13.6377 13.6377C13.3096 13.9658 12.8643 14.1503 12.4004 14.1504C9.60239 14.1504 6.91893 13.038 4.94043 11.0596C2.96195 9.08109 1.84964 6.3976 1.84961 3.59961C1.84971 3.13565 2.03425 2.6904 2.3623 2.3623C2.6904 2.03421 3.13562 1.84971 3.59961 1.84961H5.25ZM3.59961 3.15039C3.4804 3.15049 3.36653 3.19793 3.28223 3.28223C3.19797 3.36652 3.15049 3.48043 3.15039 3.59961C3.15043 6.05281 4.12469 8.40594 5.85938 10.1406C7.59408 11.8753 9.94717 12.8496 12.4004 12.8496C12.5196 12.8495 12.6335 12.802 12.7178 12.7178C12.802 12.6335 12.8495 12.5195 12.8496 12.4004V10.75C12.8496 10.6307 12.8021 10.516 12.7178 10.4316C12.6335 10.3475 12.5195 10.2999 12.4004 10.2998H10.75C10.6801 10.2998 10.6113 10.3164 10.5488 10.3477C10.4864 10.3789 10.4316 10.4246 10.3896 10.4805L10.3867 10.4844L10.1914 10.7383L10.1924 10.7393C10.0273 10.9561 9.79273 11.1106 9.52832 11.1768C9.26382 11.2428 8.9841 11.2172 8.73633 11.1035C8.73138 11.1012 8.72657 11.0981 8.72168 11.0957C7.06509 10.2827 5.72431 8.94364 4.90918 7.28809L4.9082 7.28613C4.78676 7.03702 4.75452 6.75308 4.81836 6.4834C4.88222 6.2139 5.03775 5.9748 5.25781 5.80664L5.2627 5.80273L5.51953 5.61035C5.57539 5.56846 5.6211 5.51361 5.65234 5.45117C5.68357 5.38873 5.70017 5.31982 5.7002 5.25V3.59961C5.70009 3.48057 5.65244 3.36649 5.56836 3.28223C5.48397 3.19784 5.36935 3.15039 5.25 3.15039H3.59961ZM8.5498 4.04883C9.45142 4.04891 10.3166 4.40737 10.9541 5.04492C11.5916 5.68252 11.9502 6.54759 11.9502 7.44922C11.9501 7.80804 11.6586 8.09943 11.2998 8.09961C10.9409 8.09961 10.6495 7.80814 10.6494 7.44922C10.6494 6.89237 10.4288 6.35767 10.0352 5.96387C9.64141 5.57012 9.10664 5.3497 8.5498 5.34961C8.19086 5.34961 7.89948 5.05814 7.89941 4.69922C7.89941 4.34023 8.19082 4.04883 8.5498 4.04883ZM8.5498 1.84961C10.0349 1.8497 11.4596 2.44011 12.5098 3.49023C13.5598 4.54041 14.1494 5.96514 14.1494 7.4502C14.1492 7.80886 13.8586 8.09933 13.5 8.09961C13.1411 8.09961 12.8498 7.80903 12.8496 7.4502C12.8496 6.30992 12.397 5.21555 11.5908 4.40918C10.7845 3.60285 9.69012 3.15048 8.5498 3.15039C8.19086 3.15039 7.89948 2.85893 7.89941 2.5C7.89941 2.14101 8.19082 1.84961 8.5498 1.84961Z" fill="#58616A"/>
</svg>
