<svg width="24" height="24" viewBox="0 0 24 24" fill="none" xmlns="http://www.w3.org/2000/svg">
<path fill-rule="evenodd" clip-rule="evenodd" d="M7.84279 3.00069C7.85776 3.00006 7.87276 2.99987 7.88775 3.00009C8.86548 3.01458 9.82407 3.27465 10.667 3.75671C11.1589 4.038 11.5645 4.46623 11.8833 4.87468C11.9227 4.92515 11.9614 4.97606 11.9992 5.02722C12.0371 4.97606 12.0757 4.92515 12.1151 4.87468C12.4339 4.46623 12.8396 4.03801 13.3314 3.75671C14.1744 3.27465 15.133 3.01458 16.1107 3.00009C16.1257 2.99987 16.1407 3.00006 16.1557 3.00069C17.7007 3.06467 19.1645 3.70893 20.2243 4.80459C21.2817 5.89773 21.8507 7.35228 21.7956 8.85363C21.7911 10.2724 21.1945 11.7053 20.3873 13.0116C19.57 14.3343 18.4895 15.6028 17.4185 16.7038C15.2802 18.9022 13.0965 20.5172 12.8801 20.6633L12.4466 20.9557C12.1762 21.138 11.8222 21.138 11.5519 20.9557L11.1186 20.6634L11.1165 20.662C10.902 20.5164 8.71872 18.902 6.57992 16.7033C5.50898 15.6024 4.42845 14.334 3.61116 13.0115C2.80391 11.7052 2.2073 10.2724 2.20288 8.85362C2.1478 7.35227 2.71673 5.89773 3.77414 4.80459C4.83397 3.70893 6.29773 3.06467 7.84279 3.00069Z" fill="#D63D4A"/>
</svg>
