<svg width="20" height="20" viewBox="0 0 20 20" fill="none" xmlns="http://www.w3.org/2000/svg">
<path d="M1.66663 10.0007C1.66663 14.603 5.39759 18.334 9.99996 18.334C14.6023 18.334 18.3333 14.603 18.3333 10.0007C18.3333 5.39828 14.6023 1.66732 9.99996 1.66732C5.39759 1.66732 1.66663 5.39828 1.66663 10.0007Z" fill="#256EF4"/>
<path fill-rule="evenodd" clip-rule="evenodd" d="M8.47631 13.2962C8.21596 13.0358 8.21596 12.6137 8.47631 12.3534L10.8333 9.99634L8.47631 7.63932C8.21596 7.37897 8.21596 6.95686 8.47631 6.69651C8.73666 6.43616 9.15877 6.43616 9.41912 6.69651L12.2475 9.52493C12.5079 9.78528 12.5079 10.2074 12.2475 10.4677L9.41912 13.2962C9.15877 13.5565 8.73666 13.5565 8.47631 13.2962Z" fill="white"/>
</svg>
