<svg width="16" height="16" viewBox="0 0 16 16" fill="none" xmlns="http://www.w3.org/2000/svg">
<path d="M8.51386 1.85249C8.51386 1.56572 8.28139 1.33325 7.99462 1.33325C7.70785 1.33325 7.47538 1.56572 7.47538 1.85249V3.5952C7.47538 3.88196 7.70785 4.11444 7.99462 4.11444C8.28139 4.11444 8.51386 3.88196 8.51386 3.5952V1.85249Z" fill="#6D7882"/>
<path d="M2.73669 2.71506C2.52482 2.5218 2.1964 2.53688 2.00314 2.74874C1.80988 2.96061 1.82496 3.28903 2.03683 3.48229L3.47879 4.79762C3.69066 4.99088 4.01907 4.9758 4.21234 4.76394C4.4056 4.55207 4.39051 4.22365 4.17865 4.03039L2.73669 2.71506Z" fill="#6D7882"/>
<path d="M13.9523 3.48228C14.1642 3.28901 14.1792 2.9606 13.986 2.74873C13.7927 2.53687 13.4643 2.5218 13.2524 2.71506L11.8105 4.0304C11.5987 4.22366 11.5836 4.55208 11.7769 4.76394C11.9701 4.97581 12.2985 4.99088 12.5104 4.79762L13.9523 3.48228Z" fill="#6D7882"/>
<path d="M11.9111 9.66658C12.3582 9.66658 12.6783 9.2356 12.5498 8.80738L11.7489 6.13772C11.6642 5.85541 11.4044 5.66208 11.1097 5.66208H4.89472C4.59999 5.66208 4.34015 5.85541 4.25546 6.13771L3.45456 8.80738C3.32609 9.2356 3.64616 9.66658 4.09324 9.66658H11.9111Z" fill="#6D7882"/>
<path d="M13.3471 14.0001H2.65781C2.25245 14.0001 2.04976 14.0001 1.91449 13.9156C1.79601 13.8415 1.70975 13.7256 1.67286 13.5908C1.63073 13.4369 1.68897 13.2428 1.80545 12.8545L2.23875 11.4102C2.30109 11.2024 2.33226 11.0985 2.39129 11.0196C2.45591 10.9332 2.54425 10.8674 2.64557 10.8304C2.73812 10.7965 2.8466 10.7965 3.06357 10.7965H12.9413C13.1583 10.7965 13.2668 10.7965 13.3593 10.8304C13.4607 10.8674 13.549 10.9332 13.6136 11.0196C13.6726 11.0985 13.7038 11.2024 13.7662 11.4102L14.1995 12.8545C14.3159 13.2428 14.3742 13.4369 14.3321 13.5908C14.2952 13.7256 14.2089 13.8415 14.0904 13.9156C13.9551 14.0001 13.7525 14.0001 13.3471 14.0001Z" fill="#6D7882"/>
</svg>
