<svg width="16" height="16" viewBox="0 0 16 16" fill="none" xmlns="http://www.w3.org/2000/svg">
<g clip-path="url(#clip0_2428_21989)">
<path d="M12.6719 2.68262C13.6758 2.68262 14.49 3.49709 14.4902 4.50098V11.5088C14.4902 12.5128 13.6759 13.3271 12.6719 13.3271H3.32812C2.32409 13.3271 1.50977 12.5128 1.50977 11.5088V4.50098C1.50996 3.4971 2.3242 2.68263 3.32812 2.68262H12.6719ZM8.93848 8.97754C8.93109 8.98224 8.92358 8.98681 8.91602 8.99121C8.63872 9.15226 8.32359 9.23728 8.00293 9.2373C7.68222 9.2373 7.36718 9.15228 7.08984 8.99121C7.08229 8.98682 7.07476 8.98223 7.06738 8.97754L2.81055 6.26855V11.5088C2.81055 11.7949 3.04206 12.0273 3.32812 12.0273H12.6719C12.958 12.0273 13.1904 11.7949 13.1904 11.5088V6.26855L8.93848 8.97754ZM3.32812 3.9834C3.04217 3.98342 2.81074 4.21507 2.81055 4.50098V4.72754L7.74609 7.86914C7.82429 7.91378 7.91284 7.9375 8.00293 7.9375C8.09248 7.93747 8.17997 7.91329 8.25781 7.86914L13.1904 4.72852V4.50098C13.1902 4.21506 12.9578 3.9834 12.6719 3.9834H3.32812Z" fill="#58616A"/>
</g>
<defs>
<clipPath id="clip0_2428_21989">
<rect width="16" height="16" fill="white"/>
</clipPath>
</defs>
</svg>
