<svg width="24" height="24" viewBox="0 0 24 24" fill="none" xmlns="http://www.w3.org/2000/svg">
<g clip-path="url(#clip0_2566_31564)">
<path d="M12.0039 0C6.99403 0 5.52883 0.00516967 5.24402 0.0288024C4.2159 0.114287 3.57615 0.276208 2.87917 0.623314C2.34204 0.890106 1.91843 1.19936 1.50035 1.63288C0.738959 2.42347 0.277507 3.3961 0.110461 4.55226C0.0292458 5.11354 0.00561946 5.22801 0.000820359 8.09496C-0.00102545 9.05061 0.000820359 10.3083 0.000820359 11.9953C0.000820359 17.0025 0.00635778 18.4666 0.0303533 18.7509C0.113415 19.7516 0.270308 20.3812 0.602553 21.0699C1.23751 22.3882 2.45021 23.3778 3.87886 23.7471C4.37354 23.8745 4.9199 23.9446 5.6213 23.9778C5.91848 23.9908 8.94744 24 11.9783 24C15.0091 24 18.0399 23.9963 18.3297 23.9815C19.1418 23.9433 19.6134 23.88 20.1349 23.7452C20.8433 23.5635 21.5035 23.2293 22.0693 22.7659C22.6352 22.3026 23.0932 21.7212 23.4112 21.0625C23.737 20.3905 23.9022 19.7369 23.9769 18.7884C23.9932 18.5816 24 15.2847 24 11.9922C24 8.69907 23.9926 5.40821 23.9764 5.20143C23.9007 4.23765 23.7355 3.5896 23.3992 2.90462C23.1232 2.34389 22.8168 1.92515 22.372 1.49699C21.5783 0.738524 20.6074 0.276947 19.4503 0.11004C18.8897 0.0289871 18.778 0.00498504 15.9096 0H12.0039Z" fill="url(#paint0_radial_2566_31564)"/>
<path d="M12.0039 0C6.99403 0 5.52883 0.00516967 5.24402 0.0288024C4.2159 0.114287 3.57615 0.276208 2.87917 0.623314C2.34204 0.890106 1.91843 1.19936 1.50035 1.63288C0.738959 2.42347 0.277507 3.3961 0.110461 4.55226C0.0292458 5.11354 0.00561946 5.22801 0.000820359 8.09496C-0.00102545 9.05061 0.000820359 10.3083 0.000820359 11.9953C0.000820359 17.0025 0.00635778 18.4666 0.0303533 18.7509C0.113415 19.7516 0.270308 20.3812 0.602553 21.0699C1.23751 22.3882 2.45021 23.3778 3.87886 23.7471C4.37354 23.8745 4.9199 23.9446 5.6213 23.9778C5.91848 23.9908 8.94744 24 11.9783 24C15.0091 24 18.0399 23.9963 18.3297 23.9815C19.1418 23.9433 19.6134 23.88 20.1349 23.7452C20.8433 23.5635 21.5035 23.2293 22.0693 22.7659C22.6352 22.3026 23.0932 21.7212 23.4112 21.0625C23.737 20.3905 23.9022 19.7369 23.9769 18.7884C23.9932 18.5816 24 15.2847 24 11.9922C24 8.69907 23.9926 5.40821 23.9764 5.20143C23.9007 4.23765 23.7355 3.5896 23.3992 2.90462C23.1232 2.34389 22.8168 1.92515 22.372 1.49699C21.5783 0.738524 20.6074 0.276947 19.4503 0.11004C18.8897 0.0289871 18.778 0.00498504 15.9096 0H12.0039Z" fill="url(#paint1_radial_2566_31564)"/>
<path d="M11.9981 3.13672C9.59193 3.13672 9.28995 3.14724 8.3449 3.19026C7.40169 3.23347 6.75788 3.38283 6.19454 3.60199C5.61181 3.82835 5.11751 4.13114 4.62505 4.62392C4.13222 5.11652 3.8295 5.61096 3.60247 6.19365C3.38282 6.75733 3.23331 7.40151 3.19085 8.3446C3.14877 9.28992 3.1377 9.59216 3.1377 11.999C3.1377 14.4059 3.1484 14.707 3.19122 15.6523C3.2346 16.5958 3.38393 17.2398 3.60284 17.8032C3.82932 18.3861 4.13203 18.8806 4.62468 19.3732C5.11695 19.8661 5.61126 20.1697 6.19361 20.396C6.75732 20.6152 7.40132 20.7645 8.34435 20.8078C9.2894 20.8508 9.59119 20.8613 11.9972 20.8613C14.4036 20.8613 14.7046 20.8508 15.6497 20.8078C16.5929 20.7645 17.2374 20.6152 17.8012 20.396C18.3837 20.1697 18.8773 19.8661 19.3695 19.3732C19.8624 18.8806 20.1651 18.3861 20.3921 17.8034C20.6099 17.2398 20.7594 16.5956 20.8037 15.6525C20.8462 14.7072 20.8573 14.4059 20.8573 11.999C20.8573 9.59216 20.8462 9.2901 20.8037 8.34479C20.7594 7.40132 20.6099 6.75733 20.3921 6.19384C20.1651 5.61096 19.8624 5.11652 19.3695 4.62392C18.8767 4.13096 18.3839 3.82816 17.8006 3.60199C17.2358 3.38283 16.5916 3.23347 15.6484 3.19026C14.7033 3.14724 14.4025 3.13672 11.9955 3.13672H11.9981ZM11.2033 4.73378C11.4392 4.73341 11.7024 4.73378 11.9981 4.73378C14.3637 4.73378 14.6441 4.74227 15.5782 4.78473C16.4421 4.82425 16.9109 4.96863 17.2232 5.08993C17.6367 5.25056 17.9315 5.44258 18.2414 5.75276C18.5515 6.06294 18.7434 6.35834 18.9044 6.77192C19.0257 7.08394 19.1702 7.55291 19.2095 8.41698C19.252 9.35121 19.2612 9.63185 19.2612 11.997C19.2612 14.3621 19.252 14.6427 19.2095 15.577C19.17 16.441 19.0257 16.91 18.9044 17.222C18.7438 17.6356 18.5515 17.9301 18.2414 18.2401C17.9313 18.5503 17.6369 18.7423 17.2232 18.9029C16.9113 19.0248 16.4421 19.1688 15.5782 19.2083C14.6443 19.2508 14.3637 19.26 11.9981 19.26C9.63235 19.26 9.35197 19.2508 8.41799 19.2083C7.55416 19.1684 7.08532 19.024 6.77283 18.9027C6.35937 18.7421 6.06404 18.5501 5.75394 18.2399C5.44385 17.9297 5.25188 17.6351 5.09093 17.2213C4.96966 16.9093 4.82513 16.4403 4.78582 15.5762C4.74336 14.642 4.73487 14.3614 4.73487 11.9948C4.73487 9.62816 4.74336 9.349 4.78582 8.41476C4.82532 7.55069 4.96966 7.08173 5.09093 6.76933C5.25151 6.35576 5.44385 6.06035 5.75394 5.75017C6.06404 5.43999 6.35937 5.24797 6.77283 5.08698C7.08514 4.96512 7.55416 4.82111 8.41799 4.78141C9.23532 4.74449 9.55206 4.73341 11.2033 4.73156V4.73378ZM16.7274 6.20529C16.5172 6.20529 16.3116 6.26767 16.1367 6.38454C15.9619 6.50141 15.8256 6.66753 15.7452 6.86187C15.6647 7.05622 15.6437 7.27007 15.6847 7.47637C15.7258 7.68267 15.8271 7.87217 15.9758 8.02088C16.1245 8.1696 16.314 8.27085 16.5203 8.31185C16.7265 8.35284 16.9403 8.33173 17.1346 8.25118C17.3288 8.17063 17.4949 8.03426 17.6116 7.85933C17.7284 7.68439 17.7907 7.47874 17.7906 7.26839C17.7906 6.68126 17.3144 6.20492 16.7274 6.20492V6.20529ZM11.9981 7.44785C9.48542 7.44785 7.44821 9.48562 7.44821 11.999C7.44821 14.5124 9.48542 16.5492 11.9981 16.5492C14.5108 16.5492 16.5475 14.5124 16.5475 11.999C16.5475 9.48562 14.5106 7.44785 11.9979 7.44785H11.9981ZM11.9981 9.04491C13.6291 9.04491 14.9514 10.3674 14.9514 11.999C14.9514 13.6304 13.6291 14.9531 11.9981 14.9531C10.367 14.9531 9.04483 13.6304 9.04483 11.999C9.04483 10.3674 10.367 9.04491 11.9981 9.04491Z" fill="white"/>
</g>
<defs>
<radialGradient id="paint0_radial_2566_31564" cx="0" cy="0" r="1" gradientUnits="userSpaceOnUse" gradientTransform="translate(6.37503 25.8485) rotate(-90) scale(23.7858 22.1226)">
<stop stop-color="#FFDD55"/>
<stop offset="0.1" stop-color="#FFDD55"/>
<stop offset="0.5" stop-color="#FF543E"/>
<stop offset="1" stop-color="#C837AB"/>
</radialGradient>
<radialGradient id="paint1_radial_2566_31564" cx="0" cy="0" r="1" gradientTransform="matrix(2.08689 10.4255 -42.9735 8.60689 -4.02013 1.72892)" gradientUnits="userSpaceOnUse">
<stop stop-color="#3771C8"/>
<stop offset="0.128" stop-color="#3771C8"/>
<stop offset="1" stop-color="#6600FF" stop-opacity="0"/>
</radialGradient>
<clipPath id="clip0_2566_31564">
<rect width="24" height="24" fill="white"/>
</clipPath>
</defs>
</svg>
