<svg width="24" height="24" viewBox="0 0 24 24" fill="none" xmlns="http://www.w3.org/2000/svg">
<rect width="24" height="24" rx="4" fill="black"/>
<path d="M12.0649 20.3878C12.0159 20.3878 11.9659 20.3878 11.9169 20.3868C11.8679 20.3858 11.8189 20.3848 11.7699 20.3828C11.7209 20.3808 11.6719 20.3788 11.6239 20.3768C11.5749 20.3748 11.5269 20.3718 11.4789 20.3688C11.4309 20.3658 11.3829 20.3618 11.3349 20.3578C11.2869 20.3538 11.2389 20.3498 11.1919 20.3448C11.1449 20.3398 11.0969 20.3348 11.0499 20.3288C11.0029 20.3228 10.9559 20.3168 10.9089 20.3108C10.8619 20.3048 10.8149 20.2978 10.7689 20.2898C10.7229 20.2818 10.6759 20.2748 10.6299 20.2668C10.5839 20.2588 10.5379 20.2498 10.4919 20.2418C10.4459 20.2328 10.3999 20.2238 10.3549 20.2138C10.3089 20.2038 10.2639 20.1938 10.2189 20.1838C10.1739 20.1738 10.1289 20.1628 10.0839 20.1508C10.0389 20.1398 9.99489 20.1278 9.94989 20.1158C9.90589 20.1038 9.86189 20.0908 9.81789 20.0788C9.77389 20.0668 9.72989 20.0528 9.68689 20.0388C9.64389 20.0248 9.59989 20.0108 9.55689 19.9968C9.51389 19.9818 9.47089 19.9678 9.42789 19.9518C9.38489 19.9358 9.34289 19.9208 9.30089 19.9048C9.25889 19.8888 9.21689 19.8718 9.17489 19.8548C9.13289 19.8378 9.09189 19.8208 9.04989 19.8028C9.00889 19.7848 8.96789 19.7668 8.92689 19.7488C8.88589 19.7308 8.84589 19.7108 8.80489 19.6918C8.76489 19.6728 8.72489 19.6528 8.68489 19.6328C8.64489 19.6128 8.60589 19.5918 8.56589 19.5708C8.52589 19.5498 8.48789 19.5288 8.44889 19.5068C8.40989 19.4848 8.37189 19.4628 8.33289 19.4398C8.29489 19.4168 8.25689 19.3938 8.21889 19.3708C8.18089 19.3478 8.14389 19.3238 8.10689 19.2988C8.06989 19.2738 8.03289 19.2498 7.99589 19.2248C7.95889 19.1998 7.92289 19.1738 7.88689 19.1488C7.85089 19.1228 7.81489 19.0968 7.77989 19.0698C7.74389 19.0428 7.70889 19.0158 7.67389 18.9888C7.63889 18.9618 7.60389 18.9338 7.56989 18.9048C7.53589 18.8768 7.50189 18.8478 7.46789 18.8188C7.43389 18.7898 7.40089 18.7598 7.36789 18.7298C7.33489 18.6998 7.30189 18.6698 7.26889 18.6388C7.23589 18.6078 7.20389 18.5768 7.17189 18.5458C7.13989 18.5138 7.10789 18.4818 7.07689 18.4498C7.04589 18.4178 7.01489 18.3848 6.98389 18.3518C6.95289 18.3188 6.92289 18.2848 6.89289 18.2508C6.86289 18.2168 6.83289 18.1828 6.80389 18.1478C6.77489 18.1128 6.74589 18.0778 6.71689 18.0418C6.68789 18.0058 6.65989 17.9698 6.63189 17.9338C6.60389 17.8978 6.57589 17.8608 6.54889 17.8228C6.52189 17.7858 6.49489 17.7478 6.46789 17.7098C6.44089 17.6718 6.41489 17.6328 6.38889 17.5938C6.36289 17.5548 6.33789 17.5158 6.31189 17.4758C6.28689 17.4358 6.26189 17.3958 6.23789 17.3558C6.21389 17.3148 6.18889 17.2738 6.16589 17.2328C6.14189 17.1918 6.11889 17.1498 6.09589 17.1078C6.07289 17.0658 6.04989 17.0228 6.02789 16.9798C6.00589 16.9368 5.98389 16.8938 5.96189 16.8498C5.94089 16.8058 5.91889 16.7618 5.89889 16.7168C5.87789 16.6718 5.85789 16.6268 5.83789 16.5818C5.81789 16.5368 5.79889 16.4908 5.77889 16.4438C5.75989 16.3978 5.74089 16.3508 5.72289 16.3038C5.70489 16.2568 5.68689 16.2088 5.66889 16.1608C5.65089 16.1128 5.63389 16.0648 5.61789 16.0158C5.60089 15.9668 5.58489 15.9178 5.56889 15.8688C5.55289 15.8188 5.53789 15.7688 5.52289 15.7188C5.50789 15.6688 5.49289 15.6178 5.47889 15.5668C5.46489 15.5158 5.45089 15.4638 5.43789 15.4118C5.42989 15.3828 5.42289 15.3528 5.41589 15.3238C5.40889 15.2948 5.40189 15.2648 5.39489 15.2348C5.38789 15.2048 5.38089 15.1758 5.37489 15.1458C5.36789 15.1158 5.36189 15.0868 5.35489 15.0568C5.34789 15.0268 5.34189 14.9968 5.33589 14.9678C5.32989 14.9378 5.32389 14.9078 5.31789 14.8778C5.31189 14.8478 5.30589 14.8178 5.30089 14.7878C5.29489 14.7578 5.28989 14.7278 5.28489 14.6978C5.27989 14.6678 5.27489 14.6378 5.26889 14.6078C5.26289 14.5778 5.25889 14.5478 5.25389 14.5178C5.24889 14.4878 5.24489 14.4578 5.23989 14.4268C5.23489 14.3958 5.23089 14.3668 5.22689 14.3358C5.22289 14.3058 5.21889 14.2758 5.21489 14.2448C5.21089 14.2138 5.20689 14.1838 5.20289 14.1538C5.19889 14.1238 5.19589 14.0928 5.19189 14.0628C5.18789 14.0328 5.18489 14.0018 5.18189 13.9718C5.17889 13.9418 5.17589 13.9108 5.17189 13.8808C5.16889 13.8508 5.16589 13.8198 5.16289 13.7898C5.15989 13.7598 5.15689 13.7298 5.15489 13.6988C5.15289 13.6678 5.14989 13.6388 5.14789 13.6078C5.14589 13.5778 5.14289 13.5478 5.14089 13.5168C5.13889 13.4868 5.13689 13.4568 5.13489 13.4268C5.13289 13.3968 5.13089 13.3668 5.12989 13.3368C5.12789 13.3068 5.12689 13.2768 5.12489 13.2468C5.12289 13.2168 5.12189 13.1868 5.12089 13.1568C5.11989 13.1268 5.11889 13.0968 5.11689 13.0668C5.11589 13.0368 5.11489 13.0068 5.11389 12.9778C5.11389 12.9478 5.11189 12.9188 5.11189 12.8888C5.11189 12.8588 5.11089 12.8298 5.10989 12.7998C5.10889 12.7698 5.10989 12.7408 5.10889 12.7108C5.10889 12.6818 5.10889 12.6518 5.10889 12.6228C5.10889 12.5938 5.10889 12.5638 5.10889 12.5348C5.10889 12.5058 5.10889 12.4768 5.10889 12.4478C5.10889 12.4188 5.10889 12.3898 5.10989 12.3608C5.10989 12.3318 5.10989 12.3028 5.11189 12.2738C5.11389 12.2448 5.11289 12.2158 5.11389 12.1878C5.11389 12.1588 5.11589 12.1308 5.11689 12.1018C5.11689 12.0738 5.11889 12.0448 5.11989 12.0168C5.12089 11.9888 5.12189 11.9598 5.12389 11.9318C5.12489 11.9038 5.12689 11.8758 5.12789 11.8478C5.12889 11.8198 5.13089 11.7918 5.13189 11.7638C5.13389 11.7358 5.13489 11.7088 5.13689 11.6808C5.13889 11.6528 5.14089 11.6258 5.14189 11.5988C5.14389 11.5718 5.14589 11.5438 5.14789 11.5168C5.14989 11.4898 5.15189 11.4628 5.15389 11.4358C5.15589 11.4088 5.15789 11.3818 5.16089 11.3558C5.16389 11.3298 5.16589 11.3028 5.16789 11.2758C5.16989 11.2498 5.17289 11.2228 5.17489 11.1968C5.17689 11.1708 5.17989 11.1448 5.18289 11.1188C5.18589 11.0928 5.18789 11.0668 5.19089 11.0418C5.19389 11.0168 5.19689 10.9908 5.19989 10.9648C5.20289 10.9398 5.20589 10.9138 5.20889 10.8888C5.21189 10.8638 5.21489 10.8388 5.21789 10.8138C5.22089 10.7888 5.22389 10.7638 5.22789 10.7398C5.23189 10.7158 5.23489 10.6908 5.23789 10.6668C5.24089 10.6428 5.24489 10.6188 5.24789 10.5948C5.25089 10.5708 5.25489 10.5468 5.25889 10.5238C5.26289 10.5008 5.26589 10.4768 5.26989 10.4538C5.27389 10.4308 5.27689 10.4078 5.28089 10.3848C5.28489 10.3618 5.28889 10.3388 5.29189 10.3168C5.29589 10.2938 5.29989 10.2718 5.30389 10.2498C5.30789 10.2278 5.31189 10.2058 5.31589 10.1838C5.31989 10.1618 5.32389 10.1398 5.32789 10.1188C5.33189 10.0968 5.33589 10.0758 5.33989 10.0548C5.34489 10.0308 5.34989 10.0068 5.35489 9.9828C5.35989 9.95881 5.36489 9.9348 5.37089 9.9098C5.37589 9.8858 5.38189 9.86081 5.38789 9.8358C5.39389 9.8108 5.39989 9.78681 5.40589 9.76181C5.41189 9.7368 5.41789 9.7118 5.42489 9.68681C5.43089 9.66181 5.43789 9.63681 5.44489 9.61081C5.45189 9.5858 5.45889 9.5598 5.46589 9.5348C5.47289 9.5088 5.47989 9.48381 5.48789 9.45781C5.49489 9.43181 5.50289 9.4058 5.51089 9.3808C5.51889 9.3558 5.52689 9.3288 5.53489 9.3028C5.54289 9.2768 5.55089 9.2508 5.55989 9.2248C5.56789 9.1988 5.57689 9.1728 5.58589 9.1458C5.59489 9.1198 5.60389 9.0928 5.61289 9.0668C5.62189 9.0408 5.63089 9.0138 5.64089 8.9868C5.64989 8.95981 5.65989 8.9338 5.66989 8.9068C5.67989 8.8798 5.68989 8.8538 5.69989 8.8268C5.70989 8.7998 5.71989 8.7728 5.73089 8.7468C5.74089 8.7198 5.75189 8.6928 5.76289 8.6658C5.77389 8.6388 5.78489 8.6118 5.79589 8.5848C5.80689 8.5578 5.81789 8.5308 5.82989 8.5038C5.84089 8.4768 5.85289 8.4498 5.86489 8.4228C5.87689 8.3958 5.88889 8.3688 5.90089 8.3418C5.91289 8.3148 5.92589 8.2878 5.93789 8.2608C5.95089 8.2338 5.96289 8.2068 5.97589 8.1798C5.98889 8.1528 6.00189 8.1258 6.01489 8.0988C6.02789 8.07181 6.04189 8.0448 6.05489 8.0178C6.06889 7.9908 6.08189 7.9638 6.09589 7.9378C6.10989 7.9118 6.12389 7.88381 6.13789 7.85781C6.15189 7.8308 6.16689 7.8048 6.18089 7.7778C6.19589 7.7508 6.21089 7.7248 6.22589 7.6978C6.24089 7.6708 6.25589 7.6448 6.27189 7.6188C6.28689 7.5928 6.30289 7.5658 6.31889 7.5398C6.33489 7.5138 6.35089 7.4878 6.36689 7.4608C6.38289 7.4348 6.39889 7.4088 6.41589 7.3828C6.43189 7.3568 6.44889 7.3308 6.46589 7.3048C6.48289 7.2788 6.49989 7.2528 6.51689 7.2278C6.53389 7.2018 6.55189 7.1768 6.56889 7.1508C6.58689 7.1258 6.60389 7.0998 6.62189 7.0748C6.63989 7.0498 6.65789 7.0248 6.67589 6.9998C6.69389 6.9748 6.71289 6.9498 6.73089 6.9248C6.74989 6.8998 6.76789 6.8758 6.78689 6.8508C6.80589 6.8268 6.82489 6.8018 6.84489 6.7778C6.86389 6.7538 6.88389 6.7298 6.90389 6.7058C6.92389 6.6818 6.94389 6.6578 6.96389 6.6348C6.98389 6.6108 7.00389 6.5878 7.02489 6.5648C7.04489 6.5418 7.06589 6.5178 7.08689 6.4948C7.10789 6.4718 7.12889 6.4488 7.14989 6.4258C7.17089 6.4028 7.19289 6.3808 7.21389 6.3578C7.23589 6.3358 7.25689 6.3128 7.27889 6.2918C7.30089 6.2698 7.32289 6.2478 7.34489 6.2268C7.36689 6.2048 7.38989 6.1838 7.41289 6.1628C7.43589 6.1418 7.45889 6.1208 7.48189 6.0998C7.50489 6.0788 7.52789 6.0588 7.55189 6.0378C7.57489 6.0178 7.59889 5.9968 7.62289 5.9768C7.64689 5.9568 7.67089 5.9368 7.69489 5.9178C7.71889 5.8978 7.74389 5.8788 7.76789 5.8598C7.79289 5.8408 7.81689 5.8218 7.84189 5.8028C7.86689 5.7838 7.89189 5.7658 7.91689 5.7478C7.94189 5.7298 7.96789 5.7118 7.99389 5.6938C8.01989 5.6758 8.04589 5.6588 8.07189 5.6418C8.09789 5.6248 8.12389 5.6078 8.15089 5.5908C8.17789 5.5738 8.20389 5.5578 8.23089 5.5418C8.25789 5.5258 8.28489 5.5098 8.31189 5.4948C8.33889 5.4788 8.36689 5.4638 8.39389 5.4488C8.42289 5.4328 8.45189 5.4178 8.48189 5.4018C8.51089 5.3868 8.54089 5.3718 8.56989 5.3568C8.59889 5.3418 8.62889 5.3278 8.65789 5.3128C8.68689 5.2978 8.71689 5.2848 8.74689 5.2708C8.77689 5.2568 8.80689 5.2428 8.83589 5.2298C8.86589 5.2168 8.89589 5.2028 8.92589 5.1898C8.95589 5.1768 8.98589 5.1638 9.01589 5.1518C9.04589 5.1398 9.07589 5.1268 9.10589 5.1148C9.13589 5.1028 9.16589 5.0908 9.19689 5.0788C9.22689 5.0668 9.25789 5.0558 9.28789 5.0448C9.31789 5.0338 9.34889 5.0228 9.37889 5.0118C9.40889 5.0008 9.43989 4.9908 9.46989 4.9798C9.50089 4.9698 9.53089 4.9598 9.56189 4.9498C9.59289 4.9398 9.62289 4.9298 9.65389 4.9208C9.68489 4.9108 9.71489 4.9018 9.74589 4.8928C9.77689 4.8838 9.80689 4.8748 9.83789 4.8658C9.86889 4.8568 9.89889 4.8488 9.92989 4.8398C9.96089 4.8318 9.99089 4.8238 10.0219 4.8158C10.0529 4.8078 10.0829 4.7998 10.1139 4.7928C10.1449 4.7848 10.1749 4.7778 10.2059 4.7708C10.2369 4.7638 10.2669 4.7568 10.2979 4.7498C10.3289 4.7428 10.3589 4.7368 10.3899 4.7298C10.4209 4.7238 10.4509 4.7168 10.4819 4.7108C10.5129 4.7048 10.5429 4.6988 10.5739 4.6928C10.6049 4.6868 10.6349 4.6818 10.6659 4.6768C10.6969 4.6718 10.7269 4.6668 10.7579 4.6618C10.7889 4.6568 10.8189 4.6518 10.8489 4.6478C10.8789 4.6428 10.9099 4.6388 10.9399 4.6348C10.9699 4.6308 11.0009 4.6268 11.0309 4.6228C11.0609 4.6188 11.0909 4.6148 11.1219 4.6118C11.1519 4.6078 11.1819 4.6048 11.2119 4.6018C11.2419 4.5988 11.2719 4.5958 11.3019 4.5928C11.3319 4.5898 11.3619 4.5868 11.3909 4.5848C11.4209 4.5818 11.4499 4.5798 11.4799 4.5778C11.5099 4.5758 11.5389 4.5728 11.5689 4.5708C11.5979 4.5688 11.6279 4.5668 11.6569 4.5648C11.6859 4.5628 11.7159 4.5618 11.7449 4.5598C11.7739 4.5588 11.8029 4.5568 11.8319 4.5558C11.8609 4.5548 11.8899 4.5538 11.9189 4.5528C11.9479 4.5528 11.9759 4.5508 12.0049 4.5508C12.0339 4.5508 12.0619 4.5498 12.0899 4.5498C12.1179 4.5498 12.1469 4.5498 12.1749 4.5498C12.2029 4.5498 12.2309 4.5498 12.2589 4.5498C12.2869 4.5498 12.3149 4.5498 12.3419 4.5508C12.3699 4.5508 12.3969 4.5518 12.4249 4.5528C12.4519 4.5528 12.4799 4.5548 12.5069 4.5558C12.5339 4.5558 12.5609 4.5578 12.5879 4.5588C12.6149 4.5598 12.6419 4.5618 12.6679 4.5628C12.6949 4.5638 12.7209 4.5658 12.7469 4.5678C12.7729 4.5698 12.7999 4.5708 12.8259 4.5728C12.8519 4.5748 12.8779 4.5768 12.9039 4.5788C12.9299 4.5808 12.9549 4.5828 12.9809 4.5858C13.0059 4.5878 13.0319 4.5908 13.0569 4.5928C13.0819 4.5958 13.1069 4.5978 13.1319 4.6008C13.1569 4.6038 13.1809 4.6068 13.2059 4.6098C13.2299 4.6128 13.2549 4.6158 13.2789 4.6188C13.3029 4.6218 13.3269 4.6248 13.3509 4.6288C13.3749 4.6318 13.3979 4.6358 13.4219 4.6388C13.4459 4.6418 13.4689 4.6458 13.4919 4.6498C13.5149 4.6538 13.5379 4.6568 13.5599 4.6608C13.5829 4.6648 13.6049 4.6688 13.6269 4.6728C13.6489 4.6768 13.6709 4.6808 13.6929 4.6848C13.7149 4.6888 13.7359 4.6938 13.7579 4.6978C13.7789 4.7018 13.8009 4.7068 13.8209 4.7108C13.8469 4.7168 13.8739 4.7228 13.8999 4.7278C13.9259 4.7338 13.9519 4.7398 13.9779 4.7458C14.0039 4.7518 14.0299 4.7578 14.0559 4.7638C14.0819 4.7698 14.1069 4.7768 14.1329 4.7828C14.1589 4.7888 14.1839 4.7958 14.2089 4.8028C14.2339 4.8098 14.2599 4.8158 14.2849 4.8228C14.3099 4.8298 14.3349 4.8368 14.3599 4.8438C14.3849 4.8508 14.4099 4.8578 14.4339 4.8648C14.4589 4.8718 14.4829 4.8788 14.5079 4.8868C14.5319 4.8938 14.5569 4.9018 14.5809 4.9088C14.6049 4.9168 14.6289 4.9238 14.6529 4.9318C14.6769 4.9398 14.7009 4.9478 14.7249 4.9548C14.7489 4.9628 14.7729 4.9708 14.7959 4.9788C14.8199 4.9868 14.8429 4.9948 14.8659 5.0038C14.8889 5.0128 14.9129 5.0208 14.9359 5.0288C14.9589 5.0368 14.9819 5.0458 15.0049 5.0548C15.0279 5.0638 15.0509 5.0718 15.0739 5.0808C15.0969 5.0898 15.1189 5.0988 15.1419 5.1078C15.1649 5.1168 15.1869 5.1258 15.2089 5.1348C15.2309 5.1438 15.2539 5.1538 15.2759 5.1628C15.2979 5.1718 15.3199 5.1818 15.3419 5.1918C15.3639 5.2018 15.3859 5.2108 15.4079 5.2208C15.4299 5.2308 15.4509 5.2408 15.4729 5.2508C15.4949 5.2608 15.5159 5.2708 15.5369 5.2808C15.5579 5.2908 15.5799 5.3018 15.6009 5.3118C15.6219 5.3218 15.6429 5.3328 15.6639 5.3438C15.6849 5.3548 15.7059 5.3648 15.7269 5.3758C15.7479 5.3868 15.7679 5.3978 15.7889 5.4088C15.8099 5.4198 15.8299 5.4308 15.8499 5.4418C15.8699 5.4528 15.8909 5.4648 15.9109 5.4758C15.9309 5.4868 15.9509 5.4988 15.9709 5.5108C15.9909 5.5228 16.0109 5.5338 16.0309 5.5458C16.0509 5.5578 16.0709 5.5698 16.0899 5.5818C16.1099 5.5938 16.1289 5.6058 16.1489 5.6178C16.1679 5.6298 16.1879 5.6428 16.2069 5.6548C16.2259 5.6668 16.2459 5.6798 16.2649 5.6928C16.2839 5.7058 16.3029 5.7178 16.3219 5.7308C16.3409 5.7438 16.3599 5.7568 16.3789 5.7698C16.3979 5.7828 16.4159 5.7958 16.4349 5.8098C16.4539 5.8228 16.4719 5.8368 16.4899 5.8498C16.5079 5.8628 16.5269 5.8768 16.5449 5.8908C16.5629 5.9048 16.5809 5.9178 16.5989 5.9318C16.6169 5.9458 16.6349 5.9598 16.6529 5.9738C16.6709 5.9878 16.6889 6.0018 16.7059 6.0168C16.7239 6.0308 16.7409 6.0458 16.7589 6.0598C16.7769 6.0748 16.7939 6.0888 16.8109 6.1038C16.8279 6.1188 16.8459 6.1338 16.8629 6.1488C16.8799 6.1638 16.8969 6.1788 16.9139 6.1938C16.9309 6.2088 16.9479 6.2248 16.9649 6.2398C16.9819 6.2548 16.9989 6.2708 17.0149 6.2868C17.0309 6.3028 17.0479 6.3178 17.0649 6.3338C17.0819 6.3498 17.0979 6.3658 17.1149 6.3818C17.1319 6.3978 17.1479 6.4138 17.1639 6.4308C17.1799 6.4468 17.1959 6.4638 17.2129 6.4798C17.2289 6.4968 17.2449 6.5128 17.2609 6.5298C17.2769 6.5468 17.2929 6.5638 17.3089 6.5808C17.3249 6.5978 17.3409 6.6148 17.3559 6.6318C17.3719 6.6488 17.3869 6.6658 17.4029 6.6838C17.4189 6.7008 17.4339 6.7188 17.4489 6.7368C17.4639 6.7548 17.4799 6.7718 17.4949 6.7898C17.5099 6.8078 17.5249 6.8258 17.5399 6.8438C17.5549 6.8618 17.5699 6.8798 17.5849 6.8988C17.5999 6.9178 17.6149 6.9358 17.6299 6.9538C17.6449 6.9728 17.6589 6.9908 17.6739 7.0098C17.6889 7.0298 17.7049 7.0498 17.7199 7.0698C17.7349 7.0898 17.7499 7.1098 17.7649 7.1298C17.7799 7.1498 17.7939 7.1698 17.8089 7.1898C17.8229 7.2098 17.8379 7.2298 17.8519 7.2488C17.8659 7.2678 17.8799 7.28881 17.8939 7.3078C17.9079 7.3278 17.9209 7.3478 17.9349 7.3668C17.9489 7.3858 17.9619 7.4058 17.9749 7.4258C17.9879 7.4458 18.0009 7.4648 18.0139 7.4848C18.0269 7.5048 18.0389 7.5238 18.0519 7.5438C18.0639 7.5638 18.0769 7.5828 18.0889 7.6018C18.1009 7.6208 18.1129 7.6408 18.1249 7.6598C18.1369 7.6788 18.1479 7.6988 18.1599 7.7178C18.1709 7.7368 18.1829 7.7558 18.1939 7.7758C18.2049 7.7948 18.2159 7.8138 18.2269 7.8328C18.2379 7.8518 18.2489 7.8708 18.2589 7.8898C18.2699 7.9088 18.2799 7.9278 18.2899 7.9458C18.2999 7.9638 18.3099 7.9828 18.3199 8.0018C18.3299 8.0208 18.3399 8.03881 18.3489 8.0578C18.3589 8.0758 18.3679 8.0948 18.3769 8.1128C18.3859 8.1308 18.3959 8.1488 18.4049 8.1678C18.4139 8.1868 18.4229 8.2038 18.4319 8.2218C18.4409 8.2398 18.4489 8.2578 18.4579 8.2748C18.4669 8.2928 18.4749 8.3098 18.4829 8.3278C18.4909 8.3448 18.4989 8.3628 18.5069 8.3798C18.5149 8.3968 18.5229 8.4138 18.5309 8.4308C18.5389 8.4478 18.5459 8.4648 18.5539 8.4818C18.5609 8.4988 18.5689 8.5158 18.5759 8.5318C18.5829 8.5488 18.5899 8.56481 18.5969 8.5808C18.6039 8.59681 18.6109 8.6128 18.6169 8.6298C18.6229 8.6468 18.6299 8.6618 18.6369 8.6778C18.6429 8.6938 18.6499 8.7088 18.6559 8.7248C18.6619 8.7398 18.6679 8.7558 18.6739 8.7708C18.6799 8.7858 18.6859 8.8008 18.6909 8.8158C18.6959 8.8308 18.7019 8.8458 18.7079 8.8598C18.7129 8.8748 18.7189 8.8888 18.7239 8.9028C18.7289 8.9168 18.7339 8.9308 18.7389 8.9448C18.7439 8.9588 18.7489 8.97281 18.7539 8.98581C18.7589 8.9998 18.7629 9.0128 18.7679 9.0258C18.7729 9.03881 18.7769 9.05181 18.7809 9.06481C18.7849 9.07781 18.7899 9.0908 18.7939 9.1028C18.7979 9.1158 18.8019 9.1278 18.8059 9.1398C18.8099 9.1518 18.8139 9.16381 18.8169 9.17581C18.8209 9.18781 18.8239 9.1988 18.8279 9.2108C18.8319 9.2218 18.8349 9.23381 18.8379 9.2438C18.8409 9.25481 18.8449 9.2658 18.8479 9.2758C18.8509 9.28681 18.8539 9.2968 18.8569 9.3068C18.8599 9.3168 18.8629 9.32681 18.8659 9.3368C18.8689 9.34681 18.8709 9.3558 18.8739 9.3648C18.8769 9.37381 18.8789 9.3828 18.8809 9.3918C18.8829 9.4008 18.8859 9.4088 18.8879 9.4178C18.8899 9.4258 18.8919 9.4338 18.8939 9.4418C18.8959 9.4498 18.8979 9.4568 18.8999 9.46481C18.9019 9.47181 18.9039 9.4788 18.9049 9.48581C18.9069 9.49281 18.9079 9.4998 18.9099 9.5058C18.9119 9.5118 18.9129 9.5178 18.9139 9.5238C18.9149 9.5298 18.9169 9.53481 18.9179 9.54081C18.9189 9.5458 18.9199 9.5508 18.9219 9.5558C18.9229 9.5608 18.9239 9.5648 18.9249 9.5698C18.9249 9.5738 18.9269 9.5778 18.9279 9.5818C18.9289 9.5858 18.9299 9.5888 18.9299 9.5918C18.9299 9.5948 18.9309 9.59781 18.9319 9.6008C18.9319 9.60381 18.9329 9.6058 18.9329 9.6078C18.9329 9.60981 18.9329 9.6118 18.9339 9.6128C18.9349 9.6138 18.9339 9.61581 18.9339 9.61581L18.9129 9.6198L18.8919 9.6238L18.8709 9.6278L18.8499 9.6318L18.8289 9.6358L18.8079 9.6398L18.7869 9.64381L18.7659 9.64781L18.7449 9.6518L18.7239 9.6558L18.7029 9.6598L18.6819 9.6638L18.6609 9.6678L18.6399 9.6718L18.6189 9.67581L18.5979 9.67981L18.5769 9.6838L18.5559 9.6878L18.5349 9.6918L18.5139 9.6958L18.4929 9.6998L18.4719 9.7038L18.4509 9.70781L18.4299 9.7118L18.4089 9.71581L18.3879 9.7198L18.3669 9.7238L18.3459 9.7278L18.3249 9.7318L18.3039 9.73581L18.2829 9.7398L18.2619 9.7438L18.2409 9.74781L18.2199 9.7518L18.1989 9.7558L18.1779 9.7598L18.1569 9.7638L18.1359 9.7678L18.1149 9.7718L18.0939 9.7758L18.0729 9.77981L18.0519 9.7838L18.0309 9.7878L18.0099 9.7918L17.9889 9.7958L17.9679 9.7998L17.9469 9.8038L17.9259 9.80781L17.9049 9.81181L17.8839 9.8158L17.8629 9.8198L17.8419 9.8238L17.8209 9.8278L17.7999 9.8318L17.7789 9.8358L17.7579 9.83981L17.7369 9.8438L17.7159 9.84781L17.6949 9.8518L17.6739 9.8558L17.6529 9.8598L17.6319 9.8638L17.6109 9.86781L17.5899 9.8718C17.5899 9.8718 17.5899 9.8718 17.5899 9.8708C17.5899 9.8708 17.5899 9.8688 17.5899 9.86781C17.5899 9.8668 17.5899 9.8648 17.5899 9.8638C17.5899 9.8628 17.5899 9.86081 17.5889 9.8578C17.5879 9.8548 17.5889 9.85381 17.5869 9.8508C17.5869 9.84781 17.5859 9.8458 17.5849 9.8428C17.5849 9.8398 17.5839 9.8368 17.5829 9.83281C17.5819 9.8288 17.5809 9.8258 17.5799 9.82181C17.5799 9.8178 17.5779 9.8138 17.5769 9.8098C17.5759 9.8058 17.5749 9.8008 17.5739 9.7958C17.5729 9.7908 17.5719 9.7858 17.5699 9.7808C17.5679 9.7758 17.5669 9.7708 17.5659 9.7648C17.5649 9.7588 17.5629 9.75381 17.5609 9.74781C17.5589 9.74181 17.5579 9.73581 17.5559 9.7298C17.5539 9.7238 17.5519 9.7168 17.5509 9.7098C17.5489 9.7028 17.5469 9.6958 17.5449 9.6888C17.5429 9.6818 17.5409 9.6748 17.5389 9.6668C17.5369 9.6598 17.5349 9.6518 17.5319 9.64381C17.5289 9.63581 17.5269 9.6278 17.5249 9.6198C17.5229 9.6118 17.5199 9.6038 17.5169 9.5948C17.5139 9.5868 17.5119 9.57781 17.5089 9.56881C17.5059 9.5598 17.5029 9.5508 17.4999 9.5418C17.4969 9.5328 17.4939 9.5238 17.4909 9.5138C17.4879 9.5038 17.4849 9.4948 17.4809 9.4848C17.4779 9.4748 17.4739 9.46481 17.4709 9.4548C17.4679 9.44481 17.4639 9.4348 17.4599 9.4238C17.4559 9.4138 17.4529 9.4028 17.4489 9.3918C17.4449 9.3808 17.4409 9.3708 17.4369 9.3598C17.4329 9.3488 17.4289 9.3378 17.4249 9.3268C17.4209 9.3158 17.4169 9.3038 17.4119 9.2928C17.4069 9.2818 17.4029 9.2698 17.3989 9.2578C17.3939 9.2458 17.3899 9.2338 17.3849 9.22181C17.3799 9.20981 17.3749 9.1978 17.3699 9.1858C17.3649 9.1738 17.3599 9.1608 17.3549 9.1488C17.3499 9.1368 17.3449 9.12381 17.3389 9.11081C17.3339 9.09781 17.3279 9.0858 17.3229 9.0728C17.3179 9.0598 17.3119 9.0468 17.3059 9.0338C17.2999 9.0208 17.2939 9.0078 17.2889 8.9938C17.2839 8.9798 17.2769 8.9668 17.2709 8.9538C17.2649 8.9408 17.2589 8.9268 17.2519 8.9128C17.2459 8.8988 17.2389 8.8858 17.2329 8.8718C17.2269 8.8578 17.2199 8.8438 17.2129 8.8298C17.2059 8.8158 17.1989 8.80181 17.1919 8.78781C17.1849 8.7738 17.1779 8.7598 17.1709 8.7448C17.1639 8.7308 17.1559 8.7158 17.1489 8.7018C17.1419 8.6878 17.1339 8.6728 17.1259 8.6578C17.1179 8.64281 17.1109 8.6288 17.1029 8.6138C17.0949 8.5988 17.0869 8.58481 17.0789 8.5698C17.0709 8.5548 17.0629 8.5398 17.0539 8.5248C17.0449 8.5098 17.0369 8.4948 17.0289 8.4798C17.0199 8.4648 17.0119 8.4498 17.0029 8.4348C16.9939 8.4198 16.9849 8.4048 16.9759 8.3888C16.9669 8.3728 16.9579 8.3578 16.9479 8.3428C16.9389 8.3278 16.9289 8.3118 16.9199 8.2968C16.9099 8.2818 16.9009 8.2658 16.8909 8.2508C16.8809 8.2358 16.8709 8.2198 16.8609 8.2048C16.8509 8.1888 16.8409 8.1738 16.8299 8.1578C16.8199 8.1418 16.8089 8.1268 16.7989 8.1108C16.7889 8.0948 16.7779 8.0798 16.7669 8.0638C16.7559 8.0478 16.7449 8.0328 16.7339 8.0168C16.7229 8.0008 16.7119 7.9858 16.6999 7.9698C16.6889 7.9538 16.6769 7.9388 16.6649 7.9228C16.6529 7.9068 16.6409 7.8918 16.6299 7.8758C16.6189 7.8598 16.6059 7.8448 16.5939 7.8288C16.5819 7.8138 16.5709 7.7988 16.5589 7.7848C16.5469 7.7698 16.5359 7.7558 16.5239 7.7408C16.5119 7.7268 16.4999 7.7118 16.4879 7.6978C16.4759 7.6838 16.4639 7.6698 16.4519 7.6548C16.4399 7.6408 16.4279 7.6268 16.4159 7.6128C16.4039 7.5988 16.3919 7.5848 16.3799 7.5718C16.3679 7.5588 16.3559 7.5448 16.3429 7.5308C16.3309 7.5168 16.3179 7.5038 16.3059 7.4908C16.2939 7.4778 16.2809 7.4638 16.2679 7.4508C16.2549 7.4378 16.2429 7.4248 16.2299 7.4118C16.2169 7.3988 16.2049 7.3858 16.1919 7.3728C16.1789 7.3598 16.1659 7.3468 16.1529 7.3348C16.1399 7.3218 16.1269 7.3098 16.1139 7.2968C16.1009 7.2848 16.0879 7.2718 16.0749 7.2598C16.0619 7.2478 16.0489 7.2358 16.0349 7.2228C16.0219 7.2108 16.0079 7.1988 15.9949 7.1868C15.9819 7.1748 15.9679 7.1628 15.9549 7.1518C15.9409 7.1398 15.9279 7.1288 15.9139 7.1168C15.8999 7.1048 15.8869 7.0938 15.8729 7.0828C15.8589 7.07181 15.8449 7.0598 15.8309 7.0488C15.8169 7.0378 15.8029 7.0268 15.7889 7.0158C15.7749 7.0048 15.7609 6.9938 15.7469 6.98281C15.7329 6.9718 15.7179 6.9608 15.7039 6.9508C15.6899 6.9398 15.6749 6.9298 15.6609 6.9188C15.6469 6.9078 15.6319 6.8978 15.6169 6.8878C15.6019 6.8778 15.5879 6.8668 15.5729 6.8568C15.5579 6.8468 15.5429 6.8368 15.5279 6.8268C15.5129 6.8168 15.4979 6.8068 15.4829 6.7968C15.4679 6.7868 15.4529 6.7768 15.4369 6.7678C15.4219 6.7578 15.4059 6.7488 15.3909 6.7388C15.3759 6.7288 15.3599 6.7198 15.3449 6.7108C15.3289 6.7018 15.3139 6.6918 15.2979 6.6828C15.2819 6.6738 15.2659 6.6648 15.2509 6.6558C15.2349 6.6468 15.2189 6.6378 15.2029 6.6288C15.1869 6.6198 15.1709 6.6108 15.1549 6.6018C15.1389 6.5928 15.1229 6.5848 15.1059 6.5758C15.0899 6.5668 15.0729 6.5588 15.0569 6.5498C15.0409 6.5408 15.0239 6.5328 15.0069 6.5248C14.9899 6.5168 14.9739 6.5078 14.9569 6.4998C14.9399 6.4918 14.9229 6.4838 14.9059 6.4758C14.8889 6.4678 14.8719 6.4598 14.8549 6.4518C14.8379 6.4438 14.8209 6.4358 14.8029 6.4288C14.7859 6.4208 14.7679 6.4138 14.7509 6.4058C14.7329 6.3978 14.7159 6.3908 14.6979 6.3838C14.6799 6.3768 14.6619 6.3688 14.6449 6.3618C14.6269 6.3548 14.6089 6.3478 14.5909 6.3398C14.5729 6.3328 14.5549 6.3258 14.5359 6.3188C14.5179 6.3118 14.4989 6.3048 14.4809 6.2978C14.4629 6.2908 14.4439 6.2838 14.4249 6.2778C14.4059 6.2708 14.3879 6.2648 14.3689 6.2578C14.3499 6.2508 14.3309 6.2448 14.3119 6.2388C14.2929 6.2328 14.2739 6.2258 14.2549 6.2198C14.2359 6.2138 14.2159 6.2078 14.1969 6.2008C14.1779 6.1938 14.1579 6.1888 14.1389 6.1828C14.1199 6.1768 14.0999 6.1708 14.0799 6.1648C14.0599 6.1588 14.0399 6.1528 14.0199 6.1478C13.9999 6.1418 13.9799 6.1368 13.9599 6.1308C13.9399 6.1248 13.9199 6.1198 13.8989 6.1138C13.8789 6.1088 13.8579 6.1028 13.8379 6.0978C13.8169 6.0928 13.7969 6.0868 13.7759 6.0818C13.7549 6.0768 13.7339 6.0718 13.7129 6.0668C13.6919 6.0618 13.6709 6.0568 13.6499 6.0518C13.6289 6.0468 13.6069 6.0418 13.5859 6.0368C13.5649 6.0318 13.5429 6.0268 13.5209 6.0228C13.5019 6.0188 13.4829 6.0148 13.4639 6.0108C13.4449 6.0068 13.4259 6.0028 13.4059 5.9998C13.3869 5.9958 13.3669 5.9928 13.3469 5.9888C13.3269 5.9848 13.3069 5.9818 13.2869 5.9788C13.2669 5.9758 13.2469 5.9718 13.2269 5.9688C13.2069 5.9658 13.1859 5.9628 13.1659 5.9598C13.1449 5.9568 13.1249 5.9538 13.1039 5.9508C13.0829 5.9478 13.0619 5.9448 13.0409 5.9428C13.0199 5.9398 12.9989 5.9378 12.9769 5.9348C12.9559 5.9328 12.9339 5.9298 12.9129 5.9278C12.8909 5.9258 12.8699 5.9238 12.8479 5.9218C12.8259 5.9198 12.8039 5.9178 12.7819 5.9158C12.7599 5.9138 12.7379 5.9118 12.7159 5.9108C12.6939 5.9088 12.6709 5.9078 12.6489 5.9058C12.6269 5.9038 12.6039 5.9028 12.5809 5.9018C12.5579 5.9008 12.5359 5.8998 12.5129 5.8988C12.4899 5.8978 12.4669 5.8968 12.4439 5.8958C12.4209 5.8958 12.3979 5.8948 12.3749 5.8938C12.3519 5.8938 12.3279 5.8928 12.3049 5.8928C12.2819 5.8928 12.2579 5.8928 12.2349 5.8928C12.2109 5.8928 12.1879 5.8928 12.1639 5.8928C12.1399 5.8928 12.1169 5.8928 12.0929 5.8928C12.0689 5.8928 12.0449 5.8928 12.0209 5.8938C11.9969 5.8938 11.9729 5.8948 11.9489 5.8958C11.9249 5.8958 11.9009 5.8978 11.8769 5.8988C11.8529 5.8998 11.8289 5.9008 11.8039 5.9018C11.7799 5.9028 11.7549 5.9048 11.7309 5.9058C11.7069 5.9068 11.6819 5.9088 11.6579 5.9108C11.6329 5.9128 11.6089 5.9148 11.5839 5.9168C11.5589 5.9188 11.5349 5.9208 11.5099 5.9228C11.4849 5.9248 11.4609 5.9278 11.4359 5.9298C11.4109 5.9318 11.3859 5.9348 11.3619 5.9378C11.3379 5.9408 11.3119 5.9438 11.2869 5.9468C11.2619 5.9498 11.2369 5.9528 11.2119 5.9558C11.1869 5.9588 11.1619 5.9628 11.1369 5.9658C11.1119 5.9688 11.0869 5.9728 11.0619 5.9768C11.0369 5.9808 11.0119 5.9848 10.9869 5.9888C10.9619 5.9928 10.9369 5.9968 10.9119 6.0008C10.8869 6.0048 10.8619 6.0098 10.8369 6.0138C10.8119 6.0188 10.7869 6.0228 10.7619 6.0278C10.7369 6.0328 10.7119 6.0378 10.6869 6.0428C10.6619 6.0478 10.6369 6.0528 10.6119 6.0588C10.5869 6.0638 10.5619 6.0698 10.5369 6.0758C10.5119 6.0818 10.4869 6.0868 10.4619 6.0928C10.4369 6.0988 10.4119 6.1048 10.3869 6.1108C10.3619 6.1168 10.3369 6.1238 10.3119 6.1298C10.2869 6.1368 10.2619 6.1428 10.2379 6.1498C10.2129 6.1568 10.1889 6.1638 10.1639 6.1708C10.1389 6.1778 10.1149 6.1848 10.0899 6.1928C10.0649 6.1998 10.0409 6.2078 10.0159 6.2158C9.99089 6.2238 9.96689 6.2318 9.94289 6.2398C9.91889 6.2478 9.89389 6.2558 9.86989 6.2638C9.84589 6.2718 9.82089 6.2808 9.79689 6.2888C9.77289 6.2968 9.74889 6.3058 9.72489 6.3148C9.70089 6.3238 9.67689 6.3328 9.65289 6.3418C9.62889 6.3508 9.60489 6.3608 9.58089 6.3698C9.55689 6.3798 9.53289 6.3888 9.50989 6.3988C9.48589 6.4088 9.46289 6.4188 9.43889 6.4288C9.41489 6.4388 9.39189 6.4498 9.36889 6.4598C9.34589 6.4708 9.32189 6.4808 9.29889 6.4918C9.27589 6.5028 9.25289 6.5138 9.22989 6.5248C9.20689 6.5358 9.18389 6.5478 9.16089 6.5588C9.13789 6.5698 9.11489 6.5818 9.09289 6.5938C9.06989 6.6058 9.04789 6.6178 9.02489 6.6298C9.00189 6.6418 8.97989 6.6548 8.95689 6.6678C8.93489 6.6808 8.91289 6.6938 8.89089 6.7068C8.86889 6.7198 8.84689 6.7338 8.82589 6.7478C8.80489 6.7618 8.78289 6.7758 8.76189 6.7898C8.74089 6.8038 8.71989 6.8188 8.69889 6.8338C8.67789 6.8488 8.65689 6.8638 8.63689 6.8788C8.61589 6.8938 8.59589 6.9098 8.57589 6.9248C8.55589 6.9398 8.53589 6.9568 8.51589 6.9728C8.49589 6.9888 8.47589 7.0048 8.45689 7.0218C8.43689 7.0388 8.41789 7.0548 8.39889 7.0718C8.37989 7.0888 8.36089 7.1058 8.34189 7.1228C8.32289 7.1398 8.30389 7.1578 8.28589 7.1758C8.26689 7.1938 8.24889 7.2118 8.23089 7.2298C8.21289 7.2478 8.19489 7.2658 8.17689 7.2848C8.15889 7.3038 8.14089 7.3218 8.12389 7.3408C8.10589 7.3598 8.08889 7.3788 8.07189 7.3978C8.05489 7.4168 8.03789 7.4358 8.02089 7.4548C8.00389 7.4738 7.98689 7.4938 7.97089 7.5128C7.95389 7.5328 7.93789 7.5518 7.92189 7.5718C7.90589 7.5918 7.88989 7.6118 7.87389 7.6318C7.85789 7.6518 7.84189 7.6718 7.82689 7.6928C7.81089 7.7128 7.79589 7.7338 7.78089 7.7538C7.76589 7.7738 7.75089 7.7948 7.73589 7.8158C7.72089 7.8368 7.70589 7.8568 7.69189 7.8778C7.67689 7.8988 7.66289 7.9198 7.64889 7.9408C7.63489 7.9618 7.62089 7.9828 7.60689 8.0038C7.59289 8.0248 7.57889 8.0458 7.56589 8.0678C7.55189 8.0888 7.53889 8.1108 7.52589 8.1318C7.51289 8.1528 7.49989 8.1748 7.48689 8.1968C7.47389 8.2188 7.46089 8.2398 7.44789 8.2618C7.43489 8.2838 7.42289 8.3048 7.40989 8.3268C7.39689 8.3488 7.38489 8.3698 7.37289 8.3918C7.36089 8.4138 7.34889 8.4358 7.33689 8.4568C7.32489 8.4788 7.31389 8.5008 7.30189 8.5218C7.29089 8.5438 7.27889 8.5658 7.26789 8.5878C7.25689 8.6098 7.24589 8.6318 7.23489 8.6538C7.22389 8.6758 7.21289 8.6978 7.20289 8.7198C7.19189 8.7418 7.18189 8.7638 7.17189 8.7848C7.16189 8.8068 7.15189 8.8288 7.14189 8.8498C7.13189 8.8718 7.12189 8.89281 7.11289 8.9148C7.10389 8.9368 7.09389 8.95781 7.08389 8.9798C7.07389 9.0018 7.06489 9.0228 7.05589 9.0448C7.04689 9.0668 7.03789 9.0878 7.02889 9.1088C7.01989 9.1298 7.01189 9.1518 7.00289 9.17281C6.99389 9.19381 6.98589 9.21581 6.97789 9.2368C6.96989 9.2578 6.96189 9.2788 6.95389 9.2998C6.94589 9.3208 6.93789 9.3418 6.93089 9.3628C6.92289 9.3838 6.91589 9.4048 6.90789 9.4248C6.90089 9.4458 6.89289 9.46581 6.88589 9.4868C6.87889 9.5068 6.87189 9.52781 6.86489 9.54781C6.85789 9.56781 6.85189 9.5878 6.84489 9.6078C6.83789 9.6278 6.83189 9.6478 6.82589 9.6678C6.81989 9.6878 6.81389 9.7068 6.80789 9.7268C6.80189 9.7458 6.79589 9.7658 6.78989 9.7848C6.78389 9.8038 6.77889 9.8228 6.77289 9.8418C6.76789 9.8608 6.76189 9.87981 6.75689 9.89781C6.75189 9.91681 6.74689 9.9348 6.74189 9.9528C6.73689 9.9708 6.73189 9.9888 6.72789 10.0068C6.72389 10.0248 6.71889 10.0428 6.71389 10.0598C6.70989 10.0778 6.70489 10.0948 6.70089 10.1118C6.69689 10.1288 6.69289 10.1458 6.68889 10.1628C6.68489 10.1798 6.68089 10.1958 6.67789 10.2128C6.67489 10.2298 6.67089 10.2458 6.66789 10.2618C6.66489 10.2778 6.66089 10.2938 6.65789 10.3088C6.65389 10.3268 6.65089 10.3448 6.64689 10.3638C6.64289 10.3818 6.63989 10.4008 6.63689 10.4198C6.63389 10.4388 6.62989 10.4578 6.62689 10.4768C6.62389 10.4958 6.61989 10.5158 6.61689 10.5348C6.61389 10.5548 6.60989 10.5738 6.60689 10.5938C6.60389 10.6138 6.60089 10.6338 6.59689 10.6538C6.59389 10.6738 6.59089 10.6948 6.58789 10.7148C6.58489 10.7358 6.58189 10.7558 6.57889 10.7768C6.57589 10.7978 6.57289 10.8188 6.56989 10.8398C6.56689 10.8608 6.56389 10.8828 6.56089 10.9038C6.55789 10.9258 6.55489 10.9468 6.55289 10.9688C6.55089 10.9908 6.54789 11.0128 6.54489 11.0348C6.54189 11.0568 6.53989 11.0788 6.53689 11.1018C6.53389 11.1248 6.53189 11.1468 6.52889 11.1698C6.52689 11.1928 6.52389 11.2148 6.52189 11.2378C6.51989 11.2608 6.51689 11.2838 6.51489 11.3068C6.51289 11.3298 6.51089 11.3528 6.50789 11.3768C6.50589 11.3998 6.50389 11.4238 6.50189 11.4478C6.49989 11.4718 6.49789 11.4948 6.49589 11.5188C6.49389 11.5428 6.49189 11.5668 6.48989 11.5908C6.48789 11.6148 6.48589 11.6388 6.48489 11.6638C6.48289 11.6878 6.48189 11.7128 6.47989 11.7368C6.47789 11.7608 6.47689 11.7858 6.47489 11.8108C6.47289 11.8358 6.47189 11.8608 6.47089 11.8858C6.46989 11.9108 6.46789 11.9358 6.46689 11.9608C6.46589 11.9858 6.46489 12.0108 6.46389 12.0368C6.46289 12.0618 6.46189 12.0878 6.46089 12.1128C6.46089 12.1378 6.45889 12.1638 6.45889 12.1898C6.45889 12.2158 6.45789 12.2408 6.45689 12.2668C6.45689 12.2928 6.45589 12.3188 6.45489 12.3448C6.45489 12.3708 6.45489 12.3968 6.45389 12.4228C6.45289 12.4488 6.45389 12.4748 6.45389 12.5008C6.45389 12.5268 6.45389 12.5528 6.45389 12.5798C6.45389 12.6058 6.45389 12.6328 6.45389 12.6588C6.45389 12.6848 6.45389 12.7118 6.45389 12.7378C6.45389 12.7648 6.45389 12.7908 6.45489 12.8178C6.45489 12.8448 6.45589 12.8708 6.45689 12.8978C6.45689 12.9248 6.45789 12.9508 6.45889 12.9778C6.45889 13.0048 6.46089 13.0318 6.46189 13.0578C6.46289 13.0848 6.46389 13.1118 6.46489 13.1388C6.46589 13.1658 6.46789 13.1928 6.46889 13.2198C6.46989 13.2468 6.47189 13.2738 6.47389 13.3008C6.47589 13.3278 6.47689 13.3548 6.47889 13.3818C6.48089 13.4088 6.48289 13.4358 6.48489 13.4628C6.48689 13.4898 6.48889 13.5168 6.49089 13.5438C6.49289 13.5708 6.49589 13.5978 6.49789 13.6248C6.49989 13.6518 6.50289 13.6788 6.50589 13.7058C6.50889 13.7328 6.51089 13.7598 6.51389 13.7868C6.51689 13.8138 6.51989 13.8408 6.52289 13.8678C6.52589 13.8948 6.52889 13.9218 6.53189 13.9488C6.53489 13.9758 6.53889 14.0028 6.54189 14.0298C6.54489 14.0568 6.54889 14.0838 6.55289 14.1108C6.55689 14.1378 6.56089 14.1648 6.56389 14.1918C6.56689 14.2188 6.57189 14.2458 6.57589 14.2728C6.57989 14.2998 6.58389 14.3268 6.58889 14.3538C6.59289 14.3808 6.59789 14.4078 6.60289 14.4348C6.60789 14.4618 6.61189 14.4888 6.61689 14.5148C6.62189 14.5408 6.62689 14.5678 6.63189 14.5948C6.63689 14.6218 6.64189 14.6478 6.64789 14.6748C6.65289 14.7018 6.65889 14.7278 6.66489 14.7548C6.67089 14.7808 6.67589 14.8078 6.68189 14.8338C6.68789 14.8598 6.69389 14.8868 6.69989 14.9128C6.70589 14.9388 6.71189 14.9648 6.71889 14.9918C6.72589 15.0188 6.73189 15.0438 6.73889 15.0698C6.74589 15.0958 6.75189 15.1218 6.75889 15.1478C6.76589 15.1738 6.77289 15.1988 6.77989 15.2248C6.78689 15.2508 6.79389 15.2758 6.80189 15.3008C6.80889 15.3258 6.81689 15.3508 6.82489 15.3768C6.83289 15.4018 6.83989 15.4268 6.84789 15.4518C6.85589 15.4768 6.86389 15.5018 6.87189 15.5258C6.87989 15.5498 6.88789 15.5748 6.89689 15.5988C6.90489 15.6228 6.91389 15.6478 6.92289 15.6718C6.93189 15.6958 6.93989 15.7198 6.94889 15.7438C6.95789 15.7678 6.96689 15.7918 6.97589 15.8148C6.98489 15.8388 6.99389 15.8618 7.00389 15.8848C7.01389 15.9078 7.02289 15.9318 7.03289 15.9548C7.04289 15.9778 7.05189 16.0008 7.06189 16.0238C7.07189 16.0468 7.08189 16.0698 7.09189 16.0918C7.10189 16.1138 7.11189 16.1368 7.12289 16.1588C7.13289 16.1808 7.14389 16.2038 7.15489 16.2258C7.16589 16.2478 7.17589 16.2698 7.18689 16.2918C7.19789 16.3138 7.20889 16.3358 7.21989 16.3568C7.23089 16.3788 7.24189 16.3998 7.25389 16.4208C7.26489 16.4418 7.27689 16.4638 7.28889 16.4848C7.30089 16.5058 7.31189 16.5268 7.32389 16.5478C7.33589 16.5688 7.34789 16.5898 7.35989 16.6098C7.37189 16.6308 7.38389 16.6508 7.39689 16.6708C7.40889 16.6908 7.42189 16.7118 7.43489 16.7318C7.44789 16.7518 7.45989 16.7718 7.47289 16.7918C7.48589 16.8118 7.49889 16.8318 7.51189 16.8508C7.52489 16.8708 7.53789 16.8898 7.55189 16.9088C7.56489 16.9278 7.57889 16.9478 7.59289 16.9668C7.60689 16.9858 7.61989 17.0048 7.63389 17.0238C7.64789 17.0428 7.66189 17.0618 7.67589 17.0798C7.68989 17.0988 7.70389 17.1168 7.71889 17.1348C7.73389 17.1528 7.74789 17.1718 7.76289 17.1898C7.77789 17.2078 7.79189 17.2258 7.80689 17.2438C7.82189 17.2618 7.83689 17.2798 7.85189 17.2968C7.86689 17.3148 7.88189 17.3318 7.89789 17.3488C7.91289 17.3658 7.92889 17.3838 7.94389 17.4008C7.95889 17.4178 7.97489 17.4348 7.99089 17.4518C8.00689 17.4688 8.02289 17.4858 8.03889 17.5018C8.05489 17.5188 8.07089 17.5348 8.08789 17.5508C8.10389 17.5668 8.12089 17.5838 8.13689 17.5998C8.15389 17.6158 8.16989 17.6318 8.18689 17.6478C8.20389 17.6638 8.22089 17.6798 8.23789 17.6948C8.25489 17.7108 8.27189 17.7258 8.28989 17.7408C8.30689 17.7558 8.32489 17.7718 8.34189 17.7868C8.35889 17.8018 8.37689 17.8168 8.39489 17.8318C8.41289 17.8468 8.43089 17.8618 8.44889 17.8758C8.46689 17.8908 8.48489 17.9048 8.50289 17.9188C8.52089 17.9328 8.53989 17.9468 8.55789 17.9618C8.57589 17.9768 8.59489 17.9898 8.61389 18.0038C8.63289 18.0178 8.65189 18.0308 8.67089 18.0448C8.68989 18.0588 8.70889 18.0718 8.72789 18.0848C8.74689 18.0978 8.76689 18.1108 8.78589 18.1238C8.80489 18.1368 8.82489 18.1498 8.84489 18.1628C8.86489 18.1758 8.88489 18.1878 8.90489 18.2008C8.92489 18.2138 8.94489 18.2258 8.96489 18.2378C8.98489 18.2498 9.00589 18.2618 9.02589 18.2738C9.04589 18.2858 9.06689 18.2978 9.08789 18.3098C9.10889 18.3218 9.12989 18.3328 9.14989 18.3448C9.16989 18.3568 9.19189 18.3678 9.21289 18.3788C9.23389 18.3898 9.25489 18.4008 9.27689 18.4118C9.29789 18.4228 9.31989 18.4338 9.34189 18.4438C9.36389 18.4538 9.38489 18.4648 9.40689 18.4758C9.42889 18.4858 9.45089 18.4968 9.47289 18.5068C9.49489 18.5168 9.51689 18.5268 9.53989 18.5368C9.56489 18.5478 9.59089 18.5588 9.61589 18.5698C9.64089 18.5808 9.66689 18.5908 9.69289 18.6018C9.71889 18.6118 9.74389 18.6228 9.76989 18.6318C9.79589 18.6418 9.82189 18.6518 9.84789 18.6608C9.87389 18.6708 9.89989 18.6798 9.92589 18.6888C9.95189 18.6978 9.97789 18.7068 10.0039 18.7158C10.0299 18.7248 10.0559 18.7328 10.0829 18.7408C10.1089 18.7488 10.1359 18.7568 10.1619 18.7648C10.1879 18.7728 10.2149 18.7808 10.2409 18.7878C10.2669 18.7948 10.2939 18.8028 10.3209 18.8098C10.3479 18.8168 10.3739 18.8238 10.4009 18.8308C10.4279 18.8378 10.4539 18.8438 10.4809 18.8508C10.5079 18.8568 10.5339 18.8628 10.5609 18.8688C10.5879 18.8748 10.6149 18.8808 10.6409 18.8858C10.6679 18.8918 10.6949 18.8968 10.7209 18.9018C10.7479 18.9068 10.7749 18.9118 10.8019 18.9168C10.8289 18.9218 10.8559 18.9268 10.8829 18.9308C10.9099 18.9358 10.9369 18.9398 10.9639 18.9438C10.9909 18.9478 11.0179 18.9518 11.0449 18.9558C11.0719 18.9598 11.0989 18.9628 11.1259 18.9668C11.1529 18.9708 11.1799 18.9738 11.2069 18.9768C11.2339 18.9798 11.2609 18.9828 11.2879 18.9858C11.3149 18.9888 11.3419 18.9918 11.3689 18.9938C11.3959 18.9968 11.4229 18.9988 11.4499 19.0008C11.4769 19.0028 11.5039 19.0048 11.5299 19.0068C11.5569 19.0088 11.5839 19.0108 11.6099 19.0118C11.6369 19.0138 11.6629 19.0148 11.6899 19.0158C11.7169 19.0168 11.7429 19.0178 11.7699 19.0188C11.7969 19.0198 11.8229 19.0208 11.8499 19.0218C11.8769 19.0218 11.9029 19.0228 11.9289 19.0238C11.9549 19.0238 11.9819 19.0238 12.0079 19.0238C12.0339 19.0238 12.0609 19.0238 12.0869 19.0238C12.1129 19.0238 12.1389 19.0238 12.1659 19.0238C12.1929 19.0238 12.2179 19.0238 12.2439 19.0218C12.2699 19.0198 12.2959 19.0208 12.3219 19.0198C12.3479 19.0198 12.3739 19.0178 12.3989 19.0168C12.4249 19.0158 12.4499 19.0148 12.4759 19.0128C12.5019 19.0108 12.5269 19.0098 12.5529 19.0088C12.5779 19.0068 12.6039 19.0058 12.6289 19.0038C12.6539 19.0018 12.6789 18.9998 12.7049 18.9978C12.7299 18.9958 12.7549 18.9938 12.7799 18.9908C12.8049 18.9878 12.8299 18.9858 12.8539 18.9838C12.8779 18.9818 12.9029 18.9788 12.9279 18.9758C12.9529 18.9728 12.9769 18.9698 13.0009 18.9678C13.0249 18.9648 13.0499 18.9618 13.0739 18.9588C13.0979 18.9558 13.1219 18.9528 13.1459 18.9488C13.1699 18.9458 13.1939 18.9418 13.2169 18.9388C13.2409 18.9348 13.2639 18.9318 13.2879 18.9278C13.3109 18.9238 13.3349 18.9208 13.3579 18.9168C13.3809 18.9128 13.4039 18.9088 13.4269 18.9048C13.4499 18.9008 13.4729 18.8968 13.4949 18.8928C13.5179 18.8888 13.5399 18.8838 13.5629 18.8798C13.5849 18.8758 13.6079 18.8708 13.6299 18.8668C13.6519 18.8628 13.6739 18.8578 13.6959 18.8528C13.7179 18.8478 13.7389 18.8438 13.7609 18.8388C13.7829 18.8338 13.8039 18.8288 13.8249 18.8238C13.8459 18.8188 13.8669 18.8138 13.8879 18.8088C13.9089 18.8038 13.9299 18.7988 13.9499 18.7938C13.9709 18.7888 13.9909 18.7828 14.0109 18.7778C14.0309 18.7728 14.0509 18.7668 14.0709 18.7618C14.0909 18.7568 14.1109 18.7508 14.1299 18.7448C14.1499 18.7388 14.1689 18.7338 14.1879 18.7278C14.2069 18.7218 14.2259 18.7168 14.2449 18.7108C14.2639 18.7048 14.2819 18.6988 14.3009 18.6928C14.3189 18.6868 14.3379 18.6808 14.3559 18.6748C14.3739 18.6688 14.3929 18.6618 14.4109 18.6558C14.4289 18.6488 14.4469 18.6428 14.4659 18.6358C14.4849 18.6288 14.5019 18.6218 14.5199 18.6148C14.5379 18.6078 14.5559 18.6008 14.5739 18.5928C14.5919 18.5858 14.6099 18.5778 14.6279 18.5698C14.6459 18.5618 14.6639 18.5538 14.6819 18.5458C14.6999 18.5378 14.7179 18.5298 14.7349 18.5208C14.7529 18.5128 14.7709 18.5038 14.7879 18.4948C14.8059 18.4858 14.8229 18.4778 14.8409 18.4688C14.8589 18.4598 14.8759 18.4508 14.8939 18.4418C14.9109 18.4328 14.9289 18.4228 14.9459 18.4138C14.9629 18.4048 14.9809 18.3948 14.9979 18.3848C15.0149 18.3748 15.0319 18.3648 15.0499 18.3548C15.0669 18.3448 15.0839 18.3348 15.1009 18.3248C15.1179 18.3148 15.1349 18.3038 15.1519 18.2938C15.1689 18.2828 15.1859 18.2728 15.2019 18.2618C15.2189 18.2508 15.2349 18.2398 15.2519 18.2288C15.2689 18.2178 15.2849 18.2068 15.3009 18.1958C15.3169 18.1848 15.3339 18.1728 15.3499 18.1618C15.3659 18.1508 15.3819 18.1388 15.3979 18.1268C15.4139 18.1148 15.4299 18.1038 15.4459 18.0918C15.4619 18.0798 15.4779 18.0678 15.4929 18.0558C15.5089 18.0438 15.5239 18.0318 15.5399 18.0188C15.5559 18.0068 15.5709 17.9938 15.5859 17.9818C15.6009 17.9688 15.6169 17.9568 15.6319 17.9438C15.6469 17.9308 15.6619 17.9178 15.6769 17.9058C15.6919 17.8938 15.7069 17.8798 15.7219 17.8668C15.7369 17.8538 15.7509 17.8408 15.7659 17.8268C15.7809 17.8128 15.7949 17.7998 15.8089 17.7868C15.8229 17.7738 15.8379 17.7598 15.8519 17.7458C15.8659 17.7318 15.8799 17.7188 15.8939 17.7048C15.9079 17.6908 15.9219 17.6768 15.9349 17.6628C15.9489 17.6488 15.9619 17.6348 15.9759 17.6208C15.9889 17.6068 16.0029 17.5928 16.0159 17.5788C16.0289 17.5648 16.0419 17.5498 16.0549 17.5358C16.0679 17.5218 16.0809 17.5068 16.0939 17.4928C16.1069 17.4788 16.1189 17.4638 16.1319 17.4488C16.1439 17.4338 16.1569 17.4198 16.1689 17.4048C16.1809 17.3898 16.1929 17.3748 16.2049 17.3608C16.2169 17.3458 16.2289 17.3308 16.2399 17.3158C16.2519 17.3008 16.2629 17.2858 16.2749 17.2708C16.2859 17.2558 16.2979 17.2408 16.3089 17.2258C16.3199 17.2108 16.3309 17.1958 16.3419 17.1798C16.3529 17.1638 16.3629 17.1488 16.3739 17.1338C16.3839 17.1188 16.3949 17.1028 16.4049 17.0878C16.4149 17.0728 16.4249 17.0568 16.4349 17.0408C16.4449 17.0248 16.4549 17.0098 16.4639 16.9938C16.4739 16.9778 16.4829 16.9628 16.4919 16.9468C16.5009 16.9308 16.5099 16.9158 16.5189 16.8998C16.5279 16.8838 16.5369 16.8678 16.5449 16.8528C16.5529 16.8378 16.5619 16.8208 16.5699 16.8048C16.5779 16.7888 16.5859 16.7728 16.5939 16.7568C16.6019 16.7408 16.6099 16.7248 16.6169 16.7088C16.6249 16.6928 16.6319 16.6768 16.6389 16.6608C16.6459 16.6448 16.6529 16.6288 16.6599 16.6128C16.6669 16.5968 16.6739 16.5808 16.6799 16.5648C16.6859 16.5488 16.6929 16.5328 16.6989 16.5168C16.7049 16.5008 16.7109 16.4848 16.7169 16.4688C16.7229 16.4528 16.7279 16.4368 16.7339 16.4208C16.7389 16.4048 16.7449 16.3888 16.7499 16.3728C16.7549 16.3568 16.7599 16.3408 16.7639 16.3248C16.7689 16.3088 16.7729 16.2928 16.7769 16.2768C16.7809 16.2608 16.7849 16.2448 16.7889 16.2288C16.7939 16.2078 16.7989 16.1878 16.8029 16.1668C16.8079 16.1458 16.8119 16.1258 16.8159 16.1048C16.8199 16.0838 16.8239 16.0638 16.8279 16.0438C16.8319 16.0238 16.8349 16.0038 16.8389 15.9828C16.8419 15.9628 16.8459 15.9428 16.8489 15.9228C16.8519 15.9028 16.8549 15.8828 16.8569 15.8628C16.8589 15.8428 16.8619 15.8228 16.8639 15.8038C16.8659 15.7848 16.8679 15.7648 16.8699 15.7448C16.8719 15.7248 16.8729 15.7058 16.8749 15.6868C16.8769 15.6678 16.8779 15.6478 16.8789 15.6288C16.8799 15.6098 16.8809 15.5908 16.8819 15.5718C16.8819 15.5528 16.8829 15.5338 16.8839 15.5148C16.8839 15.4958 16.8839 15.4768 16.8839 15.4588C16.8839 15.4398 16.8839 15.4218 16.8839 15.4028C16.8839 15.3838 16.8829 15.3658 16.8819 15.3478C16.8819 15.3298 16.8799 15.3108 16.8789 15.2928C16.8779 15.2748 16.8769 15.2568 16.8749 15.2388C16.8729 15.2208 16.8719 15.2028 16.8699 15.1848C16.8679 15.1668 16.8659 15.1488 16.8639 15.1318C16.8619 15.1138 16.8589 15.0968 16.8569 15.0788C16.8539 15.0608 16.8519 15.0438 16.8489 15.0268C16.8459 15.0098 16.8429 14.9918 16.8399 14.9748C16.8369 14.9578 16.8329 14.9408 16.8299 14.9238C16.8259 14.9068 16.8229 14.8898 16.8189 14.8728C16.8149 14.8558 16.8109 14.8388 16.8069 14.8228C16.8029 14.8058 16.7979 14.7898 16.7939 14.7728C16.7889 14.7558 16.7839 14.7398 16.7789 14.7238C16.7739 14.7078 16.7689 14.6908 16.7629 14.6748C16.7579 14.6588 16.7519 14.6428 16.7459 14.6268C16.7399 14.6108 16.7339 14.5948 16.7279 14.5788C16.7219 14.5628 16.7159 14.5468 16.7089 14.5318C16.7029 14.5158 16.6959 14.5008 16.6889 14.4848C16.6819 14.4688 16.6749 14.4538 16.6679 14.4388C16.6609 14.4238 16.6539 14.4078 16.6459 14.3928C16.6389 14.3778 16.6309 14.3628 16.6229 14.3478C16.6149 14.3328 16.6069 14.3178 16.5989 14.3028C16.5909 14.2878 16.5829 14.2738 16.5749 14.2588C16.5669 14.2438 16.5579 14.2298 16.5499 14.2148C16.5409 14.2008 16.5329 14.1858 16.5239 14.1718C16.5149 14.1578 16.5059 14.1438 16.4969 14.1298C16.4879 14.1158 16.4779 14.1018 16.4689 14.0878C16.4589 14.0738 16.4499 14.0598 16.4399 14.0468C16.4299 14.0328 16.4199 14.0198 16.4099 14.0058C16.3999 13.9918 16.3889 13.9788 16.3789 13.9658C16.3679 13.9528 16.3579 13.9388 16.3469 13.9258C16.3359 13.9128 16.3249 13.8998 16.3139 13.8868C16.3029 13.8738 16.2919 13.8608 16.2799 13.8478C16.2689 13.8348 16.2569 13.8228 16.2449 13.8098C16.2329 13.7968 16.2209 13.7848 16.2089 13.7728C16.1969 13.7608 16.1849 13.7478 16.1719 13.7358C16.1589 13.7238 16.1469 13.7118 16.1349 13.6998C16.1219 13.6878 16.1099 13.6758 16.0969 13.6638C16.0839 13.6518 16.0709 13.6408 16.0579 13.6288C16.0449 13.6168 16.0309 13.6058 16.0179 13.5948C16.0039 13.5838 15.9909 13.5718 15.9769 13.5608C15.9629 13.5498 15.9489 13.5388 15.9349 13.5278C15.9209 13.5168 15.9069 13.5058 15.8919 13.4948C15.8779 13.4838 15.8629 13.4728 15.8489 13.4628C15.8339 13.4518 15.8199 13.4418 15.8049 13.4318C15.7899 13.4218 15.7749 13.4108 15.7599 13.4008C15.7449 13.3908 15.7299 13.3808 15.7139 13.3708C15.6989 13.3608 15.6829 13.3508 15.6669 13.3408C15.6509 13.3308 15.6349 13.3218 15.6189 13.3118C15.6029 13.3018 15.5869 13.2928 15.5709 13.2838C15.5679 13.3068 15.5639 13.3298 15.5609 13.3518C15.5569 13.3748 15.5539 13.3968 15.5499 13.4198C15.5459 13.4418 15.5419 13.4648 15.5379 13.4868C15.5339 13.5088 15.5299 13.5308 15.5259 13.5538C15.5219 13.5758 15.5169 13.5978 15.5129 13.6198C15.5089 13.6418 15.5039 13.6638 15.4989 13.6848C15.4939 13.7068 15.4889 13.7278 15.4839 13.7498C15.4789 13.7718 15.4739 13.7928 15.4689 13.8138C15.4639 13.8348 15.4589 13.8568 15.4529 13.8778C15.4479 13.8988 15.4419 13.9198 15.4359 13.9408C15.4299 13.9618 15.4249 13.9828 15.4189 14.0028C15.4129 14.0238 15.4069 14.0438 15.4009 14.0648C15.3949 14.0858 15.3889 14.1058 15.3819 14.1258C15.3759 14.1458 15.3689 14.1668 15.3629 14.1868C15.3559 14.2068 15.3499 14.2268 15.3429 14.2468C15.3359 14.2668 15.3289 14.2868 15.3219 14.3058C15.3149 14.3258 15.3079 14.3448 15.3009 14.3648C15.2939 14.3838 15.2869 14.4038 15.2789 14.4228C15.2719 14.4418 15.2639 14.4608 15.2569 14.4808C15.2489 14.4998 15.2419 14.5188 15.2339 14.5378C15.2259 14.5568 15.2179 14.5758 15.2099 14.5938C15.2019 14.6128 15.1939 14.6308 15.1859 14.6498C15.1779 14.6678 15.1689 14.6868 15.1609 14.7048C15.1529 14.7228 15.1439 14.7408 15.1349 14.7588C15.1259 14.7768 15.1179 14.7948 15.1089 14.8128C15.0999 14.8308 15.0909 14.8478 15.0819 14.8658C15.0729 14.8838 15.0639 14.9008 15.0539 14.9178C15.0449 14.9348 15.0349 14.9518 15.0259 14.9698C15.0159 14.9868 15.0069 15.0038 14.9969 15.0208C14.9869 15.0378 14.9769 15.0548 14.9679 15.0708C14.9579 15.0878 14.9479 15.1038 14.9379 15.1198C14.9279 15.1358 14.9179 15.1528 14.9069 15.1688C14.8969 15.1848 14.8859 15.2008 14.8759 15.2168C14.8649 15.2328 14.8549 15.2488 14.8439 15.2638C14.8329 15.2798 14.8219 15.2948 14.8109 15.3108C14.7999 15.3258 14.7889 15.3418 14.7779 15.3568C14.7669 15.3718 14.7559 15.3868 14.7439 15.4018C14.7319 15.4168 14.7209 15.4318 14.7099 15.4458C14.6979 15.4608 14.6869 15.4748 14.6749 15.4898C14.6629 15.5038 14.6509 15.5188 14.6389 15.5328C14.6269 15.5468 14.6149 15.5608 14.6029 15.5748C14.5909 15.5888 14.5789 15.6028 14.5659 15.6158C14.5539 15.6298 14.5409 15.6428 14.5289 15.6568C14.5159 15.6698 14.5039 15.6838 14.4909 15.6968C14.4779 15.7098 14.4649 15.7228 14.4529 15.7358C14.4399 15.7488 14.4269 15.7618 14.4139 15.7738C14.4009 15.7858 14.3879 15.7988 14.3739 15.8108C14.3599 15.8228 14.3469 15.8358 14.3339 15.8478C14.3199 15.8598 14.3069 15.8718 14.2929 15.8838C14.2789 15.8958 14.2659 15.9068 14.2519 15.9188C14.2379 15.9308 14.2239 15.9418 14.2099 15.9528C14.1959 15.9638 14.1819 15.9748 14.1669 15.9858C14.1529 15.9968 14.1379 16.0078 14.1239 16.0178C14.1099 16.0288 14.0949 16.0388 14.0799 16.0498C14.0649 16.0598 14.0509 16.0708 14.0359 16.0808C14.0209 16.0908 14.0059 16.1008 13.9909 16.1108C13.9759 16.1208 13.9609 16.1308 13.9459 16.1398C13.9309 16.1498 13.9159 16.1588 13.8999 16.1678C13.8849 16.1768 13.8689 16.1858 13.8539 16.1948C13.8379 16.2038 13.8229 16.2128 13.8069 16.2218C13.7909 16.2308 13.7749 16.2388 13.7589 16.2478C13.7429 16.2568 13.7269 16.2648 13.7109 16.2728C13.6949 16.2808 13.6789 16.2888 13.6619 16.2968C13.6449 16.3048 13.6289 16.3118 13.6129 16.3198C13.5879 16.3308 13.5639 16.3418 13.5389 16.3528C13.5139 16.3638 13.4889 16.3738 13.4639 16.3838C13.4389 16.3938 13.4139 16.4038 13.3889 16.4128C13.3639 16.4218 13.3379 16.4308 13.3129 16.4398C13.2879 16.4488 13.2619 16.4568 13.2369 16.4648C13.2119 16.4728 13.1859 16.4808 13.1599 16.4878C13.1339 16.4948 13.1079 16.5028 13.0829 16.5098C13.0569 16.5168 13.0309 16.5228 13.0049 16.5298C12.9789 16.5358 12.9529 16.5418 12.9269 16.5478C12.9009 16.5538 12.8749 16.5588 12.8479 16.5638C12.8219 16.5688 12.7959 16.5738 12.7689 16.5778C12.7429 16.5818 12.7159 16.5868 12.6899 16.5908C12.6639 16.5948 12.6369 16.5988 12.6109 16.6018C12.5849 16.6048 12.5579 16.6078 12.5319 16.6108C12.5059 16.6138 12.4789 16.6158 12.4519 16.6178C12.4249 16.6198 12.3989 16.6218 12.3719 16.6238C12.3449 16.6258 12.3189 16.6268 12.2919 16.6278C12.2649 16.6288 12.2389 16.6298 12.2119 16.6298C12.1849 16.6298 12.1589 16.6298 12.1319 16.6298C12.1049 16.6298 12.0789 16.6298 12.0529 16.6288C12.0269 16.6288 11.9999 16.6268 11.9739 16.6258C11.9479 16.6248 11.9209 16.6228 11.8949 16.6218C11.8689 16.6198 11.8419 16.6178 11.8159 16.6158C11.7899 16.6138 11.7639 16.6108 11.7369 16.6078C11.7109 16.6048 11.6849 16.6018 11.6589 16.5988C11.6329 16.5958 11.6069 16.5918 11.5809 16.5878C11.5549 16.5838 11.5289 16.5798 11.5029 16.5748C11.4769 16.5708 11.4509 16.5658 11.4259 16.5608C11.3999 16.5558 11.3749 16.5508 11.3489 16.5448C11.3239 16.5398 11.2979 16.5338 11.2729 16.5278C11.2479 16.5218 11.2219 16.5158 11.1969 16.5088C11.1719 16.5018 11.1469 16.4958 11.1219 16.4888C11.0969 16.4818 11.0719 16.4748 11.0479 16.4668C11.0229 16.4588 10.9989 16.4518 10.9739 16.4438C10.9489 16.4358 10.9249 16.4278 10.9009 16.4188C10.8769 16.4098 10.8529 16.4018 10.8289 16.3928C10.8049 16.3838 10.7809 16.3748 10.7579 16.3648C10.7339 16.3548 10.7109 16.3458 10.6879 16.3358C10.6649 16.3258 10.6409 16.3158 10.6179 16.3048C10.5949 16.2938 10.5719 16.2838 10.5489 16.2728C10.5259 16.2618 10.5039 16.2508 10.4809 16.2388C10.4589 16.2278 10.4359 16.2158 10.4139 16.2038C10.3919 16.1918 10.3699 16.1798 10.3479 16.1678C10.3259 16.1558 10.3049 16.1428 10.2839 16.1298C10.2629 16.1168 10.2419 16.1038 10.2209 16.0908C10.1999 16.0778 10.1789 16.0638 10.1589 16.0508C10.1389 16.0368 10.1179 16.0228 10.0979 16.0088C10.0779 15.9948 10.0579 15.9798 10.0379 15.9658C10.0179 15.9508 9.99889 15.9368 9.97989 15.9218C9.96089 15.9068 9.94189 15.8918 9.92289 15.8758C9.90389 15.8598 9.88589 15.8448 9.86789 15.8288C9.84989 15.8128 9.83189 15.7968 9.81389 15.7808C9.79589 15.7648 9.77889 15.7478 9.76189 15.7308C9.74489 15.7138 9.72789 15.6968 9.71089 15.6798C9.69389 15.6628 9.67789 15.6448 9.66189 15.6278C9.64589 15.6108 9.62989 15.5928 9.61389 15.5748C9.59789 15.5568 9.58289 15.5388 9.56789 15.5198C9.55289 15.5018 9.53789 15.4828 9.52389 15.4638C9.50989 15.4448 9.49489 15.4258 9.48089 15.4068C9.46689 15.3878 9.45289 15.3678 9.43989 15.3488C9.42689 15.3288 9.41389 15.3098 9.40089 15.2898C9.38789 15.2698 9.37589 15.2498 9.36389 15.2288C9.35189 15.2088 9.33989 15.1878 9.32889 15.1668C9.31789 15.1458 9.30689 15.1248 9.29589 15.1038C9.28989 15.0918 9.28389 15.0808 9.27889 15.0688C9.27289 15.0568 9.26789 15.0448 9.26189 15.0338C9.25589 15.0218 9.25089 15.0098 9.24589 14.9978C9.24089 14.9858 9.23489 14.9738 9.22989 14.9618C9.22489 14.9498 9.21989 14.9378 9.21489 14.9258C9.20989 14.9138 9.20489 14.9018 9.19989 14.8898C9.19489 14.8778 9.19089 14.8658 9.18589 14.8538C9.18089 14.8418 9.17689 14.8298 9.17289 14.8168C9.16889 14.8048 9.16389 14.7928 9.15989 14.7798C9.15589 14.7668 9.15189 14.7548 9.14789 14.7428C9.14389 14.7308 9.13989 14.7178 9.13589 14.7058C9.13189 14.6938 9.12889 14.6808 9.12489 14.6688C9.12089 14.6568 9.11789 14.6438 9.11489 14.6318C9.11189 14.6198 9.10789 14.6068 9.10489 14.5948C9.10189 14.5828 9.09889 14.5698 9.09589 14.5568C9.09289 14.5438 9.08989 14.5318 9.08689 14.5188C9.08389 14.5058 9.08089 14.4938 9.07889 14.4808C9.07589 14.4678 9.07389 14.4558 9.07089 14.4428C9.06889 14.4298 9.06589 14.4178 9.06389 14.4048C9.06189 14.3918 9.05989 14.3798 9.05789 14.3668C9.05589 14.3538 9.05389 14.3418 9.05189 14.3288C9.04989 14.3158 9.04789 14.3038 9.04689 14.2908C9.04589 14.2778 9.04389 14.2658 9.04189 14.2528C9.03989 14.2398 9.03889 14.2278 9.03789 14.2148C9.03689 14.2018 9.03589 14.1898 9.03389 14.1768C9.03189 14.1638 9.03189 14.1508 9.03089 14.1388C9.02989 14.1268 9.02889 14.1128 9.02889 14.1008C9.02889 14.0878 9.02789 14.0748 9.02689 14.0628C9.02689 14.0498 9.02689 14.0368 9.02589 14.0248C9.02589 14.0118 9.02589 13.9988 9.02589 13.9868C9.02589 13.9738 9.02589 13.9608 9.02589 13.9488C9.02589 13.9358 9.02589 13.9228 9.02589 13.9108C9.02589 13.8978 9.02589 13.8848 9.02689 13.8728C9.02789 13.8608 9.02789 13.8478 9.02889 13.8348C9.02889 13.8218 9.02989 13.8098 9.03089 13.7968C9.03089 13.7838 9.03289 13.7718 9.03389 13.7588C9.03489 13.7458 9.03589 13.7338 9.03689 13.7208C9.03789 13.7078 9.03989 13.6958 9.04089 13.6828C9.04189 13.6698 9.04389 13.6578 9.04589 13.6448C9.04789 13.6318 9.04889 13.6198 9.05089 13.6068C9.05289 13.5938 9.05489 13.5818 9.05689 13.5688C9.05889 13.5558 9.06089 13.5438 9.06289 13.5308C9.06489 13.5178 9.06689 13.5058 9.06989 13.4928C9.07189 13.4808 9.07489 13.4678 9.07689 13.4558C9.07989 13.4438 9.08189 13.4308 9.08489 13.4188C9.08789 13.4068 9.09089 13.3938 9.09389 13.3818C9.09689 13.3698 9.09989 13.3568 9.10289 13.3448C9.10589 13.3328 9.10889 13.3198 9.11289 13.3078C9.11589 13.2958 9.11989 13.2838 9.12289 13.2708C9.12589 13.2578 9.12989 13.2468 9.13389 13.2338C9.13789 13.2218 9.14189 13.2098 9.14489 13.1978C9.14889 13.1858 9.15289 13.1738 9.15689 13.1618C9.16089 13.1498 9.16489 13.1378 9.16989 13.1258C9.17389 13.1138 9.17889 13.1018 9.18289 13.0898C9.18689 13.0778 9.19189 13.0658 9.19689 13.0538C9.20189 13.0418 9.20589 13.0298 9.21089 13.0188C9.21589 13.0068 9.22089 12.9958 9.22589 12.9838C9.23089 12.9718 9.23589 12.9608 9.24089 12.9488C9.24589 12.9368 9.25189 12.9258 9.25689 12.9138C9.26189 12.9018 9.26789 12.8908 9.27389 12.8798C9.27989 12.8688 9.28489 12.8568 9.29089 12.8458C9.29689 12.8348 9.30289 12.8228 9.30889 12.8118C9.31489 12.8008 9.32089 12.7898 9.32689 12.7778C9.33289 12.7668 9.33989 12.7558 9.34589 12.7448C9.34989 12.7368 9.35489 12.7298 9.35889 12.7218C9.36289 12.7138 9.36789 12.7058 9.37289 12.6988C9.37789 12.6908 9.38289 12.6828 9.38789 12.6748C9.39289 12.6668 9.39789 12.6588 9.40289 12.6508C9.40789 12.6428 9.41389 12.6348 9.41889 12.6258C9.42389 12.6178 9.42989 12.6088 9.43589 12.6008C9.44189 12.5928 9.44789 12.5838 9.45389 12.5758C9.45989 12.5668 9.46589 12.5588 9.47189 12.5498C9.47789 12.5408 9.48489 12.5328 9.49089 12.5238C9.49689 12.5148 9.50389 12.5058 9.51089 12.4978C9.51789 12.4888 9.52489 12.4798 9.53189 12.4708C9.53889 12.4618 9.54589 12.4528 9.55289 12.4438C9.55989 12.4348 9.56789 12.4258 9.57489 12.4168C9.58189 12.4078 9.58989 12.3988 9.59789 12.3898C9.60589 12.3808 9.61389 12.3718 9.62189 12.3628C9.62989 12.3538 9.63789 12.3448 9.64689 12.3348C9.65489 12.3258 9.66389 12.3168 9.67189 12.3068C9.68089 12.2978 9.68889 12.2888 9.69789 12.2788C9.70689 12.2698 9.71589 12.2608 9.72489 12.2508C9.73389 12.2418 9.74389 12.2318 9.75289 12.2228C9.76289 12.2138 9.77189 12.2038 9.78189 12.1948C9.79189 12.1858 9.80189 12.1758 9.81189 12.1668C9.82189 12.1578 9.83189 12.1488 9.84289 12.1388C9.85389 12.1288 9.86389 12.1208 9.87489 12.1108C9.88589 12.1018 9.89689 12.0928 9.90789 12.0828C9.91889 12.0738 9.92989 12.0648 9.94189 12.0558C9.95289 12.0468 9.96489 12.0378 9.97689 12.0288C9.98889 12.0198 10.0009 12.0108 10.0129 12.0018C10.0249 11.9928 10.0369 11.9838 10.0499 11.9748C10.0619 11.9658 10.0749 11.9568 10.0879 11.9478C10.1009 11.9388 10.1139 11.9298 10.1269 11.9218C10.1399 11.9128 10.1529 11.9038 10.1669 11.8958C10.1799 11.8868 10.1939 11.8788 10.2079 11.8698C10.2219 11.8608 10.2359 11.8528 10.2499 11.8438C10.2639 11.8358 10.2779 11.8268 10.2929 11.8188C10.3069 11.8108 10.3219 11.8018 10.3369 11.7938C10.3519 11.7858 10.3669 11.7778 10.3819 11.7688C10.3969 11.7608 10.4119 11.7528 10.4279 11.7448C10.4429 11.7368 10.4589 11.7288 10.4749 11.7208C10.4909 11.7128 10.5069 11.7048 10.5229 11.6978C10.5389 11.6908 10.5559 11.6828 10.5719 11.6748C10.5889 11.6678 10.6049 11.6598 10.6219 11.6528C10.6389 11.6458 10.6559 11.6378 10.6739 11.6308C10.6909 11.6238 10.7089 11.6168 10.7269 11.6098C10.7449 11.6028 10.7629 11.5958 10.7809 11.5888C10.7989 11.5818 10.8179 11.5758 10.8359 11.5688C10.8549 11.5618 10.8729 11.5558 10.8919 11.5498C10.9109 11.5438 10.9299 11.5368 10.9499 11.5308C10.9689 11.5248 10.9889 11.5188 11.0089 11.5128C11.0289 11.5068 11.0489 11.5008 11.0689 11.4958C11.0889 11.4908 11.1099 11.4848 11.1299 11.4788C11.1499 11.4728 11.1709 11.4678 11.1929 11.4628C11.2139 11.4578 11.2349 11.4528 11.2569 11.4478C11.2789 11.4428 11.2999 11.4378 11.3219 11.4338C11.3439 11.4288 11.3659 11.4248 11.3879 11.4208C11.4099 11.4168 11.4329 11.4128 11.4559 11.4088C11.4789 11.4048 11.5019 11.4008 11.5249 11.3968C11.5479 11.3928 11.5719 11.3898 11.5949 11.3858C11.6179 11.3818 11.6429 11.3788 11.6669 11.3758C11.6909 11.3728 11.7149 11.3698 11.7399 11.3668C11.7649 11.3638 11.7889 11.3618 11.8139 11.3588C11.8389 11.3568 11.8639 11.3538 11.8899 11.3518C11.9159 11.3498 11.9409 11.3478 11.9669 11.3458C11.9929 11.3438 12.0189 11.3428 12.0459 11.3408C12.0589 11.3408 12.0709 11.3398 12.0829 11.3388C12.0949 11.3378 12.1079 11.3378 12.1199 11.3368C12.1319 11.3368 12.1449 11.3358 12.1569 11.3348C12.1689 11.3348 12.1819 11.3338 12.1939 11.3328C12.2059 11.3318 12.2189 11.3318 12.2309 11.3308C12.2429 11.3308 12.2559 11.3308 12.2679 11.3298C12.2799 11.3298 12.2929 11.3298 12.3049 11.3288C12.3169 11.3288 12.3299 11.3288 12.3419 11.3278C12.3539 11.3278 12.3659 11.3278 12.3789 11.3268C12.3909 11.3268 12.4029 11.3268 12.4159 11.3268C12.4279 11.3268 12.4399 11.3268 12.4519 11.3268C12.4639 11.3268 12.4759 11.3268 12.4879 11.3268C12.4999 11.3268 12.5119 11.3268 12.5239 11.3268C12.5359 11.3268 12.5479 11.3268 12.5599 11.3268C12.5719 11.3268 12.5839 11.3268 12.5959 11.3268C12.6079 11.3268 12.6199 11.3268 12.6319 11.3268C12.6439 11.3268 12.6559 11.3268 12.6679 11.3268C12.6799 11.3268 12.6919 11.3268 12.7039 11.3268C12.7159 11.3268 12.7279 11.3268 12.7399 11.3268C12.7519 11.3268 12.7639 11.3268 12.7759 11.3268C12.7879 11.3268 12.7999 11.3268 12.8109 11.3268C12.8229 11.3268 12.8349 11.3268 12.8459 11.3268C12.8579 11.3268 12.8689 11.3268 12.8809 11.3268C12.8929 11.3268 12.9039 11.3268 12.9159 11.3268C12.9279 11.3268 12.9389 11.3268 12.9509 11.3268C12.9629 11.3268 12.9739 11.3268 12.9859 11.3268C12.9979 11.3268 13.0089 11.3268 13.0209 11.3268C13.0329 11.3268 13.0439 11.3268 13.0559 11.3278C13.0679 11.3278 13.0789 11.3278 13.0909 11.3288C13.1029 11.3298 13.1139 11.3288 13.1249 11.3298C13.1359 11.3308 13.1479 11.3298 13.1589 11.3308C13.1699 11.3308 13.1819 11.3308 13.1929 11.3318C13.2039 11.3318 13.2159 11.3328 13.2269 11.3338C13.2379 11.3338 13.2499 11.3348 13.2609 11.3358C13.2719 11.3358 13.2839 11.3368 13.2949 11.3378C13.3059 11.3378 13.3179 11.3388 13.3289 11.3398C13.3399 11.3398 13.3519 11.3408 13.3629 11.3418C13.3739 11.3428 13.3849 11.3428 13.3969 11.3438C13.4079 11.3438 13.4189 11.3448 13.4309 11.3458C13.4419 11.3458 13.4529 11.3478 13.4639 11.3478C13.4749 11.3478 13.4859 11.3498 13.4969 11.3498C13.5079 11.3498 13.5189 11.3518 13.5299 11.3528C13.5409 11.3528 13.5519 11.3548 13.5629 11.3558C13.5739 11.3568 13.5849 11.3578 13.5959 11.3588C13.6069 11.3588 13.6179 11.3608 13.6289 11.3618C13.6399 11.3628 13.6509 11.3638 13.6619 11.3648C13.6729 11.3658 13.6839 11.3668 13.6949 11.3678C13.7059 11.3688 13.7169 11.3698 13.7279 11.3708C13.7389 11.3718 13.7499 11.3728 13.7599 11.3738C13.7709 11.3748 13.7819 11.3758 13.7919 11.3768C13.8029 11.3778 13.8139 11.3788 13.8239 11.3808C13.8349 11.3818 13.8449 11.3828 13.8559 11.3848C13.8669 11.3868 13.8769 11.3868 13.8879 11.3888C13.8989 11.3908 13.9089 11.3918 13.9199 11.3928C13.9309 11.3938 13.9409 11.3958 13.9519 11.3968C13.9629 11.3978 13.9729 11.3998 13.9839 11.4008C13.9949 11.4018 14.0049 11.4038 14.0159 11.4048C14.0269 11.4058 14.0369 11.4078 14.0479 11.4088C14.0579 11.4098 14.0689 11.4118 14.0789 11.4128C14.0889 11.4138 14.0999 11.4158 14.1099 11.4168C14.1199 11.4188 14.1309 11.4198 14.1409 11.4218C14.1509 11.4238 14.1619 11.4248 14.1719 11.4268C14.1819 11.4288 14.1929 11.4298 14.2029 11.4318C14.2129 11.4338 14.2239 11.4348 14.2339 11.4368C14.2319 11.4238 14.2299 11.4118 14.2279 11.3988C14.2259 11.3858 14.2229 11.3728 14.2209 11.3608C14.2189 11.3478 14.2159 11.3348 14.2139 11.3218C14.2109 11.3088 14.2089 11.2958 14.2059 11.2828C14.2029 11.2698 14.2009 11.2568 14.1979 11.2438C14.1949 11.2308 14.1919 11.2178 14.1889 11.2048C14.1859 11.1918 14.1829 11.1788 14.1799 11.1658C14.1769 11.1528 14.1739 11.1398 14.1699 11.1268C14.1669 11.1138 14.1629 11.1008 14.1599 11.0878C14.1559 11.0748 14.1529 11.0618 14.1489 11.0488C14.1449 11.0358 14.1409 11.0228 14.1379 11.0098C14.1339 10.9968 14.1299 10.9838 14.1259 10.9708C14.1219 10.9578 14.1179 10.9448 14.1129 10.9318C14.1089 10.9188 14.1039 10.9058 14.0999 10.8928C14.0949 10.8798 14.0909 10.8668 14.0859 10.8538C14.0809 10.8408 14.0759 10.8278 14.0719 10.8148C14.0669 10.8018 14.0619 10.7888 14.0569 10.7758C14.0519 10.7628 14.0469 10.7498 14.0409 10.7368C14.0359 10.7238 14.0299 10.7108 14.0249 10.6988C14.0189 10.6858 14.0139 10.6738 14.0079 10.6608C14.0019 10.6478 13.9959 10.6358 13.9899 10.6228C13.9839 10.6098 13.9779 10.5978 13.9719 10.5848C13.9659 10.5718 13.9589 10.5598 13.9529 10.5478C13.9459 10.5358 13.9399 10.5228 13.9329 10.5108C13.9259 10.4988 13.9189 10.4868 13.9119 10.4738C13.9049 10.4608 13.8979 10.4498 13.8909 10.4378C13.8839 10.4258 13.8759 10.4138 13.8689 10.4018C13.8619 10.3898 13.8539 10.3778 13.8459 10.3668C13.8379 10.3558 13.8299 10.3438 13.8219 10.3318C13.8139 10.3198 13.8059 10.3088 13.7979 10.2978C13.7899 10.2868 13.7809 10.2748 13.7729 10.2638C13.7639 10.2528 13.7559 10.2418 13.7469 10.2308C13.7379 10.2198 13.7289 10.2088 13.7199 10.1978C13.7109 10.1868 13.7019 10.1758 13.6919 10.1658C13.6829 10.1548 13.6729 10.1448 13.6629 10.1338C13.6529 10.1238 13.6429 10.1128 13.6329 10.1028C13.6229 10.0928 13.6129 10.0828 13.6029 10.0728C13.5929 10.0628 13.5819 10.0528 13.5719 10.0428C13.5619 10.0328 13.5509 10.0238 13.5399 10.0138C13.5289 10.0038 13.5179 9.9948 13.5069 9.98581C13.4959 9.9768 13.4839 9.9678 13.4729 9.9588C13.4609 9.9498 13.4499 9.9408 13.4379 9.9318C13.4259 9.9228 13.4139 9.9148 13.4019 9.9058C13.3899 9.8968 13.3769 9.8888 13.3649 9.8808C13.3519 9.8728 13.3399 9.8648 13.3269 9.8568C13.3139 9.8488 13.3009 9.8408 13.2879 9.8338C13.2749 9.8258 13.2609 9.81881 13.2479 9.81181C13.2339 9.80481 13.2209 9.79781 13.2069 9.79081C13.1929 9.7838 13.1789 9.7768 13.1649 9.7708C13.1509 9.7638 13.1359 9.7578 13.1219 9.7518C13.1079 9.7458 13.0929 9.7398 13.0779 9.7338C13.0629 9.7278 13.0479 9.7218 13.0329 9.7168C13.0179 9.7118 13.0019 9.7058 12.9869 9.70081C12.9709 9.69581 12.9549 9.6908 12.9389 9.6858C12.9229 9.6808 12.9069 9.67581 12.8899 9.6718C12.8739 9.6668 12.8569 9.6628 12.8399 9.6588C12.8229 9.6548 12.8059 9.6508 12.7889 9.6468C12.7719 9.64281 12.7539 9.6398 12.7369 9.6358C12.7199 9.6318 12.7019 9.6298 12.6839 9.6268C12.6659 9.6238 12.6479 9.6208 12.6299 9.6188C12.6119 9.61581 12.5929 9.6138 12.5739 9.6118C12.5549 9.60981 12.5359 9.6078 12.5169 9.6058C12.4979 9.6038 12.4779 9.6028 12.4589 9.6018C12.4389 9.6008 12.4199 9.5998 12.3999 9.5988C12.3819 9.5988 12.3639 9.59781 12.3459 9.59681C12.3279 9.5958 12.3099 9.59681 12.2929 9.59681C12.2749 9.59681 12.2579 9.59681 12.2409 9.59681C12.2239 9.59681 12.2069 9.59681 12.1889 9.59681C12.1719 9.59681 12.1549 9.59681 12.1379 9.59781C12.1209 9.59781 12.1049 9.5988 12.0879 9.5998C12.0709 9.6008 12.0549 9.6018 12.0389 9.6028C12.0229 9.6038 12.0069 9.6048 11.9909 9.6058C11.9749 9.6068 11.9589 9.6088 11.9439 9.6098C11.9279 9.6118 11.9129 9.6128 11.8979 9.6148C11.8829 9.61681 11.8669 9.6188 11.8519 9.6198C11.8369 9.6218 11.8219 9.62381 11.8069 9.6258C11.7919 9.6278 11.7779 9.62981 11.7629 9.6328C11.7479 9.6348 11.7339 9.6378 11.7199 9.6398C11.7059 9.64281 11.6919 9.6448 11.6779 9.64781C11.6639 9.6508 11.6499 9.6538 11.6359 9.6568C11.6219 9.6598 11.6089 9.66281 11.5949 9.66581C11.5819 9.66881 11.5679 9.6718 11.5549 9.67581C11.5419 9.6788 11.5289 9.68281 11.5159 9.6858C11.5029 9.6888 11.4899 9.6928 11.4769 9.69681C11.4639 9.7008 11.4519 9.7038 11.4389 9.70781C11.4269 9.7118 11.4139 9.7158 11.4019 9.7198C11.3899 9.7238 11.3779 9.7278 11.3659 9.7318C11.3539 9.7358 11.3419 9.7398 11.3299 9.7448C11.3179 9.7498 11.3069 9.75381 11.2949 9.7578C11.2829 9.76181 11.2719 9.7668 11.2609 9.7718C11.2499 9.7768 11.2389 9.7808 11.2279 9.7858C11.2169 9.7908 11.2059 9.7958 11.1949 9.7998C11.1839 9.8048 11.1729 9.8098 11.1629 9.81481C11.1529 9.81981 11.1419 9.82481 11.1319 9.8298C11.1219 9.83481 11.1109 9.8398 11.1009 9.8458C11.0909 9.8508 11.0809 9.8568 11.0709 9.8618C11.0609 9.86681 11.0509 9.8728 11.0419 9.8778C11.0319 9.8828 11.0229 9.8888 11.0129 9.8948C11.0039 9.9008 10.9939 9.90581 10.9849 9.91181C10.9759 9.91781 10.9669 9.9228 10.9579 9.9288C10.9489 9.9348 10.9399 9.9408 10.9309 9.94681C10.9219 9.95281 10.9129 9.95881 10.9049 9.96481C10.8959 9.9708 10.8879 9.9768 10.8789 9.9828C10.8709 9.9888 10.8619 9.9948 10.8539 10.0008C10.8459 10.0068 10.8379 10.0128 10.8299 10.0198C10.8219 10.0258 10.8139 10.0318 10.8059 10.0388C10.7979 10.0448 10.7899 10.0518 10.7829 10.0578C10.7749 10.0638 10.7679 10.0708 10.7599 10.0768C10.7519 10.0828 10.7449 10.0898 10.7379 10.0958C10.7309 10.1018 10.7239 10.1088 10.7169 10.1148C10.7099 10.1218 10.7029 10.1278 10.6959 10.1348C10.6889 10.1418 10.6819 10.1478 10.6759 10.1548C10.6689 10.1618 10.6629 10.1678 10.6559 10.1748C10.6499 10.1818 10.6429 10.1878 10.6369 10.1948C10.6309 10.2018 10.6239 10.2078 10.6179 10.2148C10.6119 10.2218 10.6059 10.2278 10.5999 10.2348C10.5939 10.2418 10.5879 10.2478 10.5819 10.2548C10.5759 10.2618 10.5699 10.2688 10.5649 10.2748C10.5589 10.2818 10.5539 10.2888 10.5479 10.2948C10.5429 10.3018 10.5369 10.3088 10.5319 10.3148C10.5269 10.3208 10.5209 10.3288 10.5159 10.3348C10.5109 10.3408 10.5059 10.3488 10.5009 10.3548C10.4959 10.3608 10.4909 10.3688 10.4859 10.3748C10.4809 10.3818 10.4759 10.3888 10.4719 10.3948C10.4679 10.4008 10.4629 10.4088 10.4579 10.4148C10.4529 10.4218 10.4489 10.4278 10.4449 10.4348C10.4409 10.4418 10.4359 10.4478 10.4319 10.4548C10.4279 10.4618 10.4239 10.4678 10.4199 10.4748L10.4019 10.4638L10.3839 10.4528L10.3659 10.4418L10.3479 10.4308L10.3299 10.4198L10.3119 10.4088L10.2939 10.3978L10.2759 10.3868L10.2579 10.3758L10.2399 10.3648L10.2219 10.3538L10.2039 10.3428L10.1859 10.3318L10.1679 10.3208L10.1499 10.3098L10.1319 10.2988L10.1139 10.2878L10.0959 10.2768L10.0779 10.2658L10.0599 10.2548L10.0419 10.2438L10.0239 10.2328L10.0059 10.2218L9.98789 10.2108L9.96989 10.1998L9.95189 10.1888L9.93389 10.1778L9.91589 10.1668L9.89789 10.1558L9.87989 10.1448L9.86189 10.1338L9.84389 10.1228L9.82589 10.1118L9.80789 10.1008L9.78989 10.0898L9.77189 10.0788L9.75389 10.0678L9.73589 10.0568L9.71789 10.0458L9.69989 10.0348L9.68189 10.0238L9.66389 10.0128L9.64589 10.0018L9.62789 9.99081L9.60989 9.9798L9.59189 9.9688L9.57389 9.95781L9.55589 9.94681L9.53789 9.9358L9.51989 9.9248L9.50189 9.9138L9.48389 9.9028L9.46589 9.8918L9.44789 9.8808L9.42989 9.8698L9.41189 9.8588L9.39389 9.84781L9.37589 9.8368L9.35789 9.82581L9.33989 9.81481L9.32189 9.8038L9.30389 9.7928L9.28589 9.7818L9.26789 9.7708C9.27289 9.7628 9.27689 9.75581 9.28189 9.74781C9.28689 9.73981 9.29189 9.7318 9.29689 9.7238C9.30189 9.7158 9.30789 9.7078 9.31289 9.6988C9.31889 9.6908 9.32389 9.68181 9.32989 9.67281C9.33589 9.66381 9.34189 9.65581 9.34789 9.6468C9.35389 9.6378 9.35989 9.6288 9.36689 9.6198C9.37289 9.6108 9.37989 9.6018 9.38689 9.5918C9.39389 9.5828 9.40089 9.5728 9.40789 9.5638C9.41489 9.5538 9.42189 9.5448 9.42989 9.5348C9.43789 9.5248 9.44489 9.5148 9.45289 9.50481C9.46089 9.4948 9.46889 9.4848 9.47689 9.4748C9.48489 9.4648 9.49289 9.4548 9.50189 9.44381C9.50989 9.4338 9.51889 9.4228 9.52789 9.4128C9.53689 9.4028 9.54589 9.3918 9.55489 9.3818C9.56389 9.3708 9.57289 9.3608 9.58289 9.3498C9.59289 9.3388 9.60189 9.3288 9.61189 9.3178C9.62189 9.3068 9.63189 9.2968 9.64189 9.2858C9.65189 9.2748 9.66289 9.2638 9.67289 9.2538C9.68389 9.24281 9.69389 9.2318 9.70489 9.2208C9.71589 9.2098 9.72689 9.1988 9.73789 9.1878C9.74889 9.1768 9.76089 9.1658 9.77189 9.15481C9.78289 9.14381 9.79489 9.1328 9.80789 9.1218C9.82089 9.11081 9.83189 9.0998 9.84489 9.0888C9.85689 9.0778 9.86989 9.0668 9.88289 9.0558C9.89589 9.0448 9.90889 9.0338 9.92189 9.02281C9.93489 9.01181 9.94889 9.0008 9.96189 8.9898C9.97589 8.97881 9.98889 8.9678 10.0029 8.9568C10.0169 8.9458 10.0309 8.9348 10.0449 8.9248C10.0589 8.9138 10.0739 8.9038 10.0889 8.8928C10.1039 8.8818 10.1189 8.8718 10.1339 8.86081C10.1489 8.8498 10.1649 8.8398 10.1799 8.8298C10.1959 8.8198 10.2109 8.8088 10.2269 8.7988C10.2429 8.78881 10.2589 8.7778 10.2759 8.7678C10.2919 8.7578 10.3089 8.7478 10.3259 8.7378C10.3429 8.7278 10.3599 8.7178 10.3769 8.70781C10.3939 8.6978 10.4119 8.6878 10.4289 8.6788C10.4459 8.66981 10.4639 8.6598 10.4829 8.6498C10.5009 8.6408 10.5189 8.63081 10.5379 8.6218C10.5569 8.6128 10.5749 8.6038 10.5939 8.5948C10.6129 8.5858 10.6319 8.5768 10.6509 8.5678C10.6699 8.5588 10.6899 8.5508 10.7099 8.5418C10.7299 8.5328 10.7499 8.5248 10.7699 8.5168C10.7899 8.5088 10.8109 8.5008 10.8309 8.4928C10.8519 8.4848 10.8729 8.4768 10.8939 8.4698C10.9149 8.4618 10.9369 8.4548 10.9579 8.4468C10.9799 8.4398 11.0009 8.4318 11.0239 8.4248C11.0459 8.4178 11.0679 8.4108 11.0909 8.4038C11.1139 8.3968 11.1359 8.3908 11.1589 8.3838C11.1819 8.3778 11.2049 8.3718 11.2289 8.3658C11.2529 8.3598 11.2759 8.3538 11.2999 8.3488C11.3239 8.3428 11.3479 8.33781 11.3729 8.3328C11.3979 8.32781 11.4219 8.3228 11.4469 8.3178C11.4719 8.3128 11.4969 8.3088 11.5229 8.3038C11.5479 8.2998 11.5739 8.2948 11.5999 8.2918C11.6259 8.2878 11.6519 8.2838 11.6779 8.2808C11.7039 8.2778 11.7309 8.2738 11.7579 8.2708C11.7849 8.2678 11.8119 8.2648 11.8389 8.2628C11.8659 8.2598 11.8939 8.2578 11.9219 8.2558C11.9499 8.2538 11.9779 8.2518 12.0069 8.2508C12.0359 8.2498 12.0639 8.2478 12.0929 8.2468C12.1219 8.2458 12.1509 8.2448 12.1809 8.2448C12.2109 8.2448 12.2399 8.2448 12.2699 8.2448C12.2999 8.2448 12.3299 8.2448 12.3609 8.2458C12.3919 8.2468 12.4219 8.2478 12.4529 8.2488C12.4819 8.2498 12.5109 8.2518 12.5389 8.2528C12.5669 8.2538 12.5959 8.2568 12.6239 8.2588C12.6519 8.2608 12.6799 8.2638 12.7079 8.2668C12.7359 8.2698 12.7639 8.2728 12.7909 8.2768C12.8189 8.2808 12.8459 8.2848 12.8729 8.2888C12.8999 8.2928 12.9269 8.2978 12.9539 8.3028C12.9809 8.3078 13.0079 8.3128 13.0339 8.3178C13.0609 8.3228 13.0869 8.3288 13.1129 8.3348C13.1389 8.3408 13.1649 8.3468 13.1909 8.3538C13.2169 8.3608 13.2429 8.3678 13.2679 8.3748C13.2939 8.3818 13.3189 8.3898 13.3439 8.3978C13.3689 8.4058 13.3939 8.4138 13.4189 8.4218C13.4439 8.4298 13.4689 8.4388 13.4929 8.4478C13.5179 8.4568 13.5419 8.4658 13.5659 8.4758C13.5899 8.4858 13.6139 8.4948 13.6379 8.5058C13.6619 8.5158 13.6859 8.5268 13.7089 8.5368C13.7319 8.5468 13.7559 8.5588 13.7789 8.5698C13.8019 8.5808 13.8249 8.5928 13.8479 8.6048C13.8709 8.6168 13.8929 8.6288 13.9159 8.6408C13.9379 8.6528 13.9609 8.6658 13.9829 8.6788C14.0049 8.6918 14.0269 8.7048 14.0479 8.7188C14.0699 8.7328 14.0909 8.7458 14.1119 8.7598C14.1329 8.7738 14.1539 8.7878 14.1749 8.8028C14.1959 8.8178 14.2169 8.8318 14.2369 8.8478C14.2569 8.8628 14.2779 8.8788 14.2979 8.8938C14.3179 8.9098 14.3379 8.9258 14.3579 8.9418C14.3779 8.9578 14.3969 8.97481 14.4159 8.99081C14.4349 9.00781 14.4539 9.0248 14.4729 9.0418C14.4919 9.0588 14.5109 9.0768 14.5289 9.0948C14.5469 9.1128 14.5659 9.1308 14.5839 9.1488C14.6019 9.1668 14.6199 9.1858 14.6379 9.2048C14.6559 9.2238 14.6729 9.24281 14.6899 9.26181C14.7069 9.28081 14.7239 9.3008 14.7409 9.3208C14.7579 9.3408 14.7739 9.3608 14.7909 9.3808C14.8069 9.4008 14.8239 9.4218 14.8389 9.4428C14.8549 9.4638 14.8709 9.4848 14.8859 9.5058C14.9009 9.5268 14.9169 9.5488 14.9319 9.5708C14.9469 9.5928 14.9619 9.61481 14.9769 9.63681C14.9919 9.6588 15.0059 9.6818 15.0199 9.7038C15.0339 9.7268 15.0479 9.7498 15.0619 9.77281C15.0759 9.7958 15.0889 9.8198 15.1019 9.8428C15.1149 9.8668 15.1279 9.8908 15.1409 9.9148C15.1539 9.93881 15.1659 9.9638 15.1789 9.9878C15.1919 10.0118 15.2029 10.0368 15.2149 10.0618C15.2269 10.0868 15.2389 10.1118 15.2499 10.1378C15.2609 10.1638 15.2729 10.1888 15.2839 10.2148C15.2949 10.2408 15.3059 10.2668 15.3159 10.2938C15.3259 10.3198 15.3369 10.3468 15.3469 10.3738C15.3569 10.4008 15.3669 10.4278 15.3759 10.4548C15.3849 10.4818 15.3949 10.5098 15.4039 10.5368C15.4129 10.5648 15.4219 10.5928 15.4299 10.6208C15.4379 10.6488 15.4469 10.6778 15.4549 10.7058C15.4629 10.7348 15.4709 10.7628 15.4779 10.7918C15.4859 10.8208 15.4929 10.8498 15.4999 10.8798C15.5069 10.9088 15.5139 10.9388 15.5199 10.9688C15.5269 10.9988 15.5329 11.0288 15.5389 11.0588C15.5449 11.0888 15.5509 11.1198 15.5559 11.1498C15.5619 11.1808 15.5669 11.2108 15.5719 11.2418C15.5769 11.2728 15.5819 11.3038 15.5859 11.3358C15.5909 11.3668 15.5949 11.3988 15.5989 11.4308C15.6029 11.4628 15.6069 11.4948 15.6099 11.5268C15.6129 11.5588 15.6169 11.5918 15.6199 11.6238C15.6229 11.6568 15.6259 11.6888 15.6279 11.7218C15.6299 11.7548 15.6329 11.7878 15.6339 11.8208C15.6659 11.8338 15.6969 11.8468 15.7279 11.8598C15.7589 11.8728 15.7899 11.8868 15.8199 11.9008C15.8509 11.9148 15.8809 11.9288 15.9109 11.9428C15.9409 11.9568 15.9709 11.9718 15.9999 11.9858C16.0289 11.9998 16.0589 12.0158 16.0879 12.0308C16.1169 12.0458 16.1459 12.0618 16.1739 12.0768C16.2019 12.0928 16.2309 12.1088 16.2579 12.1248C16.2859 12.1408 16.3129 12.1568 16.3409 12.1738C16.3679 12.1908 16.3949 12.2068 16.4219 12.2238C16.4489 12.2408 16.4749 12.2578 16.5009 12.2758C16.5269 12.2928 16.5529 12.3108 16.5789 12.3288C16.6049 12.3468 16.6299 12.3648 16.6549 12.3828C16.6799 12.4008 16.7049 12.4198 16.7289 12.4388C16.7539 12.4578 16.7779 12.4768 16.8019 12.4958C16.8259 12.5148 16.8499 12.5348 16.8729 12.5538C16.8959 12.5738 16.9199 12.5928 16.9419 12.6128C16.9639 12.6328 16.9869 12.6528 17.0099 12.6738C17.0319 12.6938 17.0539 12.7148 17.0759 12.7358C17.0979 12.7568 17.1189 12.7778 17.1399 12.7988C17.1609 12.8198 17.1819 12.8408 17.2019 12.8628C17.2229 12.8848 17.2429 12.9058 17.2629 12.9278C17.2829 12.9498 17.3029 12.9718 17.3219 12.9938C17.3409 13.0158 17.3599 13.0388 17.3789 13.0608C17.3979 13.0838 17.4159 13.1058 17.4339 13.1288C17.4519 13.1518 17.4699 13.1748 17.4879 13.1988C17.5059 13.2218 17.5229 13.2458 17.5399 13.2698C17.5569 13.2938 17.5739 13.3178 17.5899 13.3418C17.6059 13.3658 17.6219 13.3898 17.6379 13.4148C17.6539 13.4388 17.6689 13.4638 17.6839 13.4888C17.6989 13.5138 17.7139 13.5388 17.7289 13.5638C17.7439 13.5888 17.7579 13.6138 17.7719 13.6398C17.7859 13.6648 17.7999 13.6908 17.8129 13.7158C17.8259 13.7418 17.8389 13.7668 17.8519 13.7928C17.8649 13.8188 17.8769 13.8448 17.8889 13.8708C17.9009 13.8968 17.9129 13.9238 17.9239 13.9498C17.9349 13.9768 17.9469 14.0028 17.9579 14.0298C17.9689 14.0568 17.9789 14.0838 17.9899 14.1108C17.9999 14.1378 18.0099 14.1648 18.0199 14.1928C18.0299 14.2208 18.0389 14.2478 18.0479 14.2758C18.0569 14.3038 18.0659 14.3308 18.0739 14.3588C18.0819 14.3868 18.0899 14.4148 18.0979 14.4428C18.1059 14.4708 18.1129 14.4988 18.1199 14.5278C18.1269 14.5558 18.1339 14.5848 18.1399 14.6138C18.1459 14.6428 18.1529 14.6708 18.1579 14.6998C18.1639 14.7288 18.1689 14.7578 18.1739 14.7868C18.1789 14.8158 18.1839 14.8448 18.1879 14.8748C18.1919 14.9048 18.1969 14.9338 18.1999 14.9628C18.2039 14.9928 18.2069 15.0218 18.2109 15.0518C18.2139 15.0818 18.2169 15.1118 18.2199 15.1418C18.2229 15.1718 18.2249 15.2018 18.2269 15.2318C18.2289 15.2618 18.2299 15.2928 18.2319 15.3228C18.2329 15.3528 18.2339 15.3838 18.2349 15.4138C18.2349 15.4448 18.2349 15.4748 18.2349 15.5058C18.2349 15.5368 18.2349 15.5678 18.2339 15.5988C18.2339 15.6298 18.2319 15.6608 18.2309 15.6918C18.2299 15.7228 18.2279 15.7538 18.2259 15.7858C18.2239 15.8168 18.2209 15.8488 18.2179 15.8798C18.2149 15.9108 18.2119 15.9428 18.2079 15.9748C18.2039 16.0068 18.2009 16.0378 18.1959 16.0698C18.1919 16.1018 18.1869 16.1338 18.1819 16.1658C18.1769 16.1978 18.1719 16.2298 18.1659 16.2618C18.1599 16.2938 18.1539 16.3258 18.1479 16.3578C18.1419 16.3898 18.1349 16.4218 18.1279 16.4548C18.1209 16.4868 18.1139 16.5198 18.1059 16.5518C18.0999 16.5748 18.0949 16.5988 18.0889 16.6218C18.0829 16.6448 18.0769 16.6688 18.0699 16.6918C18.0629 16.7148 18.0569 16.7388 18.0499 16.7618C18.0429 16.7848 18.0359 16.8088 18.0279 16.8318C18.0199 16.8548 18.0129 16.8778 18.0049 16.9018C17.9969 16.9248 17.9889 16.9478 17.9799 16.9708C17.9709 16.9938 17.9629 17.0168 17.9539 17.0398C17.9449 17.0628 17.9359 17.0858 17.9259 17.1088C17.9159 17.1318 17.9069 17.1548 17.8969 17.1778C17.8869 17.2008 17.8769 17.2238 17.8669 17.2458C17.8569 17.2688 17.8459 17.2908 17.8349 17.3138C17.8239 17.3368 17.8129 17.3588 17.8019 17.3818C17.7909 17.4048 17.7789 17.4268 17.7679 17.4488C17.7559 17.4708 17.7439 17.4938 17.7319 17.5158C17.7199 17.5378 17.7079 17.5598 17.6949 17.5828C17.6819 17.6058 17.6699 17.6268 17.6569 17.6488C17.6439 17.6708 17.6309 17.6928 17.6179 17.7148C17.6049 17.7368 17.5909 17.7588 17.5769 17.7798C17.5629 17.8008 17.5489 17.8228 17.5349 17.8448C17.5209 17.8668 17.5069 17.8878 17.4919 17.9088C17.4769 17.9298 17.4629 17.9518 17.4479 17.9728C17.4329 17.9938 17.4179 18.0148 17.4029 18.0358C17.3879 18.0568 17.3719 18.0778 17.3569 18.0988C17.3409 18.1198 17.3259 18.1408 17.3099 18.1608C17.2939 18.1818 17.2779 18.2018 17.2609 18.2228C17.2439 18.2438 17.2279 18.2638 17.2109 18.2838C17.1939 18.3038 17.1769 18.3238 17.1599 18.3448C17.1429 18.3648 17.1259 18.3848 17.1079 18.4048C17.0909 18.4248 17.0729 18.4448 17.0549 18.4638C17.0369 18.4838 17.0189 18.5028 17.0009 18.5228C16.9829 18.5418 16.9649 18.5618 16.9459 18.5808C16.9279 18.5998 16.9089 18.6188 16.8899 18.6378C16.8709 18.6568 16.8519 18.6758 16.8329 18.6948C16.8139 18.7138 16.7949 18.7318 16.7749 18.7508C16.7559 18.7688 16.7359 18.7878 16.7169 18.8058C16.6969 18.8238 16.6779 18.8418 16.6579 18.8598C16.6379 18.8778 16.6179 18.8958 16.5979 18.9128C16.5779 18.9308 16.5569 18.9478 16.5369 18.9658C16.5169 18.9828 16.4959 19.0008 16.4749 19.0178C16.4539 19.0348 16.4329 19.0518 16.4119 19.0688C16.3909 19.0858 16.3699 19.1028 16.3489 19.1188C16.3279 19.1358 16.3059 19.1518 16.2849 19.1678C16.2629 19.1838 16.2419 19.1998 16.2199 19.2158C16.1979 19.2318 16.1759 19.2478 16.1539 19.2628C16.1319 19.2788 16.1099 19.2938 16.0879 19.3098C16.0659 19.3258 16.0429 19.3408 16.0209 19.3558C15.9979 19.3708 15.9759 19.3858 15.9529 19.4008C15.9299 19.4158 15.9069 19.4298 15.8839 19.4448C15.8609 19.4598 15.8379 19.4738 15.8149 19.4878C15.7919 19.5018 15.7689 19.5158 15.7449 19.5298C15.7209 19.5438 15.6979 19.5568 15.6749 19.5698C15.6509 19.5828 15.6279 19.5958 15.6039 19.6088C15.5799 19.6218 15.5559 19.6348 15.5319 19.6468C15.5079 19.6598 15.4839 19.6718 15.4599 19.6838C15.4359 19.6958 15.4119 19.7078 15.3869 19.7198C15.3629 19.7318 15.3379 19.7438 15.3139 19.7548C15.2899 19.7658 15.2649 19.7778 15.2399 19.7888C15.2149 19.7998 15.1909 19.8108 15.1659 19.8218C15.1409 19.8328 15.1159 19.8428 15.0909 19.8528C15.0659 19.8628 15.0409 19.8728 15.0159 19.8828C14.9909 19.8928 14.9659 19.9028 14.9399 19.9118C14.9149 19.9208 14.8889 19.9308 14.8639 19.9398C14.8389 19.9488 14.8129 19.9578 14.7879 19.9658C14.7629 19.9738 14.7369 19.9828 14.7109 19.9908C14.6999 19.9948 14.6879 19.9978 14.6769 20.0018C14.6659 20.0058 14.6539 20.0088 14.6419 20.0128C14.6299 20.0168 14.6189 20.0198 14.6069 20.0238C14.5949 20.0278 14.5829 20.0308 14.5719 20.0348C14.5599 20.0388 14.5479 20.0418 14.5359 20.0448C14.5239 20.0478 14.5119 20.0518 14.4999 20.0548C14.4879 20.0578 14.4759 20.0618 14.4639 20.0648C14.4519 20.0678 14.4399 20.0718 14.4279 20.0748C14.4159 20.0778 14.4039 20.0818 14.3909 20.0848C14.3789 20.0878 14.3659 20.0918 14.3539 20.0948C14.3419 20.0978 14.3289 20.1018 14.3169 20.1048C14.3049 20.1078 14.2919 20.1108 14.2799 20.1148C14.2669 20.1178 14.2549 20.1208 14.2419 20.1248C14.2289 20.1278 14.2169 20.1308 14.2039 20.1338C14.1909 20.1368 14.1789 20.1398 14.1659 20.1428C14.1529 20.1458 14.1399 20.1488 14.1279 20.1518C14.1159 20.1548 14.1019 20.1578 14.0889 20.1608C14.0759 20.1638 14.0629 20.1668 14.0499 20.1698C14.0369 20.1728 14.0239 20.1758 14.0109 20.1788C13.9979 20.1818 13.9849 20.1848 13.9719 20.1878C13.9589 20.1908 13.9459 20.1938 13.9319 20.1958C13.9189 20.1988 13.9049 20.2018 13.8919 20.2038C13.8789 20.2058 13.8649 20.2088 13.8519 20.2118C13.8389 20.2148 13.8249 20.2168 13.8119 20.2198C13.7989 20.2228 13.7849 20.2248 13.7719 20.2278C13.7579 20.2308 13.7449 20.2328 13.7309 20.2358C13.7169 20.2388 13.7039 20.2408 13.6899 20.2438C13.6759 20.2468 13.6629 20.2488 13.6489 20.2508C13.6349 20.2528 13.6209 20.2558 13.6079 20.2578C13.5949 20.2598 13.5799 20.2628 13.5659 20.2648C13.5519 20.2668 13.5379 20.2698 13.5239 20.2718C13.5099 20.2738 13.4959 20.2758 13.4819 20.2788C13.4679 20.2818 13.4539 20.2828 13.4399 20.2858C13.4259 20.2878 13.4119 20.2898 13.3979 20.2918C13.3839 20.2938 13.3699 20.2958 13.3559 20.2978C13.3419 20.2998 13.3279 20.3018 13.3129 20.3038C13.2989 20.3058 13.2839 20.3078 13.2699 20.3098C13.2559 20.3118 13.2409 20.3138 13.2269 20.3158C13.2129 20.3178 13.1979 20.3198 13.1839 20.3208C13.1699 20.3228 13.1549 20.3248 13.1409 20.3258C13.1269 20.3278 13.1119 20.3288 13.0969 20.3308C13.0819 20.3328 13.0679 20.3338 13.0529 20.3358C13.0379 20.3378 13.0239 20.3388 13.0089 20.3408C12.9939 20.3428 12.9799 20.3438 12.9649 20.3448C12.9499 20.3458 12.9359 20.3478 12.9209 20.3488C12.9059 20.3498 12.8909 20.3518 12.8769 20.3528C12.8629 20.3538 12.8469 20.3558 12.8329 20.3568C12.8189 20.3578 12.8029 20.3588 12.7879 20.3608C12.7729 20.3618 12.7579 20.3628 12.7429 20.3638C12.7279 20.3648 12.7129 20.3658 12.6979 20.3668C12.6829 20.3678 12.6679 20.3688 12.6529 20.3698C12.6379 20.3698 12.6229 20.3718 12.6079 20.3728C12.5929 20.3728 12.5779 20.3748 12.5629 20.3758C12.5479 20.3758 12.5329 20.3778 12.5179 20.3778C12.5029 20.3778 12.4879 20.3798 12.4729 20.3798C12.4579 20.3798 12.4429 20.3808 12.4269 20.3818C12.4119 20.3818 12.3969 20.3828 12.3809 20.3838C12.3659 20.3838 12.3499 20.3848 12.3349 20.3858C12.3199 20.3868 12.3039 20.3858 12.2889 20.3868C12.2739 20.3868 12.2579 20.3868 12.2429 20.3878C12.2279 20.3878 12.2119 20.3878 12.1969 20.3878C12.1819 20.3878 12.1659 20.3878 12.1509 20.3878C12.1359 20.3878 12.1199 20.3878 12.1049 20.3878C12.0899 20.3878 12.0739 20.3878 12.0589 20.3878H12.0649ZM12.7279 12.6788C12.7159 12.6788 12.7029 12.6788 12.6909 12.6788C12.6789 12.6788 12.6659 12.6788 12.6529 12.6788C12.6399 12.6788 12.6279 12.6788 12.6149 12.6788C12.6019 12.6788 12.5899 12.6788 12.5769 12.6788C12.5639 12.6788 12.5509 12.6788 12.5389 12.6788C12.5259 12.6788 12.5129 12.6788 12.4999 12.6788C12.4869 12.6788 12.4739 12.6788 12.4609 12.6788C12.4479 12.6788 12.4349 12.6788 12.4219 12.6788C12.4089 12.6788 12.3959 12.6788 12.3829 12.6798C12.3699 12.6798 12.3569 12.6798 12.3439 12.6808C12.3309 12.6808 12.3179 12.6818 12.3049 12.6828C12.2919 12.6828 12.2789 12.6838 12.2649 12.6848C12.2519 12.6848 12.2389 12.6858 12.2249 12.6868C12.2119 12.6868 12.1989 12.6878 12.1849 12.6888C12.1709 12.6898 12.1579 12.6908 12.1449 12.6918C12.1319 12.6918 12.1179 12.6938 12.1049 12.6948C12.0919 12.6948 12.0779 12.6968 12.0649 12.6978C12.0519 12.6988 12.0379 12.6998 12.0249 12.7008C12.0119 12.7018 11.9979 12.7028 11.9849 12.7048C11.9719 12.7068 11.9579 12.7078 11.9449 12.7088C11.9319 12.7098 11.9189 12.7118 11.9049 12.7128C11.8919 12.7148 11.8789 12.7158 11.8649 12.7178C11.8519 12.7198 11.8389 12.7208 11.8249 12.7228C11.8109 12.7248 11.7989 12.7268 11.7859 12.7288C11.7729 12.7308 11.7599 12.7328 11.7469 12.7348C11.7339 12.7368 11.7209 12.7388 11.7079 12.7408C11.6949 12.7428 11.6819 12.7448 11.6689 12.7478C11.6559 12.7508 11.6429 12.7528 11.6299 12.7548C11.6169 12.7568 11.6039 12.7598 11.5909 12.7628C11.5779 12.7658 11.5649 12.7678 11.5529 12.7708C11.5399 12.7738 11.5279 12.7768 11.5149 12.7798C11.5019 12.7828 11.4899 12.7858 11.4769 12.7888C11.4639 12.7918 11.4519 12.7948 11.4389 12.7988C11.4269 12.8018 11.4139 12.8058 11.4019 12.8088C11.3899 12.8118 11.3769 12.8158 11.3649 12.8198C11.3529 12.8238 11.3409 12.8268 11.3279 12.8308C11.3159 12.8348 11.3039 12.8388 11.2919 12.8428C11.2799 12.8468 11.2679 12.8508 11.2559 12.8548C11.2439 12.8588 11.2319 12.8628 11.2209 12.8678C11.2089 12.8718 11.1979 12.8768 11.1859 12.8818C11.1739 12.8868 11.1629 12.8908 11.1509 12.8958C11.1389 12.9008 11.1279 12.9058 11.1169 12.9108C11.1059 12.9158 11.0949 12.9208 11.0829 12.9258C11.0719 12.9308 11.0609 12.9368 11.0499 12.9418C11.0389 12.9468 11.0279 12.9528 11.0169 12.9588C11.0059 12.9648 10.9959 12.9698 10.9849 12.9758C10.9739 12.9818 10.9639 12.9878 10.9539 12.9938C10.9439 12.9998 10.9329 13.0058 10.9229 13.0128C10.9129 13.0188 10.9029 13.0258 10.8929 13.0318C10.8829 13.0388 10.8729 13.0448 10.8629 13.0518C10.8529 13.0588 10.8439 13.0658 10.8339 13.0728C10.8239 13.0798 10.8149 13.0868 10.8059 13.0948C10.7969 13.1018 10.7869 13.1098 10.7779 13.1178C10.7689 13.1258 10.7599 13.1328 10.7509 13.1408C10.7419 13.1488 10.7329 13.1568 10.7249 13.1648C10.7159 13.1728 10.7079 13.1808 10.6989 13.1898C10.6909 13.1978 10.6819 13.2068 10.6739 13.2158C10.6659 13.2248 10.6579 13.2338 10.6499 13.2428C10.6419 13.2518 10.6339 13.2608 10.6269 13.2698C10.6199 13.2788 10.6119 13.2888 10.6039 13.2978C10.5969 13.3078 10.5889 13.3168 10.5819 13.3268C10.5749 13.3368 10.5679 13.3468 10.5609 13.3568C10.5539 13.3668 10.5479 13.3768 10.5409 13.3878C10.5339 13.3978 10.5279 13.4088 10.5219 13.4198C10.5189 13.4248 10.5159 13.4298 10.5139 13.4348C10.5109 13.4398 10.5079 13.4448 10.5059 13.4498C10.5029 13.4548 10.5009 13.4598 10.4979 13.4648C10.4949 13.4698 10.4929 13.4748 10.4899 13.4798C10.4869 13.4848 10.4849 13.4898 10.4829 13.4948C10.4809 13.4998 10.4779 13.5048 10.4759 13.5108C10.4739 13.5158 10.4709 13.5208 10.4689 13.5268C10.4669 13.5318 10.4649 13.5378 10.4619 13.5428C10.4599 13.5478 10.4579 13.5538 10.4559 13.5588C10.4539 13.5638 10.4519 13.5698 10.4499 13.5748C10.4479 13.5798 10.4459 13.5858 10.4439 13.5908C10.4419 13.5958 10.4399 13.6018 10.4379 13.6068C10.4359 13.6118 10.4339 13.6178 10.4329 13.6228C10.4309 13.6278 10.4299 13.6338 10.4279 13.6388C10.4259 13.6438 10.4249 13.6498 10.4229 13.6548C10.4209 13.6608 10.4199 13.6658 10.4179 13.6718C10.4159 13.6778 10.4149 13.6828 10.4139 13.6888C10.4129 13.6948 10.4109 13.6998 10.4099 13.7058C10.4089 13.7118 10.4069 13.7168 10.4059 13.7228C10.4049 13.7288 10.4039 13.7338 10.4019 13.7398C10.4009 13.7458 10.3999 13.7508 10.3989 13.7568C10.3979 13.7628 10.3969 13.7678 10.3959 13.7738C10.3959 13.7798 10.3939 13.7848 10.3929 13.7908C10.3929 13.7968 10.3909 13.8018 10.3909 13.8078C10.3909 13.8138 10.3899 13.8188 10.3889 13.8248C10.3889 13.8308 10.3879 13.8358 10.3869 13.8418C10.3859 13.8478 10.3859 13.8528 10.3849 13.8588C10.3849 13.8648 10.3849 13.8698 10.3839 13.8758C10.3839 13.8818 10.3839 13.8878 10.3829 13.8928C10.3829 13.8988 10.3829 13.9048 10.3829 13.9098C10.3829 13.9158 10.3829 13.9218 10.3829 13.9268C10.3829 13.9328 10.3829 13.9388 10.3829 13.9438C10.3829 13.9498 10.3829 13.9558 10.3829 13.9608C10.3829 13.9658 10.3829 13.9728 10.3829 13.9778C10.3829 13.9838 10.3829 13.9898 10.3829 13.9948C10.3829 14.0008 10.3829 14.0068 10.3829 14.0118C10.3829 14.0178 10.3829 14.0238 10.3829 14.0288C10.3829 14.0338 10.3829 14.0408 10.3839 14.0458C10.3839 14.0518 10.3839 14.0578 10.3849 14.0628C10.3849 14.0688 10.3859 14.0748 10.3869 14.0798C10.3869 14.0858 10.3879 14.0918 10.3889 14.0968C10.3889 14.1028 10.3899 14.1088 10.3909 14.1138C10.3909 14.1198 10.3929 14.1258 10.3939 14.1308C10.3939 14.1368 10.3959 14.1428 10.3969 14.1478C10.3969 14.1538 10.3989 14.1598 10.3999 14.1648C10.4009 14.1708 10.4019 14.1768 10.4029 14.1818C10.4039 14.1878 10.4049 14.1938 10.4069 14.1988C10.4089 14.2038 10.4099 14.2108 10.4109 14.2158C10.4119 14.2218 10.4139 14.2268 10.4149 14.2328C10.4159 14.2388 10.4179 14.2438 10.4189 14.2498C10.4199 14.2558 10.4219 14.2608 10.4239 14.2668C10.4259 14.2728 10.4269 14.2778 10.4289 14.2838C10.4309 14.2898 10.4319 14.2948 10.4339 14.3008C10.4359 14.3068 10.4379 14.3118 10.4389 14.3178C10.4409 14.3238 10.4429 14.3288 10.4449 14.3348C10.4469 14.3408 10.4489 14.3458 10.4509 14.3518C10.4529 14.3578 10.4549 14.3628 10.4569 14.3688C10.4589 14.3748 10.4609 14.3798 10.4629 14.3858C10.4649 14.3918 10.4669 14.3968 10.4699 14.4028C10.4719 14.4088 10.4749 14.4138 10.4769 14.4198C10.4789 14.4258 10.4819 14.4308 10.4839 14.4358C10.4859 14.4408 10.4889 14.4468 10.4919 14.4518C10.4949 14.4568 10.4969 14.4628 10.4999 14.4678C10.5029 14.4728 10.5049 14.4788 10.5079 14.4838C10.5139 14.4948 10.5189 14.5058 10.5249 14.5158C10.5309 14.5268 10.5369 14.5368 10.5439 14.5478C10.5499 14.5578 10.5569 14.5688 10.5639 14.5788C10.5709 14.5888 10.5779 14.5988 10.5849 14.6098C10.5919 14.6198 10.5999 14.6298 10.6079 14.6398C10.6159 14.6498 10.6239 14.6598 10.6319 14.6688C10.6399 14.6788 10.6479 14.6878 10.6569 14.6978C10.6659 14.7068 10.6739 14.7168 10.6829 14.7258C10.6919 14.7348 10.7009 14.7438 10.7099 14.7538C10.7189 14.7628 10.7289 14.7718 10.7379 14.7808C10.7469 14.7898 10.7579 14.7988 10.7679 14.8068C10.7779 14.8158 10.7879 14.8238 10.7989 14.8328C10.8089 14.8408 10.8199 14.8498 10.8309 14.8578C10.8419 14.8658 10.8529 14.8738 10.8639 14.8818C10.8749 14.8898 10.8859 14.8978 10.8979 14.9058C10.9089 14.9138 10.9209 14.9208 10.9319 14.9288C10.9429 14.9368 10.9549 14.9438 10.9669 14.9508C10.9789 14.9578 10.9909 14.9648 11.0029 14.9728C11.0149 14.9808 11.0279 14.9868 11.0399 14.9938C11.0519 15.0008 11.0649 15.0078 11.0779 15.0138C11.0909 15.0208 11.1039 15.0268 11.1169 15.0328C11.1299 15.0388 11.1429 15.0458 11.1559 15.0518C11.1689 15.0578 11.1829 15.0638 11.1959 15.0698C11.2089 15.0758 11.2229 15.0818 11.2369 15.0868C11.2509 15.0928 11.2649 15.0978 11.2779 15.1028C11.2919 15.1078 11.3059 15.1138 11.3199 15.1188C11.3339 15.1238 11.3479 15.1288 11.3629 15.1338C11.3769 15.1388 11.3919 15.1438 11.4059 15.1478C11.4199 15.1518 11.4349 15.1568 11.4499 15.1608C11.4649 15.1648 11.4789 15.1698 11.4939 15.1738C11.5089 15.1778 11.5239 15.1818 11.5389 15.1858C11.5539 15.1898 11.5689 15.1928 11.5839 15.1968C11.5989 15.2008 11.6139 15.2038 11.6289 15.2068C11.6439 15.2098 11.6589 15.2128 11.6749 15.2158C11.6899 15.2188 11.7059 15.2218 11.7209 15.2248C11.7359 15.2278 11.7519 15.2298 11.7669 15.2328C11.7829 15.2348 11.7979 15.2378 11.8139 15.2398C11.8299 15.2418 11.8449 15.2438 11.8609 15.2458C11.8769 15.2478 11.8919 15.2498 11.9079 15.2508C11.9239 15.2528 11.9389 15.2538 11.9549 15.2548C11.9709 15.2558 11.9869 15.2568 12.0019 15.2588C12.0169 15.2608 12.0339 15.2608 12.0499 15.2618C12.0659 15.2618 12.0819 15.2628 12.0979 15.2638C12.1139 15.2648 12.1299 15.2638 12.1459 15.2638C12.1619 15.2638 12.1779 15.2638 12.1939 15.2638C12.2099 15.2638 12.2259 15.2638 12.2419 15.2638C12.2579 15.2638 12.2739 15.2628 12.2899 15.2618C12.3059 15.2618 12.3219 15.2598 12.3379 15.2588C12.3539 15.2578 12.3699 15.2568 12.3849 15.2548C12.4009 15.2538 12.4169 15.2518 12.4319 15.2498C12.4479 15.2478 12.4629 15.2458 12.4789 15.2438C12.4949 15.2418 12.5099 15.2398 12.5259 15.2378C12.5419 15.2358 12.5569 15.2328 12.5729 15.2308C12.5879 15.2278 12.6039 15.2258 12.6189 15.2228C12.6339 15.2198 12.6499 15.2168 12.6649 15.2138C12.6799 15.2108 12.6959 15.2068 12.7109 15.2038C12.7259 15.1998 12.7409 15.1968 12.7559 15.1928C12.7709 15.1888 12.7859 15.1848 12.8009 15.1808C12.8159 15.1768 12.8309 15.1718 12.8449 15.1678C12.8599 15.1628 12.8739 15.1588 12.8889 15.1538C12.9039 15.1488 12.9179 15.1438 12.9329 15.1388C12.9469 15.1338 12.9619 15.1278 12.9759 15.1228C12.9899 15.1168 13.0039 15.1118 13.0179 15.1058C13.0319 15.0998 13.0459 15.0938 13.0599 15.0878C13.0709 15.0828 13.0809 15.0778 13.0919 15.0728C13.1029 15.0678 13.1129 15.0628 13.1239 15.0568C13.1339 15.0518 13.1449 15.0458 13.1549 15.0398C13.1649 15.0338 13.1759 15.0288 13.1859 15.0228C13.1959 15.0168 13.2059 15.0108 13.2159 15.0048C13.2259 14.9988 13.2359 14.9928 13.2459 14.9858C13.2559 14.9798 13.2659 14.9728 13.2759 14.9668C13.2859 14.9598 13.2959 14.9538 13.3049 14.9468C13.3149 14.9398 13.3239 14.9328 13.3339 14.9258C13.3439 14.9188 13.3529 14.9118 13.3619 14.9038C13.3709 14.8968 13.3809 14.8888 13.3899 14.8818C13.3989 14.8748 13.4089 14.8668 13.4179 14.8588C13.4269 14.8508 13.4359 14.8428 13.4449 14.8348C13.4539 14.8268 13.4629 14.8188 13.4719 14.8108C13.4809 14.8028 13.4899 14.7938 13.4979 14.7858C13.5059 14.7778 13.5149 14.7688 13.5239 14.7598C13.5329 14.7508 13.5409 14.7428 13.5499 14.7338C13.5579 14.7248 13.5669 14.7158 13.5749 14.7068C13.5829 14.6978 13.5919 14.6888 13.5999 14.6788C13.6079 14.6698 13.6159 14.6598 13.6239 14.6508C13.6319 14.6408 13.6399 14.6318 13.6479 14.6218C13.6559 14.6118 13.6639 14.6018 13.6719 14.5918C13.6799 14.5818 13.6879 14.5718 13.6949 14.5618C13.7029 14.5518 13.7099 14.5408 13.7179 14.5308C13.7259 14.5208 13.7329 14.5098 13.7399 14.4988C13.7469 14.4878 13.7549 14.4778 13.7619 14.4668C13.7689 14.4558 13.7759 14.4448 13.7839 14.4338C13.7909 14.4228 13.7979 14.4118 13.8049 14.3998C13.8119 14.3888 13.8189 14.3768 13.8259 14.3658C13.8329 14.3548 13.8399 14.3428 13.8459 14.3308C13.8529 14.3188 13.8589 14.3068 13.8659 14.2958C13.8729 14.2838 13.8789 14.2718 13.8849 14.2598C13.8909 14.2478 13.8979 14.2358 13.9039 14.2228C13.9099 14.2108 13.9169 14.1978 13.9229 14.1858C13.9289 14.1728 13.9349 14.1608 13.9409 14.1478C13.9469 14.1348 13.9529 14.1218 13.9589 14.1098C13.9649 14.0968 13.9709 14.0838 13.9759 14.0708C13.9819 14.0578 13.9869 14.0448 13.9929 14.0308C13.9989 14.0178 14.0039 14.0038 14.0089 13.9908C14.0139 13.9778 14.0199 13.9638 14.0249 13.9498C14.0299 13.9358 14.0349 13.9228 14.0409 13.9088C14.0469 13.8948 14.0509 13.8808 14.0559 13.8668C14.0609 13.8528 14.0659 13.8388 14.0709 13.8248C14.0759 13.8108 14.0809 13.7958 14.0849 13.7818C14.0899 13.7678 14.0939 13.7528 14.0989 13.7378C14.1039 13.7228 14.1079 13.7088 14.1119 13.6938C14.1159 13.6788 14.1209 13.6638 14.1249 13.6488C14.1289 13.6338 14.1329 13.6188 14.1369 13.6038C14.1409 13.5888 14.1449 13.5738 14.1489 13.5578C14.1529 13.5428 14.1569 13.5268 14.1609 13.5118C14.1649 13.4968 14.1679 13.4808 14.1719 13.4648C14.1759 13.4488 14.1789 13.4338 14.1829 13.4178C14.1859 13.4018 14.1899 13.3858 14.1929 13.3698C14.1959 13.3538 14.1999 13.3378 14.2029 13.3218C14.2059 13.3058 14.2089 13.2898 14.2119 13.2728C14.2149 13.2568 14.2179 13.2398 14.2209 13.2238C14.2239 13.2068 14.2269 13.1908 14.2289 13.1738C14.2319 13.1568 14.2339 13.1408 14.2369 13.1238C14.2399 13.1068 14.2419 13.0898 14.2439 13.0728C14.2459 13.0558 14.2489 13.0388 14.2509 13.0218C14.2529 13.0048 14.2549 12.9878 14.2569 12.9698C14.2589 12.9528 14.2609 12.9348 14.2629 12.9178C14.2649 12.9008 14.2669 12.8828 14.2679 12.8648C14.2699 12.8468 14.2709 12.8298 14.2729 12.8118C14.2659 12.8108 14.2589 12.8088 14.2509 12.8078C14.2429 12.8068 14.2369 12.8048 14.2289 12.8038C14.2219 12.8028 14.2139 12.8008 14.2069 12.7998C14.1999 12.7988 14.1919 12.7968 14.1849 12.7958C14.1779 12.7948 14.1699 12.7928 14.1629 12.7918C14.1559 12.7908 14.1479 12.7888 14.1409 12.7878C14.1339 12.7868 14.1259 12.7848 14.1189 12.7838C14.1119 12.7828 14.1039 12.7808 14.0969 12.7798C14.0899 12.7788 14.0819 12.7768 14.0749 12.7758C14.0679 12.7748 14.0599 12.7728 14.0529 12.7718C14.0459 12.7708 14.0379 12.7698 14.0309 12.7678C14.0239 12.7658 14.0159 12.7658 14.0079 12.7638C13.9999 12.7628 13.9929 12.7618 13.9849 12.7598C13.9769 12.7588 13.9699 12.7578 13.9619 12.7568C13.9539 12.7558 13.9469 12.7548 13.9389 12.7538C13.9309 12.7528 13.9239 12.7518 13.9159 12.7508C13.9079 12.7498 13.9009 12.7488 13.8929 12.7478C13.8849 12.7468 13.8779 12.7458 13.8699 12.7448C13.8619 12.7438 13.8549 12.7428 13.8469 12.7418C13.8389 12.7408 13.8319 12.7398 13.8239 12.7388C13.8159 12.7378 13.8079 12.7368 13.8009 12.7358C13.7929 12.7358 13.7849 12.7338 13.7779 12.7328C13.7699 12.7328 13.7619 12.7308 13.7549 12.7298C13.7469 12.7298 13.7389 12.7278 13.7309 12.7268C13.7229 12.7268 13.7149 12.7248 13.7069 12.7238C13.6989 12.7238 13.6909 12.7218 13.6829 12.7208C13.6749 12.7208 13.6669 12.7188 13.6589 12.7178C13.6509 12.7168 13.6429 12.7158 13.6349 12.7148C13.6269 12.7148 13.6189 12.7128 13.6109 12.7128C13.6029 12.7128 13.5949 12.7108 13.5869 12.7108C13.5789 12.7108 13.5709 12.7088 13.5629 12.7088C13.5549 12.7088 13.5469 12.7078 13.5389 12.7068C13.5309 12.7068 13.5229 12.7058 13.5149 12.7048C13.5069 12.7038 13.4989 12.7038 13.4909 12.7028C13.4829 12.7028 13.4749 12.7018 13.4669 12.7008C13.4589 12.7008 13.4509 12.6998 13.4419 12.6988C13.4329 12.6978 13.4259 12.6978 13.4169 12.6968C13.4089 12.6968 13.4009 12.6958 13.3919 12.6948C13.3839 12.6948 13.3759 12.6938 13.3669 12.6928C13.3589 12.6928 13.3499 12.6918 13.3419 12.6908C13.3339 12.6908 13.3249 12.6898 13.3169 12.6888C13.3089 12.6888 13.2999 12.6878 13.2919 12.6868C13.2839 12.6868 13.2749 12.6858 13.2669 12.6858C13.2589 12.6858 13.2499 12.6858 13.2419 12.6848C13.2339 12.6848 13.2249 12.6848 13.2169 12.6838C13.2089 12.6838 13.1999 12.6838 13.1919 12.6828C13.1839 12.6818 13.1749 12.6828 13.1669 12.6818C13.1589 12.6818 13.1499 12.6818 13.1419 12.6808C13.1339 12.6798 13.1249 12.6808 13.1159 12.6798C13.1069 12.6798 13.0989 12.6798 13.0899 12.6788C13.0809 12.6788 13.0729 12.6788 13.0639 12.6788C13.0549 12.6788 13.0469 12.6788 13.0379 12.6788C13.0289 12.6788 13.0209 12.6788 13.0119 12.6788C13.0029 12.6788 12.9949 12.6788 12.9859 12.6788C12.9769 12.6788 12.9689 12.6788 12.9599 12.6788C12.9509 12.6788 12.9429 12.6788 12.9339 12.6788C12.9249 12.6788 12.9169 12.6788 12.9079 12.6788C12.8989 12.6788 12.8909 12.6788 12.8819 12.6788C12.8729 12.6788 12.8639 12.6788 12.8559 12.6788C12.8469 12.6788 12.8379 12.6788 12.8299 12.6788C12.8219 12.6788 12.8119 12.6788 12.8039 12.6788C12.7959 12.6788 12.7859 12.6788 12.7769 12.6788C12.7679 12.6788 12.7589 12.6788 12.7499 12.6788C12.7409 12.6788 12.7319 12.6788 12.7229 12.6788H12.7279Z" fill="white"/>
</svg>
