<svg width="30" height="30" viewBox="0 0 30 30" fill="none" xmlns="http://www.w3.org/2000/svg">
<g clip-path="url(#clip0_3235_53948)">
<circle cx="15" cy="15" r="15" fill="#256EF4"/>
<path d="M20.2246 19.1982C20.2246 19.641 17.8854 20 15 20C12.1147 20 9.77539 19.6411 9.77539 19.1982V13.8887L15 15.5234L20.2246 13.8887V19.1982ZM24 11.8174L22.1113 12.4082V14.5391C22.2492 14.6024 22.3456 14.7338 22.3457 14.8867V16.3223C22.3455 16.5358 22.1585 16.7109 21.9307 16.7109C21.7029 16.7108 21.5168 16.5358 21.5166 16.3223V14.8867C21.5167 14.734 21.6125 14.6025 21.75 14.5391V12.5215L15 14.6338L6 11.8174L15 9L24 11.8174Z" fill="white"/>
</g>
<defs>
<clipPath id="clip0_3235_53948">
<rect width="30" height="30" fill="white"/>
</clipPath>
</defs>
</svg>
