<svg width="12" height="13" viewBox="0 0 12 13" fill="none" xmlns="http://www.w3.org/2000/svg">
<path d="M3.19602 0.574219H1.76437C1.10748 0.574219 0.575195 1.1065 0.575195 1.7633V10.8991C0.575195 11.5555 1.10748 12.0882 1.76437 12.0882H3.19602V0.574219Z" fill="#E6E8EA"/>
<path d="M8.45215 0C10.1284 0.000260001 11.4922 1.36401 11.4922 3.04004V9.62305C11.4922 11.2991 10.1284 12.6638 8.45215 12.6641H1.76465C1.70371 12.6641 1.64335 12.6604 1.58398 12.6543C1.16949 12.612 0.796989 12.4259 0.517578 12.1465C0.477665 12.1066 0.439288 12.065 0.40332 12.0215C0.151423 11.7164 0 11.3251 0 10.8994V1.76367C4.38166e-05 0.790819 0.791785 0 1.76465 0H8.45215ZM1.64062 1.16211C1.36119 1.21957 1.15043 1.4676 1.15039 1.76367V10.8994C1.15039 11.2379 1.42606 11.5137 1.76465 11.5137H2.62109V1.14941H1.76465C1.72224 1.14941 1.68064 1.15388 1.64062 1.16211ZM3.77148 11.5137H8.45215C9.49439 11.5134 10.3418 10.665 10.3418 9.62305V3.04004C10.3418 2.2325 9.83246 1.54264 9.11816 1.27246V4.41895C9.11816 4.6827 8.80991 4.82732 8.60645 4.65918L7.79785 3.99121C7.68262 3.89614 7.51547 3.896 7.40039 3.99121L6.5918 4.65918C6.38841 4.82732 6.08105 4.6827 6.08105 4.41895V1.14941H3.77148V11.5137Z" fill="#58616A"/>
</svg>
