<svg width="20" height="20" viewBox="0 0 20 20" fill="none" xmlns="http://www.w3.org/2000/svg">
<g clip-path="url(#clip0_3304_14939)">
<path d="M14.9884 15.2947H5.01215C3.59413 15.2947 2.44434 14.1453 2.44434 12.7271V5.67889C2.44434 4.26077 3.59413 3.11133 5.01215 3.11133H14.9884C16.4063 3.11133 17.5556 4.26077 17.5556 5.67889V12.7271C17.5556 14.1453 16.4063 15.2947 14.9884 15.2947Z" fill="white"/>
<path fill-rule="evenodd" clip-rule="evenodd" d="M13.1455 1C13.5747 1.00003 13.9229 1.34864 13.9229 1.77832V2.33105H14.9883C16.8329 2.33105 18.334 3.83194 18.334 5.67676V15.9541C18.334 17.5887 17.0039 18.9187 15.3691 18.9189H4.63184C2.99726 18.9189 1.66699 17.5888 1.66699 15.9541V5.67676C1.66699 3.83194 3.16801 2.33105 5.0127 2.33105H6.08008V1.77832C6.08008 1.34867 6.42778 1.00008 6.85742 1C7.28713 1 7.63574 1.34862 7.63574 1.77832V2.33105H12.3672V1.77832C12.3672 1.34862 12.7158 1 13.1455 1ZM16.7783 15.5479C16.2602 15.8776 15.6466 16.0703 14.9883 16.0703H5.0127C4.35469 16.0703 3.74066 15.8783 3.22266 15.5488V15.9541C3.22266 16.7311 3.85494 17.3633 4.63184 17.3633H15.3691C16.1463 17.3631 16.7783 16.7309 16.7783 15.9541V15.5479ZM5.28223 3.88672C4.1465 3.88692 3.22266 4.81152 3.22266 5.94727V12.7246C3.22266 13.7112 4.02568 14.5146 5.0127 14.5146H14.9883C15.9753 14.5146 16.7783 13.7112 16.7783 12.7246V5.94727C16.7783 4.81139 15.8537 3.88672 14.7178 3.88672H13.9229V4.2334C13.9229 4.66308 13.5747 5.01169 13.1455 5.01172C12.7158 5.01172 12.3672 4.6631 12.3672 4.2334V3.88672H7.63574V4.2334C7.63574 4.6631 7.28713 5.01172 6.85742 5.01172C6.42778 5.01164 6.08008 4.66305 6.08008 4.2334V3.88672H5.28223ZM10.6006 10.543C11.0302 10.543 11.3788 10.891 11.3789 11.3203C11.3789 11.75 11.0303 12.0986 10.6006 12.0986H6.85156C6.42206 12.0984 6.07422 11.7499 6.07422 11.3203C6.07433 10.8912 6.42212 10.5432 6.85156 10.543H10.6006ZM13.1514 7.26562C13.5811 7.26562 13.9297 7.61424 13.9297 8.04395C13.9294 8.47343 13.5809 8.82129 13.1514 8.82129H6.85156C6.42221 8.82105 6.07447 8.47329 6.07422 8.04395C6.07422 7.61439 6.42206 7.26586 6.85156 7.26562H13.1514Z" fill="#FF618B"/>
</g>
<defs>
<clipPath id="clip0_3304_14939">
<rect width="20" height="20" fill="white"/>
</clipPath>
</defs>
</svg>
