<svg width="16" height="16" viewBox="0 0 16 16" fill="none" xmlns="http://www.w3.org/2000/svg">
<path d="M8 2C8.23567 2 8.46727 2.06299 8.6709 2.18164C8.87439 2.30029 9.04304 2.47085 9.15918 2.67578L14.4883 12.002C14.605 12.2042 14.6669 12.4335 14.667 12.667C14.6671 12.9007 14.605 13.1305 14.4883 13.333C14.3715 13.5355 14.2033 13.7043 14.001 13.8213C13.7988 13.9381 13.5694 13.9997 13.3359 14H2.67773C2.44286 14.0021 2.21104 13.9422 2.00684 13.8262C1.80274 13.7101 1.63295 13.5417 1.51465 13.3389C1.39641 13.1361 1.33357 12.9056 1.33301 12.6709C1.33249 12.4362 1.39442 12.2053 1.51172 12.002L6.84082 2.67578C6.95696 2.47085 7.12563 2.30029 7.3291 2.18164C7.53272 2.06299 7.76434 2 8 2ZM7.89355 10.7764C7.45181 10.7764 7.09388 11.1345 7.09375 11.5762C7.09401 12.0178 7.45189 12.376 7.89355 12.376H7.89941C8.34049 12.3753 8.69896 12.0174 8.69922 11.5762C8.69909 11.1349 8.34057 10.7771 7.89941 10.7764H7.89355ZM7.89355 6.07129C7.45178 6.07129 7.09384 6.42934 7.09375 6.87109V9.22363C7.09401 9.66524 7.45189 10.0234 7.89355 10.0234C8.33492 10.0231 8.6931 9.66502 8.69336 9.22363V6.87109C8.69327 6.42956 8.33503 6.07164 7.89355 6.07129Z" fill="#6D7882"/>
</svg>
