<svg width="20" height="20" viewBox="0 0 20 20" fill="none" xmlns="http://www.w3.org/2000/svg">
<path d="M9.99963 1.66602C14.6019 1.66602 18.3334 5.39684 18.3336 9.99902C18.3336 14.6014 14.602 18.333 9.99963 18.333C5.39741 18.3328 1.66663 14.6013 1.66663 9.99902C1.6668 5.39695 5.39751 1.66619 9.99963 1.66602ZM9.99963 2.99902C6.1339 2.9992 2.99981 6.13332 2.99963 9.99902C2.99963 13.8649 6.13379 16.9988 9.99963 16.999C13.8656 16.999 16.9996 13.865 16.9996 9.99902C16.9995 6.13322 13.8655 2.99902 9.99963 2.99902ZM8.52893 6.69922C8.78928 6.43887 9.21194 6.43887 9.47229 6.69922L12.3004 9.52832C12.5606 9.78869 12.5607 10.2104 12.3004 10.4707L9.47229 13.2988C9.21194 13.5592 8.78928 13.5592 8.52893 13.2988C8.26893 13.0385 8.26889 12.6167 8.52893 12.3564L10.8864 9.99902L8.52893 7.64258C8.26859 7.38224 8.26861 6.95957 8.52893 6.69922Z" fill="#454097"/>
<path fill-rule="evenodd" clip-rule="evenodd" d="M10.0013 18.332C5.39893 18.332 1.66797 14.6011 1.66797 9.9987C1.66797 5.39636 5.39892 1.66537 10.0013 1.66537C14.6036 1.66537 18.3346 5.39636 18.3346 9.9987C18.3346 14.6011 14.6036 18.332 10.0013 18.332Z" fill="#454097"/>
<path fill-rule="evenodd" clip-rule="evenodd" d="M8.5325 13.2981C8.27215 13.0378 8.27215 12.6157 8.5325 12.3553L10.8895 9.99829L8.5325 7.64127C8.27215 7.38092 8.27215 6.95881 8.5325 6.69846C8.79285 6.43811 9.21496 6.43811 9.47531 6.69846L12.3037 9.52689C12.5641 9.78724 12.5641 10.2093 12.3037 10.4697L9.47531 13.2981C9.21496 13.5585 8.79285 13.5585 8.5325 13.2981Z" fill="white"/>
</svg>
