<svg width="182" height="42" viewBox="0 0 182 42" fill="none" xmlns="http://www.w3.org/2000/svg">
<path d="M64.8742 15.9679C63.5956 15.0293 62.083 14.5615 60.3305 14.5615C58.578 14.5615 57.0742 15.0293 55.8132 15.9679C54.4732 16.9766 53.8003 18.2514 53.8003 19.7981C53.8003 21.3448 54.4732 22.643 55.8132 23.6488C57.0742 24.6019 58.5809 25.0785 60.3305 25.0785C62.0801 25.0785 63.5956 24.6019 64.8742 23.6488C66.2639 22.6284 66.9573 21.3448 66.9573 19.7981C66.9573 18.2514 66.2639 16.9766 64.8742 15.9679ZM62.9783 21.988C62.2381 22.5816 61.3692 22.8769 60.3773 22.8769C59.3855 22.8769 58.5341 22.5816 57.7764 21.988C57.004 21.3828 56.6178 20.6518 56.6178 19.7952C56.6178 18.9385 57.004 18.2163 57.7764 17.6257C58.5341 17.0468 59.4001 16.7573 60.3773 16.7573C61.3545 16.7573 62.2381 17.0468 62.9783 17.6257C63.7507 18.2192 64.1369 18.9414 64.1369 19.7952C64.1369 20.6489 63.7507 21.3828 62.9783 21.988Z" fill="#040000"/>
<path d="M60.3334 7.75474V6.59106H49.4204V8.71084H57.3814C57.3814 9.93007 56.7494 10.9271 55.4855 11.7019C54.0343 12.6024 51.9073 13.0878 49.1133 13.158V15.4239C52.1297 15.3392 54.5844 14.8158 56.4802 13.8451C59.049 12.544 60.3334 10.5148 60.3334 7.75767V7.75474Z" fill="#040000"/>
<path d="M64.9415 8.00629H61.0327V10.1261H64.9415V11.1845H61.0327V13.3043H64.9415V14.696H67.7151V6.57361H64.9415V8.00629Z" fill="#040000"/>
<path d="M156.069 10.205C156.069 8.81616 155.461 7.67294 154.241 6.7841C153.105 5.94788 151.777 5.52686 150.253 5.52686C148.641 5.52686 147.251 5.94496 146.09 6.7841C144.855 7.67586 144.238 8.81616 144.238 10.205C144.238 11.471 144.755 12.5382 145.777 13.4124H141.022V15.5176H144.896V17.7748H141.683V19.8799H156.239V23.8534H158.787V17.7748H155.581V15.5176H159.431V13.4124H154.554C155.563 12.5382 156.075 11.471 156.075 10.205H156.069ZM153.07 17.7748H147.397V15.5176H153.07V17.7748ZM152.438 12.2984C151.801 12.8364 151.066 13.1054 150.241 13.1054C149.34 13.1054 148.556 12.8364 147.889 12.2984C147.204 11.7488 146.865 11.0968 146.865 10.3424C146.865 9.58806 147.204 8.8951 147.889 8.3425C148.556 7.81914 149.34 7.55599 150.241 7.55599C151.069 7.55599 151.801 7.81914 152.438 8.3425C153.105 8.8951 153.439 9.56174 153.439 10.3424C153.439 11.1231 153.105 11.7341 152.438 12.2984Z" fill="#040000"/>
<path d="M90.9014 5.60291H88.2244V24.7277H90.9014V5.60291Z" fill="#040000"/>
<path d="M72.9726 8.69037H82.095C82.095 11.544 81.3314 13.7749 79.8071 15.3801C78.195 17.0818 75.8018 17.9765 72.6303 18.0583V20.4266C75.9422 20.3038 78.6514 19.5115 80.755 18.0583C83.7364 16.0233 85.2256 12.7867 85.2256 8.35414V6.52966H72.9726V8.68745V8.69037Z" fill="#040000"/>
<path d="M105.814 16.1871H112.476V13.5528H99.8133C99.8133 13.5528 98.1632 13.8159 98.1632 11.3774V8.80739H112.277L112.344 6.50049H95.6617V12.4329C95.6617 12.4329 95.5944 16.1871 99.155 16.1871H103.178V21.0641H95.0005V23.6984H113.465V21.0641H105.814V16.1871Z" fill="#040000"/>
<path d="M135.027 13.351V6.4303H118.553L118.564 8.88046L132.584 8.85707V13.1522C132.584 16.6491 131.136 19.8565 130.536 21.0377H129.135V14.81H126.496V21.0377H124.211V14.81H121.572V21.0377H117.88V23.675H136.344V21.0377H132.965C134.381 18.8565 135.024 13.351 135.024 13.351H135.027Z" fill="#040000"/>
<path d="M179.42 5.16724V8.89219H177.357V10.9535H179.42V14.4094H181.883V5.16724H179.42Z" fill="#040000"/>
<path d="M174.496 14.5381L175.958 12.6756C173.425 11.7926 171.959 9.61143 171.432 8.69042H175.827V6.49463H171.304V5.09998H168.442V6.49463H163.518V8.69042H167.807C167.43 9.40384 165.944 11.9066 163.05 13.2107L164.513 15.0731C164.513 15.0731 167.933 13.5995 169.624 10.8131C171.356 13.4504 174.493 14.5351 174.493 14.5351L174.496 14.5381Z" fill="#040000"/>
<path d="M179.902 16.0877C178.694 15.1696 177.26 14.7135 175.604 14.7135C173.948 14.7135 172.524 15.1725 171.33 16.0877C170.06 17.0701 169.425 18.3186 169.425 19.8273C169.425 21.336 170.06 22.6049 171.33 23.5902C172.524 24.52 173.948 24.9849 175.604 24.9849C177.26 24.9849 178.694 24.52 179.902 23.5902C181.216 22.5932 181.871 21.3389 181.871 19.8273C181.871 18.3157 181.216 17.0701 179.902 16.0877ZM178.109 21.9704C177.41 22.5493 176.587 22.8388 175.648 22.8388C174.709 22.8388 173.904 22.5493 173.188 21.9704C172.456 21.3798 172.091 20.6635 172.091 19.8273C172.091 18.9911 172.456 18.2864 173.188 17.7075C173.904 17.1432 174.724 16.8567 175.648 16.8567C176.573 16.8567 177.41 17.1403 178.109 17.7075C178.837 18.2864 179.206 18.994 179.206 19.8273C179.206 20.6606 178.84 21.3769 178.109 21.9704Z" fill="#040000"/>
<path d="M51.9132 35.3527V34.7651H54.0314V36.6158C53.7067 36.8761 53.3702 37.069 53.025 37.2006C52.6797 37.3322 52.3257 37.3965 51.96 37.3965C51.4685 37.3965 51.0209 37.2912 50.62 37.0807C50.2192 36.8702 49.9149 36.5661 49.7101 36.1685C49.5053 35.7708 49.4029 35.3264 49.4029 34.8352C49.4029 34.344 49.5053 33.8938 49.7072 33.4727C49.912 33.0517 50.2046 32.7388 50.5849 32.5342C50.9653 32.3295 51.4071 32.2272 51.9044 32.2272C52.2643 32.2272 52.592 32.2857 52.8846 32.4026C53.1771 32.5196 53.4053 32.6833 53.5721 32.8909C53.7389 33.1014 53.8647 33.3733 53.9495 33.7096L53.3527 33.8733C53.2766 33.6189 53.183 33.4201 53.0718 33.2739C52.9606 33.1277 52.8026 33.0108 52.5949 32.923C52.3872 32.8353 52.159 32.7915 51.9044 32.7915C51.6031 32.7915 51.3398 32.8383 51.1203 32.9289C50.9009 33.0225 50.7224 33.1423 50.5879 33.2914C50.4533 33.4406 50.3479 33.6072 50.2719 33.7856C50.1461 34.0955 50.0817 34.4288 50.0817 34.7914C50.0817 35.2358 50.1578 35.61 50.3128 35.9083C50.465 36.2094 50.6903 36.4316 50.9828 36.5778C51.2754 36.724 51.5885 36.7971 51.9161 36.7971C52.2029 36.7971 52.4837 36.7416 52.7558 36.6334C53.0279 36.5223 53.2356 36.4053 53.3761 36.2796V35.3498H51.9044L51.9132 35.3527Z" fill="#040000"/>
<path d="M56.4159 37.3147V35.1978L54.4879 32.3179H55.2924L56.2784 33.8236C56.4598 34.1043 56.6295 34.388 56.7875 34.6686C56.9367 34.4084 57.121 34.1131 57.3346 33.7856L58.303 32.3179H59.0754L57.0801 35.1978V37.3147H56.4188H56.4159Z" fill="#040000"/>
<path d="M59.6781 37.3147V32.3179H63.2943V32.9085H60.3393V34.4406H63.107V35.0253H60.3393V36.727H63.4084V37.3176H59.6752L59.6781 37.3147Z" fill="#040000"/>
<path d="M64.1252 34.8791C64.1252 34.0487 64.3476 33.3996 64.7952 32.9318C65.2399 32.464 65.8163 32.2272 66.5214 32.2272C66.9836 32.2272 67.3991 32.3383 67.7707 32.5576C68.1422 32.7769 68.4231 33.0868 68.6162 33.4786C68.8122 33.8733 68.9088 34.3206 68.9088 34.8206C68.9088 35.3206 68.8064 35.7826 68.6015 36.1802C68.3967 36.5808 68.1071 36.8848 67.7326 37.0895C67.3581 37.2942 66.9514 37.3994 66.5184 37.3994C66.0474 37.3994 65.6261 37.2854 65.2574 37.0573C64.8859 36.8293 64.605 36.5194 64.4148 36.1276C64.2247 35.7328 64.1281 35.3177 64.1281 34.8791H64.1252ZM64.8069 34.8908C64.8069 35.4931 64.9678 35.9667 65.2925 36.3147C65.6173 36.6597 66.024 36.8351 66.5126 36.8351C67.0012 36.8351 67.4196 36.6597 67.7443 36.3118C68.0661 35.9609 68.2271 35.4638 68.2271 34.8206C68.2271 34.4142 68.1568 34.0575 68.0193 33.7563C67.8818 33.4523 67.6799 33.2154 67.4166 33.0488C67.1504 32.8821 66.8549 32.7973 66.5243 32.7973C66.0562 32.7973 65.6524 32.9581 65.316 33.2798C64.9795 33.6014 64.8098 34.1394 64.8098 34.8908H64.8069Z" fill="#040000"/>
<path d="M69.7543 37.3147V32.3179H70.4331L73.0604 36.2416V32.3179H73.6953V37.3147H73.0165L70.3892 33.388V37.3147H69.7543Z" fill="#040000"/>
<path d="M77.1447 35.3527V34.7651H79.263V36.6158C78.9382 36.8761 78.6017 37.069 78.2565 37.2006C77.9113 37.3322 77.5573 37.3965 77.1915 37.3965C76.7 37.3965 76.2524 37.2912 75.8516 37.0807C75.4507 36.8702 75.1465 36.5661 74.9417 36.1685C74.7369 35.7708 74.6345 35.3264 74.6345 34.8352C74.6345 34.344 74.7369 33.8938 74.9387 33.4727C75.1406 33.0517 75.4361 32.7388 75.8164 32.5342C76.1997 32.3295 76.6386 32.2272 77.136 32.2272C77.4987 32.2272 77.8235 32.2857 78.1161 32.4026C78.4086 32.5196 78.6369 32.6833 78.8036 32.8909C78.9704 33.1014 79.0962 33.3733 79.181 33.7096L78.5842 33.8733C78.5081 33.6189 78.4145 33.4201 78.3033 33.2739C78.1921 33.1277 78.0312 33.0108 77.8264 32.923C77.6187 32.8353 77.3905 32.7915 77.1389 32.7915C76.8375 32.7915 76.5742 32.8383 76.3548 32.9289C76.1353 33.0225 75.9569 33.1423 75.8223 33.2914C75.6877 33.4406 75.5824 33.6072 75.5063 33.7856C75.3776 34.0955 75.3161 34.4288 75.3161 34.7914C75.3161 35.2358 75.3922 35.61 75.5473 35.9083C75.6994 36.2094 75.9247 36.4316 76.2173 36.5778C76.5098 36.724 76.8229 36.7971 77.1535 36.7971C77.4402 36.7971 77.7182 36.7416 77.9932 36.6334C78.2653 36.5223 78.473 36.4053 78.6134 36.2796V35.3498H77.1447V35.3527Z" fill="#040000"/>
<path d="M82.5778 35.3527V34.7651H84.696V36.6158C84.3713 36.8761 84.0348 37.069 83.6896 37.2006C83.3443 37.3322 82.9903 37.3965 82.6275 37.3965C82.136 37.3965 81.6884 37.2912 81.2875 37.0807C80.8867 36.8702 80.5824 36.5661 80.3776 36.1685C80.1728 35.7708 80.0704 35.3264 80.0704 34.8352C80.0704 34.344 80.1728 33.8938 80.3747 33.4727C80.5766 33.0517 80.8721 32.7388 81.2524 32.5342C81.6357 32.3295 82.0746 32.2272 82.5719 32.2272C82.9347 32.2272 83.2595 32.2857 83.5521 32.4026C83.8446 32.5196 84.0728 32.6833 84.2396 32.8909C84.4064 33.1014 84.5322 33.3733 84.617 33.7096L84.0202 33.8733C83.9441 33.6189 83.8505 33.4201 83.7393 33.2739C83.6281 33.1277 83.4672 33.0108 83.2624 32.923C83.0547 32.8353 82.8265 32.7915 82.5719 32.7915C82.2706 32.7915 82.0073 32.8383 81.7878 32.9289C81.5684 33.0225 81.3899 33.1423 81.2554 33.2914C81.1208 33.4406 81.0155 33.6072 80.9394 33.7856C80.8136 34.0955 80.7492 34.4288 80.7492 34.7914C80.7492 35.2358 80.8253 35.61 80.9803 35.9083C81.1325 36.2094 81.3578 36.4316 81.6503 36.5778C81.9429 36.724 82.256 36.7971 82.5836 36.7971C82.8704 36.7971 83.1512 36.7416 83.4233 36.6334C83.6954 36.5223 83.9031 36.4053 84.0436 36.2796V35.3498H82.5749L82.5778 35.3527Z" fill="#040000"/>
<path d="M85.7844 37.3147V32.3179H86.4456V37.3147H85.7844Z" fill="#040000"/>
<path d="M87.613 37.3147V32.3179H89.3362C89.7254 32.3179 90.0208 32.3413 90.2286 32.391C90.5153 32.4553 90.7581 32.5752 90.96 32.7477C91.2233 32.9699 91.4223 33.2564 91.551 33.6014C91.6827 33.9494 91.747 34.3441 91.747 34.7885C91.747 35.1686 91.7031 35.5048 91.6154 35.7972C91.5247 36.0896 91.4135 36.3323 91.2731 36.5253C91.1326 36.7182 90.9834 36.8673 90.8166 36.9784C90.6499 37.0896 90.4509 37.1714 90.2198 37.2299C89.9858 37.2854 89.7195 37.3147 89.4152 37.3147H87.61H87.613ZM88.2771 36.7241H89.345C89.6756 36.7241 89.9331 36.6919 90.1203 36.6334C90.3076 36.572 90.4568 36.4872 90.568 36.3732C90.7259 36.2153 90.8459 36.0048 90.9337 35.7387C91.0214 35.4756 91.0653 35.154 91.0653 34.7768C91.0653 34.2535 90.9805 33.8529 90.8079 33.5722C90.6353 33.2915 90.4275 33.1044 90.1818 33.0079C90.0033 32.9406 89.7195 32.9056 89.3245 32.9056H88.2742V36.7241H88.2771Z" fill="#040000"/>
<path d="M92.4579 34.8791C92.4579 34.0487 92.6803 33.3996 93.1279 32.9318C93.5726 32.464 94.149 32.2272 94.8541 32.2272C95.3164 32.2272 95.7318 32.3383 96.1034 32.5576C96.475 32.7769 96.7558 33.0868 96.9519 33.4786C97.1479 33.8733 97.2444 34.3206 97.2444 34.8206C97.2444 35.3206 97.142 35.7826 96.9372 36.1802C96.7324 36.5808 96.4428 36.8848 96.0683 37.0895C95.6909 37.2942 95.2871 37.3994 94.8541 37.3994C94.3831 37.3994 93.9617 37.2854 93.5931 37.0573C93.2215 36.8293 92.9407 36.5194 92.7505 36.1276C92.5603 35.7328 92.4638 35.3177 92.4638 34.8791H92.4579ZM93.1396 34.8908C93.1396 35.4931 93.3005 35.9667 93.6253 36.3147C93.95 36.6597 94.3567 36.8351 94.8453 36.8351C95.3339 36.8351 95.7523 36.6597 96.0742 36.3118C96.396 35.9609 96.5569 35.4638 96.5569 34.8206C96.5569 34.4142 96.4867 34.0575 96.3492 33.7563C96.2116 33.4523 96.0098 33.2154 95.7464 33.0488C95.4802 32.8821 95.1847 32.7973 94.8541 32.7973C94.386 32.7973 93.9822 32.9581 93.6458 33.2798C93.3093 33.6014 93.1396 34.1394 93.1396 34.8908Z" fill="#040000"/>
<path d="M100.919 34.8791C100.919 34.0487 101.142 33.3996 101.586 32.9318C102.031 32.464 102.607 32.2272 103.312 32.2272C103.775 32.2272 104.19 32.3383 104.562 32.5576C104.933 32.7769 105.214 33.0868 105.41 33.4786C105.603 33.8733 105.703 34.3206 105.703 34.8206C105.703 35.3206 105.6 35.7826 105.396 36.1802C105.191 36.5808 104.901 36.8848 104.527 37.0895C104.152 37.2942 103.748 37.3994 103.312 37.3994C102.841 37.3994 102.42 37.2854 102.051 37.0573C101.68 36.8293 101.399 36.5194 101.209 36.1276C101.019 35.7328 100.922 35.3177 100.922 34.8791H100.919ZM101.601 34.8908C101.601 35.4931 101.765 35.9667 102.087 36.3147C102.411 36.6597 102.818 36.8351 103.307 36.8351C103.795 36.8351 104.214 36.6597 104.535 36.3118C104.857 35.9609 105.018 35.4638 105.018 34.8206C105.018 34.4142 104.951 34.0575 104.813 33.7563C104.676 33.4523 104.474 33.2154 104.211 33.0488C103.944 32.8821 103.649 32.7973 103.318 32.7973C102.85 32.7973 102.446 32.9581 102.11 33.2798C101.774 33.6014 101.604 34.1394 101.604 34.8908H101.601Z" fill="#040000"/>
<path d="M106.586 37.3147V32.3179H109.96V32.9085H107.248V34.4552H109.594V35.0458H107.248V37.3147H106.586Z" fill="#040000"/>
<path d="M110.855 37.3147V32.3179H114.228V32.9085H111.516V34.4552H113.863V35.0458H111.516V37.3147H110.855Z" fill="#040000"/>
<path d="M115.2 37.3147V32.3179H115.861V37.3147H115.2Z" fill="#040000"/>
<path d="M120.598 35.5603L121.259 35.727C121.121 36.2708 120.873 36.6831 120.51 36.9696C120.15 37.2532 119.708 37.3965 119.187 37.3965C118.667 37.3965 118.21 37.2854 117.874 37.069C117.534 36.8497 117.277 36.531 117.101 36.1159C116.926 35.7007 116.838 35.2533 116.838 34.7768C116.838 34.2563 116.938 33.8031 117.137 33.4142C117.335 33.0254 117.619 32.733 117.985 32.5313C118.354 32.3295 118.757 32.2301 119.196 32.2301C119.697 32.2301 120.118 32.3558 120.457 32.6102C120.8 32.8646 121.037 33.2213 121.171 33.6832L120.519 33.8353C120.402 33.4698 120.235 33.2067 120.015 33.04C119.793 32.8733 119.518 32.7915 119.182 32.7915C118.798 32.7915 118.477 32.8821 118.219 33.0663C117.962 33.2505 117.78 33.4961 117.675 33.806C117.57 34.116 117.517 34.4376 117.517 34.768C117.517 35.1919 117.578 35.5633 117.704 35.882C117.827 36.1977 118.02 36.4346 118.28 36.5924C118.541 36.7503 118.825 36.8293 119.129 36.8293C119.501 36.8293 119.814 36.7211 120.071 36.5077C120.328 36.2942 120.501 35.9755 120.595 35.5574L120.598 35.5603Z" fill="#040000"/>
<path d="M122.087 37.3147V32.3179H125.703V32.9085H122.748V34.4406H125.516V35.0253H122.748V36.727H125.817V37.3176H122.084L122.087 37.3147Z" fill="#040000"/>
<path d="M129.559 34.8791C129.559 34.0487 129.784 33.3996 130.229 32.9318C130.677 32.464 131.25 32.2272 131.955 32.2272C132.418 32.2272 132.833 32.3383 133.205 32.5576C133.576 32.7769 133.857 33.0868 134.053 33.4786C134.249 33.8733 134.346 34.3206 134.346 34.8206C134.346 35.3206 134.243 35.7826 134.038 36.1802C133.834 36.5808 133.544 36.8848 133.17 37.0895C132.795 37.2942 132.391 37.3994 131.955 37.3994C131.484 37.3994 131.063 37.2854 130.691 37.0573C130.32 36.8293 130.039 36.5194 129.849 36.1276C129.659 35.7328 129.562 35.3177 129.562 34.8791H129.559ZM130.241 34.8908C130.241 35.4931 130.405 35.9667 130.727 36.3147C131.051 36.6597 131.458 36.8351 131.947 36.8351C132.435 36.8351 132.854 36.6597 133.175 36.3118C133.497 35.9609 133.658 35.4638 133.658 34.8206C133.658 34.4142 133.591 34.0575 133.45 33.7563C133.313 33.4523 133.111 33.2154 132.848 33.0488C132.584 32.8821 132.286 32.7973 131.955 32.7973C131.487 32.7973 131.083 32.9581 130.747 33.2798C130.411 33.6014 130.241 34.1394 130.241 34.8908Z" fill="#040000"/>
<path d="M135.229 37.3147V32.3179H138.603V32.9085H135.89V34.4552H138.237V35.0458H135.89V37.3147H135.229Z" fill="#040000"/>
<path d="M142.5 37.3147V32.3179H146.116V32.9085H143.161V34.4406H145.926V35.0253H143.161V36.727H146.23V37.3176H142.5V37.3147Z" fill="#040000"/>
<path d="M147.146 37.3147V32.3179H148.869C149.258 32.3179 149.554 32.3413 149.758 32.391C150.045 32.4553 150.288 32.5752 150.493 32.7477C150.756 32.9699 150.955 33.2564 151.084 33.6014C151.215 33.9494 151.28 34.3441 151.28 34.7885C151.28 35.1686 151.236 35.5048 151.148 35.7972C151.06 36.0896 150.946 36.3323 150.806 36.5253C150.668 36.7182 150.516 36.8673 150.349 36.9784C150.186 37.0896 149.987 37.1714 149.753 37.2299C149.519 37.2854 149.252 37.3147 148.948 37.3147H147.143H147.146ZM147.81 36.7241H148.878C149.208 36.7241 149.466 36.6919 149.653 36.6334C149.84 36.572 149.99 36.4872 150.104 36.3732C150.262 36.2153 150.385 36.0048 150.469 35.7387C150.557 35.4756 150.601 35.154 150.601 34.7768C150.601 34.2535 150.516 33.8529 150.344 33.5722C150.171 33.2915 149.963 33.1044 149.717 33.0079C149.542 32.9406 149.255 32.9056 148.863 32.9056H147.813V36.7241H147.81Z" fill="#040000"/>
<path d="M155.472 32.3149H156.134V35.2037C156.134 35.7066 156.078 36.1042 155.964 36.3995C155.85 36.6948 155.645 36.9346 155.35 37.1217C155.051 37.3059 154.662 37.3995 154.182 37.3995C153.702 37.3995 153.331 37.3176 153.032 37.1568C152.734 36.996 152.523 36.7621 152.395 36.458C152.266 36.1539 152.204 35.7358 152.204 35.2066V32.3179H152.866V35.2008C152.866 35.6364 152.907 35.9551 152.988 36.1598C153.07 36.3644 153.208 36.5253 153.404 36.6364C153.6 36.7475 153.84 36.803 154.124 36.803C154.609 36.803 154.957 36.6919 155.165 36.4726C155.373 36.2504 155.475 35.8294 155.475 35.2008V32.3179L155.472 32.3149Z" fill="#040000"/>
<path d="M160.806 35.5603L161.467 35.727C161.33 36.2708 161.078 36.6831 160.718 36.9696C160.358 37.2532 159.917 37.3965 159.396 37.3965C158.875 37.3965 158.419 37.2854 158.079 37.069C157.743 36.8497 157.485 36.531 157.31 36.1159C157.134 35.7007 157.046 35.2533 157.046 34.7768C157.046 34.2563 157.146 33.8031 157.345 33.4142C157.544 33.0254 157.828 32.733 158.193 32.5313C158.559 32.3295 158.966 32.2301 159.408 32.2301C159.908 32.2301 160.329 32.3558 160.669 32.6102C161.008 32.8646 161.248 33.2213 161.382 33.6832L160.73 33.8353C160.613 33.4698 160.446 33.2067 160.224 33.04C160.004 32.8733 159.726 32.7915 159.39 32.7915C159.007 32.7915 158.685 32.8821 158.427 33.0663C158.17 33.2505 157.989 33.4961 157.883 33.806C157.778 34.116 157.725 34.4376 157.725 34.768C157.725 35.1919 157.787 35.5633 157.91 35.882C158.032 36.1977 158.226 36.4346 158.489 36.5924C158.749 36.7503 159.033 36.8293 159.337 36.8293C159.709 36.8293 160.022 36.7211 160.279 36.5077C160.537 36.2942 160.71 35.9755 160.803 35.5574L160.806 35.5603Z" fill="#040000"/>
<path d="M161.733 37.3147L163.653 32.3179H164.367L166.415 37.3147H165.66L165.078 35.8002H162.986L162.439 37.3147H161.736H161.733ZM163.176 35.2622H164.87L164.349 33.8763C164.191 33.4552 164.071 33.1102 163.995 32.8412C163.934 33.1629 163.843 33.4786 163.726 33.7973L163.176 35.2622Z" fill="#040000"/>
<path d="M167.696 37.3147V32.9056H166.049V32.3149H170.013V32.9056H168.36V37.3147H167.699H167.696Z" fill="#040000"/>
<path d="M170.803 37.3147V32.3179H171.464V37.3147H170.803Z" fill="#040000"/>
<path d="M172.43 34.8791C172.43 34.0487 172.652 33.3996 173.1 32.9318C173.548 32.464 174.121 32.2272 174.826 32.2272C175.288 32.2272 175.704 32.3383 176.075 32.5576C176.444 32.7769 176.728 33.0868 176.924 33.4786C177.117 33.8733 177.216 34.3206 177.216 34.8206C177.216 35.3206 177.114 35.7826 176.909 36.1802C176.704 36.5808 176.415 36.8848 176.04 37.0895C175.666 37.2942 175.259 37.3994 174.826 37.3994C174.355 37.3994 173.937 37.2854 173.565 37.0573C173.194 36.8293 172.913 36.5194 172.723 36.1276C172.532 35.7328 172.436 35.3177 172.436 34.8791H172.43ZM173.112 34.8908C173.112 35.4931 173.273 35.9667 173.597 36.3147C173.922 36.6597 174.329 36.8351 174.817 36.8351C175.306 36.8351 175.724 36.6597 176.046 36.3118C176.368 35.9609 176.529 35.4638 176.529 34.8206C176.529 34.4142 176.462 34.0575 176.324 33.7563C176.187 33.4523 175.985 33.2154 175.718 33.0488C175.452 32.8821 175.157 32.7973 174.826 32.7973C174.358 32.7973 173.954 32.9581 173.618 33.2798C173.281 33.6014 173.112 34.1394 173.112 34.8908Z" fill="#040000"/>
<path d="M178.059 37.3147V32.3179H178.738L181.365 36.2416V32.3179H182V37.3147H181.321L178.694 33.388V37.3147H178.059Z" fill="#040000"/>
<path d="M25.7336 41.9731L1.52588e-05 41.9999L2.52946 27.5766L28.2654 27.5498L25.7336 41.9731Z" fill="#2AB077"/>
<path d="M3.67102 39.2382L5.26625 30.1362L11.0203 30.1313L9.4251 39.2333H7.53228L7.60545 38.8238L3.67346 39.2406L3.67102 39.2382ZM5.9346 37.3564L7.89327 37.1638L8.83968 31.7669H6.91515L5.9346 37.3539V37.3564ZM10.6862 39.5697L12.4009 29.7925H14.4181L12.7034 39.5673H10.6862V39.5697Z" fill="white"/>
<path d="M14.0645 39.2283L15.0377 33.673H17.8159L18.1452 31.7912H15.367L15.6597 30.1263L20.1966 30.1214L19.2965 35.2526H16.5402L16.1792 37.3148L19.3624 36.9516L19.0673 38.6311L14.0645 39.2283ZM19.2795 39.5598L20.9942 29.7826H22.6285L21.9845 33.4561H22.6504L23.2944 29.7802H24.9579L23.2432 39.5574H21.5796L22.348 35.177H21.6821L20.9137 39.5598H19.2795Z" fill="white"/>
<path d="M37.0563 28.1837L11.3228 28.2105L13.8522 13.7847L39.5857 13.7579L37.0563 28.1837Z" fill="#443F97"/>
<path d="M22.6748 23.3402H20.9064L21.2405 21.4413H19.6477L18.9404 23.345H17.3793L17.2085 24.3176L24.1993 24.3103L23.9407 25.7778L15.1084 25.7875L15.6426 22.7454H17.3476L17.8354 21.4437H15.4426L15.7426 19.7349L25.2823 19.7252L24.9823 21.4364H23.0065L22.6724 23.3402H22.6748ZM22.7943 19.3912L23.2407 17.68L16.4987 17.6873L16.789 16.0298L25.5482 16.02L24.6969 19.3888H22.7919L22.7943 19.3912Z" fill="white"/>
<path d="M28.2728 22.1408L33.2463 22.136C34.3708 22.136 35.1025 22.8843 34.9098 23.9812C34.7269 25.027 33.7244 25.8192 32.5999 25.8216L27.6264 25.8265C26.5141 25.8265 25.7994 25.0367 25.9823 23.991C26.175 22.8916 27.1605 22.1433 28.2728 22.1408ZM28.141 18.265H30.5973C31.3974 18.2626 31.9657 19.0012 31.8023 19.9299C31.6389 20.8587 30.812 21.5997 30.0119 21.5997H27.5556C26.7556 21.6021 26.1872 20.8635 26.3507 19.9348C26.5141 19.0061 27.341 18.265 28.141 18.265ZM26.5678 17.9286L26.8019 16.5977H28.685L28.8289 15.7714H30.7632L30.6193 16.5928H32.5121L32.2779 17.9213L26.5678 17.9262V17.9286ZM32.2779 24.3956C32.6414 24.3956 32.8877 24.2372 32.9341 23.9715C32.9828 23.696 32.7902 23.5498 32.4243 23.5498L28.585 23.5546C28.263 23.5546 28.0191 23.7033 27.9703 23.9788C27.924 24.242 28.1142 24.4005 28.4362 24.4005L32.2755 24.3956H32.2779ZM29.7412 20.3029C30.0021 20.3029 30.1778 20.1225 30.2119 19.9324C30.2461 19.7325 30.1314 19.5618 29.8704 19.5643H28.4459C28.1849 19.5643 28.0093 19.7349 27.9752 19.9348C27.941 20.1249 28.0557 20.3053 28.3167 20.3029H29.7412ZM32.0413 20.8806L32.2974 19.4229H33.5975L33.7414 18.599H32.4413L32.6999 17.1316H34L34.2 15.9908H36.1758L35.1391 21.902H33.1633L33.3439 20.8806H32.0438H32.0413Z" fill="white"/>
<path d="M25.9482 14.4233L0.214661 14.4502L2.74411 0.0268101L28.4777 0L25.9482 14.4233Z" fill="#DD3059"/>
<path d="M4.09299 9.60888C5.15892 9.16523 6.53708 8.01225 7.09078 5.02374L7.21029 4.34853H5.16136L5.4687 2.59833L11.4301 2.59101L11.1228 4.34365H9.0836L8.96408 5.02131C8.4616 8.00982 9.43484 9.16037 10.3447 9.60157L9.98122 11.6711C8.80309 11.2713 7.75667 10.3548 7.35664 8.79229C6.41755 10.3548 5.04916 11.2762 3.72955 11.6784L4.09299 9.60888ZM10.6301 12.0197L12.3448 2.24243H14.3205L13.6839 5.87203H14.8377L14.5206 7.67586H13.3668L12.6058 12.0172H10.6301V12.0197Z" fill="white"/>
<path d="M24.3456 7.29576H22.526L22.4138 7.93198H23.7968L23.3602 10.4232L16.6597 10.4305L16.5866 10.8522L23.4431 10.8449L23.2382 12.0077L14.4059 12.0174L14.862 9.41893L21.5723 9.41161L21.6455 8.99965L14.9352 9.00697L15.123 7.9393H16.4865L16.7329 7.30308H14.8084L15.0572 5.88927L24.5969 5.87951L24.3481 7.29332L24.3456 7.29576ZM17.1915 5.49925C16.2231 5.49925 15.5694 4.7826 15.7304 3.86362C15.8938 2.93489 16.8012 2.20603 17.7696 2.2036L23.1578 2.19873C24.1139 2.19873 24.7774 2.92513 24.614 3.85386C24.453 4.77284 23.5358 5.49194 22.5797 5.49194L17.1915 5.49681V5.49925ZM18.0891 3.53454C17.8696 3.53454 17.6793 3.68323 17.6452 3.87337C17.611 4.0635 17.7525 4.2122 17.9696 4.20976L22.287 4.20488C22.5065 4.20488 22.7089 4.05618 22.7407 3.86605C22.7748 3.67591 22.6236 3.52722 22.404 3.52966L18.0867 3.53454H18.0891ZM18.3135 7.93686H20.582L20.6942 7.30064H18.5721L18.3159 7.93686H18.3135Z" fill="white"/>
</svg>
