<svg width="16" height="16" viewBox="0 0 16 16" fill="none" xmlns="http://www.w3.org/2000/svg">
<path fill-rule="evenodd" clip-rule="evenodd" d="M14.6667 7.99997C14.6667 8.14504 14.6076 8.28386 14.5031 8.38441L11.0364 11.7177C10.8241 11.9219 10.4865 11.9153 10.2823 11.703C10.0781 11.4906 10.0848 11.153 10.2971 10.9489L12.8093 8.5333L1.86727 8.5333C1.57272 8.5333 1.33394 8.29452 1.33394 7.99997C1.33394 7.70542 1.57272 7.46663 1.86727 7.46663L12.8093 7.46663L10.2971 5.05108C10.0848 4.84692 10.0781 4.5093 10.2823 4.29698C10.4865 4.08465 10.8241 4.07803 11.0364 4.28219L14.5031 7.61552C14.6076 7.71608 14.6667 7.85489 14.6667 7.99997Z" fill="white"/>
</svg>
