<svg width="20" height="20" viewBox="0 0 20 20" fill="none" xmlns="http://www.w3.org/2000/svg">
<rect x="20" width="20" height="20" rx="10" transform="rotate(90 20 0)" fill="#CDD1D5"/>
<path d="M13.9355 4.93457C14.248 4.62235 14.7541 4.62222 15.0664 4.93457C15.3788 5.24692 15.3786 5.75299 15.0664 6.06543L11.1309 10.001L15.0645 13.9346C15.3769 14.247 15.3769 14.753 15.0645 15.0654C14.752 15.3778 14.246 15.3778 13.9336 15.0654L10 11.1318L6.06641 15.0654C5.75399 15.3778 5.24797 15.3778 4.93555 15.0654C4.62313 14.753 4.62313 14.247 4.93555 13.9346L8.86914 10.001L4.93359 6.06543C4.62137 5.75299 4.62124 5.24692 4.93359 4.93457C5.24595 4.62222 5.75202 4.62235 6.06445 4.93457L10 8.87012L13.9355 4.93457Z" fill="#33363D"/>
</svg>
