<svg width="40" height="40" viewBox="0 0 40 40" fill="none" xmlns="http://www.w3.org/2000/svg">
<path d="M20.1727 8.88272C20.6364 7.67706 20.8682 7.07423 21.203 6.89935C21.4931 6.74779 21.839 6.74779 22.1291 6.89935C22.4638 7.07423 22.6957 7.67706 23.1594 8.88272L24.5563 12.5148C25.0263 13.7368 25.2613 14.3478 25.6268 14.8618C25.9507 15.3173 26.3487 15.7153 26.8042 16.0392C27.3182 16.4047 27.9292 16.6397 29.1512 17.1097L32.7833 18.5066C33.989 18.9704 34.5918 19.2022 34.7667 19.5369C34.9182 19.827 34.9182 20.173 34.7667 20.4631C34.5918 20.7978 33.989 21.0296 32.7833 21.4934L29.1512 22.8903C27.9292 23.3603 27.3182 23.5953 26.8042 23.9608C26.3487 24.2847 25.9507 24.6827 25.6268 25.1382C25.2613 25.6522 25.0263 26.2632 24.5563 27.4852L23.1594 31.1173C22.6957 32.3229 22.4638 32.9258 22.1291 33.1006C21.839 33.2522 21.4931 33.2522 21.203 33.1006C20.8682 32.9258 20.6364 32.3229 20.1727 31.1173L18.7757 27.4852C18.3057 26.2632 18.0707 25.6522 17.7052 25.1382C17.3813 24.6827 16.9833 24.2847 16.5278 23.9608C16.0139 23.5953 15.4028 23.3603 14.1808 22.8903L10.5487 21.4934C9.34307 21.0296 8.74024 20.7978 8.56537 20.4631C8.4138 20.173 8.4138 19.827 8.56537 19.5369C8.74024 19.2022 9.34307 18.9704 10.5487 18.5066L14.1808 17.1097C15.4028 16.6397 16.0139 16.4047 16.5278 16.0392C16.9833 15.7153 17.3813 15.3173 17.7052 14.8618C18.0707 14.3478 18.3057 13.7368 18.7757 12.5148L20.1727 8.88272Z" fill="#D9D9D9"/>
<path d="M20.1727 8.88272C20.6364 7.67706 20.8682 7.07423 21.203 6.89935C21.4931 6.74779 21.839 6.74779 22.1291 6.89935C22.4638 7.07423 22.6957 7.67706 23.1594 8.88272L24.5563 12.5148C25.0263 13.7368 25.2613 14.3478 25.6268 14.8618C25.9507 15.3173 26.3487 15.7153 26.8042 16.0392C27.3182 16.4047 27.9292 16.6397 29.1512 17.1097L32.7833 18.5066C33.989 18.9704 34.5918 19.2022 34.7667 19.5369C34.9182 19.827 34.9182 20.173 34.7667 20.4631C34.5918 20.7978 33.989 21.0296 32.7833 21.4934L29.1512 22.8903C27.9292 23.3603 27.3182 23.5953 26.8042 23.9608C26.3487 24.2847 25.9507 24.6827 25.6268 25.1382C25.2613 25.6522 25.0263 26.2632 24.5563 27.4852L23.1594 31.1173C22.6957 32.3229 22.4638 32.9258 22.1291 33.1006C21.839 33.2522 21.4931 33.2522 21.203 33.1006C20.8682 32.9258 20.6364 32.3229 20.1727 31.1173L18.7757 27.4852C18.3057 26.2632 18.0707 25.6522 17.7052 25.1382C17.3813 24.6827 16.9833 24.2847 16.5278 23.9608C16.0139 23.5953 15.4028 23.3603 14.1808 22.8903L10.5487 21.4934C9.34307 21.0296 8.74024 20.7978 8.56537 20.4631C8.4138 20.173 8.4138 19.827 8.56537 19.5369C8.74024 19.2022 9.34307 18.9704 10.5487 18.5066L14.1808 17.1097C15.4028 16.6397 16.0139 16.4047 16.5278 16.0392C16.9833 15.7153 17.3813 15.3173 17.7052 14.8618C18.0707 14.3478 18.3057 13.7368 18.7757 12.5148L20.1727 8.88272Z" fill="url(#paint0_linear_3190_8560)"/>
<path d="M9.50222 6.29424C9.65679 5.89235 9.73407 5.69141 9.84564 5.63312C9.94235 5.5826 10.0577 5.5826 10.1544 5.63312C10.2659 5.69141 10.3432 5.89235 10.4978 6.29424L10.9634 7.50492C11.1201 7.91227 11.1984 8.11595 11.3203 8.28727C11.4282 8.43911 11.5609 8.57177 11.7127 8.67974C11.8841 8.80156 12.0877 8.87989 12.4951 9.03657L13.7058 9.50222C14.1076 9.65679 14.3086 9.73407 14.3669 9.84565C14.4174 9.94235 14.4174 10.0577 14.3669 10.1544C14.3086 10.2659 14.1076 10.3432 13.7058 10.4978L12.4951 10.9634C12.0877 11.1201 11.8841 11.1984 11.7127 11.3203C11.5609 11.4282 11.4282 11.5609 11.3203 11.7127C11.1984 11.8841 11.1201 12.0877 10.9634 12.4951L10.4978 13.7058C10.3432 14.1076 10.2659 14.3086 10.1544 14.3669C10.0577 14.4174 9.94235 14.4174 9.84565 14.3669C9.73407 14.3086 9.65679 14.1076 9.50222 13.7058L9.03657 12.4951C8.87989 12.0877 8.80156 11.8841 8.67974 11.7127C8.57177 11.5609 8.43911 11.4282 8.28727 11.3203C8.11595 11.1984 7.91227 11.1201 7.50492 10.9634L6.29424 10.4978C5.89235 10.3432 5.69141 10.2659 5.63312 10.1544C5.5826 10.0577 5.5826 9.94235 5.63312 9.84565C5.69141 9.73407 5.89235 9.65679 6.29424 9.50222L7.50492 9.03657C7.91227 8.87989 8.11595 8.80156 8.28727 8.67974C8.43911 8.57177 8.57177 8.43911 8.67974 8.28727C8.80156 8.11595 8.87989 7.91227 9.03657 7.50492L9.50222 6.29424Z" fill="#A6A3FF"/>
<defs>
<linearGradient id="paint0_linear_3190_8560" x1="3.33268" y1="20" x2="36.666" y2="20" gradientUnits="userSpaceOnUse">
<stop stop-color="#52C5FF"/>
<stop offset="0.846154" stop-color="#7D60E9"/>
</linearGradient>
</defs>
</svg>
