<svg width="40" height="40" fill="none" xmlns="http://www.w3.org/2000/svg"><path d="M20.173 8.883c.463-1.206.695-1.809 1.03-1.984a1 1 0 01.926 0c.335.175.567.778 1.03 1.984l1.397 3.632c.47 1.222.705 1.833 1.07 2.347a5 5 0 001.178 1.177c.514.366 1.125.6 2.347 1.07l3.632 1.398c1.206.463 1.809.695 1.984 1.03a1 1 0 010 .926c-.175.335-.778.567-1.984 1.03l-3.632 1.397c-1.222.47-1.833.705-2.347 1.07a5 5 0 00-1.177 1.178c-.366.514-.6 1.125-1.07 2.347l-1.398 3.632c-.463 1.206-.695 1.809-1.03 1.984a1 1 0 01-.926 0c-.335-.175-.567-.778-1.03-1.984l-1.397-3.632c-.47-1.222-.705-1.833-1.07-2.347a5 5 0 00-1.178-1.177c-.514-.366-1.125-.6-2.347-1.07l-3.632-1.398c-1.206-.463-1.809-.695-1.984-1.03a1 1 0 010-.926c.175-.335.778-.567 1.984-1.03l3.632-1.397c1.222-.47 1.833-.705 2.347-1.07a5 5 0 001.177-1.178c.366-.514.6-1.125 1.07-2.347l1.398-3.632z" fill="#D9D9D9"/><path d="M20.173 8.883c.463-1.206.695-1.809 1.03-1.984a1 1 0 01.926 0c.335.175.567.778 1.03 1.984l1.397 3.632c.47 1.222.705 1.833 1.07 2.347a5 5 0 001.178 1.177c.514.366 1.125.6 2.347 1.07l3.632 1.398c1.206.463 1.809.695 1.984 1.03a1 1 0 010 .926c-.175.335-.778.567-1.984 1.03l-3.632 1.397c-1.222.47-1.833.705-2.347 1.07a5 5 0 00-1.177 1.178c-.366.514-.6 1.125-1.07 2.347l-1.398 3.632c-.463 1.206-.695 1.809-1.03 1.984a1 1 0 01-.926 0c-.335-.175-.567-.778-1.03-1.984l-1.397-3.632c-.47-1.222-.705-1.833-1.07-2.347a5 5 0 00-1.178-1.177c-.514-.366-1.125-.6-2.347-1.07l-3.632-1.398c-1.206-.463-1.809-.695-1.984-1.03a1 1 0 010-.926c.175-.335.778-.567 1.984-1.03l3.632-1.397c1.222-.47 1.833-.705 2.347-1.07a5 5 0 001.177-1.178c.366-.514.6-1.125 1.07-2.347l1.398-3.632z" fill="url(#paint0_linear_3190_8560)"/><path d="M9.502 6.294c.155-.402.232-.603.344-.66a.333.333 0 01.308 0c.112.057.19.258.344.66l.465 1.21c.157.408.235.612.357.783.108.152.24.285.393.393.171.122.375.2.782.357l1.21.465c.403.155.604.232.662.344.05.096.05.212 0 .308-.058.112-.26.19-.661.344l-1.21.465c-.408.157-.612.235-.783.357-.152.108-.285.24-.393.393-.122.171-.2.375-.357.782l-.465 1.21c-.155.403-.232.604-.344.662a.334.334 0 01-.308 0c-.112-.058-.19-.26-.344-.661l-.465-1.21c-.157-.408-.235-.612-.357-.783a1.666 1.666 0 00-.393-.393c-.171-.122-.375-.2-.782-.357l-1.21-.465c-.403-.155-.604-.232-.662-.344a.333.333 0 010-.308c.058-.112.26-.19.661-.344l1.21-.465c.408-.157.612-.235.783-.357.152-.108.285-.24.393-.393.122-.171.2-.375.357-.782l.465-1.21z" fill="#A6A3FF"/><defs><linearGradient id="paint0_linear_3190_8560" x1="3.333" y1="20" x2="36.666" y2="20" gradientUnits="userSpaceOnUse"><stop stop-color="#52C5FF"/><stop offset=".846" stop-color="#7D60E9"/></linearGradient></defs></svg>