<svg width="76" height="74" fill="none" xmlns="http://www.w3.org/2000/svg"><path d="M39.693 6.73c18.444 0 33.36 15.052 33.36 33.574s-14.916 33.574-33.36 33.574c-18.443 0-33.359-15.052-33.359-33.574S21.25 6.73 39.694 6.73z" fill="#fff" stroke="#fff" stroke-width="2"/><path d="M72.637 10.847h-.003a.793.793 0 00.033-.133.872.872 0 00-.754-.975.869.869 0 00-.953.63h-.005l-.22.7-7.975 23.553-.444 1.299v.005l-.003.017h-.002a1.44 1.44 0 00-.064.274 1.495 1.495 0 001.293 1.67 1.497 1.497 0 001.654-1.125l.255-.946L72.41 11.6l.228-.753zM5.235 30.877l-2.182-4 4.909-1 1.09 2-3.817 3zm15.068-5l-4.25-5.867L28.27 9.877l4.782 6.4-12.75 9.6z" fill="#000"/><path d="M8.053 21.877l9-15.306 18-3.694-9.53 15.833-17.47 3.167z" fill="#000"/><path d="M72.044 8.748l.187.034c.623.147 1.115.6 1.328 1.178l.377.05-.342 1.127-.228.753-6.952 24.186-.255.947h-.002a2.495 2.495 0 01-2.748 1.855 2.494 2.494 0 01-2.153-2.792c.017-.127.044-.245.076-.356l.006-.039.032-.093.05-.149.201-.605h.006l.186-.545 7.974-23.551.214-.68.253-.8.208.027a1.866 1.866 0 011.406-.562l.176.015zM35.909 3.393l-5.012 8.328 2.956 3.958.597.798-.796.6-12.75 9.599-.813.612-.598-.824-3.614-4.99-1.963.356c-.335 1.525-1.247 2.736-2.28 3.64a11.155 11.155 0 01-2.003 1.383l.298.545.405.743-.665.522-3.818 3-.93.73-.567-1.038-2.181-4-.649-1.188 1.328-.27 4.909-1 .723-.147.188.344a9.165 9.165 0 001.644-1.127c.575-.504 1.05-1.077 1.358-1.73l-3.445.624-2.146.389 1.105-1.88 9-15.306.226-.382.436-.09 18-3.695 2.233-.459-1.176 1.955z" stroke="#fff" stroke-width="2" stroke-linecap="round"/><circle cx="39.553" cy="40.377" r="30.5" fill="#D9D9D9"/><circle cx="39.553" cy="40.377" r="29.5" fill="url(#paint0_linear_24_69)" stroke="url(#paint1_linear_24_69)" stroke-width="2"/><path d="M72.636 10.847h-.002a.784.784 0 00.033-.133.872.872 0 00-.755-.975.869.869 0 00-.953.63h-.004l-.221.7-7.975 23.553-.443 1.299v.005l-.003.017h-.003a1.61 1.61 0 00-.064.274 1.495 1.495 0 001.293 1.67 1.497 1.497 0 001.654-1.125l.256-.946 6.96-24.216.227-.753z" fill="url(#paint2_linear_24_69)"/><path d="M50.988 35.147l-11.896 2.346c-.553.109-.886.677-.65 1.188 1.241 2.698 4.18 6.064 8.185 5.085 3.556-.87 5.151-5.008 5.393-7.753.05-.566-.474-.976-1.032-.866z" fill="#000"/><path d="M5.235 30.877l-2.182-4 4.909-1 1.09 2-3.817 3z" fill="#F8CD3F"/><path d="M7.053 26.877c1.985-.622 6.496-2.8 5.955-7" stroke="#F8CD3F" stroke-width=".938"/><path d="M20.303 25.877l-4.25-5.867L28.27 9.877l4.782 6.4-12.75 9.6z" fill="#212121"/><ellipse cx="39.708" cy="31.549" rx="1.747" ry="2.813" transform="rotate(-9.058 39.708 31.55)" fill="#000"/><ellipse cx="47.096" cy="30.317" rx="1.747" ry="2.813" transform="rotate(-9.058 47.096 30.317)" fill="#000"/><path d="M8.053 21.877l9-15.306 18-3.694-9.53 15.833-17.47 3.167z" fill="url(#paint3_linear_24_69)"/><defs><linearGradient id="paint0_linear_24_69" x1="28.553" y1="14.377" x2="53.553" y2="70.939" gradientUnits="userSpaceOnUse"><stop stop-color="#65D3FF"/><stop offset=".793" stop-color="#99A1FF"/><stop offset=".995" stop-color="#CEA6FF"/></linearGradient><linearGradient id="paint1_linear_24_69" x1="23.053" y1="16.877" x2="57.553" y2="65.377" gradientUnits="userSpaceOnUse"><stop stop-color="#51CBFF"/><stop offset="1" stop-color="#4C60FF"/></linearGradient><linearGradient id="paint2_linear_24_69" x1="73.052" y1="10.377" x2="64.552" y2="37.877" gradientUnits="userSpaceOnUse"><stop stop-color="#FFCE2C"/><stop offset="1" stop-color="#FF56BB"/></linearGradient><linearGradient id="paint3_linear_24_69" x1="17.582" y1="6.571" x2="26.018" y2="18.401" gradientUnits="userSpaceOnUse"><stop stop-color="#403C3C"/><stop offset="1" stop-color="#505050"/></linearGradient></defs></svg>