<svg width="325" height="164" viewBox="0 0 325 164" fill="none" xmlns="http://www.w3.org/2000/svg">
<path d="M258.992 32.6212C258.992 32.6212 244.421 37.0871 235.45 42.51C226.479 47.9328 218.79 50.4848 218.79 50.4848L230.004 62.9255L244.421 64.5205L253.392 57.5027L258.992 32.6212Z" fill="#4B83C4"/>
<path d="M242.973 114.073C242.973 114.073 242.333 118.111 242.012 129.914C241.692 141.717 243.454 217.956 243.454 217.956H262.953C262.953 217.956 269.886 127.681 270.206 123.215C270.527 118.749 274.051 100.886 274.051 100.886C274.051 100.886 260.274 100.567 256.75 100.886C253.226 101.205 245.536 107.476 242.973 114.073Z" fill="#624B51"/>
<path d="M297.183 113.435C297.183 113.435 298.574 121.41 298.894 133.213C299.214 145.015 297.356 217.956 297.356 217.956H277.858L271.129 140.014C271.129 140.014 268.611 131.828 267.97 130.233C267.33 128.638 263.805 109.18 265.407 109.18C267.009 109.18 293.729 103.967 297.183 113.435Z" fill="#624B51"/>
<path d="M237.636 62.6066C237.636 62.6066 240.628 93.4405 240.84 97.4853C241.051 101.524 242.121 113.646 242.973 114.073C243.826 114.5 262.985 115.349 274.161 114.921C282.914 114.59 297.229 112.58 297.658 111.732C297.658 111.732 297.229 71.7489 297.658 63.672C298.088 55.5887 293.813 47.7223 293.813 47.7223L271.386 37.5145L262.844 31.7726L259 32.6212C259 32.6212 241.058 37.9356 235.079 47.2949L237.642 62.6066H237.636Z" fill="#4B83C4"/>
<path d="M239.077 77.6631C238.956 76.3552 238.834 75.0664 238.712 73.8288C251.079 74.001 264.215 74.001 277.493 73.6182C284.426 73.4204 291.058 73.127 297.485 72.7378C297.479 73.95 297.472 75.2387 297.466 76.5721C291.071 76.9549 284.471 77.2484 277.569 77.4461C264.388 77.8225 251.355 77.8289 239.071 77.6567L239.077 77.6631Z" fill="#BBEDFF"/>
<path d="M276.531 85.7464C283.811 85.5358 290.75 85.2232 297.472 84.8085C297.472 86.0845 297.479 87.3669 297.485 88.6428C290.782 89.0575 283.862 89.3701 276.615 89.5807C264.177 89.9379 251.874 89.9571 240.205 89.8231C240.096 88.6173 239.981 87.3286 239.853 85.9888C251.598 86.1292 264.004 86.11 276.531 85.7528V85.7464Z" fill="#BBEDFF"/>
<path d="M275.846 33.0486C275.846 33.0486 286.553 34.5352 299.368 42.6185C312.184 50.7017 314.318 51.9777 314.318 51.9777L314.958 72.1828C314.958 72.1828 313.036 78.9901 308.762 77.9246C304.488 76.8592 297.228 72.1828 297.228 72.1828L272.449 60.2715L275.839 33.0486H275.846Z" fill="#4B83C4"/>
<path d="M307.36 18.2218C307.36 18.2218 304.348 14.0876 302.554 12.1673C300.76 10.2533 303.054 9.45585 304.854 10.7382C306.648 12.0206 308.43 13.2008 308.5 12.3523C308.571 11.4974 306.597 2.76974 307.814 2.46989C309.032 2.16366 311.332 9.67914 311.678 9.20065C312.024 8.72216 311.935 -0.101199 313.223 0.000878836C314.511 0.102957 314.562 8.72216 314.953 8.55628C315.35 8.38403 316.99 1.06632 318.413 1.35979C319.835 1.65327 318.105 9.09219 318.586 9.43671C319.066 9.78122 320.963 4.62628 322.245 5.36635C323.533 6.10003 321.277 16.7799 319.919 20.0592C319.919 20.0592 309 19.8487 308.468 19.8295C307.936 19.8104 307.36 18.2218 307.36 18.2218Z" fill="#FCA68F"/>
<path d="M312.876 15.7655C312.748 15.7655 312.627 15.7145 312.53 15.6188C311.313 14.3556 308.763 13.6602 308.737 13.6538C308.481 13.5836 308.327 13.322 308.397 13.0668C308.468 12.8117 308.724 12.6585 308.987 12.7287C309.102 12.7606 311.819 13.5007 313.223 14.9553C313.408 15.1467 313.402 15.4465 313.21 15.6316C313.114 15.7209 312.998 15.7655 312.876 15.7655Z" fill="#F96557"/>
<path d="M302.727 65.318C302.502 69.7839 304.969 79.3537 312.819 79.0347C320.668 78.7157 323.872 70.7409 324.833 61.0116C325.795 51.2823 322.27 18.2664 322.27 18.2664L307.052 18.7449L305.13 55.4292C305.13 55.4292 302.848 62.9255 302.727 65.318Z" fill="#4B83C4"/>
<path d="M14.3665 120.874C14.3665 120.874 24.1895 126.826 31.238 126.188C38.2865 125.55 37.8572 122.36 37.8572 122.36L36.3642 106.838L30.8087 104.076L20.7678 115.132L14.36 120.874H14.3665Z" fill="#2C4263"/>
<path d="M76.7336 104.822C77.3744 105.779 79.6171 112.797 80.8986 118.539C82.1802 124.281 89.9784 217.854 89.9784 217.854L70.7552 218.92C70.7552 218.92 51.4231 120.14 50.1415 115.993C48.86 111.846 50.1415 106.104 50.1415 106.104L65.1997 99.7246L76.7336 104.829V104.822Z" fill="#304F76"/>
<path d="M78.8679 126.246C78.791 126.246 78.7141 126.227 78.6372 126.188C78.4193 126.074 73.3059 123.247 71.563 116.529C71.499 116.274 71.6528 116.012 71.9091 115.949C72.159 115.885 72.4281 116.038 72.4922 116.293C74.1261 122.59 79.0409 125.321 79.0921 125.353C79.3228 125.48 79.4125 125.767 79.2844 126.003C79.1947 126.163 79.0345 126.252 78.8614 126.252L78.8679 126.246Z" fill="#333046"/>
<path d="M56.5488 123.005C56.5488 123.005 52.0634 131.618 51.743 132.894C51.4226 134.17 55.7991 218.065 55.7991 218.065L36.7873 217.318C36.7873 217.318 30.5911 165.75 27.3872 146.929C24.1833 128.109 24.5037 115.987 27.7076 109.288C30.9114 102.589 46.29 89.8294 46.29 89.8294L61.0278 98.7612L59.6373 107.266L56.5424 123.005H56.5488Z" fill="#304F76"/>
<path d="M109.562 36.6596C109.562 36.6596 107.159 37.4571 105.076 29.8013C102.994 22.1454 102.032 12.7351 103.634 12.7351C105.236 12.7351 108.12 23.5809 108.6 23.1024C109.081 22.6239 109.305 11.0955 110.523 10.6616C112.765 9.86416 113.086 22.3049 113.086 22.3049C113.086 22.3049 118.693 22.6239 119.173 27.2493C119.173 27.2493 122.697 38.7331 109.562 36.6596Z" fill="#FCA68F"/>
<path d="M110.202 31.7152C110.113 31.7152 110.016 31.6897 109.933 31.6323C109.715 31.4855 109.651 31.1857 109.799 30.9688C109.908 30.7582 109.876 29.7247 109.722 28.755C109.683 28.4934 109.856 28.2509 110.119 28.2127C111.779 27.9383 112.528 27.0707 112.676 26.4072C112.74 26.1009 112.676 25.8521 112.496 25.7309C112.048 25.431 109.799 26.0116 107.972 26.7325C107.729 26.8346 107.447 26.7134 107.351 26.4646C107.255 26.2222 107.37 25.9414 107.62 25.8457C108.613 25.4502 111.945 24.2125 113.028 24.9334C113.541 25.2715 113.765 25.9095 113.611 26.6049C113.419 27.4854 112.554 28.6146 110.734 29.0612C110.83 29.8459 110.907 31.0326 110.6 31.4983C110.51 31.6387 110.356 31.7088 110.202 31.7088V31.7152Z" fill="#F96557"/>
<path d="M62.9573 32.8636C62.9573 32.8636 77.375 36.4491 83.7828 43.0459C90.1907 49.6363 83.9943 62.1855 83.9943 62.8235C83.9943 63.4615 80.1496 112.376 80.1496 112.376C80.1496 112.376 31.7702 112.905 26.4324 112.695C26.4324 112.695 27.3936 99.2972 27.3936 94.8313C27.3936 90.3654 33.9425 39.4604 33.9425 39.4604C33.9425 39.4604 45.765 33.9035 55.3768 32.8381L62.9573 32.8636Z" fill="#FFEC98"/>
<path d="M87.6274 45.1703C87.6274 45.1703 93.6315 52.0032 100.135 61.6623L105.569 33.4697L118.173 36.8701C118.173 36.8701 116.68 59.6271 115.61 69.4075C114.54 79.1878 111.125 89.6125 102.795 90.4611C94.4645 91.3096 88.0568 84.2917 84.8529 80.2533C81.649 76.2148 85.7051 44.3154 87.6274 45.164V45.1703Z" fill="#00A1BD"/>
<path d="M66.9873 7.83537L67.0642 4.19246C67.0642 4.19246 64.9048 0.415579 59.0546 0.0965855C53.2107 -0.222408 48.2383 2.25298 45.9956 6.0809C43.7529 9.90883 44.3168 16.8501 45.1947 19.3191C46.0725 21.7881 66.5772 7.75881 66.5772 7.75881" fill="#3D302A"/>
<path d="M67.0646 4.19245C67.0646 4.19245 69.4162 5.25789 70.4799 8.65836C71.55 12.0588 70.9156 17.3031 69.8968 19.0958C68.8779 20.8886 63.5403 15.2551 63.5403 15.2551L61.1887 6.43178C61.1887 6.43178 65.5651 3.87984 67.0646 4.19883V4.19245Z" fill="#3D302A"/>
<path d="M51.9164 33.8461V26.2795H63.7066V33.8461L58.087 36.6341L51.9164 33.8461Z" fill="#FCA68F"/>
<path d="M70.0438 17.1245C70.0438 17.1245 70.5308 14.8851 69.4543 10.2087C68.3778 5.53224 63.0914 1.92762 58.0998 2.02332H57.5103C52.5187 1.92762 47.2323 5.53224 46.1558 10.2087C45.0793 14.8851 45.5663 17.1245 45.5663 17.1245" fill="#3D302A"/>
<path d="M45.72 19.0958C45.72 25.5395 51.1346 25.4183 57.8114 25.4183C64.4883 25.4183 69.9028 25.5395 69.9028 19.0958V15.1084C69.9028 8.66475 64.4883 3.44601 57.8114 3.44601C51.1346 3.44601 45.72 8.66475 45.72 15.1084V19.0958Z" fill="#3D302A"/>
<path d="M46.1878 16.5694H46.7069V16.4928C46.7069 10.5787 51.6729 5.78741 57.8051 5.78741C63.9372 5.78741 68.9032 10.5787 68.9032 16.4928V16.5694H69.4223C71.3061 16.5694 72.8312 18.0623 72.8312 19.8997C72.8312 21.7371 71.3061 23.23 69.4223 23.23H68.4227C67.045 27.5364 62.8095 30.4903 57.8051 30.4903C52.8006 30.4903 48.5651 27.5364 47.1874 23.23H46.1878C44.304 23.23 42.7789 21.7371 42.7789 19.8997C42.7789 18.0623 44.304 16.5694 46.1878 16.5694Z" fill="#FCA68F"/>
<path d="M59.5804 21.0353C59.3305 21.0353 59.1254 20.8503 59.0998 20.5951C59.0421 19.8933 58.3821 19.8423 58.254 19.8423C57.9912 19.8423 57.7798 19.6254 57.7798 19.3638V18.3685C57.7798 18.107 57.9976 17.89 58.2604 17.89C58.5231 17.89 58.7409 18.107 58.7409 18.3685V18.9491C59.3112 19.0958 59.9776 19.5297 60.0609 20.5122C60.0866 20.7737 59.8879 21.0098 59.6252 21.0289C59.6124 21.0289 59.5996 21.0289 59.5868 21.0289L59.5804 21.0353Z" fill="#3D302A"/>
<path d="M61.1118 18.1516C61.1118 18.7258 61.5795 19.1916 62.1562 19.1916C62.7329 19.1916 63.2007 18.7258 63.2007 18.1516C63.2007 17.5775 62.7329 17.1117 62.1562 17.1117C61.5795 17.1117 61.1118 17.5775 61.1118 18.1516Z" fill="#3D302A"/>
<path d="M53.2748 18.1516C53.2748 18.7258 53.7425 19.1916 54.3192 19.1916C54.8959 19.1916 55.3637 18.7258 55.3637 18.1516C55.3637 17.5775 54.8959 17.1117 54.3192 17.1117C53.7425 17.1117 53.2748 17.5775 53.2748 18.1516Z" fill="#3D302A"/>
<path d="M62.3422 22.2985C62.3422 23.5617 63.3738 24.5889 64.6425 24.5889C65.9113 24.5889 66.9429 23.5617 66.9429 22.2985C66.9429 21.0353 65.9177 20.0081 64.6425 20.0081C63.3674 20.0081 62.3422 21.0353 62.3422 22.2985Z" fill="#F78A73"/>
<path d="M49.5327 22.2985C49.5327 23.5617 50.5643 24.5889 51.833 24.5889C53.1018 24.5889 54.1334 23.5617 54.1334 22.2985C54.1334 21.0353 53.1018 20.0081 51.833 20.0081C50.5643 20.0081 49.5327 21.0353 49.5327 22.2985Z" fill="#F78A73"/>
<path d="M45.8546 21.7945C44.7653 21.7945 43.881 20.9141 43.881 19.8295C43.881 18.745 44.7653 17.8645 45.8546 17.8645C46.1173 17.8645 46.3352 18.0814 46.3352 18.343C46.3352 18.6046 46.1173 18.8215 45.8546 18.8215C45.2971 18.8215 44.8422 19.2745 44.8422 19.8295C44.8422 20.3846 45.2971 20.8376 45.8546 20.8376C46.1173 20.8376 46.3352 21.0545 46.3352 21.316C46.3352 21.5776 46.1173 21.7945 45.8546 21.7945Z" fill="#3D302A"/>
<path d="M69.7624 21.7945C69.4997 21.7945 69.2819 21.5776 69.2819 21.316C69.2819 21.0545 69.4997 20.8376 69.7624 20.8376C70.3199 20.8376 70.7749 20.3846 70.7749 19.8295C70.7749 19.2745 70.3199 18.8215 69.7624 18.8215C69.4997 18.8215 69.2819 18.6046 69.2819 18.343C69.2819 18.0814 69.4997 17.8645 69.7624 17.8645C70.8518 17.8645 71.736 18.745 71.736 19.8295C71.736 20.9141 70.8518 21.7945 69.7624 21.7945Z" fill="#3D302A"/>
<path d="M58.2346 24.8633C57.3504 24.8633 56.5366 24.4613 56.0047 23.7532C55.8445 23.5426 55.8894 23.2428 56.1009 23.0833C56.3123 22.9238 56.6135 22.9684 56.7737 23.179C57.1261 23.6447 57.6579 23.9063 58.2346 23.9063C58.8113 23.9063 59.3496 23.6383 59.6956 23.179C59.8558 22.9684 60.1569 22.9238 60.3684 23.0833C60.5799 23.2428 60.6247 23.5426 60.4645 23.7532C59.9263 24.4549 59.1189 24.8633 58.2346 24.8633Z" fill="#3D302A"/>
<path d="M65.6801 7.0634C65.6801 7.0634 65.648 7.19737 65.5711 7.41429C65.2379 8.34575 64.0717 10.8403 60.8743 11.5293C60.8743 11.5293 60.5539 10.3618 60.9832 8.8689C60.9832 8.8689 56.9271 13.2263 47.3155 13.1243C47.3155 13.1243 46.9951 11.1019 47.527 10.4639C48.0588 9.82588 55.0048 4.51145 55.6456 4.40299C56.2863 4.29453 62.4826 2.59749 65.6865 7.0634H65.6801Z" fill="#3D302A"/>
<path d="M66.9622 33.9801C66.9622 33.9801 69.2561 58.1471 69.2561 71.9659C69.2561 85.7847 71.6078 114.711 73.3122 118.966C75.0231 123.222 87.1593 116.421 88.4601 115.247C89.7609 114.073 88.4793 87.2775 88.2615 78.1352C88.05 68.9928 88.9022 47.5118 87.6207 45.1704C86.3391 42.829 78.3295 36.5321 66.9557 33.9801H66.9622Z" fill="#00A1BD"/>
<path d="M26.7526 89.8294C27.4703 87.6539 27.6048 62.396 27.3934 60.482C27.1819 58.5681 21.8379 48.1498 21.8379 48.1498C21.8379 48.1498 24.401 43.8944 33.8011 38.5799C43.2012 33.2655 50.0319 33.476 50.0319 33.476C50.0319 33.476 51.3134 46.2358 50.0319 63.034C48.7503 79.8322 26.2208 98.857 23.6 118.909C23.6 118.909 18.634 120.67 14.36 120.88C14.36 120.88 21.1971 106.634 26.7462 89.8294H26.7526Z" fill="#00A1BD"/>
<path d="M65.629 34.5351V30.9177C65.629 30.9177 53.5056 31.3452 50.3658 31.4473L50.2504 35.2752L54.1784 38.1461L59.6762 38.8926L65.629 34.5351Z" fill="#FFEC98"/>
<path d="M34.8714 112.58C34.8714 112.58 27.714 121.62 26.7528 122.679L25.9006 118.105L26.7528 115.445C26.7528 115.445 34.551 112.357 34.8714 112.574V112.58Z" fill="#FCA68F"/>
<path d="M53.6658 127.949C53.6082 127.949 53.5505 127.936 53.4928 127.917C53.2429 127.822 53.1212 127.547 53.2173 127.298L55.7804 120.708C55.8765 120.459 56.152 120.338 56.4019 120.434C56.6518 120.529 56.7736 120.804 56.6775 121.053L54.1144 127.643C54.0375 127.834 53.8581 127.949 53.6658 127.949Z" fill="#333046"/>
<path d="M38.5369 79.2006L48.6357 106.187L10.2654 121.142L0 95.7819L38.5369 79.2006Z" fill="#3D3F52"/>
<path d="M29.7446 41.8719C20.5624 44.6344 4.11372 74.0903 0.698396 81.3187C0.698396 81.3187 -0.794604 86.85 3.05003 93.2299C6.89467 99.6098 26.1179 119.177 26.1179 119.177L34.8772 112.586C34.8772 112.586 18.3901 88.1005 18.0057 87.067C17.6212 86.0334 35.3065 64.5269 35.9473 64.31L33.8135 46.6569L29.7574 41.8719H29.7446Z" fill="#00A1BD"/>
<path d="M36.6849 87.8071C36.6849 87.8071 43.0926 102.959 42.6121 103.597C42.1315 104.235 37.8063 105.352 37.8063 105.352C37.8063 105.352 32.0393 90.359 32.0393 89.402C32.0393 88.4451 36.2043 87.4881 36.6849 87.8071Z" fill="#B2E5FF"/>
<path d="M88.2682 83.2901C88.0055 83.2901 87.7877 83.0732 87.7877 82.8116C87.7877 80.2852 87.9991 71.1938 87.9991 71.1045C87.9991 70.843 88.2362 70.6516 88.4925 70.6388C88.7552 70.6388 88.9667 70.8621 88.9603 71.13C88.9603 71.2194 88.7488 80.2979 88.7488 82.818C88.7488 83.0795 88.531 83.2965 88.2682 83.2965V83.2901Z" fill="#2D6486"/>
<path d="M101.084 65.637C100.873 65.637 100.68 65.4967 100.623 65.2861L99.6743 61.79C99.6039 61.5348 99.7576 61.2732 100.014 61.203C100.27 61.1328 100.533 61.286 100.603 61.5412L101.552 65.0373C101.622 65.2925 101.469 65.5541 101.212 65.6243C101.167 65.637 101.129 65.6434 101.084 65.6434V65.637Z" fill="#2D6486"/>
<path d="M14.1485 88.8151C13.9243 88.8151 13.7256 88.662 13.6808 88.4387C13.6231 88.1771 13.7897 87.9283 14.0524 87.8709L17.0448 87.2329C17.3011 87.1818 17.5575 87.3413 17.6151 87.6029C17.6728 87.8581 17.5062 88.1133 17.2435 88.1707L14.2511 88.8087C14.219 88.8151 14.1806 88.8215 14.1485 88.8215V88.8151Z" fill="#2D6486"/>
<path d="M63.2777 35.4921H63.2713C63.0086 35.4921 62.7971 35.2688 62.7971 35.0072L62.8484 31.4983C62.8484 31.2367 63.0662 31.0262 63.329 31.0262H63.3354C63.5981 31.0262 63.8095 31.2495 63.8095 31.5111L63.7583 35.02C63.7583 35.2816 63.5404 35.4921 63.2777 35.4921Z" fill="#D08679"/>
<path d="M59.3816 35.4921C59.1189 35.4921 58.9011 35.2752 58.9011 35.0136V31.7152C58.9011 31.4537 59.1189 31.2368 59.3816 31.2368C59.6444 31.2368 59.8622 31.4537 59.8622 31.7152V35.0136C59.8622 35.2752 59.6444 35.4921 59.3816 35.4921Z" fill="#D08679"/>
<path d="M55.5369 35.5431C55.2806 35.5431 55.0627 35.339 55.0563 35.0774L54.9474 31.728C54.941 31.4664 55.1461 31.2431 55.4152 31.2367C55.6715 31.2112 55.9022 31.4345 55.9086 31.7025L56.0175 35.0519C56.0239 35.3135 55.8189 35.5368 55.5497 35.5431H55.5369Z" fill="#D08679"/>
<path d="M52.1152 35.8621C51.8589 35.8621 51.641 35.658 51.6346 35.3964L51.5257 31.9385C51.5193 31.6769 51.7243 31.4536 51.9934 31.4472C52.2433 31.4217 52.4804 31.645 52.4868 31.913L52.5957 35.3709C52.6022 35.6324 52.3971 35.8557 52.128 35.8621H52.1152Z" fill="#D08679"/>
<path d="M27.3936 126.035C27.3103 126.035 27.227 126.016 27.1501 125.965C26.9194 125.831 26.8489 125.538 26.9835 125.308C28.2714 123.177 35.0636 114.966 35.3584 114.615C35.525 114.411 35.8326 114.386 36.0376 114.551C36.2427 114.717 36.2683 115.024 36.1017 115.228C36.0312 115.311 29.0596 123.732 27.8165 125.799C27.7268 125.946 27.5666 126.029 27.4064 126.029L27.3936 126.035Z" fill="#333046"/>
<path d="M207.307 122.577C206.666 125.767 204.955 218.275 204.955 218.275H187.013C187.013 218.275 183.598 126.405 183.38 121.512C183.169 116.619 184.232 111.304 184.232 111.304C185.085 110.877 195.555 107.266 200.04 106.838C204.526 106.411 229.369 111.304 229.369 111.304C229.369 111.304 230.439 116.619 230.221 121.512C230.009 126.405 226.588 218.275 226.588 218.275H208.646C208.646 218.275 206.935 125.767 206.294 122.577" fill="#575D7D"/>
<path d="M226.986 110.845C227.479 110.94 227.902 111.023 228.254 111.087C227.883 115.796 227.441 121.563 227.325 123.885C227.133 127.688 224.519 203.27 223.993 218.275H222.712C223.224 203.366 225.852 127.637 226.044 123.821C226.166 121.461 226.614 115.585 226.986 110.845Z" fill="#DBEEFF"/>
<path d="M213.702 36.3981C213.702 36.3981 226.492 43.6265 225.55 55.4101C225.55 55.4101 211.818 52.4626 210.876 41.6232L210.338 37.0743L213.702 36.4045V36.3981Z" fill="#3D302A"/>
<path d="M208.153 22.1263C208.153 25.7692 205.186 28.7167 201.534 28.7167C197.881 28.7167 194.914 25.7628 194.914 22.1263C194.914 18.4897 197.875 15.5359 201.534 15.5359C205.192 15.5359 208.153 18.4897 208.153 22.1263Z" fill="#3D302A"/>
<path d="M211.574 43.9455V37.5209H202.392V43.9455L207.038 49.2025L211.574 43.9455Z" fill="#FCA68F"/>
<path d="M218.642 29.5588V26.4263C218.072 20.6972 213.067 16.2185 206.98 16.2185C200.893 16.2185 195.888 20.6972 195.318 26.4263V29.2079L218.642 29.5588Z" fill="#3D302A"/>
<path d="M218.642 28.7933V31.5749C218.072 37.304 213.067 41.7827 206.98 41.7827C200.893 41.7827 195.895 37.304 195.318 31.5749V28.4424L218.642 28.7933Z" fill="#3D302A"/>
<path d="M218.008 27.6768H217.463C216.951 22.5282 212.452 18.5025 206.98 18.5025C201.508 18.5025 197.016 22.5282 196.497 27.6768H195.952C194.165 27.6768 192.717 29.0931 192.717 30.8348C192.717 32.5765 194.165 33.9928 195.952 33.9928H196.625C197.535 38.7139 201.822 41.9422 206.974 41.9422C212.126 41.9422 216.419 38.7139 217.322 33.9928H217.995C219.783 33.9928 221.231 32.5765 221.231 30.8348C221.231 29.0931 219.783 27.6768 217.995 27.6768H218.008Z" fill="#FCA68F"/>
<path d="M206.179 33.1889C206.058 33.1889 205.936 33.1443 205.84 33.0486C205.654 32.8636 205.654 32.5573 205.84 32.3723L206.481 31.7343V30.9879C206.481 30.7263 206.698 30.5094 206.961 30.5094C207.224 30.5094 207.442 30.7263 207.442 30.9879V31.9321C207.442 32.0597 207.39 32.1809 207.301 32.2702L206.519 33.0486C206.423 33.1443 206.301 33.1889 206.179 33.1889Z" fill="#3D302A"/>
<path d="M204.257 30.7837C204.257 31.3324 203.808 31.7726 203.264 31.7726C202.719 31.7726 202.271 31.3324 202.271 30.7837C202.271 30.2351 202.719 29.7949 203.264 29.7949C203.808 29.7949 204.257 30.2351 204.257 30.7837Z" fill="#3D302A"/>
<path d="M211.69 30.7837C211.69 31.3324 211.248 31.7726 210.703 31.7726C210.159 31.7726 209.71 31.3324 209.71 30.7837C209.71 30.2351 210.152 29.7949 210.703 29.7949C211.254 29.7949 211.69 30.2351 211.69 30.7837Z" fill="#3D302A"/>
<path d="M203.091 34.3629C203.091 35.5623 202.11 36.5384 200.906 36.5384C199.701 36.5384 198.721 35.5623 198.721 34.3629C198.721 33.1635 199.694 32.1874 200.906 32.1874C202.117 32.1874 203.091 33.1635 203.091 34.3629Z" fill="#F78A73"/>
<path d="M215.24 34.3629C215.24 35.5623 214.266 36.5384 213.061 36.5384C211.857 36.5384 210.876 35.5623 210.876 34.3629C210.876 33.1635 211.857 32.1874 213.061 32.1874C214.266 32.1874 215.24 33.1635 215.24 34.3629Z" fill="#F78A73"/>
<path d="M206.98 36.5575C206.199 36.5575 205.481 36.2002 205.007 35.5814C204.847 35.3709 204.885 35.071 205.097 34.9115C205.308 34.752 205.609 34.7967 205.769 35.0008C206.058 35.3836 206.5 35.6005 206.974 35.6005C207.448 35.6005 207.89 35.3836 208.179 35.0008C208.339 34.7903 208.64 34.752 208.851 34.9115C209.063 35.071 209.101 35.3709 208.941 35.5814C208.467 36.2002 207.749 36.5575 206.968 36.5575H206.98Z" fill="#3D302A"/>
<path d="M195.677 32.8764C194.588 32.8764 193.703 31.996 193.703 30.9114C193.703 29.8268 194.588 28.9464 195.677 28.9464C195.94 28.9464 196.157 29.1633 196.157 29.4249C196.157 29.6865 195.94 29.9034 195.677 29.9034C195.119 29.9034 194.664 30.3564 194.664 30.9114C194.664 31.4665 195.119 31.9194 195.677 31.9194C195.94 31.9194 196.157 32.1363 196.157 32.3979C196.157 32.6595 195.94 32.8764 195.677 32.8764Z" fill="#3D302A"/>
<path d="M218.29 32.8764C218.028 32.8764 217.81 32.6595 217.81 32.3979C217.81 32.1363 218.028 31.9194 218.29 31.9194C218.848 31.9194 219.303 31.4665 219.303 30.9114C219.303 30.3564 218.848 29.9034 218.29 29.9034C218.028 29.9034 217.81 29.6865 217.81 29.4249C217.81 29.1633 218.028 28.9464 218.29 28.9464C219.38 28.9464 220.264 29.8268 220.264 30.9114C220.264 31.996 219.38 32.8764 218.29 32.8764Z" fill="#3D302A"/>
<path d="M196.138 24.7803L196.503 27.6768C196.503 27.6768 201.482 26.6943 206.929 19.6764C206.929 19.6764 207.82 26.4199 217.47 27.6768L217.822 26.5922C217.822 26.5922 214.189 17.6604 208.96 17.5519C203.725 17.4435 198.278 18.6173 196.145 24.7803H196.138Z" fill="#3D302A"/>
<path d="M213.606 44.1049C213.606 44.1049 224.711 45.5914 229.837 49.6363C234.964 53.6747 232.189 56.8647 232.189 56.8647L230.696 103.227C230.696 103.227 232.407 106.845 231.337 108.121C231.337 108.121 229.741 109.397 229.741 110.035C229.741 110.672 229.312 113.652 229.312 113.652C226.108 113.862 184.245 113.862 183.387 113.652C182.534 113.441 182.746 109.397 182.746 109.397L181.676 108.121C180.606 106.845 182.317 103.227 182.317 103.227L180.823 56.8647C180.823 56.8647 178.049 53.6747 183.175 49.6363C188.301 45.5978 199.406 44.1049 199.406 44.1049" fill="#575D7D"/>
<path d="M199.618 46.2294L199.4 42.191H214.778L214.567 47.7223L207.038 49.2025L199.618 46.2294Z" fill="#575D75"/>
<path d="M195.343 44.9534C195.343 44.9534 185.943 46.4399 179.753 51.7608C173.557 57.0752 166.726 61.3306 166.726 61.3306L169.719 82.5947C169.719 82.5947 178.689 79.6153 182.746 77.7013L192.786 67.283C192.786 67.283 195.99 51.1228 195.99 50.4848C195.99 49.8468 195.35 44.9534 195.35 44.9534H195.343Z" fill="#575D7D"/>
<path d="M205.327 80.4701C205.109 80.4701 204.917 80.3234 204.859 80.1065C202.001 68.7312 198.317 44.577 198.285 44.3346C198.246 44.073 198.426 43.8306 198.689 43.7923C198.951 43.754 199.195 43.9326 199.233 44.1942C199.272 44.4366 202.95 68.5462 205.795 79.8768C205.859 80.132 205.705 80.3936 205.442 80.4574C205.404 80.4701 205.365 80.4701 205.327 80.4701Z" fill="#3D302A"/>
<path d="M208.858 80.4701C208.819 80.4701 208.781 80.4701 208.743 80.4574C208.486 80.3936 208.326 80.132 208.396 79.8768C211.242 68.5462 214.92 44.4366 214.958 44.1942C214.996 43.9326 215.24 43.754 215.503 43.7923C215.765 43.8306 215.945 44.073 215.906 44.3346C215.868 44.577 212.183 68.7312 209.332 80.1065C209.274 80.3234 209.082 80.4701 208.864 80.4701H208.858Z" fill="#3D302A"/>
<path d="M207.884 108.688C207.884 108.688 206.833 107.776 206.833 106.417C206.833 104.739 207.679 46.8291 207.685 46.2231L207.628 42.191H206.346L206.404 46.2231C206.372 48.6091 205.551 104.733 205.551 106.417C205.551 107.936 206.41 109.014 206.833 109.454V113.811H208.115V108.886L207.884 108.695V108.688Z" fill="#DBEEFF"/>
<path d="M209.902 78.5562L204.295 78.6583C204.295 78.6583 202.501 79.1878 202.604 81.3953C202.713 83.6091 203.136 89.3956 203.136 89.3956L209.8 89.0766L209.691 84.3364C209.691 84.3364 211.382 83.7048 211.491 81.5994C211.594 79.4941 211.28 78.6519 209.902 78.5435V78.5562Z" fill="white"/>
<path d="M204.084 86.9777L208.102 86.665V87.9283L204.193 88.1388L204.084 86.9777Z" fill="#3A394D"/>
<path d="M209.05 83.5644C208.928 83.5644 208.807 83.5197 208.717 83.424C208.64 83.3475 207.941 82.6074 207.941 81.0826C207.941 79.5578 209.537 78.2308 209.607 78.1798C209.813 78.0139 210.114 78.0522 210.28 78.2564C210.447 78.4669 210.408 78.7667 210.203 78.9262C210.191 78.939 208.903 79.9598 208.903 81.0763C208.903 82.1927 209.383 82.7223 209.402 82.7414C209.582 82.9328 209.575 83.2327 209.39 83.4177C209.293 83.507 209.172 83.5516 209.05 83.5516V83.5644Z" fill="#B6C0BF"/>
<path d="M184.88 114.335C184.617 114.335 184.399 114.124 184.399 113.856C184.399 113.595 184.611 113.378 184.88 113.378L228.023 113.167C228.286 113.167 228.504 113.378 228.504 113.646C228.504 113.907 228.292 114.124 228.023 114.124L184.88 114.335Z" fill="#393F60"/>
<path d="M206.833 135.816C206.583 135.816 206.372 135.624 206.352 135.375L205.718 127.375L203.187 121.71C203.078 121.467 203.187 121.187 203.43 121.078C203.668 120.97 203.956 121.078 204.065 121.321L206.628 127.062C206.654 127.113 206.666 127.164 206.666 127.222L207.307 135.305C207.326 135.567 207.128 135.796 206.865 135.822C206.852 135.822 206.839 135.822 206.827 135.822L206.833 135.816Z" fill="#393F60"/>
<path d="M181.413 78.1861C181.176 78.1861 180.971 78.0139 180.939 77.7778C180.727 76.3168 179.882 71.4618 179.875 71.4107C179.83 71.1491 180.003 70.9003 180.266 70.8557C180.529 70.811 180.779 70.9833 180.824 71.2448C180.856 71.4426 181.682 76.1573 181.894 77.6375C181.932 77.8991 181.746 78.1415 181.484 78.1798C181.458 78.1798 181.439 78.1798 181.413 78.1798V78.1861Z" fill="#393F60"/>
<path d="M245.222 98.4359C245.222 108.184 237.283 116.089 227.492 116.089C217.701 116.089 209.761 108.184 209.761 98.4359C209.761 88.6875 217.701 80.7828 227.492 80.7828C237.283 80.7828 245.222 88.6875 245.222 98.4359Z" fill="#FF7745"/>
<path d="M227.645 103.227C228.152 99.4439 227.633 94.6463 224.243 92.2602C221.584 90.3845 217.963 91.552 215.368 92.9109C213.337 93.9764 211.434 95.4438 209.813 97.1536C209.787 97.4917 209.774 97.8298 209.768 98.1743C211.383 96.3561 213.324 94.8121 215.413 93.6191C218.252 91.9922 222.103 90.9651 224.73 93.4915C228.344 96.9622 227.152 103.029 226.255 107.31C225.659 110.149 225.012 113.09 225.223 115.942C225.428 115.968 225.633 115.993 225.845 116.012C225.467 111.808 227.094 107.349 227.645 103.234V103.227Z" fill="#66403B"/>
<path d="M216.765 84.3875C216.496 84.5916 216.24 84.8021 215.983 85.0191C229.337 84.7639 238.507 100.943 236.507 113.639C236.738 113.505 236.969 113.358 237.193 113.212C238.872 100.452 229.92 84.7575 216.765 84.3875Z" fill="#66403B"/>
<path d="M245.216 98.2062C245.011 97.8234 244.793 97.447 244.556 97.0834C243.133 94.8759 241.012 93.3894 238.661 92.2921C236.194 91.1437 233.406 90.4037 231.33 88.5599C229.933 87.3222 230.004 85.2679 230.677 83.6857C231.067 82.767 231.792 82.0779 232.625 81.5356C232.381 81.4591 232.138 81.3953 231.888 81.3315C230.721 82.2374 229.901 83.4368 229.626 85.0573C229.228 87.4434 230.593 89.0384 232.522 90.1867C235.553 91.9922 239.09 92.7259 241.858 94.9844C243.345 96.1966 244.376 97.7788 245.19 99.495C245.209 99.1441 245.222 98.7932 245.222 98.4359C245.222 98.3594 245.222 98.2828 245.222 98.2062H245.216Z" fill="#66403B"/>
<path d="M231.785 77.7971C231.785 77.7971 231.728 77.7971 231.696 77.7907C231.332 77.7099 231.429 75.1834 231.984 70.2114C232.016 69.9498 232.247 69.7648 232.516 69.7903C232.778 69.8222 232.971 70.0583 232.939 70.3198C232.682 72.6102 232.298 76.285 232.266 77.108C232.304 77.2101 232.311 77.3249 232.272 77.4334C232.202 77.6376 231.99 77.7971 231.779 77.7971H231.785Z" fill="#3D302A"/>
<path d="M227.389 106.864C227.389 106.864 222.289 108.937 220.392 109.275C218.495 109.613 222.218 111.228 225.051 110.602C225.051 110.602 222.744 115.866 221.821 117.435C220.898 119.005 224.429 117.869 226.332 114.06C226.332 114.06 224.006 118.041 223.878 118.335C223.75 118.628 225.877 119.898 228.331 114.813L226.396 118.96C226.396 118.96 228.652 119.126 230.638 115.119L229.324 119.19C229.324 119.19 233.836 117.671 236.476 110.577L232.221 106.991L227.383 106.864H227.389Z" fill="#FCA68F"/>
<path d="M225.461 47.2948C225.461 47.2948 230.375 49.2088 237.206 55.1612C244.043 61.1136 256.859 70.9004 257.499 77.0633C258.14 83.2263 256.006 87.9091 252.373 92.375C248.74 96.8409 235.284 114.705 235.284 114.067C235.284 113.429 227.601 106.781 227.601 106.781C227.601 106.781 239.34 83.8643 239.558 82.5883C239.769 81.3123 226.742 75.3599 226.742 75.3599C226.742 75.3599 225.249 71.1045 224.82 63.2381C224.391 55.3717 225.461 47.2885 225.461 47.2885V47.2948Z" fill="#575D7D"/>
<path d="M208.21 110.098C200.002 110.098 183.624 109.881 182.733 109.869C182.47 109.869 182.252 109.645 182.259 109.384C182.259 109.122 182.477 108.912 182.739 108.912C192.492 109.039 211.292 109.243 212.619 109.078C212.881 109.046 213.125 109.231 213.157 109.492C213.189 109.754 213.003 109.996 212.74 110.028C212.35 110.079 210.632 110.098 208.21 110.098Z" fill="#393F60"/>
<path d="M187.161 113.862C186.911 113.862 186.7 113.665 186.68 113.409L186.469 109.582C186.456 109.32 186.655 109.09 186.924 109.078C187.18 109.071 187.417 109.263 187.43 109.531L187.641 113.358C187.654 113.62 187.456 113.85 187.187 113.862C187.18 113.862 187.167 113.862 187.161 113.862Z" fill="#393F60"/>
<path d="M192.178 114.181C191.928 114.181 191.71 113.984 191.698 113.729L191.486 109.901C191.473 109.639 191.672 109.409 191.941 109.397C192.191 109.384 192.435 109.582 192.447 109.85L192.659 113.677C192.672 113.939 192.473 114.169 192.204 114.181C192.191 114.181 192.185 114.181 192.178 114.181Z" fill="#393F60"/>
<path d="M196.773 114.181C196.773 114.181 196.766 114.181 196.76 114.181C196.497 114.175 196.286 113.958 196.292 113.69L196.401 109.652C196.401 109.39 196.619 109.186 196.882 109.186H196.894C197.157 109.192 197.369 109.416 197.362 109.677L197.253 113.716C197.247 113.977 197.029 114.181 196.773 114.181Z" fill="#393F60"/>
<path d="M201.258 114.181C201.258 114.181 201.252 114.181 201.245 114.181C200.983 114.175 200.771 113.952 200.778 113.69L200.887 109.971C200.893 109.709 201.098 109.486 201.38 109.505C201.643 109.511 201.854 109.735 201.848 109.996L201.739 113.716C201.732 113.977 201.514 114.181 201.258 114.181Z" fill="#393F60"/>
<path d="M206.173 114.079C205.93 114.079 205.718 113.894 205.692 113.639L205.372 109.92C205.346 109.658 205.545 109.422 205.808 109.403C206.083 109.377 206.308 109.575 206.327 109.837L206.647 113.556C206.673 113.818 206.474 114.054 206.211 114.073C206.199 114.073 206.186 114.073 206.167 114.073L206.173 114.079Z" fill="#393F60"/>
<path d="M211.62 113.543C211.363 113.543 211.146 113.339 211.139 113.084L211.03 110.003C211.024 109.741 211.229 109.518 211.492 109.505C211.78 109.492 211.979 109.703 211.991 109.964L212.1 113.046C212.107 113.307 211.902 113.531 211.639 113.543C211.639 113.543 211.626 113.543 211.62 113.543Z" fill="#393F60"/>
<path d="M138.083 16.1292C138.083 16.1292 141.402 15.1786 145.035 17.3095C148.669 19.434 150.802 24.7548 151.014 26.6687C151.225 28.5827 159.773 29.2207 157.851 37.7251C157.851 37.7251 167.463 40.277 167.033 47.7223C167.033 47.7223 176.004 53.8916 168.315 64.0994C160.625 74.3072 140.761 66.6514 140.761 66.6514L138.628 53.0431L138.083 17.1819" fill="#3D302A"/>
<path d="M138.915 16.1292C138.915 16.1292 135.59 15.1786 131.963 17.3095C128.33 19.434 126.196 24.7548 125.984 26.6687C125.773 28.5827 117.225 29.2207 119.147 37.7251C119.147 37.7251 109.536 40.277 109.965 47.7223C109.965 47.7223 100.994 53.8916 108.683 64.0994C116.373 74.3072 136.237 66.6514 136.237 66.6514L138.37 53.0431L138.915 17.1819" fill="#3D302A"/>
<path d="M117.597 164.257L121.012 218.058C121.012 218.058 115.886 220.183 116.738 221.459C117.591 222.735 131.476 222.945 134.251 217.42L135.744 165.954L130.406 160.212L117.591 164.251L117.597 164.257Z" fill="#FCA68F"/>
<path d="M157.326 164.257L153.91 218.058C153.91 218.058 159.036 220.183 158.184 221.459C157.332 222.735 143.446 222.945 140.672 217.42L139.179 165.954L144.516 160.212L157.332 164.251L157.326 164.257Z" fill="#FCA68F"/>
<path d="M115.034 114.073C115.034 114.073 114.996 114.449 114.931 115.151C114.284 122.048 110.741 160.04 110.548 168.729C110.548 168.729 135.751 170.854 166.726 168.729C166.726 168.729 163.734 133.002 162.241 117.052C160.748 101.103 154.763 103.865 154.763 103.865L124.857 106.207" fill="#3A394D"/>
<path d="M120.59 109.818C120.59 109.818 141.947 110.028 149.636 109.607C157.325 109.18 157.325 97.9128 157.325 97.9128C157.325 97.9128 157.325 61.12 157.966 60.4821C158.607 59.8441 152.84 50.4848 152.84 50.4848L145.791 44.7429L143.119 43.1479L138.634 48.4624L133.719 42.931L131.047 44.7365C131.047 44.7365 125.492 52.0734 125.171 53.9873C124.851 55.9013 120.577 109.811 120.577 109.811L120.59 109.818Z" fill="white"/>
<path d="M150.091 29.4695V26.337C149.521 20.6079 144.523 16.1292 138.429 16.1292C132.335 16.1292 127.337 20.6079 126.767 26.337V29.1186L150.084 29.4695H150.091Z" fill="#3D302A"/>
<path d="M150.091 28.7039V31.4855C149.521 37.2147 144.516 41.6933 138.429 41.6933C132.341 41.6933 127.337 37.2147 126.767 31.4855V28.353L150.084 28.7039H150.091Z" fill="#3D302A"/>
<path d="M143.023 44.0858V37.6613H133.841V44.0858L138.486 49.3428L143.023 44.0858Z" fill="#FCA68F"/>
<path d="M149.456 27.5874H148.912C148.399 22.4389 143.901 18.4132 138.429 18.4132C132.957 18.4132 128.458 22.4389 127.946 27.5874H127.401C125.613 27.5874 124.165 29.0038 124.165 30.7455C124.165 32.4872 125.613 33.9035 127.401 33.9035H128.074C128.984 38.6246 133.271 41.8528 138.422 41.8528C143.574 41.8528 147.867 38.6246 148.771 33.9035H149.444C151.231 33.9035 152.68 32.4872 152.68 30.7455C152.68 29.0038 151.231 27.5874 149.444 27.5874H149.456Z" fill="#FCA68F"/>
<path d="M137.628 33.0997C137.506 33.0997 137.385 33.055 137.288 32.9593C137.103 32.7743 137.103 32.468 137.288 32.283L137.929 31.645V30.8986C137.929 30.637 138.147 30.4201 138.41 30.4201C138.673 30.4201 138.89 30.637 138.89 30.8986V31.8428C138.89 31.9704 138.839 32.0916 138.749 32.181L137.968 32.9593C137.872 33.055 137.75 33.0997 137.628 33.0997Z" fill="#3D302A"/>
<path d="M135.705 30.6944C135.705 31.2431 135.263 31.6833 134.712 31.6833C134.161 31.6833 133.719 31.2431 133.719 30.6944C133.719 30.1457 134.161 29.7119 134.712 29.7119C135.263 29.7119 135.705 30.1521 135.705 30.6944Z" fill="#3D302A"/>
<path d="M143.139 30.6944C143.139 31.2431 142.697 31.6833 142.146 31.6833C141.595 31.6833 141.152 31.2431 141.152 30.6944C141.152 30.1457 141.595 29.7119 142.146 29.7119C142.697 29.7119 143.139 30.1521 143.139 30.6944Z" fill="#3D302A"/>
<path d="M134.539 34.2736C134.539 35.473 133.559 36.4491 132.354 36.4491C131.15 36.4491 130.169 35.473 130.169 34.2736C130.169 33.0741 131.15 32.098 132.354 32.098C133.559 32.098 134.539 33.0741 134.539 34.2736Z" fill="#F78A73"/>
<path d="M146.695 34.2736C146.695 35.473 145.721 36.4491 144.51 36.4491C143.299 36.4491 142.325 35.473 142.325 34.2736C142.325 33.0741 143.305 32.098 144.51 32.098C145.715 32.098 146.695 33.0741 146.695 34.2736Z" fill="#F78A73"/>
<path d="M140.64 36.7553C140.992 36.2959 141.204 35.7218 141.204 35.0965V35.0455L138.442 34.8605L135.674 35.0455V35.0965C135.674 35.7218 135.885 36.2959 136.238 36.7553C136.834 36.2577 137.602 36.4044 138.442 36.4044C139.281 36.4044 140.05 36.2577 140.646 36.7553H140.64Z" fill="#3D302A"/>
<path d="M138.429 37.8462C139.333 37.8462 140.127 37.4188 140.633 36.7553C140.037 36.2576 139.268 35.9642 138.429 35.9642C137.59 35.9642 136.821 36.264 136.225 36.7553C136.731 37.4188 137.526 37.8462 138.429 37.8462Z" fill="#FF5F4B"/>
<path d="M141.197 34.2416H135.667V35.0455H141.197V34.2416Z" fill="white"/>
<path d="M127.126 32.7871C126.036 32.7871 125.152 31.9066 125.152 30.8221C125.152 29.7375 126.036 28.8571 127.126 28.8571C127.388 28.8571 127.606 29.074 127.606 29.3355C127.606 29.5971 127.388 29.814 127.126 29.814C126.568 29.814 126.113 30.267 126.113 30.8221C126.113 31.3771 126.568 31.8301 127.126 31.8301C127.388 31.8301 127.606 32.047 127.606 32.3086C127.606 32.5701 127.388 32.7871 127.126 32.7871Z" fill="#3D302A"/>
<path d="M149.739 32.7871C149.476 32.7871 149.258 32.5701 149.258 32.3086C149.258 32.047 149.476 31.8301 149.739 31.8301C150.296 31.8301 150.751 31.3771 150.751 30.8221C150.751 30.267 150.296 29.814 149.739 29.814C149.476 29.814 149.258 29.5971 149.258 29.3355C149.258 29.074 149.476 28.8571 149.739 28.8571C150.828 28.8571 151.713 29.7375 151.713 30.8221C151.713 31.9066 150.828 32.7871 149.739 32.7871Z" fill="#3D302A"/>
<path d="M149.418 25.4629C148.873 24.3975 147.784 21.4245 146.695 20.7865C145.605 20.1485 141.364 17.705 140.274 17.5965C139.967 17.5646 139.659 17.5264 139.371 17.5008C139.191 17.3095 138.845 17.1755 138.435 17.1755C138.025 17.1755 137.679 17.3095 137.5 17.5008C137.211 17.5327 136.904 17.571 136.596 17.5965C135.507 17.705 131.259 20.1485 130.169 20.7865C129.08 21.4245 127.991 24.4039 127.446 25.4629C126.901 26.5284 127.721 27.53 127.721 27.53C130.72 28.5316 133.322 23.9764 134.738 21.4245C135.93 19.2745 137.852 19.989 138.429 20.2697C139.005 19.989 140.928 19.2745 142.12 21.4245C143.536 23.9764 146.137 28.538 149.136 27.53C149.136 27.53 149.956 26.5284 149.412 25.4629H149.418Z" fill="#3D302A"/>
<path d="M112.041 63.455L111.83 69.4075C111.618 75.3599 108.197 98.7549 107.985 106.621C107.774 114.488 108.838 120.23 109.478 120.446C110.119 120.657 127.849 121.512 127.849 121.512C128.919 120.236 130.201 79.6153 130.201 66.8555C130.201 54.0958 131.053 44.7365 131.053 44.7365C131.053 44.7365 118.667 48.137 110.978 56.6477L112.048 63.455H112.041Z" fill="#B8516F"/>
<path d="M164.797 63.455L165.008 69.4075C165.22 75.3599 168.642 98.7549 168.853 106.621C169.065 114.488 168.001 120.23 167.36 120.446C166.719 120.657 148.989 121.512 148.989 121.512C147.919 120.236 146.638 79.6153 146.638 66.8555C146.638 54.0958 145.785 44.7365 145.785 44.7365C145.785 44.7365 158.171 48.137 165.861 56.6477L164.791 63.455H164.797Z" fill="#B8516F"/>
<path d="M118.237 56.4372L110.977 56.6477C110.977 56.6477 103.718 63.4551 98.8028 76.2148C93.8881 88.9745 95.3875 100.248 106.921 104.497C106.921 104.497 109.914 105.345 111.618 103.431C113.323 101.517 114.822 77.7013 114.822 77.7013L118.237 56.4372Z" fill="#B8516F"/>
<path d="M156.684 103.438L147.073 63.8825L120.577 70.2879L130.105 110.009L156.684 103.438Z" fill="#ADC2B4"/>
<path d="M126.568 110.883L130.105 110.009L120.577 70.2879L117.168 71.1109L126.568 110.883Z" fill="#6FA49F"/>
<path d="M158.819 56.4372L166.079 56.6477C166.079 56.6477 173.339 63.4551 178.254 76.2148C183.168 88.9745 181.669 100.248 170.135 104.497C170.135 104.497 167.143 105.345 165.438 103.431C163.727 101.517 162.234 77.7013 162.234 77.7013L158.819 56.4372Z" fill="#B8516F"/>
<path d="M129.849 93.5553C129.849 93.5553 125.197 90.6142 123.819 89.2744C122.448 87.9283 123.281 91.8838 125.434 93.8297C125.434 93.8297 119.789 95.0036 117.969 95.1694C116.149 95.3289 119.122 97.5364 123.345 96.8729C123.345 96.8729 118.738 97.2876 118.43 97.3577C118.116 97.4215 118.308 99.8842 123.89 98.9336L119.372 99.763C119.372 99.763 120.545 101.69 124.979 100.988L120.884 102.277C120.884 102.277 124.742 105.058 132.079 103.093L132.553 97.5619L129.855 93.5617L129.849 93.5553Z" fill="#FCA68F"/>
<path d="M168.218 76.2148L170.993 82.5947L175.478 92.5919C175.478 92.5919 176.119 102.8 170.141 104.503C164.162 106.207 131.694 103.438 131.694 103.438L129.984 94.2953L165.015 88.5534L168.218 76.2212V76.2148Z" fill="#B8516F"/>
<path d="M140.665 88.2345C140.665 88.2345 144.619 84.4065 145.683 82.8116C146.753 81.2166 146.753 85.2551 145.042 87.5965C145.042 87.5965 150.809 87.5965 152.622 87.386C154.436 87.1754 151.981 89.9379 147.707 90.1484C147.707 90.1484 152.302 89.6189 152.622 89.6189C152.943 89.6189 153.263 92.0624 147.605 92.2793L152.199 92.1709C152.199 92.1709 151.45 94.2954 146.964 94.5123L151.238 94.9397C151.238 94.9397 148.034 98.4486 140.454 98.0212L138.852 92.7068L140.665 88.2409V88.2345Z" fill="#FCA68F"/>
<path d="M107.556 86.0015L141.728 87.2775C141.728 87.2775 140.876 94.7228 140.876 98.3338C140.876 98.3338 118.237 106.628 107.767 104.503C97.3033 102.379 105.633 88.764 105.633 88.764L107.556 86.0015Z" fill="#B8516F"/>
<path d="M120.198 87.067H120.173L107.53 86.4737C107.268 86.4609 107.063 86.2376 107.075 85.9697C107.088 85.7081 107.332 85.5039 107.575 85.5167L120.218 86.11C120.48 86.1228 120.685 86.3461 120.673 86.6076C120.66 86.8628 120.448 87.0606 120.192 87.0606L120.198 87.067Z" fill="#6F3640"/>
<path d="M112.56 105.569C109.395 105.569 107.729 105.001 107.607 104.956C107.357 104.867 107.229 104.593 107.319 104.344C107.409 104.095 107.684 103.967 107.934 104.05C107.992 104.069 113.605 105.964 124.178 102.557C124.428 102.474 124.703 102.615 124.78 102.864C124.863 103.112 124.722 103.387 124.472 103.463C119.346 105.116 115.367 105.562 112.56 105.562V105.569Z" fill="#6F3640"/>
<path d="M112.74 86.3205C112.74 86.3205 112.721 86.3205 112.714 86.3205C112.452 86.3078 112.247 86.0781 112.259 85.8165L113.112 71.3534C113.124 71.0918 113.361 70.8876 113.618 70.9068C113.881 70.9195 114.086 71.1492 114.073 71.4108L113.221 85.8739C113.208 86.1291 112.996 86.3205 112.74 86.3205Z" fill="#6F3640"/>
<path d="M154.763 90.3079C154.532 90.3079 154.327 90.1421 154.289 89.906C154.244 89.6444 154.423 89.402 154.686 89.3573C154.801 89.3382 166.463 87.437 169.622 86.8118C169.885 86.7607 170.135 86.9266 170.186 87.1882C170.237 87.4498 170.071 87.6986 169.808 87.7496C166.63 88.3812 154.955 90.2824 154.84 90.3016C154.814 90.3016 154.788 90.3016 154.763 90.3016V90.3079Z" fill="#6F3640"/>
<path d="M161.978 105.709C160.318 105.709 159.126 105.626 158.998 105.613C158.736 105.594 158.537 105.364 158.556 105.103C158.575 104.841 158.806 104.644 159.069 104.663C159.152 104.663 167.521 105.262 171.41 103.227C171.647 103.106 171.935 103.195 172.057 103.425C172.179 103.661 172.089 103.948 171.859 104.069C169.231 105.447 164.887 105.709 161.978 105.709Z" fill="#6F3640"/>
<path d="M164.157 88.394C163.913 88.394 163.708 88.209 163.676 87.9665L161.754 69.6754C161.728 69.4139 161.92 69.1778 162.183 69.1523C162.446 69.1332 162.683 69.3182 162.708 69.5798L164.631 87.8708C164.656 88.1324 164.464 88.3685 164.201 88.394C164.182 88.394 164.169 88.394 164.15 88.394H164.157Z" fill="#6F3640"/>
<path d="M144.228 54.1085C142.978 54.1085 139.691 51.3907 138.474 50.3444C137.557 51.1929 134.93 53.5216 133.251 53.9873C132.508 54.1915 131.861 54.1341 131.342 53.8151C130.599 53.3557 130.426 52.5391 130.406 52.4434C130.355 52.1818 130.528 51.933 130.791 51.882C131.054 51.8309 131.304 52.0032 131.355 52.2584C131.355 52.2775 131.47 52.7624 131.861 52.9984C132.143 53.1707 132.521 53.1898 132.995 53.0559C134.475 52.6476 137.205 50.236 138.128 49.3428C138.307 49.1705 138.589 49.1641 138.781 49.3236C140.87 51.161 143.549 53.1388 144.228 53.1388C145.099 53.1388 145.349 52.0734 145.362 52.0287C145.42 51.7735 145.676 51.6076 145.932 51.6651C146.189 51.7225 146.355 51.9713 146.298 52.2329C146.157 52.8772 145.548 54.1022 144.228 54.1022V54.1085Z" fill="#BCBCBC"/>
<path d="M182.957 45.8849C182.957 45.8849 180.798 46.3315 181.24 49.3237C181.682 52.3094 183.54 53.8853 184.796 53.8534C186.052 53.8215 186.872 52.6795 186.02 49.7383C185.162 46.7972 184.155 45.3362 182.957 45.8849Z" fill="#FCA68F"/>
<path d="M186.257 44.3601C186.257 44.3601 184.098 44.8131 184.54 47.7989C184.982 50.7911 186.84 52.3605 188.096 52.3286C189.352 52.2967 190.172 51.1547 189.32 48.2136C188.468 45.2661 187.462 43.8115 186.257 44.3601Z" fill="#FCA68F"/>
<path d="M189.762 42.7205C189.762 42.7205 187.603 43.1671 188.045 46.1593C188.487 49.1515 190.345 50.7209 191.601 50.689C192.857 50.6571 193.677 49.5151 192.825 46.574C191.967 43.6329 190.967 42.1719 189.762 42.7205Z" fill="#FCA68F"/>
<path d="M192.851 41.2212C192.851 41.2212 190.691 41.6678 191.134 44.66C191.576 47.6457 193.434 49.2216 194.69 49.1897C195.946 49.1578 196.766 48.0158 195.914 45.0747C195.062 42.1335 194.056 40.6725 192.851 41.2212Z" fill="#FCA68F"/>
<path d="M186.059 51.276C185.898 51.276 185.738 51.193 185.649 51.0463C184.034 48.4369 184.117 46.5038 184.123 46.4209C184.136 46.1593 184.361 45.9552 184.63 45.9679C184.892 45.9807 185.097 46.204 185.085 46.4719C185.085 46.5166 185.04 48.2264 186.469 50.5487C186.61 50.772 186.539 51.0718 186.309 51.2058C186.232 51.2568 186.142 51.276 186.059 51.276Z" fill="#F96557"/>
<path d="M189.461 49.6363C189.295 49.6363 189.128 49.547 189.045 49.3939C187.75 47.1226 187.449 45.1576 187.436 45.0747C187.398 44.8131 187.577 44.5707 187.84 44.5324C188.103 44.4878 188.346 44.6728 188.385 44.9343C188.385 44.9535 188.686 46.8164 189.884 48.9281C190.012 49.1578 189.935 49.4513 189.698 49.5789C189.621 49.6236 189.544 49.6427 189.461 49.6427V49.6363Z" fill="#F96557"/>
<path d="M193.049 48.6666C192.909 48.6666 192.768 48.6028 192.671 48.4816C191.153 46.5676 190.653 43.0842 190.627 42.9311C190.589 42.6695 190.775 42.4271 191.037 42.3888C191.3 42.3569 191.544 42.5356 191.582 42.7971C191.582 42.829 192.069 46.1721 193.428 47.8819C193.594 48.086 193.556 48.3923 193.351 48.5518C193.261 48.6219 193.158 48.6538 193.056 48.6538L193.049 48.6666Z" fill="#F96557"/>
<path d="M268.855 37.17H264.69V50.4083H268.855V37.17Z" fill="#51689A"/>
<path d="M266.772 42.9948C267.261 42.9948 267.656 42.6007 267.656 42.1144C267.656 41.6282 267.261 41.234 266.772 41.234C266.284 41.234 265.888 41.6282 265.888 42.1144C265.888 42.6007 266.284 42.9948 266.772 42.9948Z" fill="white"/>
<path d="M266.772 47.6203C267.261 47.6203 267.656 47.2261 267.656 46.7399C267.656 46.2536 267.261 45.8594 266.772 45.8594C266.284 45.8594 265.888 46.2536 265.888 46.7399C265.888 47.2261 266.284 47.6203 266.772 47.6203Z" fill="white"/>
<path d="M256.744 7.05705C256.744 7.05705 254.61 5.67261 252.579 5.99161C252.579 5.99161 254.501 7.47812 254.501 9.92799C254.501 12.3779 255.251 12.3715 255.251 12.3715L256.744 7.05705Z" fill="#3D302A"/>
<path d="M258.794 5.99161C258.794 5.99161 256.872 6.20214 254.95 8.65201C253.027 11.1019 253.668 17.9028 255.161 19.8168C256.654 21.7307 263.062 12.2694 263.062 12.2694L258.788 5.99799L258.794 5.99161Z" fill="#3D302A"/>
<path d="M274.263 5.99161C274.263 5.99161 276.185 6.20214 278.108 8.65201C280.03 11.1019 279.389 17.9028 277.896 19.8168C276.403 21.7307 269.995 12.2694 269.995 12.2694L274.269 5.99799L274.263 5.99161Z" fill="#3D302A"/>
<path d="M255.783 7.4845C255.783 7.4845 254.072 4.72202 254.29 1.95315C254.29 1.95315 256.962 3.43966 260.377 2.6996C263.792 1.95315 268.598 1.21309 273.301 3.33759C277.998 5.46208 277.255 10.885 276.935 12.0589C276.614 13.2264 258.673 12.4863 255.789 7.4845H255.783Z" fill="#3D302A"/>
<path d="M278.658 19.2426C278.658 25.6799 273.244 25.5651 266.567 25.5651C259.89 25.5651 254.476 25.6863 254.476 19.2426V15.2552C254.476 8.81151 259.89 3.59277 266.567 3.59277C273.244 3.59277 278.658 8.81151 278.658 15.2552V19.2426Z" fill="#3D302A"/>
<path d="M272.462 33.9928V26.4263H260.672V33.9928L266.605 38.2035L272.462 33.9928Z" fill="#FCA68F"/>
<path d="M278.184 16.7162H277.659V16.6396C277.659 10.7255 272.693 5.93417 266.561 5.93417C260.428 5.93417 255.462 10.7255 255.462 16.6396V16.7162H254.943C253.059 16.7162 251.534 18.209 251.534 20.0464C251.534 21.8839 253.059 23.3767 254.943 23.3767H255.943C257.327 27.6832 261.556 30.637 266.561 30.637C271.565 30.637 275.8 27.6832 277.178 23.3767H278.178C280.062 23.3767 281.587 21.8839 281.587 20.0464C281.587 18.209 280.062 16.7162 278.178 16.7162H278.184Z" fill="#FCA68F"/>
<path d="M265.228 21.131C265.228 21.131 265.202 21.131 265.189 21.131C264.926 21.1055 264.728 20.8758 264.753 20.6143C264.837 19.6318 265.503 19.1979 266.073 19.0512V18.4706C266.073 18.209 266.291 17.9921 266.554 17.9921C266.817 17.9921 267.035 18.209 267.035 18.4706V19.4659C267.035 19.7275 266.817 19.9444 266.554 19.9444C266.426 19.9444 265.772 19.9954 265.715 20.6972C265.695 20.946 265.484 21.1374 265.234 21.1374L265.228 21.131Z" fill="#3D302A"/>
<path d="M263.696 18.2409C263.696 18.8151 263.228 19.2809 262.652 19.2809C262.075 19.2809 261.607 18.8151 261.607 18.2409C261.607 17.6667 262.075 17.201 262.652 17.201C263.228 17.201 263.696 17.6667 263.696 18.2409Z" fill="#3D302A"/>
<path d="M271.527 18.2409C271.527 18.8151 271.059 19.2809 270.482 19.2809C269.906 19.2809 269.438 18.8151 269.438 18.2409C269.438 17.6667 269.906 17.201 270.482 17.201C271.059 17.201 271.527 17.6667 271.527 18.2409Z" fill="#3D302A"/>
<path d="M262.466 22.3878C262.466 23.6511 261.434 24.6782 260.165 24.6782C258.897 24.6782 257.865 23.6511 257.865 22.3878C257.865 21.1246 258.89 20.0975 260.165 20.0975C261.441 20.0975 262.466 21.1246 262.466 22.3878Z" fill="#F78A73"/>
<path d="M275.269 22.3878C275.269 23.6511 274.237 24.6782 272.968 24.6782C271.7 24.6782 270.668 23.6511 270.668 22.3878C270.668 21.1246 271.7 20.0975 272.968 20.0975C274.237 20.0975 275.269 21.1246 275.269 22.3878Z" fill="#F78A73"/>
<path d="M278.518 21.9349C278.255 21.9349 278.037 21.718 278.037 21.4564C278.037 21.1948 278.255 20.9779 278.518 20.9779C279.075 20.9779 279.53 20.5249 279.53 19.9699C279.53 19.4148 279.075 18.9619 278.518 18.9619C278.255 18.9619 278.037 18.7449 278.037 18.4834C278.037 18.2218 278.255 18.0049 278.518 18.0049C279.607 18.0049 280.491 18.8853 280.491 19.9699C280.491 21.0545 279.607 21.9349 278.518 21.9349Z" fill="#3D302A"/>
<path d="M254.616 21.9349C253.527 21.9349 252.643 21.0545 252.643 19.9699C252.643 18.8853 253.527 18.0049 254.616 18.0049C254.879 18.0049 255.097 18.2218 255.097 18.4834C255.097 18.7449 254.879 18.9619 254.616 18.9619C254.059 18.9619 253.604 19.4148 253.604 19.9699C253.604 20.5249 254.059 20.9779 254.616 20.9779C254.879 20.9779 255.097 21.1948 255.097 21.4564C255.097 21.718 254.879 21.9349 254.616 21.9349Z" fill="#3D302A"/>
<path d="M269.066 25.1822C269.463 24.6591 269.707 24.0083 269.707 23.3001V23.2427L266.567 23.0322L263.427 23.2427V23.3001C263.427 24.0083 263.664 24.6591 264.061 25.1822C264.741 24.6208 265.612 24.7867 266.56 24.7867C267.509 24.7867 268.387 24.6208 269.06 25.1822H269.066Z" fill="#3D302A"/>
<path d="M266.567 26.4263C267.592 26.4263 268.496 25.9351 269.066 25.1822C268.387 24.6208 267.515 24.2827 266.567 24.2827C265.619 24.2827 264.741 24.6208 264.068 25.1822C264.638 25.9351 265.548 26.4263 266.567 26.4263Z" fill="#FF5F4B"/>
<path d="M269.707 22.3368H263.427V23.2491H269.707V22.3368Z" fill="white"/>
<path d="M275.276 10.9679C275.276 10.9679 276.512 14.5406 276.903 17.2712C276.903 17.2712 277.352 17.2457 277.71 16.6396C278.076 16.0335 278.076 14.1514 278.076 14.1514L276.967 10.5787L275.276 10.9679Z" fill="#3D302A"/>
<path d="M257.859 10.9679C257.859 10.9679 256.622 14.5406 256.231 17.2712C256.231 17.2712 255.783 17.2457 255.424 16.6396C255.059 16.0335 255.059 14.1514 255.059 14.1514L256.167 10.5787L257.865 10.9679H257.859Z" fill="#3D302A"/>
<path d="M256.424 11.2039C256.424 11.2039 259.627 11.4145 264.542 8.22454C264.542 8.22454 263.261 10.1385 263.792 10.4575C264.324 10.7765 269.559 8.22454 269.559 8.22454C269.559 8.22454 273.513 11.8419 275.967 11.8419C278.421 11.8419 274.897 8.12246 274.897 8.12246L267.208 3.5481C267.208 3.5481 259.307 4.07762 256.424 11.2039Z" fill="#3D302A"/>
<path d="M297.325 73.2928C297.325 73.2928 297.286 73.2928 297.267 73.2928C297.005 73.2609 296.819 73.0185 296.851 72.7569C297.011 71.4809 297.492 67.1809 297.492 67.1809L298.446 67.2894C298.446 67.2894 297.966 71.6022 297.806 72.8781C297.773 73.1206 297.568 73.2992 297.331 73.2992L297.325 73.2928Z" fill="#2C4778"/>
<path d="M304.694 57.6622C304.662 57.6622 304.623 57.6621 304.591 57.6494C304.335 57.592 304.168 57.3368 304.226 57.0816C304.47 55.9779 304.854 49.6618 305.014 46.4719C305.027 46.2103 305.264 46.0125 305.521 46.0189C305.783 46.0316 305.988 46.2613 305.975 46.5229C305.956 46.8993 305.488 55.8311 305.162 57.2857C305.11 57.509 304.912 57.6622 304.694 57.6622Z" fill="#2C4778"/>
<path d="M269.182 131.777C269.182 131.777 269.118 131.777 269.085 131.764C268.823 131.713 268.656 131.458 268.707 131.203C268.797 130.571 267.272 126.412 265.747 122.762C265.645 122.52 265.76 122.239 266.003 122.137C266.247 122.035 266.529 122.15 266.631 122.392C267.394 124.217 269.874 130.271 269.649 131.388C269.604 131.618 269.406 131.771 269.182 131.771V131.777Z" fill="#3D302A"/>
<path d="M267.111 38.5736L260.492 30.7072L257.071 33.0486L258.397 45.0619L267.111 38.5736Z" fill="#51689A"/>
<path d="M265.805 38.5736L272.424 30.7072L275.846 33.0486L274.577 44.4239L265.805 38.5736Z" fill="#51689A"/>
<path d="M296.325 124.97C296.229 124.97 296.127 124.938 296.037 124.874C290.18 120.555 289.264 115.221 289.225 114.998C289.187 114.737 289.36 114.494 289.623 114.449C289.892 114.411 290.129 114.583 290.174 114.845C290.18 114.896 291.084 120.032 296.607 124.109C296.819 124.268 296.863 124.568 296.71 124.778C296.614 124.906 296.473 124.97 296.325 124.97Z" fill="#3D302A"/>
<path d="M243.781 125.608C243.685 125.608 243.595 125.582 243.512 125.525C243.294 125.378 243.236 125.078 243.39 124.861C243.416 124.829 245.684 121.486 246.299 116.989C246.337 116.727 246.575 116.542 246.837 116.58C247.1 116.619 247.286 116.855 247.247 117.123C246.6 121.856 244.274 125.27 244.178 125.41C244.082 125.544 243.935 125.614 243.781 125.614V125.608Z" fill="#3D302A"/>
</svg>
